<svg width="24" height="24" viewBox="0 0 24 24" fill="none" xmlns="http://www.w3.org/2000/svg">
<path d="M14.2653 4C15.4003 4.00144 16.5094 4.35437 17.4526 5.01421C18.3957 5.67405 19.1306 6.6112 19.5643 7.70726C19.998 8.80332 20.1111 10.0091 19.8893 11.1723C19.6676 12.3355 19.1209 13.404 18.3183 14.2426C17.5158 15.0813 16.4933 15.6526 15.3802 15.8844C14.2671 16.1161 13.1132 15.9979 12.0644 15.5447C11.0155 15.0914 10.1187 14.3235 9.48729 13.338C8.85586 12.3524 8.51812 11.1933 8.51675 10.0073C8.51675 8.41405 9.1224 6.88607 10.2005 5.75949C11.2785 4.63291 12.7407 4 14.2653 4ZM4 20H6.78382V4H4V20Z" fill="currentColor"/>
</svg>
