<?xml version="1.0" encoding="UTF-8"?>
<svg id="eur-a" xmlns="http://www.w3.org/2000/svg" width="24" height="24" viewBox="0 0 24 24">
  <defs>
    <style>
      .eur-b {
        fill: #102a8d;
      }

      .eur-b, .eur-c {
        stroke-width: 0px;
      }

      .eur-c {
        fill: #f4ef0c;
      }
    </style>
  </defs>
  <circle class="eur-b" cx="12" cy="12" r="12"/>
  <path class="eur-c" d="m8,3.7c.1.3.2.6.3.9h.9c-.2.2-.5.4-.7.6,0,.3.2.6.3.9-.3-.2-.5-.4-.8-.6-.2.2-.5.3-.8.6.1-.3.2-.6.3-.9-.3-.2-.5-.4-.8-.6h1c.1-.3.2-.6.3-.9h0Z"/>
  <path class="eur-c" d="m5.9,9.1c-.3-.2-.5-.4-.8-.6-.2.1-.4.3-.6.4h-.1c0-.3.2-.5.3-.8-.3-.2-.5-.4-.8-.6h1c.1-.3.2-.6.3-.9.1.3.2.6.3.9h.9c-.2.2-.4.4-.7.6,0,.3.2.6.3.9h0Z"/>
  <path class="eur-c" d="m15.3,6.1c.1-.3.2-.6.3-.8-.3-.2-.5-.4-.8-.6h1c.1-.3.2-.6.3-.9.1.3.2.6.3.9h.9c-.2.2-.5.4-.7.6,0,.3.2.6.3.9-.3-.2-.5-.4-.8-.6-.3.1-.5.4-.8.5h0Z"/>
  <path class="eur-c" d="m19.2,7.6h.9c-.2.2-.5.4-.7.6,0,.3.2.5.2.9-.3-.2-.5-.3-.7-.5-.3.2-.5.3-.8.6.1-.3.2-.6.3-.9-.2-.2-.5-.4-.8-.6h.9c.1-.3.2-.6.3-.9.1.3.2.6.3.9h0Z"/>
  <path class="eur-c" d="m19.4,16.1c.1.3.2.6.3.9-.3-.2-.5-.4-.8-.6-.2.2-.5.3-.8.6.1-.3.2-.6.3-.9-.2-.2-.5-.3-.7-.5h0s.9,0,.9,0c.1-.3.2-.6.3-.9.1.3.2.6.3.9h.9c-.2.2-.5.4-.7.6h0Z"/>
  <path class="eur-c" d="m20.8,13.1c-.3-.2-.5-.4-.8-.6-.3.2-.5.3-.8.6.1-.3.2-.6.3-.9-.3-.2-.5-.4-.8-.6h1c.1-.3.2-.6.3-.8h0c0,.3.2.6.3.9h.9c-.2.2-.5.4-.7.6,0,.3.2.6.3.9h0Z"/>
  <path class="eur-c" d="m5.6,16.1c0,.3.2.6.3.9-.3-.2-.5-.4-.8-.6-.3.2-.5.4-.7.5h0c0-.3.2-.6.3-.9-.2-.2-.5-.3-.8-.6h1c0-.3.2-.6.3-.9.1.3.2.6.3.9h.9c-.2.2-.5.4-.7.6h0Z"/>
  <path class="eur-c" d="m4.4,11.6h.9c-.2.2-.5.4-.7.6,0,.3.2.6.3.9-.3-.2-.5-.4-.8-.6-.3.1-.5.4-.8.5.1-.3.2-.6.3-.9-.2-.2-.5-.4-.8-.6h1c.1-.3.2-.6.3-.9.1.3.2.6.3.9h0Z"/>
  <path class="eur-c" d="m12,18.6c.1.3.2.6.3.9h.9c-.2.2-.5.4-.7.6,0,.3.2.6.2.9-.3-.2-.5-.3-.7-.5-.3.1-.4.4-.8.4,0-.3.2-.5.3-.8-.3-.2-.5-.4-.8-.6h.9c.1-.3.2-.6.3-.9h0Z"/>
  <path class="eur-c" d="m16,17.6c.1.3.2.6.3.9h.9c-.2.2-.5.4-.7.6,0,.3.2.6.2.9-.3-.2-.5-.3-.7-.5-.3.1-.4.4-.8.4,0-.3.2-.5.3-.8-.3-.2-.5-.4-.8-.6h.9c.1-.3.2-.6.3-.9h0Z"/>
  <path class="eur-c" d="m12,2.7c.1.3.2.6.3.9h.9c-.2.2-.5.4-.7.6,0,.3.2.6.2.9-.3-.2-.5-.3-.7-.5-.3.1-.4.4-.8.4,0-.3.2-.5.3-.8-.3-.2-.5-.4-.8-.6h.9c.1-.3.2-.6.3-.9h0Z"/>
  <path class="eur-c" d="m8.5,19c0,.3.2.6.3.9-.3-.2-.5-.4-.8-.6-.3.2-.5.4-.7.5h0c0-.3.2-.6.3-.9-.2-.2-.5-.3-.8-.6h1c0-.3.2-.6.3-.9.1.3.2.6.3.9h.9c-.2.2-.5.4-.7.6h0Z"/>
</svg>