<svg xmlns="http://www.w3.org/2000/svg" height="24" viewBox="0 0 1000 600" width="24"><path d="m0 0h1000v600h-1000z" fill="#f00"/><path d="m526.46525 180.75826 3.44629-66.42209c.01837-.29652-.19463-.56688-.49821-.6142-.31024-.04954-.60008.15197-.668.45277l-17.03221 64.0199c-.05213.21468-.0937.42139-.12617.62847-.64388 4.09482 2.15374 7.93506 6.24854 8.57894 4.0937.64257 7.93449-2.15448 8.57725-6.2493.02209-.13249.03879-.26664.05251-.39449zm18.33574 5.60487 13.86017-65.05178c.06513-.29207-.10262-.59229-.39505-.68692-.29819-.09631-.61696.05622-.73108.34235l-26.89815 60.54001c-.08573.20504-.15883.40135-.2247.60212-1.27959 3.94119.87842 8.17499 4.82016 9.45513 3.94172 1.28033 8.17588-.87786 9.45509-4.82015.04193-.12878.07978-.25811.11356-.38076zm17.22428 8.42196 23.92741-62.05841c.1104-.27666-.00798-.60008-.28186-.74111-.27945-.14195-.61807-.04044-.77598.22453l-36.09329 55.55062c-.11671.18834-.21988.3713-.31562.55964-1.88395 3.69087-.41973 8.21005 3.27112 10.09455 3.6918 1.88616 8.21172.42084 10.09676-3.27096.06106-.12043.11895-.24197.17146-.35886zm15.68639 11.01156 33.34133-57.54981c.15197-.25718.08573-.59543-.16254-.77579-.25347-.18463-.60379-.13787-.80216.09982l-44.33914 49.21876c-.1451.16886-.27499.33345-.39857.50341-2.43948 3.35056-1.69948 8.04491 1.65107 10.48384 3.35092 2.43857 8.0449 1.69839 10.48438-1.65199.07942-.11059.15568-.22099.22563-.32824zm13.77482 13.31522 41.89223-51.65937c.19093-.23027.17795-.57392-.04045-.79102-.22081-.22303-.57485-.23101-.80624-.02783l-51.45997 41.7192c-.16941.14306-.32343.28557-.47224.43457-2.93082 2.93009-2.93082 7.68289 0 10.61206 2.93028 2.93195 7.68196 2.93195 10.61224 0 .0961-.09612.18871-.19354.27443-.28761zm11.53628 15.29453 49.42221-44.50975c.2236-.19781.26405-.53811.08369-.78676-.18463-.25421-.53217-.31785-.79306-.15252l-57.32664 33.20205c-.18947.11467-.36351.23083-.5344.35441-3.35055 2.43856-4.09018 7.13291-1.65161 10.4844 2.43947 3.35 7.1327 4.09111 10.48381 1.65162.10929-.0809.21617-.16143.316-.24345zm9.00755 16.91758 55.77598-36.23011c.25253-.16051.3466-.49228.2067-.76523-.14306-.27945-.47706-.39616-.76058-.27314l-61.81317 23.82449c-.2056.08312-.39616.17034-.58394.26608-3.69124 1.88412-5.1562 6.40535-3.27151 10.09678 1.88504 3.69087 6.40477 5.15508 10.09564 3.27058.12098-.06104.23937-.12636.35088-.18945zm6.23592 18.12963 60.78445-26.9971c.27352-.11894.41936-.43086.32362-.72274-.09686-.29818-.40768-.46593-.70697-.39078l-64.79411 13.796c-.21504.05195-.41748.10725-.61788.17293-3.94173 1.27978-6.09992 5.51339-4.81959 9.45569 1.27922 3.94118 5.51281 6.09918 9.45455 4.8196.12933-.04157.25551-.08629.37593-.1336zm3.30156 18.88687 64.27752-17.09126c.28891-.07404.48078-.35868.4329-.66224-.04843-.31025-.32972-.52531-.637-.49859l-66.15718 3.42423c-.22155.01725-.42938.04156-.63813.07311-4.09426.64424-6.89185 4.48504-6.24816 8.5793.64332 4.09427 4.48354 6.89243 8.57834 6.248.13398-.02096.26609-.04564.39171-.07255zm.31991 19.15259 66.1505-6.90561c.29763-.02783.5318-.27981.5318-.5869 0-.31415-.24419-.57021-.55239-.5897l-65.88685-6.88835c-.22099-.01837-.43085-.02783-.64183-.02783-4.1436 0-7.50418 3.36114-7.50418 7.50588 0 4.14362 3.36058 7.50364 7.50418 7.50364.13583 0 .27036-.00371.39877-.01113zm-2.64619 18.97279 66.42085 3.44556c.29762.01856.56798-.19446.61585-.49803.04899-.30987-.15252-.60064-.45386-.66911l-64.01868-17.03225c-.21579-.05103-.42195-.09259-.62959-.12618-4.0948-.64276-7.93502 2.1554-8.57834 6.25023-.64369 4.0937 2.1539 7.93376 6.24816 8.57819.13416.02097.2672.03841.39561.05159zm-5.6043 18.33466 65.05108 13.86056c.29151.06476.59118-.10298.68601-.39597.09722-.29781-.05642-.61604-.34255-.73016l-60.53933-26.89912c-.20503-.08424-.40136-.15791-.60212-.22415-3.94174-1.27866-8.17533.87841-9.45455 4.82127-1.28033 3.94062.87786 8.17368 4.81959 9.45494.12934.04156.25829.07941.38187.11263zm-8.42268 17.2243 62.05791 23.92691c.27778.11097.60009-.00742.74055-.28037.14269-.28093.04157-.61957-.22396-.77785l-55.55052-36.09243c-.18816-.11727-.37074-.22044-.55908-.31507-3.69087-1.8845-8.2106-.41973-10.09564 3.27114-1.88469 3.6918-.41973 8.21098 3.27151 10.09622.12098.06142.24251.11875.35923.17145zm-11.01136 15.68643 57.55024 33.3414c.25662.15252.59434.08628.77581-.16255.18406-.25254.1373-.60323-.10002-.80104l-49.22015-44.33923c-.16718-.14473-.33195-.2761-.50229-.39968-3.35111-2.43912-8.04434-1.69894-10.48325 1.65199-2.43913 3.35056-1.69894 8.04547 1.65141 10.48384.10948.07886.22044.15531.32825.22527zm-13.3152 13.77484 51.65983 41.89287c.22971.19038.57373.17684.79046-.041.22248-.22044.23102-.57485.02691-.80587l-41.71819-51.461c-.14362-.16941-.28519-.32287-.43493-.47131-2.93028-2.93065-7.68196-2.93065-10.61224 0-2.93082 2.93028-2.93082 7.68104 0 10.61224.09519.09631.19353.18723.28816.27407zm-15.29506 11.53686 44.51023 49.4212c.19724.22472.53848.26517.78731.08481.25347-.18519.31674-.53292.15197-.79324l-33.20198-57.32733c-.11467-.18815-.23083-.36332-.35441-.53273-2.43948-3.35204-7.13346-4.09111-10.48438-1.65273-3.35055 2.43911-4.09055 7.13235-1.65107 10.48402.07997.10985.16144.21655.24233.316zm-16.91642 9.00646 36.22948 55.7783c.15996.25181.49079.34551.76485.2056.27926-.1425.39598-.47594.27388-.76059l-23.82424-61.81384c-.08369-.20523-.17146-.39561-.26665-.58283-1.88504-3.69143-6.40496-5.15675-10.09676-3.27263-3.69085 1.88616-5.15507 6.40535-3.27112 10.09622.06159.12154.12636.23881.19056.34977zm-18.13071 6.23649 26.99704 60.78569c.11838.27239.43142.41805.72329.32398.29819-.09724.46593-.40971.39022-.7079l-13.79596-64.79422c-.05159-.21561-.10725-.41861-.17294-.61845-1.27921-3.94081-5.51337-6.10048-9.45509-4.82071-3.94174 1.28069-6.09975 5.51394-4.82016 9.4555.04267.13044.0874.25625.1336.37611zm-18.88684 3.30158 17.09178 64.27708c.07366.28929.35923.48245.66261.43346.30988-.04787.52493-.32918.4971-.63757l-3.42403-66.15638c-.01632-.22081-.04063-.43012-.07217-.63794-.64425-4.09537-4.48449-6.89206-8.57874-6.24818-4.09425.64276-6.89186 4.483-6.24854 8.57875.02152.13304.04509.26609.07199.39078zm-19.15254.32045 6.90558 66.15007c.02839.29708.28038.53181.58802.53181.31358 0 .56909-.24308.58969-.55185l6.88721-65.88769c.01893-.22137.02728-.43123.02728-.64165 0-4.14362-3.36001-7.50365-7.50418-7.50365s-7.50418 3.36003-7.50418 7.50365c0 .13564.00371.26979.01058.39931zm-18.97165-2.64731-3.44629 66.42154c-.01837.29819.19465.56799.49821.61586.31024.04955.60008-.15197.668-.45387l17.03183-64.01879c.05253-.2158.09408-.42139.12674-.62866.64313-4.09575-2.15391-7.93599-6.24872-8.57875-4.09369-.64388-7.9345 2.15281-8.57762 6.24818-.02171.13416-.03841.26776-.05215.39449zm-18.33574-5.60431-13.85998 65.05233c-.06531.29096.10205.59007.39486.68693.29837.09574.61698-.05734.73127-.34346l26.89814-60.53946c.08573-.20559.15885-.40191.22453-.60286 1.27922-3.94156-.87841-8.17481-4.82015-9.4555-3.94173-1.27977-8.1759.8799-9.45492 4.82071-.04268.12989-.07997.2581-.11375.38131zm-17.22372-8.42214-23.9274 62.05914c-.1104.27666.00797.60009.28205.74.27925.14307.61844.04212.77578-.22453l36.09274-55.54951c.11782-.18945.22044-.37241.31563-.55963 1.88504-3.69087.42028-8.21006-3.27114-10.09622-3.69124-1.88412-8.21208-.4188-10.09565 3.27263-.06215.12042-.11986.24196-.17201.35812zm-15.68639-11.01082-33.34134 57.5498c-.15252.25607-.08628.59434.16255.77581.25292.18351.60324.13786.80104-.09946l44.33971-49.21988c.14509-.16718.27499-.33233.39875-.50267 2.43947-3.35167 1.69986-8.04491-1.65162-10.48402-3.35056-2.43838-8.04378-1.69931-10.48345 1.65273-.0798.10985-.15568.21933-.22564.32769zm-13.77537-13.31522-41.89279 51.65973c-.19038.22935-.1772.57281.04101.7901.221.22303.57484.23138.80641.02839l51.45981-41.71939c.1694-.14399.32342-.28556.47241-.43494 2.93064-2.9312 2.93064-7.68196 0-10.61224-2.93084-2.93065-7.68251-2.93065-10.61223 0-.0963.09519-.18889.19409-.27462.28835zm-11.53628-15.29565-49.42278 44.50976c-.22359.19817-.26404.53903-.08312.78786.18573.25291.53235.31767.79325.15197l57.32664-33.20149c.18927-.11579.36294-.23102.5344-.3546 3.35036-2.43837 4.08999-7.13328 1.65105-10.48384-2.43909-3.35093-7.13233-4.09111-10.48343-1.65199-.10931.07979-.21619.16143-.31601.24233zm-9.00755-16.91665-55.77653 36.2303c-.25199.15939-.34606.49117-.20616.76523.14306.27833.47706.39505.7606.27295l61.81316-23.8243c.20579-.08424.39617-.17145.58339-.26664 3.69179-1.88524 5.15675-6.40442 3.27151-10.09622-1.88449-3.69087-6.40478-5.15564-10.09509-3.27114-.12098.06049-.23937.1258-.35088.18982zm-6.23593-18.13055-60.78501 26.99765c-.27294.11727-.41861.43123-.32342.72218.09724.29875.40804.46704.70734.39189l64.7941-13.79655c.21448-.05158.41711-.10725.61806-.17256 3.94156-1.28126 6.09975-5.51432 4.81942-9.45494-1.27903-3.94286-5.51319-6.09993-9.45493-4.82127-.12896.04267-.25513.08739-.37556.1336zm-3.30212-18.88539-64.27696 17.0907c-.28873.07367-.48133.35924-.4329.6628.04843.31025.32936.52494.63702.4971l66.15735-3.42422c.22137-.01633.42919-.04045.63794-.072 4.09371-.64443 6.89186-4.48449 6.24816-8.57819-.6433-4.09483-4.48354-6.89299-8.57816-6.25023-.13416.02245-.26627.04676-.39245.07404zm-.31933-19.15352-66.15051 6.90505c-.29764.02783-.53181.28093-.53181.58914 0 .31228.24419.56853.55241.58895l65.88701 6.88723c.22081.01744.43067.02746.64165.02746 4.14361 0 7.5042-3.36002 7.5042-7.50364 0-4.14474-3.36059-7.50588-7.5042-7.50588-.13564 0-.27036.00483-.39875.01169zm2.64617-18.97278-66.42084-3.4452c-.29763-.01893-.56799.19465-.61586.49859-.04899.30839.15252.59971.45387.66762l64.01885 17.03281c.21562.05159.42177.09315.62959.12562 4.09462.64443 7.93486-2.15373 8.57816-6.248.6437-4.09426-2.15445-7.93506-6.24816-8.5793-.13416-.02116-.2672-.03786-.39561-.05214zm5.60448-18.33523-65.05126-13.85963c-.29132-.0668-.59174.10149-.68637.39504-.09686.29875.05678.61697.34291.73053l60.53933 26.89876c.20503.08517.40136.15828.60175.22415 3.94174 1.27958 8.1759-.87842 9.45493-4.8196 1.28033-3.9423-.87786-8.17591-4.81942-9.45569-.1295-.04137-.25829-.07941-.38187-.11356zm8.42251-17.22374-62.05791-23.92858c-.27666-.10985-.60009.00946-.74056.2826-.14251.27981-.041.61789.22397.77617l55.55053 36.09355c.18833.11783.37074.21988.55907.31507 3.69031 1.8845 8.2106.42029 10.09509-3.27058 1.88524-3.69143.42028-8.21266-3.27151-10.09678-.12042-.06216-.24197-.11838-.35868-.17145zm11.01136-15.68531-57.55025-33.34363c-.25662-.15197-.59432-.08462-.77524.16459-.18463.25198-.13787.60286.1.80011l49.2196 44.34034c.16831.14399.33197.27388.50231.39913 3.3511 2.43949 8.04434 1.69894 10.48343-1.65162 2.43894-3.35149 1.69931-8.04491-1.65105-10.48385-.11058-.07997-.221-.15512-.3288-.22507zm13.31519-13.77652-51.65964-41.89176c-.2299-.19056-.57392-.17739-.79064.04045-.22249.22137-.23084.57429-.02672.80679l41.718 51.45953c.14362.16922.28519.32342.43512.47168 2.92972 2.93195 7.68139 2.93195 10.61223 0 2.93064-2.92917 2.93064-7.68197 0-10.61206-.09537-.09631-.19372-.18834-.28835-.27463zm15.29561-11.5363-44.51059-49.42287c-.19688-.22305-.53867-.26404-.78694-.08257-.25402.18462-.31674.53217-.15197.79361l33.20199 57.32583c.11356.18927.23083.36276.35441.5344 2.43967 3.35038 7.13289 4.09056 10.48345 1.65199 3.35148-2.43893 4.09109-7.13328 1.65162-10.48384-.07942-.1104-.16161-.21672-.24197-.31655zm16.91699-9.00702-36.23005-55.77718c-.15994-.25199-.49114-.34551-.7652-.20672-.27927.14417-.39617.47817-.27408.76151l23.82424 61.81348c.0837.20467.17146.39616.26776.58339 1.88357 3.6918 6.40441 5.15712 10.09565 3.27096 3.69142-1.8845 5.15618-6.40368 3.27114-10.09455-.06105-.12154-.12581-.23937-.18946-.35089zm18.1296-6.23556-26.99704-60.7855c-.11932-.27406-.43123-.41917-.7233-.32398-.29818.09723-.46593.40859-.39022.70734l13.79597 64.79422c.05158.21561.10724.41805.17312.6179 1.27902 3.94229 5.51319 6.10048 9.45492 4.82015 3.94174-1.28014 6.09937-5.51394 4.82015-9.45513-.04323-.12933-.08739-.25606-.1336-.375zm18.88738-3.30306-17.09213-64.27709c-.07368-.28835-.35943-.48077-.66281-.43179-.30988.04769-.52493.32807-.4971.63683l3.42365 66.15657c.0169.22137.04046.42956.07368.63738.64312 4.09482 4.48393 6.89187 8.57762 6.2493 4.09481-.64388 6.89185-4.48412 6.24872-8.57894-.02115-.1336-.04582-.26608-.07163-.39226zm19.15199-.31878-6.90558-66.15175c-.02839-.29652-.28074-.53013-.58802-.53013-.31394 0-.56909.24252-.58969.55184l-6.88703 65.88752c-.01893.22099-.02746.4303-.02746.64072 0 4.14473 3.36001 7.50476 7.50418 7.50476s7.50418-3.36003 7.50418-7.50476c0-.13565-.0037-.2698-.01058-.3982zm-7.4936 7.95603c62.92205 0 113.93167 51.00918 113.93167 113.93246 0 62.92105-51.00962 113.9319-113.93167 113.9319s-113.93111-51.01085-113.93111-113.9319c0-62.92328 51.00906-113.93246 113.93111-113.93246zm0 13.65757c55.37945 0 100.27358 44.89478 100.27358 100.27489 0 55.37899-44.89413 100.27359-100.27358 100.27359-55.38 0-100.27357-44.8946-100.27357-100.27359 0-55.38011 44.89357-100.27489 100.27357-100.27489zm-83.72714 130.37001c10.25189-21.44271 24.42118-40.39026 40.80453-56.32848 2.561 1.68094 5.09717 3.42571 7.60623 5.2319-17.20441 16.44646-32.19906 36.79829-43.51082 61.7335-1.85666-3.41588-3.49195-6.96981-4.89994-10.63692zm90.80048-51.75623c2.32592 1.94888 4.61771 3.96327 6.87367 6.04092 2.40627-1.97337 4.84519-3.88125 7.31475-5.72102-2.25059-2.03869-4.53923-4.01967-6.85977-5.94573-2.47325 1.81454-4.917 3.69031-7.32865 5.62583zm-14.56955-11.11974c2.5278 1.75517 5.02778 3.57397 7.49621 5.45865 2.46843-1.88468 4.96841-3.70348 7.49621-5.45865-2.46991-1.8856-4.96989-3.70924-7.49621-5.46922-2.52632 1.75998-5.0263 3.58362-7.49621 5.46922zm.67208 23.29158c2.3133 2.08712 4.5882 4.24196 6.82413 6.46472 2.23537-2.22276 4.51194-4.3776 6.82415-6.46472-2.23594-2.13611-4.51252-4.22008-6.82415-6.24244-2.31219 2.02236-4.58709 4.10633-6.82413 6.24244zm-14.43706-11.85194c2.4701 1.83977 4.90903 3.74765 7.31436 5.72102 2.25691-2.07765 4.54961-4.09204 6.87443-6.04036-2.41257-1.93608-4.85689-3.81222-7.32939-5.62639-2.31962 1.92606-4.60825 3.90704-6.8594 5.94573zm44.85572-21.56424c-2.48326-1.89508-4.99641-3.72928-7.53573-5.49855-2.88981 1.64996-5.75961 3.38044-8.60249 5.18923 2.59517 1.72046 5.16455 3.50772 7.70404 5.36086 2.78461-1.75628 5.59652-3.44 8.43418-5.05154zm13.27252 11.0045c-2.22905-2.00436-4.49245-3.95899-6.78776-5.85573-2.71094 1.64067-5.40241 3.35427-8.06586 5.13523 2.34838 1.87298 4.66428 3.80869 6.94771 5.80842 2.60779-1.76315 5.24544-3.45633 7.90591-5.08792zm-45.90132-21.19276c2.98501-1.90824 5.99842-3.73299 9.03427-5.467 3.0366 1.73401 6.04983 3.55876 9.03538 5.467-3.03752 1.64049-6.05204 3.36096-9.03538 5.16251-2.98334-1.80155-5.99768-3.52202-9.03427-5.16251zm-14.55915 10.18826c2.48327-1.89508 4.99531-3.72928 7.53481-5.49855 2.89019 1.64996 5.75942 3.38044 8.60286 5.18923-2.59628 1.72046-5.16511 3.50772-7.70348 5.36086-2.78462-1.75628-5.59762-3.44-8.43419-5.05154zm-13.27419 11.0045c2.22961-2.00436 4.49245-3.95899 6.78833-5.85573 2.71094 1.64067 5.40241 3.35427 8.06641 5.13523-2.34781 1.87298-4.66484 3.80869-6.94752 5.80842-2.6089-1.76315-5.24564-3.45633-7.90722-5.08792zm-41.8323-13.10257c9.27474 3.71647 18.52296 8.28038 27.5526 13.63178-13.90025 13.24786-26.36487 29.04005-36.62213 47.73024-1.23709-5.93311-1.88821-12.08073-1.88821-18.37994 0-15.57528 3.97162-30.2213 10.95774-42.98208zm7.62052-11.66323c10.93195 3.53296 21.93439 8.28001 32.69915 14.14001-2.31759 1.85666-4.60454 3.77437-6.85884 5.75535-9.82957-5.43025-19.9289-10.01902-30.11455-13.84757 1.34287-2.07822 2.7694-4.09483 4.27424-6.04779zm9.55958-10.57272c12.35847 3.24108 24.92201 8.08332 37.23261 14.38513-2.59573 1.73772-5.16565 3.53927-7.70404 5.41022-11.39006-5.83273-23.08779-10.57903-34.81409-14.36769 1.68522-1.88153 3.44779-3.69291 5.28552-5.42766zm13.94329-10.78481c.26294.09686.53961.19409.83203.29299.32881.08313.65649.16885.9853.25198 12.58559 3.27634 25.38644 8.21469 37.92157 14.6655-3.1843 1.73772-6.34023 3.56395-9.46179 5.47906-12.12913-5.90676-24.56388-10.61911-36.97858-14.27936-.10688-.02987-.79901-.2698-1.57852-.54071 2.64304-2.10549 5.40651-4.06736 8.27999-5.86946zm87.51116-4.2878c-.4828.15419-.83481.26979-.94002.31136-13.09586 3.81612-26.22217 8.79492-38.99462 15.11529-12.52993-6.19976-25.40109-11.11046-38.24925-14.89801-.24771-.07255-.49654-.14454-.74537-.21728-.35032-.09037-.67004-.19094-.96674-.29763 12.03338-6.00196 25.6015-9.38406 39.96192-9.38406 14.34928 0 27.90961 3.37468 39.93408 9.37033zm16.00668 10.2261c-.33345.10002-.64221.18779-.90218.2505-12.6676 3.68865-25.36176 8.47243-37.73953 14.50073-3.12176-1.91511-6.27712-3.74134-9.46143-5.47906 12.86135-6.61948 26.00453-11.6469 38.90631-14.91748.31711-.05103.6359-.12674.9493-.22044 2.86254 1.80322 5.61654 3.76026 8.24753 5.86575zm10.86456 10.27417c-11.72666 3.78866-23.42345 8.53496-34.81464 14.36769-2.53727-1.87095-5.10774-3.6725-7.70347-5.41022 12.31097-6.30181 24.87301-11.14405 37.2326-14.38513 1.83662 1.73475 3.60087 3.54613 5.28551 5.42766zm8.54886 11.19285c-10.18619 3.82855-20.28554 8.41676-30.11454 13.84757-2.25487-1.98098-4.54237-3.89869-6.85939-5.75535 10.76365-5.86 21.76776-10.60705 32.69914-14.14001 1.50483 1.95296 2.93287 3.96957 4.27479 6.04779zm12.41359 66.97746c-10.25391-18.68981-22.72021-34.48238-36.62083-47.73024 9.02946-5.3514 18.27731-9.91531 27.55242-13.63178 6.98352 12.76227 10.95828 27.4068 10.95828 42.98208 0 6.29921-.65166 12.44794-1.88987 18.37994zm-8.94113 24.37354c-11.31231-24.93521-26.30641-45.28704-43.51063-61.7335 2.50981-1.80619 5.04615-3.55096 7.60456-5.2319 16.38539 15.93822 30.55525 34.88522 40.80769 56.32848-1.408 3.66544-3.04384 7.22104-4.90162 10.63692zm-13.96593 19.14572c-10.92136-28.15217-26.31161-50.93607-44.36437-69.18148 2.36915-2.04648 4.7745-4.03099 7.21176-5.95612 18.68439 18.37363 34.42126 40.68937 44.65532 66.1716-2.30811 3.14961-4.81123 6.14724-7.50271 8.966zm-16.92385 13.87634-1.19293-3.20211c-9.90156-26.74401-23.78863-48.74913-40.16398-66.70563 2.23239-2.30904 4.51304-4.56168 6.83415-6.75512 18.75119 19.57176 34.15925 43.26413 43.42752 70.2243-2.82915 2.32185-5.80416 4.47243-8.90476 6.43856zm-86.74908 5.06954 1.14617-3.58306c8.26051-24.26258 21.49221-45.88713 37.66549-64.26075 16.17347 18.37362 29.40554 39.99817 37.6655 64.26075l1.17456 3.56989c-11.75097 5.65682-24.92458 8.82647-38.8395 8.82647-13.90322 0-27.06905-3.16482-38.81222-8.8133zm-18.02959-11.50847c9.26901-26.9598 24.6754-50.65217 43.42659-70.22393 2.32129 2.19344 4.60194 4.44608 6.83415 6.75512-16.37535 17.9565-30.26187 39.96162-40.16398 66.70563l-1.1881 3.20471c-3.10376-1.96706-6.07876-4.11894-8.90866-6.44153zm-15.52309-16.40341c10.23553-25.48223 25.97185-47.79797 44.6568-66.1716 2.43633 1.92513 4.84206 3.90964 7.21157 5.95612-18.05258 18.24541-33.44283 41.02931-44.36529 69.18148-2.69036-2.81876-5.19461-5.81639-7.50308-8.966" fill="#ffed00" fill-rule="evenodd"/></svg>
