<?xml version="1.0" encoding="UTF-8"?>
<svg id="rsd-a" data-name="rsd" xmlns="http://www.w3.org/2000/svg" width="24" height="24" xmlns:xlink="http://www.w3.org/1999/xlink" viewBox="0 0 24 24">
  <defs>
    <style>
      .rsd-s, .rsd-t, .rsd-u, .rsd-v, .rsd-w, .rsd-x, .rsd-y, .rsd-z, .rsd-aa {
        stroke: #21231e;
      }

      .rsd-s, .rsd-t, .rsd-u, .rsd-v, .rsd-y, .rsd-z, .rsd-aa {
        stroke-width: 0px;
      }

      .rsd-s, .rsd-t, .rsd-y {
        stroke-linejoin: round;
      }

      .rsd-s, .rsd-v {
        fill: #edb92e;
      }

      .rsd-t, .rsd-ab, .rsd-aa {
        fill: #f4f4f4;
      }

      .rsd-ac, .rsd-ad, .rsd-ae, .rsd-ab, .rsd-af {
        stroke-width: 0px;
      }

      .rsd-ac, .rsd-u {
        fill: #0c4076;
      }

      .rsd-ad, .rsd-y, .rsd-z {
        fill: none;
      }

      .rsd-ag {
        clip-path: url(#rsd-b);
      }

      .rsd-ae, .rsd-w, .rsd-x, .rsd-ah {
        fill: #c6363c;
      }

      .rsd-u, .rsd-v, .rsd-w, .rsd-x, .rsd-z, .rsd-ah, .rsd-aa {
        stroke-miterlimit: 10;
      }

      .rsd-v, .rsd-y, .rsd-z, .rsd-aa {
        stroke-linecap: round;
      }

      .rsd-af {
        fill: #21231e;
      }

      .rsd-w {
        stroke-width: 0px;
      }

      .rsd-x, .rsd-ah {
        stroke-width: 0px;
      }

      .rsd-ah {
        stroke: #fff;
      }
    </style>
    <clipPath id="rsd-b">
      <circle class="rsd-ad" cx="12" cy="12" r="12"/>
    </clipPath>
  </defs>
  <g class="rsd-ag">
    <g>
      <path class="rsd-ab" d="m0,0h24v24H0V0Z"/>
      <circle class="rsd-u" cx="12" cy="3.3" r=".5"/>
      <path class="rsd-ac" d="m0,0h24v16H0V0Z"/>
      <path class="rsd-ae" d="m0,0h24v8.1H0V0Z"/>
      <g>
        <path class="rsd-s" d="m12.1,2.3s0,0,0,0,0,0,0,0c0,0,0,0,0,0s0,0,0,0c0,0,0,0,0,0s0,0,0,0v.2h-.1s0,0,0,0,0,0,0,0c0,0,0,0,0,0s0,0,0,0c0,0,0,0,0,0s0,0,0,0h.1v.6h.2v-.6h.1s0,0,0,0,0,0,0,0c0,0,0,0,0,0s0,0,0,0h0s0,0,0,0,0,0,0,0h-.1v-.2Z"/>
        <path class="rsd-s" d="m12.1,2.9c0,0-.1,0-.2,0v.5h.2v-.5Z"/>
        <path class="rsd-s" d="m12.5,3.2c0,0,0,.1,0,.2-.3,0-.6,0-.9,0,0,0,0-.1,0-.2.3,0,.6,0,.9,0Z"/>
        <path class="rsd-s" d="m14.7,7.1c.1-.2.2-.4.3-.5-.3.2-.5.2-.5-.2-.3.4-.5.4-.7-.1-.3.5-.6.5-.8,0-.4.4-.7.4-1,0-.3.5-.6.5-1,0-.2.5-.5.5-.8,0-.2.5-.4.5-.7.1,0,.3-.2.4-.5.2,0,.1.2.3.3.5h5.4Z"/>
        <path class="rsd-s" d="m9.3,7.1l.2.8h5.1l.2-.8h-2.7c0-.1-2.7,0-2.7,0Z"/>
        <path class="rsd-s" d="m15,6.3c-.2.5-.3.5-.4,0,0,0,0-.1,0,0,0,0,0,0,0,0,0,0-.1,0-.2,0,0,0,0-.1-.1,0,0,0,0,0,0,0,0,0,0,0,0,0-.4.4-.5.4-.5-.2h-.3c-.3.6-.5.6-.7,0,0,0,0,0,0,0s0,0,0,0c0,0-.1,0-.2,0,0,0-.1-.1-.2,0,0,0,0,0,0,0,0,0,0,0,0,0-.1.5-.8.6-.7-.2h-.3c.1.8-.6.7-.7.2,0,0,0-.1,0,0,0,0,0,0,0,0,0,0-.1,0-.2,0,0,0-.1,0-.2,0,0,0,0,0,0,0,0,0,0,0,0,0-.2.6-.4.5-.7,0h-.3c0,.6,0,.7-.5.2,0,0,0,0,0,0,0,0,0,0,0,0,0,0-.1,0-.1,0,0,0-.1,0-.2,0,0,0,0,0,0,0,0,0,0,0,0,0,0,.4-.2.4-.4,0h-.1c0,.1,0,.3.1.3.3.3.5.3.5-.1.4.4.7.4.7,0,.3.6.8.3.8,0,.1.5.9.5.9,0,0,.6.8.6.9,0,0,.3.5.6.8,0,0,.5.3.5.7,0,0,.4.2.5.5.1,0,0,.1-.2.1-.3h-.1Z"/>
        <path class="rsd-s" d="m9.3,7.2c-.1,0-.1-.1,0-.1,1.8-.2,3.6-.2,5.4,0,.1,0,.1.1,0,.1-1.8-.2-3.6-.2-5.4,0Z"/>
        <path class="rsd-s" d="m11.8,5.4l-.2-.2c0-.5,0-1,0-1.4,0-.1,0-.2.1-.1.2.1.5.1.7,0,.1,0,.1,0,.1.1,0,.4,0,.9,0,1.4l-.2.2h-.5Z"/>
      </g>
      <path class="rsd-v" d="m12.6,7.4l-.6.3-.6-.3.6-.3.6.3Z"/>
      <g id="rsd-c" data-name="a">
        <g>
          <path class="rsd-s" d="m14.7,4.3l.7.3v.3c0,0-.2.5-.2.5v.4h.3l.4-1.1-.5-.4-1.2-.4.5.4"/>
          <path class="rsd-s" d="m15.3,5.8s0,0,0-.1c0,0,0-.1,0-.2,0-.1.2-.2.2-.4,0,0,0-.2,0-.3,0-.1-.1-.2-.2-.2,0,0-.2-.1-.4-.2-.3-.1-.5-.2-.7-.2h.1c.3.2.7.3.9.5.2.2.2.2-.1.7,0,0,0,0,0,0,0,0,0,.2,0,.3,0,0,0,0,.1,0h0Z"/>
          <path class="rsd-s" d="m13,5.5c0,0,0,.2,0,.2,0,0,0,0,0,0,0,0,0-.2,0-.2Z"/>
          <path class="rsd-s" d="m14.7,5.7c0,0-.1.1,0,.2,0,0,0,0,0,0,0,0,.1-.2,0-.2Z"/>
        </g>
        <g>
          <circle class="rsd-t" cx="14.3" cy="3.9" r=".2"/>
          <circle class="rsd-t" cx="14.7" cy="4" r=".2"/>
          <circle class="rsd-t" cx="15" cy="4.1" r=".2"/>
          <circle class="rsd-t" cx="15.3" cy="4.3" r=".2"/>
          <circle class="rsd-t" cx="15.6" cy="4.5" r=".2"/>
          <circle class="rsd-t" cx="15.5" cy="5.7" r=".2"/>
          <circle class="rsd-t" cx="15.6" cy="5.4" r=".2"/>
          <circle class="rsd-t" cx="15.8" cy="5.1" r=".2"/>
          <circle class="rsd-t" cx="15.8" cy="4.7" r=".2"/>
          <circle class="rsd-t" cx="12.7" cy="7.6" r="0"/>
          <circle class="rsd-t" cx="14" cy="7.7" r="0"/>
          <circle class="rsd-t" cx="14" cy="7.3" r="0"/>
          <circle class="rsd-t" cx="12.7" cy="7.2" r="0"/>
          <path class="rsd-t" d="m13.1,6c0,0,.2-.5,0-.5s-.2.4-.1.5.1.1.2,0Z"/>
          <path class="rsd-t" d="m14.5,6.2c0,.1,0,.1.2,0,0,0,.3-.4,0-.5s-.2.3-.2.4Z"/>
        </g>
        <g>
          <path class="rsd-s" d="m12.4,3.8h.9s.6.2.6.2l.2.4-.4.8.2.5.6-.5.3-1-.7-.6h-1.5c0-.1,0,.1,0,.1Z"/>
          <path class="rsd-s" d="m12.5,3.7c.5,0,.9,0,1.4.2.4.2.4.6-.1,1.3,0,0,0,.2,0,.3,0,0,0,0-.1,0,0,0,0-.2,0-.2,0,0,0,0,0,0,.3-.4.5-.7.4-1-.1-.3-.7-.4-1.5-.4,0,0,0,0,0,0,0,0,0,0,0,0Z"/>
          <path class="rsd-s" d="m14.4,3.9s0,0,0,0c.3.1.4.3.3.4,0,0,0,.3-.3.8-.1,0-.2.2-.3.2,0,0,0,0,0,0,0,0,0,0,.1,0,0,0,.1-.2.2-.2,0,0,0,0,0,0,0-.3.2-.6.3-.8,0-.3,0-.4-.4-.6h0Z"/>
        </g>
        <g>
          <circle class="rsd-t" cx="12.6" cy="3.5" r=".2"/>
          <circle class="rsd-t" cx="12.9" cy="3.5" r=".2"/>
          <circle class="rsd-t" cx="13.3" cy="3.6" r=".2"/>
          <circle class="rsd-t" cx="13.6" cy="3.6" r=".2"/>
          <circle class="rsd-t" cx="13.9" cy="3.7" r=".2"/>
          <circle class="rsd-t" cx="14.2" cy="3.9" r=".2"/>
          <circle class="rsd-t" cx="14.4" cy="4.1" r=".2"/>
          <circle class="rsd-t" cx="14" cy="5.3" r=".2"/>
          <circle class="rsd-t" cx="14.2" cy="5" r=".2"/>
          <circle class="rsd-t" cx="14.3" cy="4.7" r=".2"/>
          <circle class="rsd-t" cx="14.4" cy="4.4" r=".2"/>
        </g>
        <g>
          <path class="rsd-s" d="m15.3,5.8h0c0,0,.1,0,.2,0,0,0-.2-.1-.2,0Z"/>
          <path class="rsd-s" d="m15.4,5.7s0,0,0,0c0,0,0,0,0,0-.1,0-.1,0,0,.1,0,0,0,.1,0,.2,0,0,0,0,0,.1,0,0,0,0,0,0,0,0,0,0,0,0,.1,0,0-.2.1-.2,0-.1.2-.2,0-.2h0Z"/>
          <path class="rsd-s" d="m15.3,5.7c0,0,0,0-.2,0,0,.1,0,.2.2.1,0,0,.2,0,.2,0,0,0,0,0,0,0,0-.2-.2-.2-.3-.1Z"/>
          <path class="rsd-s" d="m15,6.4c0,0-.2.1-.2.1,0,0,0-.3.1-.4,0,0,0,0,.1-.2,0,0,0,0,0,0,0,0,0,0,0,.2,0,0,0,0,0,0-.1,0-.2.1-.1.2Z"/>
          <path class="rsd-s" d="m15,5.9s0,0,0,0c0,0,0,0,0,0,0,0,0,0,0,0,0,0,0,0,0,0,0,0,0,0,0,.1,0,0,0,.2,0,.2,0,0,0,0,0,0,0,0,0,0,0,0,0,0,0,0,0,0,0,0,0,0,0,0,0,0,0,0,0,0,0,0,0-.2.1-.2s0,0,.1,0c0,0,0,0,0,0h0Z"/>
          <path class="rsd-s" d="m15.3,6.1s0,0,0,0c0,0,0,0-.1,0-.1,0-.2.3,0,.4,0,0,0,0,0,0,0,0,0-.1.1-.2,0,0,0,0,0,0Z"/>
          <path class="rsd-s" d="m15.2,6.1c-.1,0-.2.2-.1.3,0,0,0,0,0-.1,0,0,.2-.1,0-.2Z"/>
          <path class="rsd-s" d="m12.2,5.3c0-.1.1-.2.2-.3-.1-.4-.1-.8,0-1.4,0,0,0-.1,0-.1,0,0,0,0,0,.1,0,.3,0,.6,0,.8,0,.2,0,.4.1.6,0,0,0,0-.1,0,0,0-.1,0-.1.1,0,0,0,0,0,0,0,0,0,0,0,0h0Z"/>
          <path class="rsd-s" d="m12.7,5.8s0,0,0,0c0,0,0,0,0,0,0-.1,0-.1-.2,0,0,0,0,.1-.1.1,0,0,0,0,0,0,0,0,0,.1,0,.1,0,0,0,0,0,.1,0,0,0,0,0,0,0,0,0,.1.1.1,0,0,.2,0,.2,0,0,0,0,0,0,0,0,0,0,0,0,0,0,0,0,0,0,0,0,0,0,0,0,0s0,0,0,0c0,0,0,0,0,0Z"/>
          <path class="rsd-s" d="m12.6,5.6s0,0,0,0c0,0,0,.1,0,.2,0,0,0,0,0,0,0,0,0,0,0,0,0,0,0,.1,0,.2,0,0,0,0,0,0,0,0,0,0,0,0,0,0,0,0,0,0,0,0,0,0,0,0,0,0,0,0,0,0,0,0,0,0,0,0s0,0,0,0c0,0,0,0,0,0,0,0,0,0,0,0,0,0,0,0,0,0,0,0,0,0,0,0h0Z"/>
          <path class="rsd-s" d="m13.9,5.4s0,0,0,0c0,0,0,0,0,0-.1,0-.1,0,0,.2,0,0,0,.1,0,.2,0,0,0,0,0,0,0,0,0,0,.1,0,0,0,0,0,.1,0,0,0,0,0,0,0,0,0,.1,0,.2-.1,0,0,.1-.2,0-.2,0,0,0,0,0,0,0,0,0,0,0,0,0,0,0,0,0,0,0,0,0,0,0,0,0,0,0,0,0,0,0,0,0,0,0,0h0Z"/>
          <path class="rsd-s" d="m13.7,5.4s0,0,0,.1c0,0,0,0,.2,0,0,0,0,0,0,0,0,0,0,0,0,0,0,0,0,.1.1,0,0,0,0,0,0,0,0,0,0,0,0,0,0,0,0,0,0,0,0,0,0,0,0,0,0,0,0,0,0,0,0,0,0,0,0,0,0,0,0,0,0,0,0,0,0,0,0,0,0,0,0,0,0,0,0,0,0,0,0,0,0,0,0,0,0,0Z"/>
          <path class="rsd-s" d="m14.4,6s0,0,0,0c0,0,0,0,0,0,0-.1,0-.1,0,0,0,0,0,0,0,0,0,0,0,0,0,0,0,0,0,0,0,0,0,0,0,0,0,.1,0,0,0,0,0,.1,0,0,0,0,0,0,0,0,0,0,0,.1,0,0,0,0,0,0,0,0,0,0,0-.1,0,0,0,0,0,0,0,0,0,0,0,0,0,0,0,0,0,0,0,0,0,0,0,0,0,0,0,0,0,0,0,0,0,0,0,0Z"/>
          <path class="rsd-s" d="m14.4,5.8s0,0,0,0c0,0,0,0,0,0,0,0,0,0,0,.1,0,0,0,0,0,0,0,0,0,0,0,0,0,0-.1.1,0,.2,0,0,0,0,0,0,0,0,0,0,0,0,0,0,0,0,0,0,0,0,0,0,0,0,0,0,0,0,0,0,0,0,0-.1,0-.2,0,0,0,0,0-.2,0,0,0,0,0,0h0Z"/>
          <path class="rsd-s" d="m13.3,6.1s0,0,0,0c0,0,0,0,0,0,0,.1,0,.1.1,0,0,0,.1,0,.1-.1,0,0,0,0,0,0,0,0,0,0,0-.1,0,0,0,0,0-.1,0,0,0,0,0,0,0,0,0-.1,0-.2,0,0-.2-.1-.2,0,0,0,0,0,0,0,0,0,0,0,0,0,0,0,0,0,0,0,0,0,0,0,0,0,0,0,0,0,0,0,0,0,0,0,0,0Z"/>
          <path class="rsd-s" d="m13.3,6.3s0,0,0,0c0,0,0-.1,0-.2,0,0,0,0,0,0,0,0,0,0,0,0,0,0,.1-.1,0-.2,0,0,0,0,0,0,0,0,0,0,0,0,0,0,0,0,0,0,0,0,0,0,0,0,0,0,0,0,0,0,0,0,0,0,0,0,0,0,0,0,0,0,0,0,0,0,0,0,0,0,0,0,0,0,0,0,0,0,0,0,0,0,0,0,0,0h0Z"/>
        </g>
        <g>
          <path class="rsd-v" d="m14,7.5l-.6-.3-.6.3.6.3.6-.3Z"/>
          <path class="rsd-v" d="m14.7,7.3l-.6.3.5.3c.1,0,.2-.5.1-.6h0Z"/>
        </g>
        <g>
          <path class="rsd-af" d="m12.2,6c0,0,.2,0,.3.1,0,0-.1-.1-.3-.1h0Z"/>
          <path class="rsd-af" d="m12.2,5.9c0,0,.2,0,.3-.1,0,0-.1.1-.3.1h0Z"/>
          <path class="rsd-af" d="m15.2,6.1c0,0,0-.1,0-.2,0,0,0,.1,0,.2h0Z"/>
          <path class="rsd-af" d="m14,5.9c0,0,0-.2.2-.3,0,0-.1.1-.2.3h0Z"/>
          <path class="rsd-af" d="m13.9,5.9c0-.1,0-.2,0-.3,0,0,0,.2,0,.3h0Z"/>
          <path class="rsd-af" d="m14,6.1c0,0,.1,0,.2.1,0,0,0-.1-.2-.2h0Z"/>
          <path class="rsd-af" d="m14.1,6c0,0,.2,0,.2-.1,0,0-.2.1-.3.1h0Z"/>
          <path class="rsd-af" d="m13.7,6c0,0-.2,0-.2-.1,0,0,.1.1.2.2h0Z"/>
          <path class="rsd-af" d="m13.7,6.1c0,0-.2,0-.2,0,0,0,.1-.1.3-.1h0Z"/>
        </g>
        <ellipse class="rsd-w" cx="13.4" cy="7.5" rx=".2" ry=".3" transform="translate(5 20.3) rotate(-86)"/>
        <path class="rsd-s" d="m13.9,5.8c-.1,0-.2,0-.2.2,0,.1,0,.2.2.2.1,0,.2,0,.2-.2,0-.1,0-.2-.2-.2Z"/>
        <path class="rsd-s" d="m13.9,5.9c0,0-.2,0-.2.1,0,0,0,.2.1.2,0,0,.1,0,.2-.1,0,0,0-.2-.1-.2Z"/>
        <g>
          <path class="rsd-u" d="m15.2,6.2c0,0-.2.1,0,.2,0,0,.1,0,.1,0,0,0,0,0,0-.1Z"/>
          <path class="rsd-u" d="m14.7,7.4c-.2,0-.3,0-.3.2s.1.2.3.2c.1,0,.2,0,.2-.2s0-.2-.1-.2Z"/>
          <path class="rsd-u" d="m13.9,5.9s0,0-.1,0c0,0,0,0,0,0,0,0,0,0,.1,0,0,0,0,0,0,0Z"/>
        </g>
      </g>
      <g id="rsd-d" data-name="a">
        <g>
          <path class="rsd-s" d="m9.4,4.3l-.7.3v.3c0,0,.2.5.2.5v.4h-.3l-.4-1.1.5-.4,1.2-.4-.5.4"/>
          <path class="rsd-s" d="m8.8,5.8s0,0,0-.1c0,0,0-.1,0-.2,0-.1-.2-.2-.2-.4,0,0,0-.2,0-.3,0-.1.1-.2.2-.2,0,0,.2-.1.4-.2.3-.1.5-.2.7-.2h-.1c-.3.2-.7.3-.9.5-.2.2-.2.2.1.7,0,0,0,0,0,0,0,0,0,.2,0,.3,0,0,0,0-.1,0h0Z"/>
          <path class="rsd-s" d="m11,5.5c0,0,0,.2,0,.2,0,0,0,0,0,0,0,0,0-.2,0-.2Z"/>
          <path class="rsd-s" d="m9.3,5.7c0,0,.1.1,0,.2,0,0,0,0,0,0,0,0-.1-.2,0-.2Z"/>
        </g>
        <g>
          <circle class="rsd-t" cx="9.7" cy="3.9" r=".2"/>
          <circle class="rsd-t" cx="9.4" cy="4" r=".2"/>
          <circle class="rsd-t" cx="9.1" cy="4.1" r=".2"/>
          <circle class="rsd-t" cx="8.7" cy="4.3" r=".2"/>
          <circle class="rsd-t" cx="8.4" cy="4.5" r=".2"/>
          <circle class="rsd-t" cx="8.6" cy="5.7" r=".2"/>
          <circle class="rsd-t" cx="8.4" cy="5.4" r=".2"/>
          <circle class="rsd-t" cx="8.3" cy="5.1" r=".2"/>
          <circle class="rsd-t" cx="8.2" cy="4.7" r=".2"/>
          <circle class="rsd-t" cx="11.4" cy="7.6" r="0"/>
          <circle class="rsd-t" cx="10.1" cy="7.7" r="0"/>
          <circle class="rsd-t" cx="10" cy="7.3" r="0"/>
          <circle class="rsd-t" cx="11.4" cy="7.2" r="0"/>
          <path class="rsd-t" d="m11,6c0,0-.2-.5,0-.5s.2.4.1.5-.1.1-.2,0Z"/>
          <path class="rsd-t" d="m9.5,6.2c0,.1,0,.1-.2,0,0,0-.3-.4,0-.5s.2.3.2.4Z"/>
        </g>
        <g>
          <path class="rsd-s" d="m11.6,3.8h-.9s-.6.2-.6.2l-.2.4.4.8-.2.5-.6-.5-.3-1,.7-.6h1.5c0-.1,0,.1,0,.1Z"/>
          <path class="rsd-s" d="m11.5,3.7c-.5,0-.9,0-1.4.2-.4.2-.4.6.1,1.3,0,0,0,.2,0,.3,0,0,0,0,.1,0,0,0,0-.2,0-.2,0,0,0,0,0,0-.3-.4-.5-.7-.4-1,.1-.3.7-.4,1.5-.4,0,0,0,0,0,0,0,0,0,0,0,0Z"/>
          <path class="rsd-s" d="m9.7,3.9s0,0,0,0c-.3.1-.4.3-.3.4,0,0,0,.3.3.8.1,0,.2.2.3.2,0,0,0,0,0,0,0,0,0,0-.1,0,0,0-.1-.2-.2-.2,0,0,0,0,0,0,0-.3-.2-.6-.3-.8,0-.3,0-.4.4-.6h0Z"/>
        </g>
        <g>
          <circle class="rsd-t" cx="11.4" cy="3.5" r=".2"/>
          <circle class="rsd-t" cx="11.1" cy="3.5" r=".2"/>
          <circle class="rsd-t" cx="10.8" cy="3.6" r=".2"/>
          <circle class="rsd-t" cx="10.4" cy="3.6" r=".2"/>
          <circle class="rsd-t" cx="10.1" cy="3.7" r=".2"/>
          <circle class="rsd-t" cx="9.8" cy="3.9" r=".2"/>
          <circle class="rsd-t" cx="9.6" cy="4.1" r=".2"/>
          <circle class="rsd-t" cx="10" cy="5.3" r=".2"/>
          <circle class="rsd-t" cx="9.9" cy="5" r=".2"/>
          <circle class="rsd-t" cx="9.7" cy="4.7" r=".2"/>
          <circle class="rsd-t" cx="9.6" cy="4.4" r=".2"/>
        </g>
        <g>
          <path class="rsd-s" d="m8.7,5.8h0c0,0-.1,0-.2,0,0,0,.2-.1.2,0Z"/>
          <path class="rsd-s" d="m8.7,5.7s0,0,0,0c0,0,0,0,0,0,.1,0,.1,0,0,.1,0,0,0,.1,0,.2,0,0,0,0,0,.1,0,0,0,0,0,0,0,0,0,0,0,0-.1,0,0-.2-.1-.2,0-.1-.2-.2,0-.2h0Z"/>
          <path class="rsd-s" d="m8.7,5.7c0,0,0,0,.2,0,0,.1,0,.2-.2.1,0,0-.2,0-.2,0,0,0,0,0,0,0,0-.2.2-.2.3-.1Z"/>
          <path class="rsd-s" d="m9.1,6.4c0,0,.2.1.2.1,0,0,0-.3-.1-.4,0,0,0,0-.1-.2,0,0,0,0,0,0,0,0,0,0,0,.2,0,0,0,0,0,0,.1,0,.2.1.1.2Z"/>
          <path class="rsd-s" d="m9,5.9s0,0,0,0c0,0,0,0,0,0,0,0,0,0,0,0,0,0,0,0,0,0,0,0,0,0,0,.1,0,0,0,.2,0,.2,0,0,0,0,0,0,0,0,0,0,0,0,0,0,0,0,0,0,0,0,0,0,0,0,0,0,0,0,0,0,0,0,0-.2-.1-.2s0,0-.1,0c0,0,0,0,0,0h0Z"/>
          <path class="rsd-s" d="m8.8,6.1s0,0,0,0c0,0,0,0,.1,0,.1,0,.2.3,0,.4,0,0,0,0,0,0,0,0,0-.1-.1-.2,0,0,0,0,0,0Z"/>
          <path class="rsd-s" d="m8.8,6.1c.1,0,.2.2.1.3,0,0,0,0,0-.1,0,0-.2-.1,0-.2Z"/>
          <path class="rsd-s" d="m11.8,5.3c0-.1-.1-.2-.2-.3.1-.4.1-.8,0-1.4,0,0,0-.1,0-.1,0,0,0,0,0,.1,0,.3,0,.6,0,.8,0,.2,0,.4-.1.6,0,0,0,0,.1,0,0,0,.1,0,.1.1,0,0,0,0,0,0,0,0,0,0,0,0h0Z"/>
          <path class="rsd-s" d="m11.4,5.8s0,0,0,0c0,0,0,0,0,0,0-.1,0-.1.2,0,0,0,0,.1.1.1,0,0,0,0,0,0,0,0,0,.1,0,.1,0,0,0,0,0,.1,0,0,0,0,0,0,0,0,0,.1-.1.1,0,0-.2,0-.2,0,0,0,0,0,0,0,0,0,0,0,0,0,0,0,0,0,0,0,0,0,0,0,0,0s0,0,0,0c0,0,0,0,0,0Z"/>
          <path class="rsd-s" d="m11.5,5.6s0,0,0,0c0,0,0,.1,0,.2,0,0,0,0,0,0,0,0,0,0,0,0,0,0,0,.1,0,.2,0,0,0,0,0,0,0,0,0,0,0,0,0,0,0,0,0,0,0,0,0,0,0,0,0,0,0,0,0,0,0,0,0,0,0,0s0,0,0,0c0,0,0,0,0,0,0,0,0,0,0,0,0,0,0,0,0,0,0,0,0,0,0,0h0Z"/>
          <path class="rsd-s" d="m10.1,5.4s0,0,0,0c0,0,0,0,0,0,.1,0,.1,0,0,.2,0,0,0,.1,0,.2,0,0,0,0,0,0,0,0,0,0-.1,0,0,0,0,0-.1,0,0,0,0,0,0,0,0,0-.1,0-.2-.1,0,0-.1-.2,0-.2,0,0,0,0,0,0,0,0,0,0,0,0,0,0,0,0,0,0,0,0,0,0,0,0,0,0,0,0,0,0,0,0,0,0,0,0h0Z"/>
          <path class="rsd-s" d="m10.3,5.4s0,0,0,.1c0,0,0,0-.2,0,0,0,0,0,0,0,0,0,0,0,0,0,0,0,0,.1-.1,0,0,0,0,0,0,0,0,0,0,0,0,0,0,0,0,0,0,0,0,0,0,0,0,0,0,0,0,0,0,0,0,0,0,0,0,0,0,0,0,0,0,0,0,0,0,0,0,0,0,0,0,0,0,0,0,0,0,0,0,0,0,0,0,0,0,0Z"/>
          <path class="rsd-s" d="m9.6,6s0,0,0,0c0,0,0,0,0,0,0-.1,0-.1,0,0,0,0,0,0,0,0,0,0,0,0,0,0,0,0,0,0,0,0,0,0,0,0,0,.1,0,0,0,0,0,.1,0,0,0,0,0,0,0,0,0,0,0,.1,0,0,0,0,0,0,0,0,0,0,0-.1,0,0,0,0,0,0,0,0,0,0,0,0,0,0,0,0,0,0,0,0,0,0,0,0,0,0,0,0,0,0,0,0,0,0,0,0Z"/>
          <path class="rsd-s" d="m9.6,5.8s0,0,0,0c0,0,0,0,0,0,0,0,0,0,0,.1,0,0,0,0,0,0,0,0,0,0,0,0,0,0,.1.1,0,.2,0,0,0,0,0,0,0,0,0,0,0,0,0,0,0,0,0,0,0,0,0,0,0,0,0,0,0,0,0,0,0,0,0-.1,0-.2,0,0,0,0,0-.2,0,0,0,0,0,0h0Z"/>
          <path class="rsd-s" d="m10.7,6.1s0,0,0,0c0,0,0,0,0,0,0,.1,0,.1-.1,0,0,0-.1,0-.1-.1,0,0,0,0,0,0,0,0,0,0,0-.1,0,0,0,0,0-.1,0,0,0,0,0,0,0,0,0-.1,0-.2,0,0,.2-.1.2,0,0,0,0,0,0,0,0,0,0,0,0,0,0,0,0,0,0,0,0,0,0,0,0,0,0,0,0,0,0,0,0,0,0,0,0,0Z"/>
          <path class="rsd-s" d="m10.7,6.3s0,0,0,0c0,0,0-.1,0-.2,0,0,0,0,0,0,0,0,0,0,0,0,0,0-.1-.1,0-.2,0,0,0,0,0,0,0,0,0,0,0,0,0,0,0,0,0,0,0,0,0,0,0,0,0,0,0,0,0,0,0,0,0,0,0,0,0,0,0,0,0,0,0,0,0,0,0,0,0,0,0,0,0,0,0,0,0,0,0,0,0,0,0,0,0,0h0Z"/>
        </g>
        <g>
          <path class="rsd-v" d="m10.1,7.5l.6-.3.6.3-.6.3-.6-.3Z"/>
          <path class="rsd-v" d="m9.4,7.3l.6.3-.5.3c-.1,0-.2-.5-.1-.6h0Z"/>
        </g>
        <g>
          <path class="rsd-af" d="m11.8,6c0,0-.2,0-.3.1,0,0,.1-.1.3-.1h0Z"/>
          <path class="rsd-af" d="m11.8,5.9c0,0-.2,0-.3-.1,0,0,.1.1.3.1h0Z"/>
          <path class="rsd-af" d="m8.8,6.1c0,0,0-.1,0-.2,0,0,0,.1,0,.2h0Z"/>
          <path class="rsd-af" d="m10.1,5.9c0,0,0-.2-.2-.3,0,0,.1.1.2.3h0Z"/>
          <path class="rsd-af" d="m10.2,5.9c0-.1,0-.2,0-.3,0,0,0,.2,0,.3h0Z"/>
          <path class="rsd-af" d="m10,6.1c0,0-.1,0-.2.1,0,0,0-.1.2-.2h0Z"/>
          <path class="rsd-af" d="m10,6c0,0-.2,0-.2-.1,0,0,.2.1.3.1h0Z"/>
          <path class="rsd-af" d="m10.3,6c0,0,.2,0,.2-.1,0,0-.1.1-.2.2h0Z"/>
          <path class="rsd-af" d="m10.3,6.1c0,0,.2,0,.2,0,0,0-.1-.1-.3-.1h0Z"/>
        </g>
        <ellipse class="rsd-w" cx="10.7" cy="7.5" rx=".3" ry=".2" transform="translate(-.5 .8) rotate(-4)"/>
        <path class="rsd-s" d="m10.1,5.8c.1,0,.2,0,.2.2,0,.1,0,.2-.2.2-.1,0-.2,0-.2-.2,0-.1,0-.2.2-.2Z"/>
        <path class="rsd-s" d="m10.1,5.9c0,0,.2,0,.2.1,0,0,0,.2-.1.2,0,0-.1,0-.2-.1,0,0,0-.2.1-.2Z"/>
        <g>
          <path class="rsd-u" d="m8.9,6.2c0,0,.2.1,0,.2,0,0-.1,0-.1,0,0,0,0,0,0-.1Z"/>
          <path class="rsd-u" d="m9.4,7.4c.2,0,.3,0,.3.2s-.1.2-.3.2c-.1,0-.2,0-.2-.2s0-.2.1-.2Z"/>
          <path class="rsd-u" d="m10.1,5.9s0,0,.1,0c0,0,0,0,0,0,0,0,0,0-.1,0,0,0,0,0,0,0Z"/>
        </g>
      </g>
      <g>
        <circle class="rsd-t" cx="12" cy="5.1" r=".2"/>
        <circle class="rsd-t" cx="12" cy="4.8" r=".2"/>
        <circle class="rsd-t" cx="12" cy="4.5" r=".2"/>
        <circle class="rsd-t" cx="12" cy="3.6" r=".2"/>
        <circle class="rsd-t" cx="12" cy="3.9" r=".2"/>
        <circle class="rsd-t" cx="12" cy="4.2" r=".2"/>
      </g>
      <path class="rsd-s" d="m12,5.2s0,0,0,0,0,0,0,0c0,0,0,0,0,0,0,0,0,0,0,0,.1,0,.1,0,0,.2,0,0-.1,0-.1.1,0,0,0,0,0,0h-.2s0,0,0,0-.1,0-.1-.1c0,0,0-.2,0-.2,0,0,0,0,0,0,0,0,0,0,0,0,0,0,0,0,0,0s0,0,0,0"/>
      <path id="rsd-e" data-name="g" class="rsd-af" d="m12.1,5.7c0,0,0-.2.1-.3,0,0-.1.1-.1.3h0Z"/>
      <path id="rsd-f" data-name="g" class="rsd-af" d="m12,5.7c0,0,0-.2-.1-.3,0,0,.1.1.1.3h0Z"/>
      <g>
        <path class="rsd-s" d="m12,5.2s0,0,0,0,0,0,0,0c0,0,0,0,0,0,0,0,0,0,0,0,0,0,0,0,0,0,0,0,0,0,0,0,0,0,0,0-.2,0,0,0,0,0,0,0s0,0,0,0c0,0-.1,0-.2,0s0,0,0,0c0,0,0,0,0,0,0,0,0,0,0,0,0,0,0,0,0,0,0,0,0,0,0,0s0,0,0,0Z"/>
        <path class="rsd-s" d="m12,5.7c.1,0,.2,0,.2.2s0,.2-.2.2-.2,0-.2-.2,0-.2.2-.2Z"/>
        <path class="rsd-s" d="m14.6,8s0,0-.1,0c-1.7-.1-3.3-.1-5,0,0,0-.1,0-.1,0s0,0,.1,0c1.7.1,3.3.1,5,0,0,0,.1,0,.1,0"/>
        <circle class="rsd-s" cx="12" cy="5.9" r=".2"/>
        <circle class="rsd-s" cx="12" cy="5.9" r=".2"/>
      </g>
      <g>
        <ellipse class="rsd-u" cx="12" cy="7.4" rx=".3" ry=".2"/>
        <circle class="rsd-u" cx="12" cy="5.9" r="0"/>
      </g>
      <path class="rsd-z" d="m10.8,8.1c-.2,0-.4,0-.6,0,1.2,0,2.5,0,3.7,0-.2,0-.4,0-.6,0"/>
      <path class="rsd-ah" d="m16.5,8.1v7.3c0,1.2-.5,2.4-1.3,3.2s-1.9,1.4-3.2,1.4-2.4-.6-3.2-1.4-1.3-2-1.3-3.2v-7.3h9Z"/>
      <g>
        <path class="rsd-t" d="m12,19.7s-.1,0-.2,0c0,0,0-.3,0-.4,0-.7,0-1.8,0-3.4,0,0,0,0,.1,0,0,0,0,0,.1,0,0,1.6,0,2.7,0,3.4,0,.1,0,.3,0,.4,0,0-.1,0-.2,0h0Z"/>
        <path class="rsd-t" d="m11.6,19.6s.1,0,.2,0c0,0,0-.3,0-.4,0-.7,0-1.8.2-3.4,0,0,0,0-.1,0,0,0,0,0,0,0-.3,1.6-.3,2.7-.5,3.4,0,0,0,.3,0,.4,0,0,.1,0,.1,0h0s0,0,0,0Z"/>
        <path class="rsd-t" d="m11.1,19.6s.1,0,.2,0c0,0,0-.3.1-.4.2-.7.3-1.8.5-3.4,0,0,0,0-.1,0-.4,1.5-.5,2.6-.8,3.3,0,0-.1.3,0,.4,0,0,.1,0,.1,0h0s0,0,0,0Z"/>
        <path class="rsd-t" d="m10.6,19.4s.1,0,.2,0c0,0,0-.3.1-.4.3-.7.4-1.8.8-3.3,0,0,0,0-.1,0,0,0,0,0,0,0-.5,1.5-.6,2.6-1.1,3.2,0,.1-.1.3,0,.4,0,0,.1,0,.1,0h0s0,0,0,0Z"/>
        <path class="rsd-t" d="m12.5,19.6s-.1,0-.2,0c0,0,0-.3,0-.4,0-.7,0-1.8-.2-3.4,0,0,0,0,.1,0,0,0,0,0,0,0,.3,1.6.3,2.7.5,3.4,0,0,0,.3,0,.4,0,0-.1,0-.1,0h0s0,0,0,0Z"/>
        <path class="rsd-t" d="m13,19.6s-.1,0-.2,0c0,0,0-.3-.1-.4-.2-.7-.3-1.8-.5-3.4,0,0,0,0,.1,0,.4,1.5.5,2.6.8,3.3,0,0,.1.3,0,.4,0,0-.1,0-.1,0h0s0,0,0,0Z"/>
        <path class="rsd-t" d="m13.5,19.4s-.1,0-.2,0c0,0,0-.3-.1-.4-.3-.7-.4-1.8-.8-3.3,0,0,0,0,.1,0,0,0,0,0,0,0,.5,1.5.6,2.6,1.1,3.2,0,.1.1.3,0,.4,0,0-.1,0-.1,0h0s0,0,0,0Z"/>
        <path class="rsd-t" d="m10.8,18.3s0,0,.1,0c0,0,.1-.2.2-.4.3-.6.6-1.7,1.1-3.3,0,0,0,0-.1,0,0,0,0,0-.1,0-.5,1.5-.7,2.6-1.2,3.3,0,.1-.1.3-.1.4,0,0,0,0,.1,0h0s0,0,0,0Z"/>
        <path class="rsd-t" d="m11.2,18.3s0,0,.1,0c0,0,0-.3.1-.4.1-.7.4-1.8.7-3.4,0,0,0,0-.1,0,0,0,0,0-.1,0-.4,1.6-.5,2.7-.9,3.3,0,.1-.1.3,0,.4,0,0,0,0,.1,0h0s0,0,0,0Z"/>
        <path class="rsd-t" d="m11.6,18.4s0,0,.1,0c0,0,0-.3,0-.4,0-.7.2-1.8.3-3.4,0,0,0,0-.1,0,0,0,0,0-.1,0-.2,1.6-.3,2.7-.5,3.4,0,.1,0,.3,0,.4,0,0,0,0,.1,0h0s0,0,0,0Z"/>
        <path class="rsd-t" d="m13.2,18.3s0,0-.1,0c0,0-.1-.2-.2-.4-.3-.6-.6-1.7-1.1-3.3,0,0,0,0,.1,0,0,0,0,0,.1,0,.5,1.5.7,2.6,1.2,3.3,0,.1.1.3.1.4,0,0,0,0-.1,0h0s0,0,0,0Z"/>
        <path class="rsd-t" d="m12.8,18.3s0,0-.1,0c0,0,0-.3-.1-.4-.1-.7-.4-1.8-.7-3.4,0,0,0,0,.1,0,0,0,0,0,.1,0,.4,1.6.5,2.7.9,3.3,0,.1.1.3,0,.4,0,0,0,0-.1,0h0s0,0,0,0Z"/>
        <path class="rsd-t" d="m12.4,18.4s0,0-.1,0c0,0,0-.3,0-.4,0-.7-.2-1.8-.3-3.4,0,0,0,0,.1,0,0,0,0,0,.1,0,.2,1.6.3,2.7.5,3.4,0,.1,0,.3,0,.4,0,0,0,0-.1,0h0s0,0,0,0Z"/>
        <path class="rsd-t" d="m12,18.4s0,0-.1,0c0,0,0-.3,0-.4,0-.7,0-1.8,0-3.4,0,0,0,0,.1,0,0,0,0,0,.1,0,0,1.6,0,2.7,0,3.4,0,.1,0,.3,0,.4,0,0-.1,0-.1,0,0,0,0,0,0,0Z"/>
        <path class="rsd-t" d="m11.1,17.3s0,0,.1,0c0,0,0-.2.1-.4.2-.6.5-1.7.8-3.3h-.2c-.4,1.5-.6,2.6-1,3.2,0,.1-.1.3,0,.4,0,0,0,0,0,0,0,0,0,0,0,0Z"/>
        <path class="rsd-t" d="m11.4,17.4s0,0,.1,0c0,0,0-.3,0-.4,0-.7.3-1.8.5-3.4h-.2c-.3,1.5-.4,2.7-.7,3.3,0,.1,0,.3,0,.4,0,0,0,0,0,0,0,0,0,0,0,0h0Z"/>
        <path class="rsd-t" d="m11.7,17.5s0,0,.1,0c0,0,0-.3,0-.4,0-.7.1-1.8.2-3.4h-.2c-.2,1.6-.3,2.7-.4,3.4,0,.1,0,.3,0,.4,0,0,0,0,.1,0,0,0,0,0,0,0h0Z"/>
        <path class="rsd-t" d="m12.9,17.3s0,0-.1,0c0,0,0-.2-.1-.4-.2-.6-.5-1.7-.8-3.3h.2c.4,1.5.6,2.6,1,3.2,0,.1.1.3,0,.4,0,0,0,0,0,0,0,0,0,0,0,0Z"/>
        <path class="rsd-t" d="m12.6,17.4s0,0-.1,0c0,0,0-.3,0-.4,0-.7-.3-1.8-.5-3.4h.2c.3,1.5.4,2.7.7,3.3,0,.1,0,.3,0,.4,0,0,0,0,0,0,0,0,0,0,0,0h0Z"/>
        <path class="rsd-t" d="m12.3,17.5s0,0-.1,0c0,0,0-.3,0-.4,0-.7-.1-1.8-.2-3.4h.2c.2,1.6.3,2.7.4,3.4,0,.1,0,.3,0,.4,0,0,0,0-.1,0,0,0,0,0,0,0h0Z"/>
        <path class="rsd-t" d="m12,17.5s0,0-.1,0c0,0,0-.3,0-.4,0-.7,0-1.8,0-3.4h.2c0,1.6,0,2.7,0,3.4,0,.1,0,.3,0,.4,0,0,0,0-.1,0h0Z"/>
        <path class="rsd-t" d="m12.5,15.4c0,.1-.3,1.5-.5,1.5s-.5-1.3-.5-1.5h1Z"/>
      </g>
      <g id="rsd-g" data-name="b">
        <g>
          <path class="rsd-s" d="m14.2,17.1s0,0,0,0c0,0,.1.2.2.3.1.1,0,.3,0,.4,0,.1-.1.2-.2.3,0,0,0,.2,0,.4,0,.1,0,.2.1.2,0,0,0,0-.1.2,0,0,0,0,0,0,0,0,0,0,0,0,0,0,0,0,0,0,0,0-.1-.1-.1-.2,0,0,.1,0,.1-.2,0-.2,0-.3,0-.4,0,0,0-.2-.2-.3,0-.1-.1-.3,0-.4,0,0,.2-.2.2-.3,0,0,0,0,0,0Z"/>
          <path id="rsd-h" data-name="c" class="rsd-s" d="m14.5,18.8c-.2.2-.4-.2-.2-.7.1-.4.8-.2.4.3,0,0,0,0,0,0,0-.1,0-.2-.1-.1-.3,0-.3.6,0,.5,0,0,0,.1,0,.1"/>
          <path id="rsd-i" data-name="c" class="rsd-s" d="m13.9,18.8c.2.2.4-.2.2-.7-.1-.4-.8-.2-.4.3,0,0,0,0,0,0,0-.1,0-.2.1-.1.3,0,.3.6,0,.5,0,0,0,.1,0,.1"/>
          <path class="rsd-s" d="m14,18.3c0,0,0,0,0,0s0,0,0,0h.3c0,0,0,0,0,0s0,0,0,0h-.3Z"/>
          <path class="rsd-s" d="m14.4,16c.1.3.3.6.5.8,0,0,.1,0,.2,0s.4,0,.4,0c.1,0,.3,0,.2,0,0,0,0,.2-.1.1s-.3,0-.4,0c0,0,.3.1.5.1s.1.2,0,.3h0c0,.1-.2.1-.2,0s-.4-.2-.4-.3c0,.2.2.3.3.5,0,0,.1,0,0,.2h-.2c-.2,0-.2,0-.2-.2s0-.4-.1-.4c0,0,0-.1,0-.2,0,0-.3-.2-.4-.2-.1,0-.2,0-.2-.1,0,0,0-.2,0-.2,0,0,.1,0,.2,0,.1,0,.2.1.2.1,0,0-.2-.1-.4-.4-.2-.3-.3-.7.2-.4Z"/>
          <path class="rsd-s" d="m15.7,17c.1,0,.2,0,.2,0,0,0,0,0,0,0,0-.2-.2-.2-.3-.1,0,0,0,0,0,0,0,0,.1,0,.1,0h0Z"/>
          <path class="rsd-s" d="m14.1,16.8c-.1,0-.2,0-.3,0,0,0,0,0,0,0,.1-.2.3-.2.4,0,0,0,0,0,0,0,0,0-.1,0-.1,0h0Z"/>
          <path class="rsd-s" d="m15,17.8s0-.1,0-.2c0,0,0,0,.1,0,.1.1.1.3,0,.4,0,0,0,0,0,0,0,0,0-.2,0-.3Z"/>
          <path class="rsd-s" d="m15.5,17.4c.1,0,.1,0,.1.2,0,0,0,0,0,0,.1-.3,0-.4-.2-.3,0,0,0,.2,0,.2Z"/>
        </g>
        <path class="rsd-z" d="m14.1,16.2c0,0,.1,0,.2,0s0,.1,0,.2c0,0,.1-.1.2,0s0,.1,0,.2c0,0,.1-.1.2,0,0,0,0,.1,0,.2,0,0,.1,0,.1,0,0,0,0,0,0,.1,0,0,0,0,.1,0,0,0,0,.1,0,.1"/>
        <g>
          <path class="rsd-t" d="m14.1,12.6c0,.2,0,1.8,0,2,0,.2.1.4.2.4,0-.1.2-.3.2-.5,0-.1,0-1.6,0-1.9h-.4Z"/>
          <path class="rsd-t" d="m15.1,12.2v2.1c0,.2-.2,1.3-.3,1.5-.3-.1-.4-.9-.3-1.6,0-.7,0-1.4,0-1.5l.7-.5Z"/>
          <path class="rsd-t" d="m15.5,12.5v2.1c0,.2-.3,1.3-.5,1.5-.3-.3-.3-1.3-.2-1.7.1-.6,0-1.4,0-1.5l.6-.5Z"/>
          <path class="rsd-t" d="m15.7,13h-.6c0,.2,0,.9,0,1.5,0,.5-.2,1.8.3,2.2.3-.7,0-1.4.2-2v-1.7Z"/>
          <path class="rsd-t" d="m13.6,12.2v2c.1.2.2.4.3.4,0-.1.1-.3.1-.5,0-.1,0-1.6,0-1.9h-.4Z"/>
          <path class="rsd-t" d="m14.6,10.9c0,.5,0,1.6,0,1.7,0,.2,0,.5-.2.6-.1,0-.2-.2-.2-.4,0-.2,0-1.1,0-1.5l.4-.3Z"/>
          <path class="rsd-t" d="m14.2,11.2c0,.5,0,1.4,0,1.4,0,.2,0,.4-.1.5-.1,0-.2-.2-.2-.4,0-.1,0-.7,0-1.1l.4-.4Z"/>
          <path class="rsd-t" d="m14.6,10.9l.4-.5c0,.3.2,2.2,0,2.4,0,.2,0,.4-.2.5-.1,0-.3-.2-.2-.4,0-.2,0-1.7,0-1.9Z"/>
          <path class="rsd-t" d="m15.3,12.1v.6c0,.2,0,.4-.1.5-.1,0-.2-.2-.2-.4,0-.8,0-1.6-.1-2.4l.3-.2.2,1.9Z"/>
          <path class="rsd-t" d="m15.7,12.6v.4c-.1.2-.2.4-.3.5-.1,0-.2-.2-.2-.4.2-1.2,0-2.1-.2-3.1.6.4.9,1.2.7,2.6h0Z"/>
          <path class="rsd-t" d="m15.7,13l.5-.2c0,.5,0,1.2-.2,2.1-.1.8,0,1.4,0,1.8-.6,0-.8-.8-.5-2.2,0-.4.2-.8.1-1.5Z"/>
          <path class="rsd-t" d="m15.5,10.5c.1.6.2,1.4.1,2.2,0,.3-.1.6-.2.8.4,0,.6-.4.6-1.1v-1.8c0,0-.5,0-.5,0Z"/>
          <path class="rsd-t" d="m15.8,10.6c0,.2.1.4.1.6,0,.7,0,1.6-.1,2.2.4,0,.5-.4.5-1.1,0-.5,0-1.2-.1-1.9l-.4.3Z"/>
          <path class="rsd-t" d="m14.9,10.5h.4c0,.3.1.5.1.7,0,.2,0,.5-.1.6-.1,0-.2-.3-.2-.5v-.8Z"/>
          <path class="rsd-t" d="m14,11.2h.3c0,.3,0,.5,0,.6,0,.2,0,.4-.1.5,0,0-.2-.2-.2-.4,0-.2,0-.4,0-.7Z"/>
          <path class="rsd-t" d="m14,11.4c0,.3,0,.5,0,.6,0,.2,0,.4-.2.5,0,0-.2-.2-.2-.4l.4-.6Z"/>
          <path class="rsd-t" d="m14.3,11.1h.3c0,.3,0,.5,0,.6,0,.2,0,.4-.1.5-.1,0-.2-.2-.2-.4,0-.2,0-.4,0-.7Z"/>
          <path class="rsd-t" d="m15,10.6c0,.2.1,1,0,1.3-.1,0-.2-.2-.3-.5,0-.2,0-.5,0-.7h.3Z"/>
          <path class="rsd-t" d="m13.7,15.2l.5.3c.2.3.3.5.5.7-.3,0-.5,0-.6-.2-.2-.3-.3-.4-.4-.5v-.3Z"/>
          <path class="rsd-t" d="m13.9,15.4c.1.3.2.4.3.5,0,.2,0,.4,0,.5-.1,0-.3-.1-.4-.3v-.7Z"/>
          <path class="rsd-t" d="m13.8,15.5c0,.3.1.5.1.6,0,.2,0,.4,0,.5-.1,0-.2-.2-.3-.4,0-.2,0-.4,0-.7h.3Z"/>
          <path class="rsd-t" d="m13.1,15.7c.2.3.2.5.3.8.2-.2.3-.4.2-.6,0-.3-.2-.7-.2-.7l-.3.6Z"/>
          <path class="rsd-t" d="m13.6,14.8c.1.3.2.5.2.6,0,.2,0,.4,0,.5-.1,0-.3-.1-.4-.3,0-.2-.1-.4-.2-.6h.3Z"/>
          <path class="rsd-t" d="m13.6,14.3c0,0,.2.2.3.3,0,0,0,0,0,0,0,0,0,.1,0,.2,0,.4.2.5.3.7-.3,0-.5-.1-.6-.3-.1-.3-.2-.5-.3-.5v-.4Z"/>
          <path class="rsd-t" d="m12.8,16c-.2.3-.3.5-.4.7-.2-.2-.2-.4-.1-.7.4-.4.4-.4.5,0Z"/>
          <path class="rsd-t" d="m12.7,15.8c-.2.3-.5.5-.5.7-.2-.2-.2-.4-.1-.7h.6Z"/>
          <path class="rsd-t" d="m13.1,15.7c-.2.3-.3.5-.4.7-.2-.2-.2-.4-.1-.7h.5Z"/>
        </g>
      </g>
      <g id="rsd-j" data-name="b">
        <g>
          <path class="rsd-s" d="m9.8,17.1s0,0,0,0c0,0-.1.2-.2.3-.1.1,0,.3,0,.4,0,.1.1.2.2.3,0,0,0,.2,0,.4,0,.1,0,.2-.1.2,0,0,0,0,.1.2,0,0,0,0,0,0,0,0,0,0,0,0,0,0,0,0,0,0,0,0,.1-.1.1-.2,0,0-.1,0-.1-.2,0-.2,0-.3,0-.4,0,0,0-.2.2-.3,0-.1.1-.3,0-.4,0,0-.2-.2-.2-.3,0,0,0,0,0,0Z"/>
          <path id="rsd-k" data-name="c" class="rsd-s" d="m9.5,18.8c.2.2.4-.2.2-.7-.1-.4-.8-.2-.4.3,0,0,0,0,0,0,0-.1,0-.2.1-.1.3,0,.3.6,0,.5,0,0,0,.1,0,.1"/>
          <path id="rsd-l" data-name="c" class="rsd-s" d="m10.2,18.8c-.2.2-.4-.2-.2-.7.1-.4.8-.2.4.3,0,0,0,0,0,0,0-.1,0-.2-.1-.1-.3,0-.3.6,0,.5,0,0,0,.1,0,.1"/>
          <path class="rsd-s" d="m10,18.3c0,0,0,0,0,0s0,0,0,0h-.3c0,0,0,0,0,0s0,0,0,0h.3Z"/>
          <path class="rsd-s" d="m9.7,16c-.1.3-.3.6-.5.8,0,0-.1,0-.2,0s-.4,0-.4,0c-.1,0-.3,0-.2,0,0,0,0,.2.1.1s.3,0,.4,0c0,0-.3.1-.5.1s-.1.2,0,.3h0c0,.1.2.1.2,0s.4-.2.4-.3c0,.2-.2.3-.3.5,0,0-.1,0,0,.2h.2c.2,0,.2,0,.2-.2s0-.4.1-.4c0,0,0-.1,0-.2,0,0,.3-.2.4-.2.1,0,.2,0,.2-.1,0,0,0-.2,0-.2,0,0-.1,0-.2,0-.1,0-.2.1-.2.1,0,0,.2-.1.4-.4.2-.3.3-.7-.2-.4Z"/>
          <path class="rsd-s" d="m8.4,17c-.1,0-.2,0-.2,0,0,0,0,0,0,0,0-.2.2-.2.3-.1,0,0,0,0,0,0,0,0-.1,0-.1,0h0Z"/>
          <path class="rsd-s" d="m9.9,16.8c.1,0,.2,0,.3,0,0,0,0,0,0,0-.1-.2-.3-.2-.4,0,0,0,0,0,0,0,0,0,.1,0,.1,0h0Z"/>
          <path class="rsd-s" d="m9,17.8s0-.1,0-.2c0,0,0,0-.1,0-.1.1-.1.3,0,.4,0,0,0,0,0,0,0,0,0-.2,0-.3Z"/>
          <path class="rsd-s" d="m8.6,17.4c-.1,0-.1,0-.1.2,0,0,0,0,0,0-.1-.3,0-.4.2-.3,0,0,0,.2,0,.2Z"/>
        </g>
        <path class="rsd-z" d="m10,16.2c0,0-.1,0-.2,0s0,.1,0,.2c0,0-.1-.1-.2,0s0,.1,0,.2c0,0-.1-.1-.2,0,0,0,0,.1,0,.2,0,0-.1,0-.1,0,0,0,0,0,0,.1,0,0,0,0-.1,0,0,0,0,.1,0,.1"/>
        <g>
          <path class="rsd-t" d="m10,12.6c0,.2,0,1.8,0,2,0,.2-.1.4-.2.4,0-.1-.2-.3-.2-.5,0-.1,0-1.6,0-1.9h.4Z"/>
          <path class="rsd-t" d="m9,12.2v2.1c0,.2.2,1.3.3,1.5.3-.1.4-.9.3-1.6,0-.7,0-1.4,0-1.5l-.7-.5Z"/>
          <path class="rsd-t" d="m8.6,12.5v2.1c0,.2.3,1.3.5,1.5.3-.3.3-1.3.2-1.7-.1-.6,0-1.4,0-1.5l-.6-.5Z"/>
          <path class="rsd-t" d="m8.3,13h.6c0,.2,0,.9,0,1.5,0,.5.2,1.8-.3,2.2-.3-.7,0-1.4-.2-2v-1.7Z"/>
          <path class="rsd-t" d="m10.4,12.2v2c-.1.2-.2.4-.3.4,0-.1-.1-.3-.1-.5,0-.1,0-1.6,0-1.9h.4Z"/>
          <path class="rsd-t" d="m9.4,10.9c0,.5,0,1.6,0,1.7,0,.2,0,.5.2.6.1,0,.2-.2.2-.4,0-.2,0-1.1,0-1.5l-.4-.3Z"/>
          <path class="rsd-t" d="m9.8,11.2c0,.5,0,1.4,0,1.4,0,.2,0,.4.1.5.1,0,.2-.2.2-.4,0-.1,0-.7,0-1.1l-.4-.4Z"/>
          <path class="rsd-t" d="m9.5,10.9l-.4-.5c0,.3-.2,2.2,0,2.4,0,.2,0,.4.2.5.1,0,.3-.2.2-.4,0-.2,0-1.7,0-1.9Z"/>
          <path class="rsd-t" d="m8.7,12.1v.6c0,.2,0,.4.1.5.1,0,.2-.2.2-.4,0-.8,0-1.6.1-2.4l-.3-.2-.2,1.9Z"/>
          <path class="rsd-t" d="m8.3,12.6v.4c.1.2.2.4.3.5.1,0,.2-.2.2-.4-.2-1.2,0-2.1.2-3.1-.6.4-.9,1.2-.7,2.6h0Z"/>
          <path class="rsd-t" d="m8.4,13l-.5-.2c0,.5,0,1.2.2,2.1.1.8,0,1.4,0,1.8.6,0,.8-.8.5-2.2,0-.4-.2-.8-.1-1.5Z"/>
          <path class="rsd-t" d="m8.6,10.5c-.1.6-.2,1.4-.1,2.2,0,.3.1.6.2.8-.4,0-.6-.4-.6-1.1v-1.8c0,0,.5,0,.5,0Z"/>
          <path class="rsd-t" d="m8.3,10.6c0,.2-.1.4-.1.6,0,.7,0,1.6.1,2.2-.4,0-.5-.4-.5-1.1,0-.5,0-1.2.1-1.9l.4.3Z"/>
          <path class="rsd-t" d="m9.1,10.5h-.4c0,.3-.1.5-.1.7,0,.2,0,.5.1.6.1,0,.2-.3.2-.5v-.8Z"/>
          <path class="rsd-t" d="m10,11.2h-.3c0,.3,0,.5,0,.6,0,.2,0,.4.1.5,0,0,.2-.2.2-.4,0-.2,0-.4,0-.7Z"/>
          <path class="rsd-t" d="m10,11.4c0,.3,0,.5,0,.6,0,.2,0,.4.2.5,0,0,.2-.2.2-.4l-.4-.6Z"/>
          <path class="rsd-t" d="m9.7,11.1h-.3c0,.3,0,.5,0,.6,0,.2,0,.4.1.5.1,0,.2-.2.2-.4,0-.2,0-.4,0-.7Z"/>
          <path class="rsd-t" d="m9.1,10.6c0,.2-.1,1,0,1.3.1,0,.2-.2.3-.5,0-.2,0-.5,0-.7h-.3Z"/>
          <path class="rsd-t" d="m10.3,15.2l-.5.3c-.2.3-.3.5-.5.7.3,0,.5,0,.6-.2.2-.3.3-.4.4-.5v-.3Z"/>
          <path class="rsd-t" d="m10.2,15.4c-.1.3-.2.4-.3.5,0,.2,0,.4,0,.5.1,0,.3-.1.4-.3v-.7Z"/>
          <path class="rsd-t" d="m10.3,15.5c0,.3-.1.5-.1.6,0,.2,0,.4,0,.5.1,0,.2-.2.3-.4,0-.2,0-.4,0-.7h-.3Z"/>
          <path class="rsd-t" d="m10.9,15.7c-.2.3-.2.5-.3.8-.2-.2-.3-.4-.2-.6,0-.3.2-.7.2-.7l.3.6Z"/>
          <path class="rsd-t" d="m10.4,14.8c-.1.3-.2.5-.2.6,0,.2,0,.4,0,.5.1,0,.3-.1.4-.3,0-.2.1-.4.2-.6h-.3Z"/>
          <path class="rsd-t" d="m10.4,14.3c0,0-.2.2-.3.3,0,0,0,0,0,0,0,0,0,.1,0,.2,0,.4-.2.5-.3.7.3,0,.5-.1.6-.3.1-.3.2-.5.3-.5v-.4Z"/>
          <path class="rsd-t" d="m11.2,16c.2.3.3.5.4.7.2-.2.2-.4.1-.7-.4-.4-.4-.4-.5,0Z"/>
          <path class="rsd-t" d="m11.3,15.8c.2.3.5.5.5.7.2-.2.2-.4.1-.7h-.6Z"/>
          <path class="rsd-t" d="m10.9,15.7c.2.3.3.5.4.7.2-.2.2-.4.1-.7h-.5Z"/>
        </g>
      </g>
      <path class="rsd-t" d="m12,10.4c0-.6-.2-1-.4-1.4.1,0,.2,0,.2-.3-.2,0-.2,0-.7-.2-.4-.2-.9-.2-.9,0,0,.4.3.6.6.8.1.3.4.9.2,1.2s-.4.5-.6.6c0,0,0,0,.1,0,0,0-.3.1-.3.1-.2-.1-.4-.5-.6-.7-.5-.6-.7-1-.6-1.3.1-.4.6-.8,0-.7s-1.1.9-1.2,1.8c0,.3,0,.7-.1.9.3-.1.5-.2.5-.4,0,.1,0,.3,0,.4.3,0,.4-.2.5-.4,0,0,0-.2,0-.2,0,0,.2,0,.3,0,0,.1.4.5.6.8.2.3.5.6.6.6h3.5c.1,0,.4-.3.6-.6.2-.3.5-.7.6-.8.1,0,.2,0,.3,0,0,0,0,.1,0,.2,0,.2.3.4.5.4,0-.1,0-.2,0-.4,0,.1.2.3.5.4,0-.2,0-.5-.1-.9-.1-.9-.6-1.7-1.2-1.8s-.1.3,0,.7c0,.3-.2.8-.6,1.3-.2.2-.4.5-.6.7,0,0-.3,0-.3-.1,0,0,0,0,.1,0-.2-.1-.4-.3-.6-.6-.2-.3,0-.9.2-1.2.3-.2.5-.5.6-.8,0-.2-.5-.1-.9,0-.5.2-.5.2-.7.2,0,.3,0,.3.2.3-.2.4-.4.8-.4,1.4Z"/>
      <g id="rsd-m" data-name="d">
        <g>
          <path class="rsd-s" d="m13.1,9.6h.5c.4,0,.6,0,.7-.3-.1.2-.3.3-.5.2-.3,0-.4-.1-.5-.1l-.2.2Z"/>
          <path class="rsd-s" d="m14,8.5c.4,0,.4.3,0,.7,0,0-.1,0-.1,0,0-.1-.2-.2-.3-.1,0,0,0,.1-.2,0-.2.2-.4.3-.1.3.1,0,.2,0,.4,0,0,.1,0,.1,0,.1-.2,0-.4,0-.5,0-.4,0,.6-1,.6-1.1,0-.1.2-.3.3-.1Z"/>
        </g>
        <g>
          <path class="rsd-af" d="m13.4,8.9h0c0,0,0-.1,0-.2,0,0,0,0-.1,0,0,0,0,.1.1.2Z"/>
          <circle class="rsd-af" cx="14.1" cy="8.8" r="0"/>
        </g>
        <g>
          <path class="rsd-y" d="m16,13.3c0,.5,0,.9-.1,1.3s-.1.7-.1,1.1"/>
          <path class="rsd-y" d="m15.8,13.4c.2-.6.2-1.5.1-2.1s-.5-1.4-.6-1.5"/>
          <path class="rsd-y" d="m14,8.5c0,0,0,.2-.2.3"/>
          <path class="rsd-y" d="m12.9,10.9c.2.2.4.3.7.2"/>
          <path class="rsd-y" d="m12.8,10.8c0,0,0,.2.1.4-.2,0-.3-.1-.4-.2"/>
          <path class="rsd-y" d="m12.6,10.7c0,.2,0,.3-.1.4,0,0-.2-.2-.2-.3"/>
          <path class="rsd-y" d="m13.2,8.8c0,0,.1.2.2.1.1,0,.2-.2.2-.3"/>
          <path class="rsd-y" d="m13,8.8c0,0,.1,0,.3,0,.1,0,.3-.1.4,0"/>
          <path class="rsd-y" d="m12.7,9c0,0-.2,0-.3,0"/>
        </g>
      </g>
      <g id="rsd-n" data-name="d">
        <g>
          <path class="rsd-s" d="m10.9,9.6h-.5c-.4,0-.6,0-.7-.3.1.2.3.3.5.2.3,0,.4-.1.5-.1l.2.2Z"/>
          <path class="rsd-s" d="m10,8.5c-.4,0-.4.3,0,.7,0,0,.1,0,.1,0,0-.1.2-.2.3-.1,0,0,0,.1.2,0,.2.2.4.3.1.3-.1,0-.2,0-.4,0,0,.1,0,.1,0,.1.2,0,.4,0,.5,0,.4,0-.6-1-.6-1.1,0-.1-.2-.3-.3-.1Z"/>
        </g>
        <g>
          <path class="rsd-af" d="m10.6,8.9h0c0,0,0-.1,0-.2,0,0,0,0,.1,0,0,0,0,.1-.1.2Z"/>
          <circle class="rsd-af" cx="9.9" cy="8.8" r="0"/>
        </g>
        <g>
          <path class="rsd-y" d="m8.1,13.3c0,.5,0,.9.1,1.3s.1.7.1,1.1"/>
          <path class="rsd-y" d="m8.3,13.4c-.2-.6-.2-1.5-.1-2.1s.5-1.4.6-1.5"/>
          <path class="rsd-y" d="m10,8.5c0,0,0,.2.2.3"/>
          <path class="rsd-y" d="m11.2,10.9c-.2.2-.4.3-.7.2"/>
          <path class="rsd-y" d="m11.2,10.8c0,0,0,.2-.1.4.2,0,.3-.1.4-.2"/>
          <path class="rsd-y" d="m11.4,10.7c0,.2,0,.3.1.4,0,0,.2-.2.2-.3"/>
          <path class="rsd-y" d="m10.9,8.8c0,0-.1.2-.2.1-.1,0-.2-.2-.2-.3"/>
          <path class="rsd-y" d="m11,8.8c0,0-.1,0-.3,0-.1,0-.3-.1-.4,0"/>
          <path class="rsd-y" d="m11.4,9c0,0,.2,0,.3,0"/>
        </g>
      </g>
      <path class="rsd-t" d="m11.8,10.7c0,.2,0,.4.2.6.1-.2.2-.4.2-.6"/>
      <path class="rsd-x" d="m13.8,11.3v2.9c0,.5-.2,1-.5,1.3s-.8.6-1.3.6-.9-.2-1.3-.6-.5-.8-.5-1.3v-2.9h3.6Z"/>
      <path class="rsd-aa" d="m13.8,13.1v.7h-1.4v2.2c-.2,0-.5,0-.7,0v-2.2h-1.4v-.7h1.4v-1.8h.7v1.8h1.4Z"/>
      <path id="rsd-o" data-name="e" class="rsd-t" d="m12.6,14.1c.2,0,.8-.3.8.2s-.3.4-.3.2c0,0,0-.2,0-.2s.1,0,.1,0c.2-.1-.2-.4-.4,0,0,0,0,.2,0,.3s-.2.2,0,.3c.2.3.6,0,.4,0,0,0,0,.1-.1,0s0,0,0-.2c0-.2.3,0,.3.2,0,.5-.6.3-.8.2v-1Z"/>
      <path id="rsd-p" data-name="e" class="rsd-t" d="m11.4,11.7c-.2,0-.8-.3-.8.2s.3.4.3.2c0,0,0-.2,0-.2s-.1,0-.1,0c-.2-.1.2-.4.4,0,0,0,0,.2,0,.3s.2.2,0,.3c-.2.3-.6,0-.4,0,0,0,0,.1.1,0s0,0,0-.2c0-.2-.3,0-.3.2,0,.5.6.3.8.2v-1Z"/>
      <path id="rsd-q" data-name="e" class="rsd-t" d="m12.6,11.7c.2,0,.8-.3.8.2s-.3.4-.3.2c0,0,0-.2,0-.2s.1,0,.1,0c.2-.1-.2-.4-.4,0,0,0,0,.2,0,.3s-.2.2,0,.3c.2.3.6,0,.4,0,0,0,0,.1-.1,0s0,0,0-.2c0-.2.3,0,.3.2,0,.5-.6.3-.8.2v-1Z"/>
      <path id="rsd-r" data-name="e" class="rsd-t" d="m11.4,14.1c-.2,0-.8-.3-.8.2s.3.4.3.2c0,0,0-.2,0-.2s-.1,0-.1,0c-.2-.1.2-.4.4,0,0,0,0,.2,0,.3s.2.2,0,.3c-.2.3-.6,0-.4,0,0,0,0,.1.1,0s0,0,0-.2c0-.2-.3,0-.3.2,0,.5.6.3.8.2v-1Z"/>
    </g>
  </g>
</svg>