<?xml version="1.0" encoding="UTF-8"?>
<svg id="rsd-a" xmlns="http://www.w3.org/2000/svg" width="24" height="24" version="1.1" xmlns:xlink="http://www.w3.org/1999/xlink" viewBox="0 0 24 24">
  <defs>
    <clipPath id="clippath">
      <circle cx="12" cy="12" r="12" fill="none" stroke-width="0"/>
    </clipPath>
  </defs>
  <g clip-path="url(#clippath)">
    <g>
      <path d="M0,0h24v24H0V0Z" fill="#f4f4f4" stroke-width="0"/>
      <circle cx="12" cy="3.3" r=".5" fill="#0c4076" stroke-width="0"/>
      <path d="M0,0h24V16H0V0Z" fill="#0c4076" stroke-width="0"/>
      <path d="M0,0h24v8.1H0V0Z" fill="#c6363c" stroke-width="0"/>
      <g>
        <path d="M12.1,2.3h0v.2h-.1.1v.6h.2v-.6h.1-.1v-.2h-.2Z" fill="#edb92e" stroke-width="0"/>
        <path d="M12.1,2.9h-.2v.5h.2v-.5Z" fill="#edb92e" stroke-width="0"/>
        <path d="M12.5,3.2v.2h-.9v-.2h.9Z" fill="#edb92e" stroke-width="0"/>
        <path d="M14.7,7.1c.1-.2.2-.4.3-.5-.3.2-.5.2-.5-.2-.3.4-.5.4-.7,0-.3.5-.6.5-.8,0-.4.4-.7.4-1,0-.3.5-.6.5-1,0-.2.5-.5.5-.8,0-.2.5-.4.5-.7,0,0,.3-.2.4-.5.2,0,0,.2.3.3.5,0,0,5.4,0,5.4,0Z" fill="#edb92e" stroke-width="0"/>
        <path d="M9.3,7.1l.2.8h5.1l.2-.8h-2.7c0,0-2.7,0-2.7,0h-.1Z" fill="#edb92e" stroke-width="0"/>
        <path d="M15,6.3c-.2.5-.3.5-.4,0,0,0,0,0,0,0h-.2s0,0-.1,0h0c-.4.4-.5.4-.5-.2h-.3c-.3.6-.5.6-.7,0h-.2s-.1,0-.2,0h0c-.1.5-.8.6-.7-.2h-.3c.1.8-.6.7-.7.2,0,0,0,0,0,0h-.4c-.2.6-.4.5-.7,0h-.3c0,.6,0,.7-.5.2h-.3c0,.4-.2.4-.4,0h-.1c0,0,0,.3.1.3.3.3.5.3.5,0,.4.4.7.4.7,0,.3.6.8.3.8,0,.1.5.9.5.9,0,0,.6.8.6.9,0,0,.3.5.6.8,0,0,.5.3.5.7,0,0,.4.2.5.5,0,0,0,.1-.2.1-.3h-.1,1.1Z" fill="#edb92e" stroke-width="0"/>
        <path d="M9.3,7.2c-.1,0-.1,0,0,0,1.8-.2,3.6-.2,5.4,0,.1,0,.1,0,0,0-1.8-.2-3.6-.2-5.4,0Z" fill="#edb92e" stroke-width="0"/>
        <path d="M11.8,5.4l-.2-.2v-1.4c0,0,0-.2.1,0,.2,0,.5,0,.7,0q.1,0,.1,0v1.4l-.2.2h-.5Z" fill="#edb92e" stroke-width="0"/>
      </g>
      <path d="M12.6,7.4l-.6.3-.6-.3.6-.3.6.3Z" fill="#edb92e" stroke-width="0"/>
      <g id="rsd-c">
        <g>
          <path d="M14.7,4.3l.7.3v.3l-.2.5v.4h.3l.4-1.1-.5-.4-1.2-.4.5.4" fill="#edb92e" stroke-width="0"/>
          <path d="M15.3,5.8h0v-.3c0,0,.2-.2.2-.4v-.3c0,0-.1-.2-.2-.2l-.4-.2c-.3,0-.5-.2-.7-.2h.1c.3.2.7.3.9.5s.2.2-.1.7h0v.3h.2Z" fill="#edb92e" stroke-width="0"/>
          <path d="M13,5.5v.2h0v-.2Z" fill="#edb92e" stroke-width="0"/>
          <path d="M14.7,5.7s-.1,0,0,.2h0s.1-.2,0-.2Z" fill="#edb92e" stroke-width="0"/>
        </g>
        <g>
          <circle cx="14.3" cy="3.9" r=".2" fill="#f4f4f4" stroke-width="0"/>
          <circle cx="14.7" cy="4" r=".2" fill="#f4f4f4" stroke-width="0"/>
          <circle cx="15" cy="4.1" r=".2" fill="#f4f4f4" stroke-width="0"/>
          <circle cx="15.3" cy="4.3" r=".2" fill="#f4f4f4" stroke-width="0"/>
          <circle cx="15.6" cy="4.5" r=".2" fill="#f4f4f4" stroke-width="0"/>
          <circle cx="15.5" cy="5.7" r=".2" fill="#f4f4f4" stroke-width="0"/>
          <circle cx="15.6" cy="5.4" r=".2" fill="#f4f4f4" stroke-width="0"/>
          <circle cx="15.8" cy="5.1" r=".2" fill="#f4f4f4" stroke-width="0"/>
          <circle cx="15.8" cy="4.7" r=".2" fill="#f4f4f4" stroke-width="0"/>
          <rect x="12.7" y="7.6" fill="#f4f4f4" stroke-width="0"/>
          <rect x="14" y="7.7" fill="#f4f4f4" stroke-width="0"/>
          <rect x="14" y="7.3" fill="#f4f4f4" stroke-width="0"/>
          <rect x="12.7" y="7.2" fill="#f4f4f4" stroke-width="0"/>
          <path d="M13.1,6s.2-.5,0-.5-.2.4-.1.5.1,0,.2,0h0Z" fill="#f4f4f4" stroke-width="0"/>
          <path d="M14.5,6.2q0,0,.2,0s.3-.4,0-.5-.2.3-.2.4h0Z" fill="#f4f4f4" stroke-width="0"/>
        </g>
        <g>
          <path d="M12.4,3.8h.9l.6.2.2.4-.4.8.2.5.6-.5.3-1-.7-.6h-1.5c0,0,0,0,0,0h-.2Z" fill="#edb92e" stroke-width="0"/>
          <path d="M12.5,3.7c.5,0,.9,0,1.4.2.4.2.4.6-.1,1.3v.3h-.1v-.2h0c.3-.4.5-.7.4-1s-.7-.4-1.5-.4h0v-.2Z" fill="#edb92e" stroke-width="0"/>
          <path d="M14.4,3.9h0c.3,0,.4.3.3.4,0,0,0,.3-.3.8-.1,0-.2.2-.3.2h.1s.1-.2.2-.2h0c0-.3.2-.6.3-.8,0-.3,0-.4-.4-.6h0v.2Z" fill="#edb92e" stroke-width="0"/>
        </g>
        <g>
          <circle cx="12.6" cy="3.5" r=".2" fill="#f4f4f4" stroke-width="0"/>
          <circle cx="12.9" cy="3.5" r=".2" fill="#f4f4f4" stroke-width="0"/>
          <circle cx="13.3" cy="3.6" r=".2" fill="#f4f4f4" stroke-width="0"/>
          <circle cx="13.6" cy="3.6" r=".2" fill="#f4f4f4" stroke-width="0"/>
          <circle cx="13.9" cy="3.7" r=".2" fill="#f4f4f4" stroke-width="0"/>
          <circle cx="14.2" cy="3.9" r=".2" fill="#f4f4f4" stroke-width="0"/>
          <circle cx="14.4" cy="4.1" r=".2" fill="#f4f4f4" stroke-width="0"/>
          <circle cx="14" cy="5.3" r=".2" fill="#f4f4f4" stroke-width="0"/>
          <circle cx="14.2" cy="5" r=".2" fill="#f4f4f4" stroke-width="0"/>
          <circle cx="14.3" cy="4.7" r=".2" fill="#f4f4f4" stroke-width="0"/>
          <circle cx="14.4" cy="4.4" r=".2" fill="#f4f4f4" stroke-width="0"/>
        </g>
        <g>
          <path d="M15.3,5.8h.2s-.2,0-.2,0Z" fill="#edb92e" stroke-width="0"/>
          <path d="M15.4,5.7h0q-.1,0,0,0v.2h0c.1,0,0,0,.1,0,0,0,.2-.2,0-.2h-.1Z" fill="#edb92e" stroke-width="0"/>
          <path d="M15.3,5.7h-.2c0,0,0,.2.2,0h.2c0-.2-.2-.2-.3,0h.1Z" fill="#edb92e" stroke-width="0"/>
          <path d="M15,6.4h-.2c0,0,0-.2.1-.3v-.2h.1v.2h0c-.1,0-.2,0-.1.2h0Z" fill="#edb92e" stroke-width="0"/>
          <path d="M15,5.9h0v.3h0s0-.2.1-.2h.1-.2Z" fill="#edb92e" stroke-width="0"/>
          <path d="M15.3,6.1h-.1c-.1,0-.2.3,0,.4h0s0,0,.1-.2h0v-.2Z" fill="#edb92e" stroke-width="0"/>
          <path d="M15.2,6.1c-.1,0-.2.2-.1.3h0c0,0,.2-.2,0-.3h.1Z" fill="#edb92e" stroke-width="0"/>
          <path d="M12.2,5.3c0,0,.1-.2.2-.3-.1-.4-.1-.8,0-1.4h0q0,0,0,0v.8c0,.2,0,.4.1.6h-.1s-.1,0-.1,0h0v.2Z" fill="#edb92e" stroke-width="0"/>
          <path d="M12.7,5.8h0q0,0-.2,0s0,0-.1,0h0v.2h0s0,0,.1,0h.2v-.4Z" fill="#edb92e" stroke-width="0"/>
          <path d="M12.6,5.6h0v.2h0v.2h0v-.4Z" fill="#edb92e" stroke-width="0"/>
          <path d="M13.9,5.4h0q-.1,0,0,.2v.2h.2s.1,0,.2,0c0,0,.1-.2,0-.2h-.4Z" fill="#edb92e" stroke-width="0"/>
          <path d="M13.7,5.4h0q0,0,.2,0h0s0,0,.1,0h-.3Z" fill="#edb92e" stroke-width="0"/>
          <path d="M14.4,6h0q0,0,0,0h0v.2h0q0,0,0,0h0v-.2Z" fill="#edb92e" stroke-width="0"/>
          <path d="M14.4,5.8h0c0,0-.1.2,0,.3h0v-.4h0Z" fill="#edb92e" stroke-width="0"/>
          <path d="M13.3,6.1h0q0,0,.1,0s.1,0,.1,0h0v-.2h0v-.2s-.2,0-.2,0h0v.5Z" fill="#edb92e" stroke-width="0"/>
          <path d="M13.3,6.3h0v-.2h0s.1,0,0-.2h0v.4Z" fill="#edb92e" stroke-width="0"/>
        </g>
        <g>
          <path d="M14,7.5l-.6-.3-.6.3.6.3.6-.3Z" fill="#edb92e" stroke-width="0"/>
          <path d="M14.7,7.3l-.6.3.5.3c.1,0,.2-.5.1-.6h0Z" fill="#edb92e" stroke-width="0"/>
        </g>
        <g>
          <path d="M12.2,6s.2,0,.3,0c0,0-.1,0-.3,0h0Z" fill="#21231e" stroke-width="0"/>
          <path d="M12.2,5.9s.2,0,.3,0c0,0-.1,0-.3,0h0Z" fill="#21231e" stroke-width="0"/>
          <path d="M15.2,6.1v-.2.2h0Z" fill="#21231e" stroke-width="0"/>
          <path d="M14,5.9s0-.2.2-.3c0,0-.1,0-.2.3h0Z" fill="#21231e" stroke-width="0"/>
          <path d="M13.9,5.9v-.3.3h0Z" fill="#21231e" stroke-width="0"/>
          <path d="M14,6.1s.1,0,.2,0c0,0,0,0-.2-.2h0Z" fill="#21231e" stroke-width="0"/>
          <path d="M14.1,6s.2,0,.2,0c0,0-.2,0-.3,0h.1Z" fill="#21231e" stroke-width="0"/>
          <path d="M13.7,6s-.2,0-.2,0c0,0,.1,0,.2.2h0Z" fill="#21231e" stroke-width="0"/>
          <path d="M13.7,6.1h-.2s.1,0,.3,0h-.1Z" fill="#21231e" stroke-width="0"/>
        </g>
        <ellipse cx="13.4" cy="7.5" rx=".2" ry=".3" transform="translate(5 20.3) rotate(-86)" fill="#c6363c" stroke-width="0"/>
        <path d="M13.9,5.8c-.1,0-.2,0-.2.2s0,.2.2.2.2,0,.2-.2,0-.2-.2-.2Z" fill="#edb92e" stroke-width="0"/>
        <path d="M13.9,5.9s-.2,0-.2,0c0,0,0,.2.1.2,0,0,.1,0,.2,0,0,0,0-.2-.1-.2Z" fill="#edb92e" stroke-width="0"/>
        <g>
          <path d="M15.2,6.2s-.2,0,0,.2h.1c0,0-.1-.2-.1-.2Z" fill="#0c4076" stroke-width="0"/>
          <path d="M14.7,7.4c-.2,0-.3,0-.3.2s.1.2.3.2.2,0,.2-.2,0-.2-.1-.2h0Z" fill="#0c4076" stroke-width="0"/>
          <path d="M13.9,5.9h-.1.1Z" fill="#0c4076" stroke-width="0"/>
        </g>
      </g>
      <g id="rsd-d">
        <g>
          <path d="M9.4,4.3l-.7.3v.3l.2.5v.4h-.3l-.4-1.1.5-.4,1.2-.4-.5.4" fill="#edb92e" stroke-width="0"/>
          <path d="M8.8,5.8h0v-.3c0,0-.2-.2-.2-.4v-.3c0,0,.1-.2.2-.2l.4-.2c.3,0,.5-.2.7-.2h-.1c-.3.2-.7.3-.9.5s-.2.2.1.7h0v.3h-.2Z" fill="#edb92e" stroke-width="0"/>
          <path d="M11,5.5v.2h0v-.2Z" fill="#edb92e" stroke-width="0"/>
          <path d="M9.3,5.7s.1,0,0,.2h0s-.1-.2,0-.2Z" fill="#edb92e" stroke-width="0"/>
        </g>
        <g>
          <circle cx="9.7" cy="3.9" r=".2" fill="#f4f4f4" stroke-width="0"/>
          <circle cx="9.4" cy="4" r=".2" fill="#f4f4f4" stroke-width="0"/>
          <circle cx="9.1" cy="4.1" r=".2" fill="#f4f4f4" stroke-width="0"/>
          <circle cx="8.7" cy="4.3" r=".2" fill="#f4f4f4" stroke-width="0"/>
          <circle cx="8.4" cy="4.5" r=".2" fill="#f4f4f4" stroke-width="0"/>
          <circle cx="8.6" cy="5.7" r=".2" fill="#f4f4f4" stroke-width="0"/>
          <circle cx="8.4" cy="5.4" r=".2" fill="#f4f4f4" stroke-width="0"/>
          <circle cx="8.3" cy="5.1" r=".2" fill="#f4f4f4" stroke-width="0"/>
          <circle cx="8.2" cy="4.7" r=".2" fill="#f4f4f4" stroke-width="0"/>
          <rect x="11.4" y="7.6" fill="#f4f4f4" stroke-width="0"/>
          <rect x="10.1" y="7.7" fill="#f4f4f4" stroke-width="0"/>
          <rect x="10" y="7.3" fill="#f4f4f4" stroke-width="0"/>
          <rect x="11.4" y="7.2" fill="#f4f4f4" stroke-width="0"/>
          <path d="M11,6s-.2-.5,0-.5.2.4.1.5-.1,0-.2,0h0Z" fill="#f4f4f4" stroke-width="0"/>
          <path d="M9.5,6.2q0,0-.2,0s-.3-.4,0-.5.2.3.2.4h0Z" fill="#f4f4f4" stroke-width="0"/>
        </g>
        <g>
          <path d="M11.6,3.8h-.9l-.6.2-.2.4.4.8-.2.5-.6-.5-.3-1,.7-.6h1.5c0,0,0,0,0,0h.2Z" fill="#edb92e" stroke-width="0"/>
          <path d="M11.5,3.7c-.5,0-.9,0-1.4.2-.4.2-.4.6.1,1.3v.3h.1v-.2h0c-.3-.4-.5-.7-.4-1s.7-.4,1.5-.4h0v-.2Z" fill="#edb92e" stroke-width="0"/>
          <path d="M9.7,3.9h0c-.3,0-.4.3-.3.4,0,0,0,.3.3.8.1,0,.2.2.3.2h-.1s-.1-.2-.2-.2h0c0-.3-.2-.6-.3-.8,0-.3,0-.4.4-.6h0v.2Z" fill="#edb92e" stroke-width="0"/>
        </g>
        <g>
          <circle cx="11.4" cy="3.5" r=".2" fill="#f4f4f4" stroke-width="0"/>
          <circle cx="11.1" cy="3.5" r=".2" fill="#f4f4f4" stroke-width="0"/>
          <circle cx="10.8" cy="3.6" r=".2" fill="#f4f4f4" stroke-width="0"/>
          <circle cx="10.4" cy="3.6" r=".2" fill="#f4f4f4" stroke-width="0"/>
          <circle cx="10.1" cy="3.7" r=".2" fill="#f4f4f4" stroke-width="0"/>
          <circle cx="9.8" cy="3.9" r=".2" fill="#f4f4f4" stroke-width="0"/>
          <circle cx="9.6" cy="4.1" r=".2" fill="#f4f4f4" stroke-width="0"/>
          <circle cx="10" cy="5.3" r=".2" fill="#f4f4f4" stroke-width="0"/>
          <circle cx="9.9" cy="5" r=".2" fill="#f4f4f4" stroke-width="0"/>
          <circle cx="9.7" cy="4.7" r=".2" fill="#f4f4f4" stroke-width="0"/>
          <circle cx="9.6" cy="4.4" r=".2" fill="#f4f4f4" stroke-width="0"/>
        </g>
        <g>
          <path d="M8.7,5.8h-.2s.2,0,.2,0Z" fill="#edb92e" stroke-width="0"/>
          <path d="M8.7,5.7h0q.1,0,0,0v.2h0c-.1,0,0,0-.1,0,0,0-.2-.2,0-.2h.1Z" fill="#edb92e" stroke-width="0"/>
          <path d="M8.7,5.7h.2c0,0,0,.2-.2,0h-.2c0-.2.2-.2.3,0h-.1Z" fill="#edb92e" stroke-width="0"/>
          <path d="M9.1,6.4h.2c0,0,0-.2-.1-.3v-.2h-.1v.2h0c.1,0,.2,0,.1.2h0Z" fill="#edb92e" stroke-width="0"/>
          <path d="M9,5.9h0v.3h0s0-.2-.1-.2h-.1.2Z" fill="#edb92e" stroke-width="0"/>
          <path d="M8.8,6.1h.1c.1,0,.2.3,0,.4h0s0,0-.1-.2h0v-.2Z" fill="#edb92e" stroke-width="0"/>
          <path d="M8.8,6.1c.1,0,.2.2.1.3h0c0,0-.2-.2,0-.3h-.1Z" fill="#edb92e" stroke-width="0"/>
          <path d="M11.8,5.3c0,0-.1-.2-.2-.3.1-.4.1-.8,0-1.4h0q0,0,0,0v.8c0,.2,0,.4-.1.6h.1s.1,0,.1,0h0v.2Z" fill="#edb92e" stroke-width="0"/>
          <path d="M11.4,5.8h0q0,0,.2,0s0,0,.1,0h0v.2h0s0,0-.1,0h-.2v-.4Z" fill="#edb92e" stroke-width="0"/>
          <path d="M11.5,5.6h0v.2h0v.2h0v-.4Z" fill="#edb92e" stroke-width="0"/>
          <path d="M10.1,5.4h0q.1,0,0,.2v.2h-.2s-.1,0-.2,0c0,0-.1-.2,0-.2h.4Z" fill="#edb92e" stroke-width="0"/>
          <path d="M10.3,5.4h0q0,0-.2,0h0s0,0-.1,0h.3Z" fill="#edb92e" stroke-width="0"/>
          <path d="M9.6,6h0q0,0,0,0h0v.2h0q0,0,0,0h0v-.2Z" fill="#edb92e" stroke-width="0"/>
          <path d="M9.6,5.8h0c0,0,.1.2,0,.3h0v-.4h0Z" fill="#edb92e" stroke-width="0"/>
          <path d="M10.7,6.1h0q0,0-.1,0s-.1,0-.1,0h0v-.2h0v-.2s.2,0,.2,0h0v.5Z" fill="#edb92e" stroke-width="0"/>
          <path d="M10.7,6.3h0v-.2h0s-.1,0,0-.2h0v.4Z" fill="#edb92e" stroke-width="0"/>
        </g>
        <g>
          <path d="M10.1,7.5l.6-.3.6.3-.6.3-.6-.3Z" fill="#edb92e" stroke-width="0"/>
          <path d="M9.4,7.3l.6.3-.5.3c-.1,0-.2-.5-.1-.6h0Z" fill="#edb92e" stroke-width="0"/>
        </g>
        <g>
          <path d="M11.8,6s-.2,0-.3,0c0,0,.1,0,.3,0h0Z" fill="#21231e" stroke-width="0"/>
          <path d="M11.8,5.9s-.2,0-.3,0c0,0,.1,0,.3,0h0Z" fill="#21231e" stroke-width="0"/>
          <path d="M8.8,6.1v-.2.2h0Z" fill="#21231e" stroke-width="0"/>
          <path d="M10.1,5.9s0-.2-.2-.3c0,0,.1,0,.2.3h0Z" fill="#21231e" stroke-width="0"/>
          <path d="M10.2,5.9v-.3.3h0Z" fill="#21231e" stroke-width="0"/>
          <path d="M10,6.1s-.1,0-.2,0c0,0,0,0,.2-.2h0Z" fill="#21231e" stroke-width="0"/>
          <path d="M10,6s-.2,0-.2,0c0,0,.2,0,.3,0h-.1Z" fill="#21231e" stroke-width="0"/>
          <path d="M10.3,6s.2,0,.2,0c0,0-.1,0-.2.2h0Z" fill="#21231e" stroke-width="0"/>
          <path d="M10.3,6.1h.2s-.1,0-.3,0h.1Z" fill="#21231e" stroke-width="0"/>
        </g>
        <ellipse cx="10.7" cy="7.5" rx=".3" ry=".2" transform="translate(-.5 .8) rotate(-4)" fill="#c6363c" stroke-width="0"/>
        <path d="M10.1,5.8c.1,0,.2,0,.2.2s0,.2-.2.2-.2,0-.2-.2,0-.2.2-.2Z" fill="#edb92e" stroke-width="0"/>
        <path d="M10.1,5.9s.2,0,.2,0c0,0,0,.2-.1.2,0,0-.1,0-.2,0,0,0,0-.2.1-.2Z" fill="#edb92e" stroke-width="0"/>
        <g>
          <path d="M8.9,6.2s.2,0,0,.2h-.1c0,0,.1-.2.1-.2Z" fill="#0c4076" stroke-width="0"/>
          <path d="M9.4,7.4c.2,0,.3,0,.3.2s-.1.2-.3.2-.2,0-.2-.2,0-.2.1-.2h0Z" fill="#0c4076" stroke-width="0"/>
          <path d="M10.1,5.9h.1-.1Z" fill="#0c4076" stroke-width="0"/>
        </g>
      </g>
      <g>
        <circle cx="12" cy="5.1" r=".2" fill="#f4f4f4" stroke-width="0"/>
        <circle cx="12" cy="4.8" r=".2" fill="#f4f4f4" stroke-width="0"/>
        <circle cx="12" cy="4.5" r=".2" fill="#f4f4f4" stroke-width="0"/>
        <circle cx="12" cy="3.6" r=".2" fill="#f4f4f4" stroke-width="0"/>
        <circle cx="12" cy="3.9" r=".2" fill="#f4f4f4" stroke-width="0"/>
        <circle cx="12" cy="4.2" r=".2" fill="#f4f4f4" stroke-width="0"/>
      </g>
      <path d="M12,5.2h0q.1,0,0,.2s-.1,0-.1,0h-.2s-.1,0-.1,0v-.2h0" fill="#edb92e" stroke-width="0"/>
      <path id="rsd-e" d="M12.1,5.7s0-.2.1-.3c0,0-.1,0-.1.3h0Z" fill="#21231e" stroke-width="0"/>
      <path id="rsd-f" d="M12,5.7s0-.2-.1-.3c0,0,.1,0,.1.3h0Z" fill="#21231e" stroke-width="0"/>
      <g>
        <path d="M12,5.2h-.4c0,0,0,0,0,0h.4Z" fill="#edb92e" stroke-width="0"/>
        <path d="M12,5.7c.1,0,.2,0,.2.2s0,.2-.2.2-.2,0-.2-.2,0-.2.2-.2Z" fill="#edb92e" stroke-width="0"/>
        <path d="M14.6,8h-.1c-1.7,0-3.3,0-5,0h-.1.1c1.7.1,3.3.1,5,0h.1" fill="#edb92e" stroke-width="0"/>
        <circle cx="12" cy="5.9" r=".2" fill="#edb92e" stroke-width="0"/>
        <circle cx="12" cy="5.9" r=".2" fill="#edb92e" stroke-width="0"/>
      </g>
      <g>
        <ellipse cx="12" cy="7.4" rx=".3" ry=".2" fill="#0c4076" stroke-width="0"/>
        <rect x="12" y="5.9" fill="#0c4076" stroke-width="0"/>
      </g>
      <path d="M10.8,8.1h-.6,3.7-.6" fill="none" stroke-width="0"/>
      <path d="M16.5,8.1v7.3c0,1.2-.5,2.4-1.3,3.2s-1.9,1.4-3.2,1.4-2.4-.6-3.2-1.4-1.3-2-1.3-3.2v-7.3h9Z" fill="#c6363c" stroke-width="0"/>
      <g>
        <path d="M12,19.7h-.2v-3.8h.2v3.8h-.2.2Z" fill="#f4f4f4" stroke-width="0"/>
        <path d="M11.6,19.6h.2v-.4c0-.7,0-1.8.2-3.4h-.1c-.3,1.6-.3,2.7-.5,3.4v.4h.2Z" fill="#f4f4f4" stroke-width="0"/>
        <path d="M11.1,19.6h.2s0-.3.1-.4c.2-.7.3-1.8.5-3.4h-.1c-.4,1.5-.5,2.6-.8,3.3,0,0-.1.3,0,.4h.1Z" fill="#f4f4f4" stroke-width="0"/>
        <path d="M10.6,19.4h.2s0-.3.1-.4c.3-.7.4-1.8.8-3.3h-.1c-.5,1.5-.6,2.6-1.1,3.2,0,.1-.1.3,0,.4h.1Z" fill="#f4f4f4" stroke-width="0"/>
        <path d="M12.5,19.6h-.2v-.4c0-.7,0-1.8-.2-3.4h.1c.3,1.6.3,2.7.5,3.4v.4h-.2Z" fill="#f4f4f4" stroke-width="0"/>
        <path d="M13,19.6h-.2s0-.3-.1-.4c-.2-.7-.3-1.8-.5-3.4h.1c.4,1.5.5,2.6.8,3.3,0,0,.1.3,0,.4h-.1Z" fill="#f4f4f4" stroke-width="0"/>
        <path d="M13.5,19.4h-.2s0-.3-.1-.4c-.3-.7-.4-1.8-.8-3.3h.1c.5,1.5.6,2.6,1.1,3.2,0,.1.1.3,0,.4h-.1Z" fill="#f4f4f4" stroke-width="0"/>
        <path d="M10.8,18.3h.1l.2-.4c.3-.6.6-1.7,1.1-3.3h-.2c-.5,1.5-.7,2.6-1.2,3.3,0,.1-.1.3-.1.4h.1Z" fill="#f4f4f4" stroke-width="0"/>
        <path d="M11.2,18.3h.1s0-.3.1-.4c.1-.7.4-1.8.7-3.4h-.2c-.4,1.6-.5,2.7-.9,3.3,0,.1-.1.3,0,.4h.2Z" fill="#f4f4f4" stroke-width="0"/>
        <path d="M11.6,18.4h.1v-.4c0-.7.2-1.8.3-3.4h-.2c-.2,1.6-.3,2.7-.5,3.4v.4h.3Z" fill="#f4f4f4" stroke-width="0"/>
        <path d="M13.2,18.3h-.1l-.2-.4c-.3-.6-.6-1.7-1.1-3.3h.2c.5,1.5.7,2.6,1.2,3.3,0,.1.1.3.1.4h-.1Z" fill="#f4f4f4" stroke-width="0"/>
        <path d="M12.8,18.3h-.1s0-.3-.1-.4c-.1-.7-.4-1.8-.7-3.4h.2c.4,1.6.5,2.7.9,3.3,0,.1.1.3,0,.4h-.2Z" fill="#f4f4f4" stroke-width="0"/>
        <path d="M12.4,18.4h-.1v-.4c0-.7-.2-1.8-.3-3.4h.2c.2,1.6.3,2.7.5,3.4v.4h-.3Z" fill="#f4f4f4" stroke-width="0"/>
        <path d="M12,18.4h-.1v-3.8h.2v3.8h-.1Z" fill="#f4f4f4" stroke-width="0"/>
        <path d="M11.1,17.3h.1s0-.2.1-.4c.2-.6.5-1.7.8-3.3h-.2c-.4,1.5-.6,2.6-1,3.2,0,.1-.1.3,0,.4h.2Z" fill="#f4f4f4" stroke-width="0"/>
        <path d="M11.4,17.4h.1v-.4c0-.7.3-1.8.5-3.4h-.2c-.3,1.5-.4,2.7-.7,3.3v.4h.3Z" fill="#f4f4f4" stroke-width="0"/>
        <path d="M11.7,17.5h.1v-.4c0-.7.1-1.8.2-3.4h-.2c-.2,1.6-.3,2.7-.4,3.4v.4h.3Z" fill="#f4f4f4" stroke-width="0"/>
        <path d="M12.9,17.3h-.1s0-.2-.1-.4c-.2-.6-.5-1.7-.8-3.3h.2c.4,1.5.6,2.6,1,3.2,0,.1.1.3,0,.4h-.2Z" fill="#f4f4f4" stroke-width="0"/>
        <path d="M12.6,17.4h-.1v-.4c0-.7-.3-1.8-.5-3.4h.2c.3,1.5.4,2.7.7,3.3v.4h-.3Z" fill="#f4f4f4" stroke-width="0"/>
        <path d="M12.3,17.5h-.1v-.4c0-.7-.1-1.8-.2-3.4h.2c.2,1.6.3,2.7.4,3.4v.4h-.3Z" fill="#f4f4f4" stroke-width="0"/>
        <path d="M12,17.5h-.1v-3.8h.2v3.8h-.1,0Z" fill="#f4f4f4" stroke-width="0"/>
        <path d="M12.5,15.4c0,.1-.3,1.5-.5,1.5s-.5-1.3-.5-1.5h1Z" fill="#f4f4f4" stroke-width="0"/>
      </g>
      <g id="rsd-g">
        <g>
          <path d="M14.2,17.1h0s.1.2.2.3c.1.1,0,.3,0,.4s-.1.2-.2.3v.4c0,.1,0,.2.1.2v.2h-.1s-.1-.1-.1-.2c0,0,.1,0,.1-.2v-.4s0-.2-.2-.3c0-.1-.1-.3,0-.4,0,0,.2-.2.2-.3h0Z" fill="#edb92e" stroke-width="0"/>
          <path id="rsd-h" d="M14.5,18.8c-.2.2-.4-.2-.2-.7.1-.4.8-.2.4.3h0c0-.1,0-.2-.1-.1-.3,0-.3.6,0,.5h0" fill="#edb92e" stroke-width="0"/>
          <path id="rsd-i" d="M13.9,18.8c.2.2.4-.2.2-.7-.1-.4-.8-.2-.4.3h0c0-.1,0-.2.1-.1.3,0,.3.6,0,.5h0" fill="#edb92e" stroke-width="0"/>
          <path d="M14,18.3h.3-.3Z" fill="#edb92e" stroke-width="0"/>
          <path d="M14.4,16c.1.3.3.6.5.8h.6c.1,0,.3,0,.2,0,0,0,0,.2-.1.1s-.3,0-.4,0c0,0,.3.1.5.1s.1.2,0,.3h0c0,.1-.2.1-.2,0s-.4-.2-.4-.3c0,.2.2.3.3.5,0,0,.1,0,0,.2h-.2q-.2,0-.2-.2c0-.2,0-.4-.1-.4v-.2s-.3-.2-.4-.2-.2,0-.2-.1v-.2h.2c.1,0,.2.1.2.1,0,0-.2-.1-.4-.4-.2-.3-.3-.7.2-.4v.3Z" fill="#edb92e" stroke-width="0"/>
          <path d="M15.7,17h.2c0-.2-.2-.2-.3-.1h.1Z" fill="#edb92e" stroke-width="0"/>
          <path d="M14.1,16.8h-.3c.1-.2.3-.2.4,0h-.1,0Z" fill="#edb92e" stroke-width="0"/>
          <path d="M15,17.8v-.2h.1c.1.1.1.3,0,.4h0v-.3h-.1Z" fill="#edb92e" stroke-width="0"/>
          <path d="M15.5,17.4q.1,0,.1.2h0c.1-.3,0-.4-.2-.3v.2h0Z" fill="#edb92e" stroke-width="0"/>
        </g>
        <path d="M14.1,16.2h.2c0,0,0,.1,0,.2,0,0,.1-.1.2,0s0,.1,0,.2c0,0,.1-.1.2,0v.2h.1q0,.1.1.1h0" fill="none" stroke-width="0"/>
        <g>
          <path d="M14.1,12.6v2c0,.2.1.4.2.4,0-.1.2-.3.2-.5v-1.9h-.4Z" fill="#f4f4f4" stroke-width="0"/>
          <path d="M15.1,12.2v2.1c0,.2-.2,1.3-.3,1.5-.3-.1-.4-.9-.3-1.6v-1.5l.7-.5h0Z" fill="#f4f4f4" stroke-width="0"/>
          <path d="M15.5,12.5v2.1c0,.2-.3,1.3-.5,1.5-.3-.3-.3-1.3-.2-1.7.1-.6,0-1.4,0-1.5l.6-.5h0Z" fill="#f4f4f4" stroke-width="0"/>
          <path d="M15.7,13h-.6v1.5c0,.5-.2,1.8.3,2.2.3-.7,0-1.4.2-2v-1.7h.1Z" fill="#f4f4f4" stroke-width="0"/>
          <path d="M13.6,12.2v2c.1.2.2.4.3.4,0-.1.1-.3.1-.5v-1.9h-.4Z" fill="#f4f4f4" stroke-width="0"/>
          <path d="M14.6,10.9v1.7c0,.2,0,.5-.2.6-.1,0-.2-.2-.2-.4v-1.5l.4-.3h0Z" fill="#f4f4f4" stroke-width="0"/>
          <path d="M14.2,11.2v1.4c0,.2,0,.4-.1.5-.1,0-.2-.2-.2-.4v-1.1l.4-.4h0Z" fill="#f4f4f4" stroke-width="0"/>
          <path d="M14.6,10.9l.4-.5c0,.3.2,2.2,0,2.4,0,.2,0,.4-.2.5-.1,0-.3-.2-.2-.4v-1.9h0Z" fill="#f4f4f4" stroke-width="0"/>
          <path d="M15.3,12.1v.6c0,.2,0,.4-.1.5-.1,0-.2-.2-.2-.4,0-.8,0-1.6-.1-2.4l.3-.2.2,1.9h0Z" fill="#f4f4f4" stroke-width="0"/>
          <path d="M15.7,12.6v.4c-.1.2-.2.4-.3.5-.1,0-.2-.2-.2-.4.2-1.2,0-2.1-.2-3.1.6.4.9,1.2.7,2.6h0Z" fill="#f4f4f4" stroke-width="0"/>
          <path d="M15.7,13l.5-.2c0,.5,0,1.2-.2,2.1-.1.8,0,1.4,0,1.8-.6,0-.8-.8-.5-2.2,0-.4.2-.8.1-1.5h0Z" fill="#f4f4f4" stroke-width="0"/>
          <path d="M15.5,10.5c.1.6.2,1.4.1,2.2,0,.3-.1.6-.2.8.4,0,.6-.4.6-1.1v-1.8h-.5Z" fill="#f4f4f4" stroke-width="0"/>
          <path d="M15.8,10.6c0,.2.1.4.1.6,0,.7,0,1.6-.1,2.2.4,0,.5-.4.5-1.1s0-1.2-.1-1.9l-.4.3h0Z" fill="#f4f4f4" stroke-width="0"/>
          <path d="M14.9,10.5h.4c0,.3.1.5.1.7s0,.5-.1.6c-.1,0-.2-.3-.2-.5v-.8h-.2Z" fill="#f4f4f4" stroke-width="0"/>
          <path d="M14,11.2h.3v.6c0,.2,0,.4-.1.5,0,0-.2-.2-.2-.4v-.7Z" fill="#f4f4f4" stroke-width="0"/>
          <path d="M14,11.4v.6c0,.2,0,.4-.2.5,0,0-.2-.2-.2-.4l.4-.6h0Z" fill="#f4f4f4" stroke-width="0"/>
          <path d="M14.3,11.1h.3v.6c0,.2,0,.4-.1.5-.1,0-.2-.2-.2-.4v-.7Z" fill="#f4f4f4" stroke-width="0"/>
          <path d="M15,10.6c0,.2.1,1,0,1.3-.1,0-.2-.2-.3-.5v-.7h.3Z" fill="#f4f4f4" stroke-width="0"/>
          <path d="M13.7,15.2l.5.3c.2.3.3.5.5.7-.3,0-.5,0-.6-.2-.2-.3-.3-.4-.4-.5v-.3Z" fill="#f4f4f4" stroke-width="0"/>
          <path d="M13.9,15.4c.1.3.2.4.3.5v.5c-.1,0-.3-.1-.4-.3v-.7h0Z" fill="#f4f4f4" stroke-width="0"/>
          <path d="M13.8,15.5c0,.3.1.5.1.6v.5c-.1,0-.2-.2-.3-.4v-.7h.3-.1Z" fill="#f4f4f4" stroke-width="0"/>
          <path d="M13.1,15.7c.2.3.2.5.3.8.2-.2.3-.4.2-.6,0-.3-.2-.7-.2-.7l-.3.6h0Z" fill="#f4f4f4" stroke-width="0"/>
          <path d="M13.6,14.8c.1.3.2.5.2.6v.5c-.1,0-.3-.1-.4-.3,0-.2-.1-.4-.2-.6h.3v-.2Z" fill="#f4f4f4" stroke-width="0"/>
          <path d="M13.6,14.3l.3.3h0v.2c0,.4.2.5.3.7-.3,0-.5-.1-.6-.3-.1-.3-.2-.5-.3-.5v-.4h.3Z" fill="#f4f4f4" stroke-width="0"/>
          <path d="M12.8,16c-.2.3-.3.5-.4.7-.2-.2-.2-.4-.1-.7q.4-.4.5,0Z" fill="#f4f4f4" stroke-width="0"/>
          <path d="M12.7,15.8c-.2.3-.5.5-.5.7-.2-.2-.2-.4-.1-.7h.6Z" fill="#f4f4f4" stroke-width="0"/>
          <path d="M13.1,15.7c-.2.3-.3.5-.4.7-.2-.2-.2-.4-.1-.7h.5Z" fill="#f4f4f4" stroke-width="0"/>
        </g>
      </g>
      <g id="rsd-j">
        <g>
          <path d="M9.8,17.1h0s-.1.2-.2.3c-.1.1,0,.3,0,.4s.1.2.2.3v.4c0,.1,0,.2-.1.2v.2h.1s.1-.1.1-.2c0,0-.1,0-.1-.2v-.4s0-.2.2-.3c0-.1.1-.3,0-.4,0,0-.2-.2-.2-.3h0Z" fill="#edb92e" stroke-width="0"/>
          <path id="rsd-k" d="M9.5,18.8c.2.2.4-.2.2-.7-.1-.4-.8-.2-.4.3h0c0-.1,0-.2.1-.1.3,0,.3.6,0,.5h0" fill="#edb92e" stroke-width="0"/>
          <path id="rsd-l" d="M10.2,18.8c-.2.2-.4-.2-.2-.7.1-.4.8-.2.4.3h0c0-.1,0-.2-.1-.1-.3,0-.3.6,0,.5h0" fill="#edb92e" stroke-width="0"/>
          <path d="M10,18.3h-.3.3Z" fill="#edb92e" stroke-width="0"/>
          <path d="M9.7,16c-.1.3-.3.6-.5.8h-.6c-.1,0-.3,0-.2,0,0,0,0,.2.1.1s.3,0,.4,0c0,0-.3.1-.5.1s-.1.2,0,.3h0c0,.1.2.1.2,0s.4-.2.4-.3c0,.2-.2.3-.3.5,0,0-.1,0,0,.2h.2q.2,0,.2-.2c0-.2,0-.4.1-.4v-.2s.3-.2.4-.2.2,0,.2-.1v-.2h-.2c-.1,0-.2.1-.2.1,0,0,.2-.1.4-.4.2-.3.3-.7-.2-.4v.3Z" fill="#edb92e" stroke-width="0"/>
          <path d="M8.4,17h-.2c0-.2.2-.2.3-.1h-.1Z" fill="#edb92e" stroke-width="0"/>
          <path d="M9.9,16.8h.3c-.1-.2-.3-.2-.4,0h.1,0Z" fill="#edb92e" stroke-width="0"/>
          <path d="M9,17.8v-.2h-.1c-.1.1-.1.3,0,.4h0v-.3h.1Z" fill="#edb92e" stroke-width="0"/>
          <path d="M8.6,17.4q-.1,0-.1.2h0c-.1-.3,0-.4.2-.3v.2h0Z" fill="#edb92e" stroke-width="0"/>
        </g>
        <path d="M10,16.2h-.2c0,0,0,.1,0,.2,0,0-.1-.1-.2,0s0,.1,0,.2c0,0-.1-.1-.2,0v.2h-.1q0,.1-.1.1h0" fill="none" stroke-width="0"/>
        <g>
          <path d="M10,12.6v2c0,.2-.1.4-.2.4,0-.1-.2-.3-.2-.5v-1.9h.4Z" fill="#f4f4f4" stroke-width="0"/>
          <path d="M9,12.2v2.1c0,.2.2,1.3.3,1.5.3-.1.4-.9.3-1.6v-1.5l-.7-.5h0Z" fill="#f4f4f4" stroke-width="0"/>
          <path d="M8.6,12.5v2.1c0,.2.3,1.3.5,1.5.3-.3.3-1.3.2-1.7-.1-.6,0-1.4,0-1.5l-.6-.5h0Z" fill="#f4f4f4" stroke-width="0"/>
          <path d="M8.3,13h.6v1.5c0,.5.2,1.8-.3,2.2-.3-.7,0-1.4-.2-2v-1.7h-.1Z" fill="#f4f4f4" stroke-width="0"/>
          <path d="M10.4,12.2v2c-.1.2-.2.4-.3.4,0-.1-.1-.3-.1-.5v-1.9h.4Z" fill="#f4f4f4" stroke-width="0"/>
          <path d="M9.4,10.9v1.7c0,.2,0,.5.2.6.1,0,.2-.2.2-.4v-1.5l-.4-.3h0Z" fill="#f4f4f4" stroke-width="0"/>
          <path d="M9.8,11.2v1.4c0,.2,0,.4.1.5.1,0,.2-.2.2-.4v-1.1l-.4-.4h0Z" fill="#f4f4f4" stroke-width="0"/>
          <path d="M9.5,10.9l-.4-.5c0,.3-.2,2.2,0,2.4,0,.2,0,.4.2.5.1,0,.3-.2.2-.4v-1.9h0Z" fill="#f4f4f4" stroke-width="0"/>
          <path d="M8.7,12.1v.6c0,.2,0,.4.1.5.1,0,.2-.2.2-.4,0-.8,0-1.6.1-2.4l-.3-.2-.2,1.9h0Z" fill="#f4f4f4" stroke-width="0"/>
          <path d="M8.3,12.6v.4c.1.2.2.4.3.5.1,0,.2-.2.2-.4-.2-1.2,0-2.1.2-3.1-.6.4-.9,1.2-.7,2.6h0Z" fill="#f4f4f4" stroke-width="0"/>
          <path d="M8.4,13l-.5-.2c0,.5,0,1.2.2,2.1.1.8,0,1.4,0,1.8.6,0,.8-.8.5-2.2,0-.4-.2-.8-.1-1.5h0Z" fill="#f4f4f4" stroke-width="0"/>
          <path d="M8.6,10.5c-.1.6-.2,1.4-.1,2.2,0,.3.1.6.2.8-.4,0-.6-.4-.6-1.1v-1.8h.5Z" fill="#f4f4f4" stroke-width="0"/>
          <path d="M8.3,10.6c0,.2-.1.4-.1.6,0,.7,0,1.6.1,2.2-.4,0-.5-.4-.5-1.1s0-1.2,0-1.9l.4.3h0Z" fill="#f4f4f4" stroke-width="0"/>
          <path d="M9.1,10.5h-.4c0,.3-.1.5-.1.7s0,.5.1.6c.1,0,.2-.3.2-.5v-.8h.2Z" fill="#f4f4f4" stroke-width="0"/>
          <path d="M10,11.2h-.3v.6c0,.2,0,.4.1.5,0,0,.2-.2.2-.4v-.7Z" fill="#f4f4f4" stroke-width="0"/>
          <path d="M10,11.4v.6c0,.2,0,.4.2.5,0,0,.2-.2.2-.4l-.4-.6h0Z" fill="#f4f4f4" stroke-width="0"/>
          <path d="M9.7,11.1h-.3v.6c0,.2,0,.4.1.5.1,0,.2-.2.2-.4v-.7Z" fill="#f4f4f4" stroke-width="0"/>
          <path d="M9.1,10.6c0,.2-.1,1,0,1.3.1,0,.2-.2.3-.5v-.7h-.3Z" fill="#f4f4f4" stroke-width="0"/>
          <path d="M10.3,15.2l-.5.3c-.2.3-.3.5-.5.7.3,0,.5,0,.6-.2.2-.3.3-.4.4-.5v-.3Z" fill="#f4f4f4" stroke-width="0"/>
          <path d="M10.2,15.4c-.1.3-.2.4-.3.5v.5c.1,0,.3-.1.4-.3v-.7h0Z" fill="#f4f4f4" stroke-width="0"/>
          <path d="M10.3,15.5c0,.3-.1.5-.1.6v.5c.1,0,.2-.2.3-.4v-.7h-.3.1Z" fill="#f4f4f4" stroke-width="0"/>
          <path d="M10.9,15.7c-.2.3-.2.5-.3.8-.2-.2-.3-.4-.2-.6,0-.3.2-.7.2-.7l.3.6h0Z" fill="#f4f4f4" stroke-width="0"/>
          <path d="M10.4,14.8c-.1.3-.2.5-.2.6v.5c.1,0,.3-.1.4-.3,0-.2.1-.4.2-.6h-.3v-.2Z" fill="#f4f4f4" stroke-width="0"/>
          <path d="M10.4,14.3l-.3.3h0v.2c0,.4-.2.5-.3.7.3,0,.5-.1.6-.3.1-.3.2-.5.3-.5v-.4h-.3Z" fill="#f4f4f4" stroke-width="0"/>
          <path d="M11.2,16c.2.3.3.5.4.7.2-.2.2-.4.1-.7q-.4-.4-.5,0Z" fill="#f4f4f4" stroke-width="0"/>
          <path d="M11.3,15.8c.2.3.5.5.5.7.2-.2.2-.4.1-.7h-.6Z" fill="#f4f4f4" stroke-width="0"/>
          <path d="M10.9,15.7c.2.3.3.5.4.7.2-.2.2-.4.1-.7h-.5Z" fill="#f4f4f4" stroke-width="0"/>
        </g>
      </g>
      <path d="M12,10.4c0-.6-.2-1-.4-1.4.1,0,.2,0,.2-.3q-.2,0-.7-.2c-.4-.2-.9-.2-.9,0,0,.4.3.6.6.8.1.3.4.9.2,1.2s-.4.5-.6.6h.1-.3c-.2,0-.4-.4-.6-.6-.5-.6-.7-1-.6-1.3.1-.4.6-.8,0-.7s-1.1.9-1.2,1.8c0,.3,0,.7,0,.9.3-.1.5-.2.5-.4v.4c.3,0,.4-.2.5-.4v-.2h.3c0,.1.4.5.6.8.2.3.5.6.6.6h3.5c.1,0,.4-.3.6-.6.2-.3.5-.7.6-.8h.3v.2c0,.2.3.4.5.4v-.4c0,.1.2.3.5.4,0-.2,0-.5-.1-.9-.1-.9-.6-1.7-1.2-1.8s-.1.3,0,.7c0,.3-.2.8-.6,1.3-.2.2-.4.5-.6.7,0,0-.3,0-.3-.1h.1c-.2-.1-.4-.3-.6-.6-.2-.3,0-.9.2-1.2.3-.2.5-.5.6-.8,0-.2-.5-.1-.9,0q-.5.2-.7.2t.2.3c-.2.4-.4.8-.4,1.4h0Z" fill="#f4f4f4" stroke-width="0"/>
      <g id="rsd-m">
        <g>
          <path d="M13.1,9.6h.5c.4,0,.6,0,.7-.3-.1.2-.3.3-.5.2-.3,0-.4-.1-.5-.1,0,0-.2.2-.2.2Z" fill="#edb92e" stroke-width="0"/>
          <path d="M14,8.5c.4,0,.4.3,0,.7h-.1c0-.1-.2-.2-.3-.1,0,0,0,.1-.2,0-.2.2-.4.3-.1.3h.4c-.2.1-.4.1-.5.1-.4,0,.6-1,.6-1.1s.2-.3.3-.1v.2Z" fill="#edb92e" stroke-width="0"/>
        </g>
        <g>
          <path d="M13.4,8.9h0v-.2h-.1s0,.1.1.2Z" fill="#21231e" stroke-width="0"/>
          <rect x="14.1" y="8.8" fill="#21231e" stroke-width="0"/>
        </g>
        <g>
          <path d="M16,13.3c0,.5,0,.9-.1,1.3s-.1.7-.1,1.1" fill="none" stroke-width="0"/>
          <path d="M15.8,13.4c.2-.6.2-1.5.1-2.1s-.5-1.4-.6-1.5" fill="none" stroke-width="0"/>
          <path d="M14,8.5s0,.2-.2.3" fill="none" stroke-width="0"/>
          <path d="M12.9,10.9c.2.2.4.3.7.2" fill="none" stroke-width="0"/>
          <path d="M12.8,10.8s0,.2.1.4c-.2,0-.3-.1-.4-.2" fill="none" stroke-width="0"/>
          <path d="M12.6,10.7c0,.2,0,.3-.1.4,0,0-.2-.2-.2-.3" fill="none" stroke-width="0"/>
          <path d="M13.2,8.8s.1.2.2.1c.1,0,.2-.2.2-.3" fill="none" stroke-width="0"/>
          <path d="M13,8.8h.3c.1,0,.3-.1.4,0" fill="none" stroke-width="0"/>
          <path d="M12.7,9h-.3" fill="none" stroke-width="0"/>
        </g>
      </g>
      <g id="rsd-n">
        <g>
          <path d="M10.9,9.6h-.5c-.4,0-.6,0-.7-.3.1.2.3.3.5.2.3,0,.4-.1.5-.1,0,0,.2.2.2.2Z" fill="#edb92e" stroke-width="0"/>
          <path d="M10,8.5c-.4,0-.4.3,0,.7h.1c0-.1.2-.2.3-.1,0,0,0,.1.2,0,.2.2.4.3.1.3h-.4c.2.1.4.1.5.1.4,0-.6-1-.6-1.1s-.2-.3-.3-.1v.2Z" fill="#edb92e" stroke-width="0"/>
        </g>
        <g>
          <path d="M10.6,8.9h0v-.2h.1s0,.1-.1.2Z" fill="#21231e" stroke-width="0"/>
          <rect x="9.9" y="8.8" fill="#21231e" stroke-width="0"/>
        </g>
        <g>
          <path d="M8.1,13.3c0,.5,0,.9.1,1.3s.1.7.1,1.1" fill="none" stroke-width="0"/>
          <path d="M8.3,13.4c-.2-.6-.2-1.5-.1-2.1s.5-1.4.6-1.5" fill="none" stroke-width="0"/>
          <path d="M10,8.5s0,.2.2.3" fill="none" stroke-width="0"/>
          <path d="M11.2,10.9c-.2.2-.4.3-.7.2" fill="none" stroke-width="0"/>
          <path d="M11.2,10.8s0,.2-.1.4c.2,0,.3-.1.4-.2" fill="none" stroke-width="0"/>
          <path d="M11.4,10.7c0,.2,0,.3.1.4,0,0,.2-.2.2-.3" fill="none" stroke-width="0"/>
          <path d="M10.9,8.8s-.1.2-.2.1c-.1,0-.2-.2-.2-.3" fill="none" stroke-width="0"/>
          <path d="M11,8.8h-.3c-.1,0-.3-.1-.4,0" fill="none" stroke-width="0"/>
          <path d="M11.4,9h.3" fill="none" stroke-width="0"/>
        </g>
      </g>
      <path d="M11.8,10.7c0,.2,0,.4.2.6.1-.2.2-.4.2-.6" fill="#f4f4f4" stroke-width="0"/>
      <path d="M13.8,11.3v2.9c0,.5-.2,1-.5,1.3s-.8.6-1.3.6-.9-.2-1.3-.6-.5-.8-.5-1.3v-2.9s3.6,0,3.6,0Z" fill="#c6363c" stroke-width="0"/>
      <path d="M13.8,13.1v.7h-1.4v2.2h-.7v-2.2h-1.4v-.7h1.4v-1.8h.7v1.8h1.4Z" fill="#f4f4f4" stroke-width="0"/>
      <path id="rsd-o" d="M12.6,14.1c.2,0,.8-.3.8.2s-.3.4-.3.2v-.2h.1c.2-.1-.2-.4-.4,0v.3c0,.1-.2.2,0,.3.2.3.6,0,.4,0,0,0,0,.1-.1,0s0,0,0-.2.3,0,.3.2c0,.5-.6.3-.8.2v-1Z" fill="#f4f4f4" stroke-width="0"/>
      <path id="rsd-p" d="M11.4,11.7c-.2,0-.8-.3-.8.2s.3.4.3.2v-.2h-.1c-.2-.1.2-.4.4,0v.3c0,.1.2.2,0,.3-.2.3-.6,0-.4,0,0,0,0,.1.1,0s0,0,0-.2-.3,0-.3.2c0,.5.6.3.8.2v-1Z" fill="#f4f4f4" stroke-width="0"/>
      <path id="rsd-q" d="M12.6,11.7c.2,0,.8-.3.8.2s-.3.4-.3.2v-.2h.1c.2-.1-.2-.4-.4,0v.3c0,.1-.2.2,0,.3.2.3.6,0,.4,0,0,0,0,.1-.1,0s0,0,0-.2.3,0,.3.2c0,.5-.6.3-.8.2v-1Z" fill="#f4f4f4" stroke-width="0"/>
      <path id="rsd-r" d="M11.4,14.1c-.2,0-.8-.3-.8.2s.3.4.3.2v-.2h-.1c-.2-.1.2-.4.4,0v.3c0,.1.2.2,0,.3-.2.3-.6,0-.4,0,0,0,0,.1.1,0s0,0,0-.2-.3,0-.3.2c0,.5.6.3.8.2v-1Z" fill="#f4f4f4" stroke-width="0"/>
    </g>
  </g>
</svg>