<?xml version="1.0" encoding="UTF-8"?>
<svg id="usd-a" xmlns="http://www.w3.org/2000/svg" width="24" height="24" version="1.1" xmlns:xlink="http://www.w3.org/1999/xlink" viewBox="0 0 24 24">
  <defs>
    <clipPath id="clippath">
      <circle cx="12" cy="12" r="12" fill="none" stroke-width="0"/>
    </clipPath>
    <clipPath id="clippath-1">
      <rect y="0" width="12.2" height="13.1" fill="none" stroke-width="0"/>
    </clipPath>
  </defs>
  <g clip-path="url(#clippath)">
    <g>
      <g clip-path="url(#clippath-1)">
        <circle cx="12" cy="11.9" r="12" fill="#3e3d6f" stroke-width="0"/>
      </g>
      <path d="M12.2,10.8h11.5q.3,0,.3.1v2s0,.1-.2.1h-11.6v-2.2h0Z" fill="#b22435" stroke-width="0"/>
      <path d="M12,15.1h11.4c.3,0,.2,0,.1.2-.2.6-.4,1.2-.7,1.8,0,.1-.1.1-.3.1H1.4c-.1,0-.2,0-.3-.2-.3-.6-.5-1.2-.7-1.8q0-.1,0-.1s11.5,0,11.5,0Z" fill="#b22435" stroke-width="0"/>
      <path d="M2.5,19.4h18.9c-.2.3-.5.6-.7.8-.4.4-.9.8-1.4,1.2H4.5c-.7-.6-1.4-1.2-1.9-1.9h0Z" fill="#b12234" stroke-width="0"/>
      <path d="M9.4,23.7h5.2c-1.8.4-3.5.4-5.2,0Z" fill="#b22435" stroke-width="0"/>
      <path d="M12.2,6.5h10.2c.1,0,.2,0,.3,0,.3.6.5,1.2.7,1.9h0c0,.1-11.3.1-11.3.1v-2.2h.1Z" fill="#b22435" stroke-width="0"/>
      <path d="M12.2,2.2h6.4c.1,0,.2,0,.3,0,.8.6,1.5,1.2,2.1,1.9h0c0,0-9,0-9,0v-2.2h.2Z" fill="#b22435" stroke-width="0"/>
      <path d="M8.6,9.2c0,.1.1.3.1.4s0,.1.2.1h.5c-.1.1-.3.2-.4.3,0,0-.1.1,0,.2,0,.1,0,.3.1.5-.1-.1-.3-.2-.4-.3h-.3c-.1,0-.2.2-.4.3,0-.2,0-.3.1-.4,0-.1,0-.2-.1-.3s-.2-.1-.3-.3h.4s.1,0,.2-.1c0-.1,0-.3.1-.4h.2Z" fill="#fff" stroke-width="0"/>
      <path d="M.8,9.7h.5s.1,0,.2-.1c0-.1,0-.3.1-.4,0,.1.1.3.1.4s0,.2.2.2h.4c0,0-.2.2-.4.3,0,0-.1.1,0,.2,0,.1.1.3.1.4-.1-.1-.3-.2-.4-.3h-.2c-.1.1-.3.2-.4.3,0-.2,0-.3.1-.4s0-.2-.1-.3-.2-.1-.3-.2h0Z" fill="#fff" stroke-width="0"/>
      <path d="M5.9,9.7s0,.1-.2.2c-.2.1-.2.3,0,.4v.3c-.2-.1-.3-.2-.4-.3h-.2c0,0-.3.2-.4.3,0-.2,0-.3,0-.4v-.3c0,0-.2-.2-.3-.3h.4c0,0,.2,0,.2-.1s0-.3,0-.4c0,.1,0,.3,0,.4s0,.1.2.1h.5Z" fill="#fff" stroke-width="0"/>
      <path d="M3.8,6.1c0,0-.2-.2-.3-.3h-.2c0,0-.2.2-.4.3,0-.2,0-.3,0-.4v-.3c0,0-.2,0-.3-.3h.4c0,0,.2,0,.2,0s0-.3,0-.4c0,.2,0,.3,0,.4s0,0,.2,0h.4s-.2,0-.3.2c0,0-.2.2,0,.3,0,0,0,.2,0,.3h0v.2Z" fill="#fff" stroke-width="0"/>
      <path d="M.3,12.1c0,0-.2-.2-.3-.3h-.2c-.1,0-.2.2-.4.3,0-.2,0-.3.1-.4v-.3c-.1,0-.2-.1-.3-.3h.4c0,0,.2,0,.2-.1s0-.3.1-.4c0,.2.1.3.1.4s0,.1.2.1h.4s-.2.1-.3.2c0,0-.2.2,0,.3,0,.1,0,.2,0,.3H.3v.2Z" fill="#fff" stroke-width="0"/>
      <path d="M9.9,6.1v-.7c-.1,0-.2,0-.3-.3h.4c0,0,.2,0,.2,0s0-.3.1-.4c0,0,.1.3.1.4,0,0,0,0,.2,0h.5c-.1,0-.2.2-.3.3-.1,0-.2.2-.1.3,0,0,0,.2.1.4-.1,0-.3-.2-.4-.3h-.2c-.1,0-.2.2-.4.3h0Z" fill="#fff" stroke-width="0"/>
      <path d="M6.8,4.6c0,.2,0,.3,0,.5,0,0,0,0,0,0h.5l-.3.3s0,0,0,.2c0,0,0,.3,0,.5,0,0-.3,0-.3-.2,0,0-.2,0-.3,0,0,0-.2,0-.3.3,0-.2,0-.3,0-.5v-.2c0,0-.2-.2-.3-.3h.4q0,0,.2,0c0,0,0-.3,0-.4h0v-.2Z" fill="#fff" stroke-width="0"/>
      <path d="M4.6,4.6c0,0,0-.3,0-.4v-.3c0,0-.2,0-.3-.3h.4c0,0,.2,0,.2,0s0-.3,0-.4c0,0,0,.3,0,.4,0,0,0,.2.3.2h.4c0,0-.2.2-.3.2,0,0,0,0,0,.2,0,0,0,.3,0,.4,0,0-.3,0-.4-.2s-.2,0-.3,0-.2.2-.4.2h0Z" fill="#fff" stroke-width="0"/>
      <path d="M7.9,3.7h.4q.1,0,.2,0c0,0,0-.3.1-.4,0,0,.1.2.1.4s.1.2.3.2h.4c-.2,0-.3.2-.4.3v.2c0,0,.1.3.1.4-.1,0-.3-.2-.4-.3h-.2c-.1,0-.2.2-.4.3,0-.2,0-.3.1-.4v-.2c-.1,0-.2,0-.3-.3h0Z" fill="#fff" stroke-width="0"/>
      <path d="M2.8,12.1c0-.1,0-.2,0-.3,0-.1,0-.2,0-.3,0,0-.2-.1-.3-.3h.3c.2,0,.3,0,.3-.3,0,0,0-.2,0-.3,0,.1,0,.3,0,.4,0,0,0,.1.2.1h.4c0,0-.2.2-.3.3,0,0,0,.1,0,.2,0,.1,0,.3,0,.4,0,0-.2-.2-.4-.3h-.2c0,0-.2.2-.3.3h0Z" fill="#fff" stroke-width="0"/>
      <path d="M6.3,12.2c0-.2,0-.3,0-.5v-.2c0,0-.2-.1-.3-.3h.4c0,0,.2,0,.2-.1s0-.3,0-.4c0,.1,0,.3,0,.4s0,.2.2.2h.4c0,.1-.2.2-.3.3s0,.1,0,.2c0,.1,0,.3,0,.5,0-.1-.3-.2-.4-.3h-.2c0,0-.2.2-.4.3h0Z" fill="#fff" stroke-width="0"/>
      <path d="M6.1,2.2h.5c0,0,0-.3.2-.5h0c0,.1,0,.3,0,.4,0,0,0,0,0,0h.5c0,0-.3.2-.4.3v.2c0,0,0,.3,0,.5,0,0-.2,0-.3-.2-.3-.2-.2-.2-.5,0,0,0,0,0-.3.2,0-.2,0-.3,0-.4v-.2c0,0-.3,0-.4-.3h.3Z" fill="#fff" stroke-width="0"/>
      <path d="M8.6,6.1c0,0,.1.3.1.4s0,0,.2,0h.4c-.1,0-.2.2-.3.3-.1,0-.1,0,0,.2,0,0,0,.3.1.4-.1,0-.3,0-.3-.2-.1,0-.2,0-.3,0,0,0-.2,0-.3.2,0-.2,0-.3.1-.4s0-.2,0-.2c-.1,0-.2,0-.3-.3h.5c.2,0,.1,0,.2,0,0,0,0-.3.1-.4h-.2Z" fill="#fff" stroke-width="0"/>
      <path d="M9.9,12.1c0-.1,0-.3.1-.4v-.2c-.1,0-.2-.2-.3-.3h.4c.1,0,.2,0,.2-.2s0-.3.1-.4c.1.1.1.3.1.4s.1.2.3.2h.4c-.1,0-.2.2-.3.3,0,0-.1.1,0,.2v.3c0,.1,0,0,0,0t0,0c-.1,0-.2-.2-.4-.2s-.2.1-.3.2h-.3Z" fill="#fff" stroke-width="0"/>
      <path d="M5.1,6.1c0,.2,0,.4.2.5,0,0,.4,0,.5,0l-.3.3s0,0,0,.2c0,0,0,.3,0,.4,0,0-.3-.2-.4-.3h-.3c0,0-.2.2-.4.3,0-.2,0-.3,0-.4v-.2c0,0-.2-.2-.3-.3h.4c0,0,.2,0,.3-.2,0,0,0-.3,0-.4h0Z" fill="#fff" stroke-width="0"/>
      <path d="M11.2,2.2c-.2,0-.3.2-.4.3v.2c0,0,0,.3.1.4-.2,0-.3,0-.4-.2h-.3c-.1,0-.2.2-.4.2,0,0,0-.3.1-.4v-.2c-.1,0-.2-.2-.4-.3h.5c.2,0,.1,0,.2,0,0,0,0-.3.1-.4.1.1.1.3.1.4s.1.2.2.2h.6Z" fill="#fff" stroke-width="0"/>
      <path d="M10.9,9.2c-.2-.1-.3-.2-.4-.3h-.2c-.1,0-.2.2-.4.3v-.7c-.1,0-.2-.1-.3-.3h.4c.1,0,.2,0,.2-.2s0-.3.1-.4c0,0,.1.3.1.4s0,.1.2.1h.4c-.1.1-.3.2-.4.3v.2c0,.1,0,.3.1.5h.2Z" fill="#fff" stroke-width="0"/>
      <path d="M6.5,8.7v-.2c0,0-.2-.1-.3-.3h.4c0,0,.2,0,.2-.1s0-.3,0-.4c0,.2,0,.3,0,.4s0,.1.2.1h.4c0,.1-.2.2-.3.3,0,0,0,.2,0,.3,0,.1,0,.2,0,.4h0c0,0-.3-.2-.4-.3h-.2c0,0-.2.2-.4.2" fill="#fff" stroke-width="0"/>
      <path d="M4.1,8.2c0,0-.2.2-.4.3v.2c0,.1,0,.3,0,.4-.2,0-.3-.2-.4-.3s0,0-.2,0-.2.2-.4.3c0-.2,0-.3,0-.4v-.2c0,0-.2-.2-.4-.3h.4q0,0,.2-.1c0,0,0-.3,0-.4,0,0,0,.2,0,.4,0,.1,0,.2.3.2h.5Z" fill="#fff" stroke-width="0"/>
      <path d="M2,7.6c-.1,0-.2-.2-.3-.3h-.2c-.1,0-.2.2-.4.3,0-.2,0-.3.1-.4v-.3c-.1,0-.2,0-.3-.3h.4c.1,0,.2,0,.2,0s0-.3.1-.4c0,.2.1.3.1.4s0,0,.2,0h.4s-.2,0-.3.2c-.1,0-.2.2-.1.3,0,0,0,.2.1.3h0v.2Z" fill="#fff" stroke-width="0"/>
      <path d="M9.1,1.6c-.1,0-.2-.2-.3-.3h-.2c-.1,0-.2.2-.4.3,0-.2,0-.3.1-.4v-.3c-.1,0-.2-.1-.3-.3h.4c.1,0,.2,0,.2,0s0-.3.1-.4c0,.2.1.3.1.4s0,0,.2,0h.4s-.2.1-.3.2c-.1,0-.2.2-.1.3,0,.1,0,.2.1.3h0v.2Z" fill="#fff" stroke-width="0"/>
    </g>
  </g>
</svg>