<?xml version="1.0" encoding="UTF-8"?>
<svg id="usd-a" xmlns="http://www.w3.org/2000/svg" width="24" height="24" xmlns:xlink="http://www.w3.org/1999/xlink" viewBox="0 0 24 24">
  <defs>
    <style>
      .usd-d {
        fill: #3e3d6f;
      }

      .usd-d, .usd-e, .usd-f, .usd-g, .usd-h {
        stroke-width: 0px;
      }

      .usd-e {
        fill: #b12234;
      }

      .usd-f {
        fill: #b22435;
      }

      .usd-g {
        fill: none;
      }

      .usd-i {
        clip-path: url(#usd-b);
      }

      .usd-h {
        fill: #fff;
      }

      .usd-j {
        clip-path: url(#usd-c);
      }
    </style>
    <clipPath id="usd-b">
      <circle class="usd-g" cx="12" cy="12" r="12"/>
    </clipPath>
    <clipPath id="usd-c">
      <rect class="usd-g" y="-.1" width="12.2" height="13.1"/>
    </clipPath>
  </defs>
  <g class="usd-i">
    <g>
      <g class="usd-j">
        <ellipse class="usd-d" cx="12" cy="11.9" rx="12" ry="12"/>
      </g>
      <path class="usd-f" d="m12.2,10.8h11.5c.3,0,.3,0,.3.1v2c0,0,0,.1-.2.1h-11.6v-2.2h0Z"/>
      <path class="usd-f" d="m12,15.1h11.4c.3,0,.2,0,.1.2-.2.6-.4,1.2-.7,1.8,0,.1-.1.1-.3.1H1.4c-.1,0-.2,0-.3-.2-.3-.6-.5-1.2-.7-1.8,0-.1,0-.1.1-.1h11.5Z"/>
      <path class="usd-e" d="m2.5,19.4h18.9c-.2.3-.5.6-.7.8-.4.4-.9.8-1.4,1.2,0,0-.1,0-.3,0H4.8c-.1,0-.2,0-.3,0-.7-.6-1.4-1.2-1.9-1.9,0,0,0,0-.1-.1h0Z"/>
      <path class="usd-f" d="m9.4,23.7h5.2c-1.8.4-3.5.4-5.2,0Z"/>
      <path class="usd-f" d="m12.2,6.5h10.2c.1,0,.2,0,.3.1.3.6.5,1.2.7,1.9,0,0,0,0,0,.1h-11.3v-2.2Z"/>
      <path class="usd-f" d="m12.2,2.2h6.4c.1,0,.2,0,.3.1.8.6,1.5,1.2,2.1,1.9,0,0,0,0,0,.1h-9v-2.2Z"/>
      <path class="usd-h" d="m8.6,9.2c0,.1.1.3.1.4,0,.1,0,.1.2.1.1,0,.3,0,.5,0-.1.1-.3.2-.4.3,0,0-.1.1,0,.2,0,.1,0,.3.1.5-.1-.1-.3-.2-.4-.3-.1,0-.2,0-.3,0-.1,0-.2.2-.4.3,0-.2,0-.3.1-.4,0-.1,0-.2-.1-.3s-.2-.1-.3-.3h.4c0,0,.1,0,.2-.1,0-.1,0-.3.1-.4h0Z"/>
      <path class="usd-h" d="m.8,9.7c.2,0,.3,0,.5,0,0,0,.1,0,.2-.1,0-.1,0-.3.1-.4,0,.1.1.3.1.4,0,.1,0,.2.2.2s.3,0,.4,0c-.1,0-.2.2-.4.3,0,0-.1.1,0,.2,0,.1.1.3.1.4-.1-.1-.3-.2-.4-.3,0,0-.1,0-.2,0-.1.1-.3.2-.4.3,0-.2,0-.3.1-.4s0-.2-.1-.3-.2-.1-.3-.2h0Z"/>
      <path class="usd-h" d="m5.9,9.7c0,0-.1.1-.2.2-.2.1-.2.3-.1.4,0,0,0,.2,0,.3-.2-.1-.3-.2-.4-.3,0,0-.1,0-.2,0-.1,0-.3.2-.4.3,0-.2,0-.3.1-.4,0-.1,0-.2,0-.3-.1,0-.2-.2-.3-.3h.4c.1,0,.2,0,.2-.1,0-.1,0-.3.1-.4,0,.1.1.3.1.4,0,.1,0,.1.2.1h.4s0,0,0,0Z"/>
      <path class="usd-h" d="m3.8,6.1c-.1,0-.2-.2-.3-.3,0,0-.1,0-.2,0-.1,0-.2.2-.4.3,0-.2,0-.3.1-.4,0-.1,0-.2,0-.3-.1,0-.2-.1-.3-.3h.4c.1,0,.2,0,.2-.1,0-.1,0-.3.1-.4,0,.2.1.3.1.4,0,.1,0,.1.2.1.1,0,.3,0,.4,0,0,0-.2.1-.3.2-.1,0-.2.2-.1.3,0,.1,0,.2.1.3h0s0,0,0,0Z"/>
      <path class="usd-h" d="m.3,12.1c-.1,0-.2-.2-.3-.3,0,0-.1,0-.2,0-.1,0-.2.2-.4.3,0-.2,0-.3.1-.4,0-.1,0-.2,0-.3-.1,0-.2-.1-.3-.3h.4c.1,0,.2,0,.2-.1,0-.1,0-.3.1-.4,0,.2.1.3.1.4,0,.1,0,.1.2.1.1,0,.3,0,.4,0,0,0-.2.1-.3.2-.1,0-.2.2-.1.3,0,.1,0,.2.1.3h0s0,0,0,0Z"/>
      <path class="usd-h" d="m9.9,6.1c0-.1,0-.3,0-.4,0-.1,0-.2,0-.3-.1,0-.2-.1-.3-.3.2,0,.3,0,.4,0s.2,0,.2-.1c0-.1,0-.3.1-.4,0,.1.1.3.1.4,0,0,0,.1.2.1h.5c-.1.1-.2.2-.3.3-.1,0-.2.2-.1.3,0,.1,0,.2.1.4-.1-.1-.3-.2-.4-.3,0,0-.1,0-.2,0-.1,0-.2.2-.4.3h0Z"/>
      <path class="usd-h" d="m6.8,4.6c0,.2.1.3.1.5,0,0,0,.1.1.1h.5c-.1.1-.2.2-.3.3,0,0-.1.1,0,.2,0,.1,0,.3.1.5-.1,0-.3-.1-.3-.2-.1-.1-.2-.1-.3,0,0,0-.2.1-.3.3,0-.2.1-.3.1-.5,0,0,0-.1,0-.2-.1,0-.2-.2-.3-.3h.4c.1,0,.1,0,.2-.1,0-.1,0-.3.1-.4h0Z"/>
      <path class="usd-h" d="m4.6,4.6c0-.1,0-.3.1-.4,0-.1,0-.2,0-.3-.1,0-.2-.1-.3-.3.1,0,.3,0,.4,0s.2,0,.2-.1c0-.1,0-.3.1-.4,0,.1,0,.3.1.4,0,.1.1.2.3.2s.3,0,.4,0c-.1,0-.2.2-.3.2,0,0-.1.1,0,.2,0,.1,0,.3.1.4-.1,0-.3-.1-.4-.2s-.2,0-.3,0c-.1,0-.2.2-.4.2h0Z"/>
      <path class="usd-h" d="m7.9,3.7c.1,0,.3,0,.4,0s.1,0,.2-.1c0-.1,0-.3.1-.4,0,.1.1.2.1.4,0,.1.1.2.3.2h.4c-.2.1-.3.2-.4.3,0,0,0,0,0,.2,0,.1.1.3.1.4-.1,0-.3-.2-.4-.3,0,0-.1,0-.2,0-.1,0-.2.2-.4.3,0-.2,0-.3.1-.4,0-.1,0-.2,0-.2-.1,0-.2-.1-.3-.3h0Z"/>
      <path class="usd-h" d="m2.8,12.1c0-.1,0-.2.1-.3,0-.1,0-.2-.1-.3-.1,0-.2-.1-.3-.3h.3c.2,0,.3,0,.3-.3,0,0,0-.2.1-.3,0,.1.1.3.1.4,0,0,0,.1.2.1.1,0,.3,0,.4,0-.1,0-.2.2-.3.3,0,0-.1.1,0,.2,0,.1,0,.3.1.4-.1,0-.2-.2-.4-.3,0,0-.1,0-.2,0-.1,0-.2.2-.3.3h0s0,0,0,0Z"/>
      <path class="usd-h" d="m6.3,12.2c0-.2.1-.3.1-.5,0-.1,0-.2,0-.2-.1,0-.2-.1-.3-.3h.4c.1,0,.2,0,.2-.1,0-.1,0-.3.1-.4,0,.1.1.3.1.4,0,.1.1.2.2.2h.4c-.1.1-.2.2-.3.3s-.1.1,0,.2c0,.1,0,.3.1.5-.1-.1-.3-.2-.4-.3,0,0-.1,0-.2,0-.1,0-.2.2-.4.3h0Z"/>
      <path class="usd-h" d="m6.1,2.2c.2,0,.4,0,.5,0s.1-.3.2-.5h0c0,.1.1.3.1.4,0,0,0,.1.1.1h.5c-.1.1-.3.2-.4.3,0,0,0,0,0,.2,0,.1.1.3.1.5-.1,0-.2-.1-.3-.2-.3-.2-.2-.2-.5,0,0,0-.1.1-.3.2,0-.2,0-.3.1-.4,0,0,0-.1,0-.2-.1,0-.3-.1-.4-.3h0Z"/>
      <path class="usd-h" d="m8.6,6.1c0,.1.1.3.1.4,0,.1,0,.1.2.1.1,0,.3,0,.4,0-.1,0-.2.2-.3.3-.1,0-.1.1,0,.2,0,.1,0,.3.1.4-.1,0-.3-.1-.3-.2-.1-.1-.2,0-.3,0,0,0-.2.1-.3.2,0-.2,0-.3.1-.4s0-.2,0-.2c-.1,0-.2-.1-.3-.3.2,0,.3,0,.5,0s.1,0,.2-.1c0-.1,0-.3.1-.4h0Z"/>
      <path class="usd-h" d="m9.9,12.1c0-.1,0-.3.1-.4,0,0,0-.1,0-.2-.1,0-.2-.2-.3-.3h.4c.1,0,.2,0,.2-.2,0-.1,0-.3.1-.4.1.1.1.3.1.4,0,.1.1.2.3.2.1,0,.2,0,.4,0-.1,0-.2.2-.3.3,0,0-.1.1,0,.2,0,.1,0,.2,0,.3s0,0,0,0t0,0c-.1,0-.2-.2-.4-.2s-.2.1-.3.2c0,0,0,0-.1,0h0Z"/>
      <path class="usd-h" d="m5.1,6.1c0,.2,0,.4.2.5.1.1.4,0,.5,0-.1.1-.2.2-.3.3,0,0-.1.1,0,.2,0,.1,0,.3.1.4-.1-.1-.3-.2-.4-.3,0,0-.2,0-.3,0-.1,0-.2.2-.4.3,0-.2,0-.3.1-.4,0-.1,0-.2,0-.2-.1,0-.2-.2-.3-.3h.4c.1,0,.2,0,.3-.2,0-.1,0-.3.1-.4h0Z"/>
      <path class="usd-h" d="m11.2,2.2c-.2.1-.3.2-.4.3,0,0,0,.1,0,.2,0,.1,0,.3.1.4-.2,0-.3-.1-.4-.2-.1,0-.2,0-.3,0-.1,0-.2.2-.4.2,0-.1,0-.3.1-.4,0,0,0-.1,0-.2-.1,0-.2-.2-.4-.3.2,0,.3,0,.5,0s.1,0,.2-.1c0-.1,0-.3.1-.4.1.1.1.3.1.4,0,.1.1.2.2.2s.3,0,.4,0Z"/>
      <path class="usd-h" d="m10.9,9.2c-.2-.1-.3-.2-.4-.3,0,0-.1,0-.2,0-.1,0-.2.2-.4.3,0-.2,0-.3,0-.4,0-.1,0-.2,0-.3-.1,0-.2-.1-.3-.3h.4c.1,0,.2,0,.2-.2,0-.1,0-.3.1-.4,0,.1.1.3.1.4,0,.1,0,.1.2.1h.4c-.1.1-.3.2-.4.3,0,0,0,.1,0,.2,0,.1,0,.3.1.5h0Z"/>
      <path class="usd-h" d="m6.5,8.7c0-.1,0-.2,0-.2-.1,0-.2-.1-.3-.3h.4c.1,0,.2,0,.2-.1,0-.1,0-.3.1-.4,0,.2.1.3.1.4,0,.1,0,.1.2.1h.4c0,.1-.2.2-.3.3-.1,0-.1.2,0,.3,0,.1.1.2.1.4h0c-.1,0-.3-.2-.4-.3,0,0-.1,0-.2,0-.1,0-.2.2-.4.2"/>
      <path class="usd-h" d="m4.1,8.2c-.1,0-.2.2-.4.3,0,0,0,.1,0,.2,0,.1,0,.3.1.4-.2,0-.3-.2-.4-.3s-.1,0-.2,0c-.1,0-.2.2-.4.3,0-.2,0-.3.1-.4,0,0,0-.1,0-.2-.1,0-.2-.2-.4-.3.1,0,.3,0,.4,0,.1,0,.1,0,.2-.1,0-.1,0-.3.1-.4,0,.1,0,.2.1.4,0,.1.1.2.3.2h.4s0,0,0,0Z"/>
      <path class="usd-h" d="m2,7.6c-.1,0-.2-.2-.3-.3,0,0-.1,0-.2,0-.1,0-.2.2-.4.3,0-.2,0-.3.1-.4,0-.1,0-.2,0-.3-.1,0-.2-.1-.3-.3h.4c.1,0,.2,0,.2-.1,0-.1,0-.3.1-.4,0,.2.1.3.1.4,0,.1,0,.1.2.1.1,0,.3,0,.4,0,0,0-.2.1-.3.2-.1,0-.2.2-.1.3,0,.1,0,.2.1.3h0s0,0,0,0Z"/>
      <path class="usd-h" d="m9.1,1.6c-.1,0-.2-.2-.3-.3,0,0-.1,0-.2,0-.1,0-.2.2-.4.3,0-.2,0-.3.1-.4,0-.1,0-.2,0-.3-.1,0-.2-.1-.3-.3h.4c.1,0,.2,0,.2-.1,0-.1,0-.3.1-.4,0,.2.1.3.1.4,0,.1,0,.1.2.1.1,0,.3,0,.4,0,0,0-.2.1-.3.2-.1,0-.2.2-.1.3,0,.1,0,.2.1.3h0s0,0,0,0Z"/>
    </g>
  </g>
</svg>