<svg width="24" height="24" viewBox="0 0 24 24" fill="none" xmlns="http://www.w3.org/2000/svg">
<circle cx="12" cy="12" r="10" fill="#2671C4"/>
<path d="M14.9679 13.548C14.9861 12.2601 13.7018 11.3545 12.0445 11.1759C11.071 11.074 10.5418 10.7873 10.5418 10.123C10.5418 9.48845 11.1666 9.01684 11.8625 9.05601C13.1271 9.12965 13.3106 9.93811 13.3106 10.4316C13.3106 10.4316 14.6874 10.4473 14.6874 10.4316C14.6874 9.22993 14.0172 8.17235 12.648 7.86056V6.43792H11.2833V7.81042C9.86859 8.0423 9.08466 9.22053 9.07101 10.2233C9.0513 11.5503 10.1248 12.2883 11.9065 12.5546C13.0134 12.7113 13.5062 13.1485 13.4956 13.7282C13.4865 14.3549 13.0907 14.955 11.9505 14.955C10.8678 14.955 10.4236 14.264 10.4236 13.5354H8.93758C8.93758 14.8421 9.61385 15.801 11.2757 16.0235V17.3929H12.6404V16.0376C14.5691 15.7853 14.9558 14.2875 14.9679 13.548Z" fill="white"/>
<path d="M5.39093 12C5.39097 10.5693 5.82582 9.17476 6.63413 8.01317C7.44243 6.85158 8.58336 5.98161 9.89589 5.52605V4.0235C8.20249 4.50079 6.70797 5.54019 5.64256 6.98156C4.57716 8.42294 4 10.1863 4 12C4 13.8137 4.57716 15.5771 5.64256 17.0184C6.70797 18.4598 8.20249 19.4992 9.89589 19.9765V18.474C8.58336 18.0184 7.44243 17.1484 6.63413 15.9868C5.82582 14.8252 5.39097 13.4307 5.39093 12ZM14.0278 4V5.49785C15.3587 5.94189 16.519 6.81049 17.342 7.97879C18.1651 9.14709 18.6085 10.5549 18.6085 12C18.6085 13.4451 18.1651 14.8529 17.342 16.0212C16.519 17.1895 15.3587 18.0581 14.0278 18.5022V20C15.7389 19.5359 17.253 18.4991 18.3335 17.0518C19.414 15.6044 20 13.8279 20 12C20 10.1721 19.414 8.39561 18.3335 6.94824C17.253 5.50087 15.7389 4.46413 14.0278 4Z" fill="white"/>
</svg>
