<?xml version="1.0" encoding="UTF-8"?>
<svg id="ena" data-name="Layer 1" xmlns="http://www.w3.org/2000/svg" width="25" height="25" viewBox="0 0 25 25">
  <defs>
    <style>
      .en-b {
        fill: #f0f0f0;
      }

      .en-b, .en-c, .en-d {
        stroke-width: 0px;
      }

      .en-e {
        fill: none;
        stroke: #e7e7e7;
      }

      .en-c {
        fill: #0052b4;
      }

      .en-d {
        fill: #d80027;
      }
    </style>
  </defs>
  <circle class="en-b" cx="12.5" cy="12.5" r="12"/>
  <path class="en-c" d="m3,5.2c-.9,1.2-1.7,2.6-2.1,4.2h6.2L3,5.2Z"/>
  <path class="en-c" d="m24.1,9.4c-.4-1.5-1.1-2.9-2.1-4.2l-4.2,4.2h6.2Z"/>
  <path class="en-c" d="m.9,15.6c.4,1.5,1.1,2.9,2.1,4.2l4.2-4.2H.9Z"/>
  <path class="en-c" d="m19.8,3c-1.2-.9-2.6-1.7-4.2-2.1v6.2l4.2-4.2Z"/>
  <path class="en-c" d="m5.2,22c1.2.9,2.6,1.7,4.2,2.1v-6.2l-4.2,4.2Z"/>
  <path class="en-c" d="m9.4.9c-1.5.4-2.9,1.1-4.2,2.1l4.2,4.2V.9Z"/>
  <path class="en-c" d="m15.6,24.1c1.5-.4,2.9-1.1,4.2-2.1l-4.2-4.2s0,6.2,0,6.2Z"/>
  <path class="en-c" d="m17.8,15.6l4.2,4.2c.9-1.2,1.7-2.6,2.1-4.2h-6.2Z"/>
  <path class="en-d" d="m24.4,10.9h-10.3V.6c-.5,0-1-.1-1.6-.1s-1.1,0-1.6.1v10.3h0s-10.3,0-10.3,0c0,.5-.1,1-.1,1.6s0,1.1.1,1.6h10.3v10.3c.5,0,1,.1,1.6.1s1.1,0,1.6-.1v-10.3h0s10.3,0,10.3,0c0-.5.1-1,.1-1.6s0-1.1-.1-1.6Z"/>
  <path class="en-d" d="m15.6,15.6h0l5.4,5.4c.2-.2.5-.5.7-.8l-4.6-4.6h-1.5s0,0,0,0Z"/>
  <path class="en-d" d="m9.4,15.6h0l-5.4,5.4c.2.2.5.5.8.7l4.6-4.6s0-1.5,0-1.5Z"/>
  <path class="en-d" d="m9.4,9.4h0s-5.4-5.4-5.4-5.4c-.2.2-.5.5-.7.8l4.6,4.6h1.5Z"/>
  <path class="en-d" d="m15.6,9.4h0l5.4-5.4c-.2-.2-.5-.5-.8-.7l-4.6,4.6v1.5Z"/>
  <path class="en-e" d="m24.5,12.5c0,6.6-5.4,12-12,12S.5,19.1.5,12.5,5.9.5,12.5.5s12,5.4,12,12Z"/>
</svg>