<?xml version="1.0" encoding="UTF-8"?>
<svg id="rua" data-name="ruLang" xmlns="http://www.w3.org/2000/svg" width="24" height="24">
  <defs>
    <style>
      .ru-b {
        fill: #0035a9;
      }

      .ru-b, .ru-c, .ru-d {
        stroke-width: 0px;
      }

      .ru-e {
        fill: none;
        stroke: #e7e7e7;
      }

      .ru-c {
        fill: #f62717;
      }

      .ru-d {
        fill: #f9f9f9;
      }
    </style>
  </defs>
  <path class="ru-d" d="m11.9.7C7,.7,2.8,3.8,1.3,8.2h21.2C20.9,3.8,16.8.7,11.9.7Z"/>
  <path class="ru-c" d="m11.9,23.2c4.9,0,9.1-3.2,10.6-7.5H1.3c1.5,4.4,5.7,7.5,10.6,7.5Z"/>
  <path class="ru-b" d="m1.3,8.2c-.4,1.2-.6,2.4-.6,3.8s.2,2.6.6,3.8h21.2c.4-1.2.6-2.4.6-3.8s-.2-2.6-.6-3.8H1.3"/>
  <path class="ru-e" d="m23.3,11.9c0,6.3-5.1,11.4-11.4,11.4S.5,18.2.5,11.9,5.6.5,11.9.5s11.4,5.1,11.4,11.4Z"/>
</svg>