<svg width="40" height="40" viewBox="0 0 40 40" fill="none" xmlns="http://www.w3.org/2000/svg">
<path d="M40 20C40 31.0457 31.0457 40 20 40C8.9543 40 0 31.0457 0 20C0 8.9543 8.9543 0 20 0C31.0457 0 40 8.9543 40 20Z" fill="#C13584"/>
<path d="M20 10.1622C23.2041 10.1622 23.5837 10.1744 24.849 10.2321C26.019 10.2855 26.6544 10.481 27.0773 10.6453C27.6374 10.863 28.0371 11.123 28.457 11.5429C28.877 11.9629 29.137 12.3626 29.3547 12.9227C29.519 13.3456 29.7145 13.981 29.7679 15.151C29.8256 16.4163 29.8379 16.7959 29.8379 19.9999C29.8379 23.2041 29.8256 23.5836 29.7679 24.849C29.7145 26.019 29.519 26.6544 29.3547 27.0772C29.137 27.6373 28.877 28.0371 28.4571 28.457C28.0371 28.8769 27.6374 29.1369 27.0773 29.3546C26.6544 29.519 26.019 29.7145 24.849 29.7678C23.5839 29.8255 23.2044 29.8378 20 29.8378C16.7956 29.8378 16.4162 29.8255 15.151 29.7678C13.981 29.7145 13.3456 29.519 12.9228 29.3546C12.3626 29.1369 11.9629 28.8769 11.543 28.457C11.1231 28.0371 10.863 27.6373 10.6453 27.0772C10.481 26.6544 10.2855 26.019 10.2321 24.849C10.1744 23.5836 10.1622 23.2041 10.1622 19.9999C10.1622 16.7959 10.1744 16.4163 10.2321 15.151C10.2855 13.981 10.481 13.3456 10.6453 12.9227C10.863 12.3626 11.123 11.9629 11.543 11.543C11.9629 11.123 12.3626 10.863 12.9228 10.6453C13.3456 10.481 13.981 10.2855 15.151 10.2321C16.4163 10.1744 16.7959 10.1622 20 10.1622ZM20 8.00001C16.741 8.00001 16.3324 8.01383 15.0524 8.07223C13.7752 8.13048 12.9028 8.33335 12.1396 8.62997C11.3505 8.93664 10.6812 9.34696 10.0141 10.0141C9.34696 10.6812 8.93664 11.3504 8.63002 12.1395C8.33336 12.9028 8.13048 13.7751 8.07223 15.0524C8.01383 16.3323 8.00001 16.741 8.00001 19.9999C8.00001 23.259 8.01383 23.6676 8.07223 24.9475C8.13048 26.2248 8.33336 27.0971 8.63002 27.8604C8.93664 28.6495 9.34696 29.3187 10.0141 29.9859C10.6812 30.653 11.3505 31.0633 12.1396 31.3699C12.9028 31.6666 13.7752 31.8695 15.0524 31.9277C16.3324 31.9861 16.741 31.9999 20 31.9999C23.259 31.9999 23.6677 31.9861 24.9476 31.9277C26.2249 31.8695 27.0972 31.6666 27.8605 31.3699C28.6496 31.0633 29.3188 30.653 29.9859 29.9859C30.6531 29.3187 31.0634 28.6495 31.3701 27.8604C31.6667 27.0971 31.8695 26.2248 31.9278 24.9475C31.9862 23.6676 32 23.259 32 19.9999C32 16.741 31.9862 16.3323 31.9278 15.0524C31.8695 13.7751 31.6667 12.9028 31.3701 12.1395C31.0634 11.3504 30.6531 10.6812 29.9859 10.0141C29.3188 9.34696 28.6496 8.93664 27.8605 8.62997C27.0972 8.33335 26.2249 8.13048 24.9476 8.07223C23.6677 8.01383 23.259 8.00001 20 8.00001Z" fill="white"/>
<path d="M20.0056 13.8434C16.6023 13.8434 13.8434 16.6023 13.8434 20.0055C13.8434 23.4088 16.6023 26.1677 20.0056 26.1677C23.4089 26.1677 26.1677 23.4088 26.1677 20.0055C26.1677 16.6023 23.4089 13.8434 20.0056 13.8434ZM20.0056 24.0055C17.7964 24.0055 16.0056 22.2147 16.0056 20.0055C16.0056 17.7964 17.7964 16.0056 20.0056 16.0056C22.2147 16.0056 24.0056 17.7964 24.0056 20.0055C24.0056 22.2147 22.2147 24.0055 20.0056 24.0055Z" fill="white"/>
<path d="M27.8508 13.5962C27.8508 14.3914 27.2061 15.0361 26.4108 15.0361C25.6155 15.0361 24.9708 14.3914 24.9708 13.5962C24.9708 12.8009 25.6155 12.1561 26.4108 12.1561C27.2061 12.1561 27.8508 12.8009 27.8508 13.5962Z" fill="white"/>
</svg>
