<svg width="24" height="24" viewBox="0 0 24 24" fill="none" xmlns="http://www.w3.org/2000/svg">
<path d="M12 3.80179C14.6701 3.80179 14.9864 3.81199 16.0409 3.8601C17.0158 3.90456 17.5453 4.06747 17.8977 4.20442C18.3645 4.38582 18.6976 4.60252 19.0475 4.95243C19.3975 5.30238 19.6142 5.6355 19.7956 6.10227C19.9325 6.45464 20.0954 6.98413 20.1399 7.95912C20.188 9.01358 20.1982 9.32987 20.1982 11.9999C20.1982 14.6701 20.188 14.9864 20.1399 16.0408C20.0954 17.0158 19.9325 17.5453 19.7956 17.8977C19.6142 18.3644 19.3975 18.6976 19.0476 19.0475C18.6976 19.3974 18.3645 19.6141 17.8977 19.7955C17.5453 19.9325 17.0158 20.0954 16.0409 20.1398C14.9866 20.1879 14.6703 20.1981 12 20.1981C9.32969 20.1981 9.01348 20.1879 7.95914 20.1398C6.98415 20.0954 6.45466 19.9325 6.10229 19.7955C5.63551 19.6141 5.30239 19.3974 4.95248 19.0475C4.60257 18.6976 4.38583 18.3644 4.20443 17.8977C4.06748 17.5453 3.90457 17.0158 3.86011 16.0408C3.812 14.9864 3.8018 14.6701 3.8018 11.9999C3.8018 9.32987 3.812 9.01358 3.86011 7.95912C3.90457 6.98413 4.06748 6.45464 4.20443 6.10227C4.38583 5.6355 4.60253 5.30238 4.95248 4.95247C5.30239 4.60252 5.63551 4.38582 6.10229 4.20442C6.45466 4.06747 6.98415 3.90456 7.95914 3.8601C9.0136 3.81199 9.32989 3.80179 12 3.80179ZM12 2C9.28416 2 8.94362 2.01151 7.87701 2.06018C6.81263 2.10872 6.08569 2.27779 5.44962 2.52497C4.79203 2.78052 4.23436 3.12245 3.67839 3.67838C3.12246 4.23435 2.78052 4.79202 2.52501 5.44961C2.27779 6.08568 2.10872 6.81261 2.06018 7.87699C2.01151 8.94359 2 9.28414 2 11.9999C2 14.7158 2.01151 15.0563 2.06018 16.1229C2.10872 17.1873 2.27779 17.9143 2.52501 18.5503C2.78052 19.2079 3.12246 19.7656 3.67839 20.3216C4.23436 20.8775 4.79203 21.2194 5.44962 21.4749C6.08569 21.7221 6.81263 21.8912 7.87701 21.9398C8.94362 21.9884 9.28416 21.9999 12 21.9999C14.7158 21.9999 15.0564 21.9884 16.123 21.9398C17.1874 21.8912 17.9143 21.7221 18.5504 21.4749C19.208 21.2194 19.7656 20.8775 20.3216 20.3216C20.8775 19.7656 21.2195 19.2079 21.475 18.5503C21.7222 17.9143 21.8913 17.1873 21.9398 16.1229C21.9885 15.0563 22 14.7158 22 11.9999C22 9.28414 21.9885 8.94359 21.9398 7.87699C21.8913 6.81261 21.7222 6.08568 21.475 5.44961C21.2195 4.79202 20.8775 4.23435 20.3216 3.67838C19.7656 3.12245 19.208 2.78052 18.5504 2.52497C17.9143 2.27779 17.1874 2.10872 16.123 2.06018C15.0564 2.01151 14.7158 2 12 2Z" fill="currentColor"/>
<path d="M12.0048 6.86913C9.16867 6.86913 6.86962 9.16818 6.86962 12.0042C6.86962 14.8403 9.16867 17.1394 12.0048 17.1394C14.8408 17.1394 17.1399 14.8403 17.1399 12.0042C17.1399 9.16818 14.8408 6.86913 12.0048 6.86913ZM12.0048 15.3376C10.1638 15.3376 8.67141 13.8452 8.67141 12.0042C8.67141 10.1633 10.1638 8.67092 12.0048 8.67092C13.8457 8.67092 15.3381 10.1633 15.3381 12.0042C15.3381 13.8452 13.8457 15.3376 12.0048 15.3376Z" fill="currentColor"/>
<path d="M18.5423 6.66339C18.5423 7.32609 18.0051 7.86337 17.3423 7.86337C16.6796 7.86337 16.1423 7.32609 16.1423 6.66339C16.1423 6.00064 16.6796 5.46337 17.3423 5.46337C18.0051 5.46337 18.5423 6.00064 18.5423 6.66339Z" fill="currentColor"/>
</svg>
