<svg width="24" height="24" viewBox="0 0 24 24" fill="none" xmlns="http://www.w3.org/2000/svg">
<path fill-rule="evenodd" clip-rule="evenodd" d="M6.34068 5.73022C6.34068 6.67347 5.47883 7.43682 4.13105 7.43682C2.83578 7.43682 1.97393 6.67347 2.0006 5.73022C1.97393 4.74112 2.83576 4 4.15687 4C5.47881 4 6.31484 4.74112 6.34068 5.73022ZM2.10896 19.772V8.78502H6.20648V19.7713L2.10896 19.772Z" fill="currentColor"/>
<path fill-rule="evenodd" clip-rule="evenodd" d="M9.4907 12.2914C9.4907 10.921 9.43652 9.75265 9.38234 8.78648H12.9414L13.1306 10.2917H13.2115C13.7508 9.59498 15.0985 8.5399 17.2823 8.5399C19.9779 8.5399 22 10.0228 22 13.2569V19.7735H17.9025V13.6847C17.9025 12.2684 17.3098 11.303 15.827 11.303C14.6943 11.303 14.0208 11.9545 13.7516 12.5831C13.6432 12.8081 13.5899 13.1221 13.5899 13.4374V19.7735H9.49236V12.2914H9.4907Z" fill="currentColor"/>
</svg>
