<svg width="40" height="40" viewBox="0 0 40 40" fill="none" xmlns="http://www.w3.org/2000/svg">
<g clip-path="url(#clip0_14_171)">
<path d="M20 40C31.0457 40 40 31.0457 40 20C40 8.95431 31.0457 0 20 0C8.95431 0 0 8.95431 0 20C0 31.0457 8.95431 40 20 40Z" fill="url(#paint0_linear_14_171)"/>
<path fill-rule="evenodd" clip-rule="evenodd" d="M8.49314 19.7489C14.3235 17.2087 18.2114 15.534 20.1567 14.7249C25.7109 12.4147 26.865 12.0134 27.6173 12.0001C27.7827 11.9972 28.1526 12.0382 28.3923 12.2327C28.5946 12.3968 28.6503 12.6186 28.6769 12.7743C28.7035 12.93 28.7367 13.2846 28.7103 13.5616C28.4094 16.7241 27.107 24.3986 26.4444 27.9406C26.1641 29.4394 25.6121 29.9419 25.0776 29.9911C23.9162 30.098 23.0342 29.2235 21.9093 28.4861C20.1491 27.3323 19.1546 26.614 17.446 25.488C15.4714 24.1868 16.7514 23.4716 17.8768 22.3027C18.1713 21.9969 23.2886 17.3423 23.3876 16.92C23.4 16.8672 23.4115 16.6704 23.2946 16.5664C23.1776 16.4625 23.005 16.498 22.8805 16.5263C22.704 16.5664 19.8919 18.425 14.4444 22.1022C13.6462 22.6503 12.9232 22.9174 12.2755 22.9034C11.5614 22.888 10.1877 22.4996 9.16654 22.1677C7.91404 21.7606 6.91858 21.5453 7.00526 20.8539C7.05041 20.4937 7.54637 20.1254 8.49314 19.7489Z" fill="white"/>
</g>
<defs>
<linearGradient id="paint0_linear_14_171" x1="20" y1="0" x2="20" y2="39.7033" gradientUnits="userSpaceOnUse">
<stop stop-color="#2AABEE"/>
<stop offset="1" stop-color="#229ED9"/>
</linearGradient>
<clipPath id="clip0_14_171">
<rect width="40" height="40" fill="white"/>
</clipPath>
</defs>
</svg>
