<svg width="24" height="24" viewBox="0 0 24 24" fill="none" xmlns="http://www.w3.org/2000/svg">
<path fill-rule="evenodd" clip-rule="evenodd" d="M22 5.92387C21.2647 6.25052 20.4734 6.4705 19.6435 6.56983C20.4908 6.06186 21.1414 5.25791 21.4474 4.29998C20.6554 4.77061 19.7761 5.11126 18.8422 5.29591C18.0936 4.49863 17.0263 4 15.8471 4C13.5812 4 11.744 5.83721 11.744 8.10306C11.744 8.42437 11.7807 8.73768 11.8507 9.03833C8.44024 8.86767 5.41711 7.23378 3.39324 4.75128C3.03993 5.35724 2.83794 6.06187 2.83794 6.81382C2.83794 8.23706 3.56123 9.49297 4.66316 10.2289C3.98987 10.2076 3.35791 10.0229 2.80394 9.71562V9.76695C2.80394 11.7555 4.21918 13.4134 6.09506 13.7913C5.75108 13.8847 5.38844 13.9353 5.01447 13.9353C4.74982 13.9353 4.4925 13.9093 4.24185 13.8613C4.76382 15.4912 6.27971 16.6778 8.07493 16.7112C6.67102 17.8111 4.90181 18.4677 2.97927 18.4677C2.64729 18.4677 2.32065 18.4484 2 18.4097C3.81588 19.5736 5.9724 20.2536 8.28958 20.2536C15.8364 20.2536 19.9635 14.0013 19.9635 8.57969C19.9635 8.4017 19.9601 8.22439 19.9515 8.04907C20.7541 7.46911 21.45 6.74648 22 5.92387Z" fill="currentColor"/>
</svg>
