<svg width="284" height="387" viewBox="0 0 284 387" fill="none" xmlns="http://www.w3.org/2000/svg">
<path d="M104.316 191.144C103.731 192.423 103.146 193.468 102.561 194.747C100.338 200.092 93.5515 220.543 92.2645 225.772C90.3925 233.906 84.5425 273.53 83.7235 282.71C82.9045 292.122 82.4365 301.767 82.5535 311.179C82.5535 311.644 82.5535 312.225 82.5535 312.69C82.6705 318.848 82.9045 325.007 83.7235 331.049L91.6795 330.236C87.5845 329.771 88.6375 325.123 88.2865 321.986C87.8185 318.035 87.7015 314.084 87.7015 310.133C87.2335 268.998 99.6355 226.702 109.932 186.845C110.634 184.289 110.868 181.616 111.687 179.06C108.528 181.5 106.305 186.613 104.316 190.912V191.144Z" fill="#4E4E4E"/>
<path d="M95.1904 345.923C95.1904 345.923 94.0203 345.923 93.4353 345.923C94.0203 353.127 95.0734 362.075 96.2434 369.279C96.7114 372.3 96.8284 375.786 97.9984 378.575C100.923 379.737 101.742 378.575 101.976 378.575C102.327 378.575 102.912 378.691 103.146 378.343C103.731 376.948 104.316 353.127 104.901 348.828C104.55 348.131 96.5944 346.155 95.1904 345.923Z" fill="#48C78E"/>
<path d="M92.9673 330.468C92.9673 335.581 93.0843 340.81 93.5523 346.039C94.1373 346.039 94.7223 346.039 95.3073 346.039C97.2963 344.993 96.1263 343.715 96.4773 342.437C96.5943 341.856 96.1263 340.694 96.7113 340.345C98.9343 339.183 134.619 341.042 148.074 337.789C145.149 350.455 161.646 342.204 162.933 343.018C164.571 344.064 158.019 354.754 176.622 345.574C178.494 346.969 167.028 384.153 158.955 384.966H150.063C157.902 388.452 185.397 384.85 190.662 377.413C192.066 375.321 192.183 372.649 193.002 370.441C196.278 360.796 198.618 342.437 199.905 339.416L198.15 337.905C196.044 338.835 179.079 343.018 178.494 338.951C173.58 343.483 166.911 344.528 167.613 336.394C162.933 341.74 158.721 341.74 155.913 335.349C154.86 332.908 157.551 331.398 152.52 333.257C150.648 333.954 146.319 337.556 147.372 332.792C147.372 332.211 147.021 332.327 146.787 332.327C144.213 331.63 105.603 336.394 93.0843 330.817L92.9673 330.468Z" fill="black"/>
<path d="M96.3608 342.321L100.105 346.504C103.732 345.691 107.125 348.712 111.805 349.06H138.598L139.768 349.293C140.47 359.286 138.247 379.621 150.064 384.734H158.956C167.029 384.037 178.612 346.736 176.623 345.342C158.02 354.406 164.572 343.715 162.934 342.786C161.647 342.088 145.15 350.222 148.075 337.557C134.62 340.926 98.9348 338.951 96.7118 340.113C96.1268 340.462 96.5948 341.624 96.4778 342.205L96.3608 342.321Z" fill="#48C78E"/>
<path d="M111.804 349.06C110.517 353.359 108.762 378.807 105.837 379.621C103.614 380.202 102.327 378.575 102.093 378.575C101.859 378.575 101.04 379.737 98.1151 378.575C101.391 386.825 126.78 386.709 133.8 382.758C141.873 378.11 137.544 356.962 138.714 349.06H111.921H111.804Z" fill="black"/>
<path d="M96.3605 342.321C96.0095 343.599 97.1795 344.877 95.1905 345.923C96.5945 346.155 104.551 348.131 104.902 348.828C104.317 353.127 103.731 376.948 103.146 378.343C103.029 378.691 102.328 378.575 101.977 378.575C102.211 378.575 103.497 380.202 105.72 379.621C108.645 378.808 110.518 353.36 111.688 349.06C107.008 348.712 103.498 345.691 99.9875 346.504L96.2435 342.321H96.3605Z" fill="#4E4E4E"/>
<path d="M108.996 175.109L104.433 191.145C106.539 186.845 108.762 181.733 111.804 179.292C112.389 177.085 113.793 174.993 112.974 175.109C112.038 175.225 110.283 175.109 108.996 175.109Z" fill="#27233E"/>
<path d="M155.796 142.921C155.562 144.316 154.86 144.083 154.626 146.059C154.275 149.777 156.615 160.351 156.966 165.464C157.668 166.278 161.295 166.626 162.699 166.742C166.326 167.091 172.176 166.742 176.388 166.742C178.26 166.742 180.249 166.742 182.121 166.742C185.514 166.742 188.439 165.813 189.843 166.278C190.779 167.207 191.832 168.137 193.002 168.834C191.949 164.651 185.514 161.513 180.717 159.538C167.613 153.96 158.019 154.309 156.966 153.612C151.35 149.893 175.452 151.172 171.24 145.013C166.092 145.245 161.178 144.781 156.381 142.921H155.796Z" fill="#34E89E"/>
<path d="M56.3461 47.7539C56.8141 46.4757 53.6551 43.2221 52.9531 40.7819C54.8251 40.5495 58.4521 41.9439 59.8561 42.0601C54.9421 31.1373 60.3241 17.6581 74.9491 21.8413C77.0551 7.20011 86.6492 3.24931 98.1152 14.6369C99.2852 15.7989 98.9341 16.2637 100.923 17.7743C107.826 7.5487 117.303 6.0381 126.078 15.6827C127.716 17.5419 128.184 18.9363 129.471 20.3307C139.65 14.6369 146.904 4.87611 158.019 14.6369C161.295 17.5419 163.284 21.1441 165.975 24.5139C175.218 16.9609 185.748 11.9643 193.938 23.4681C198.735 26.1407 200.139 29.7429 200.841 34.8557C201.777 34.8557 202.128 34.3909 203.181 34.3909C204.234 34.3909 203.415 32.9965 204 32.8803C204.819 32.7641 213.594 34.8557 217.455 39.0389C218.274 39.9685 218.859 39.3875 219.21 39.8523C219.678 40.6657 223.305 55.5393 223.188 56.4689L210.084 68.3213C213.477 70.9939 218.859 73.6665 221.55 76.9201C222.486 77.9659 222.954 79.1279 223.89 80.2899C214.296 89.5859 211.839 88.7725 216.168 98.1847C218.742 96.2093 218.508 93.4205 219.327 92.4909C221.082 90.3993 235.356 84.0083 223.305 70.1805C223.188 69.9481 221.316 69.5995 220.497 68.3213C220.497 67.8565 223.89 66.1135 224.475 65.4163C227.751 62.0465 230.208 59.2577 230.793 54.4935C232.314 40.7819 220.263 26.9541 204.819 26.0245C201.894 11.9643 182.589 3.71411 169.368 12.0805C168.315 11.8481 165.39 3.9465 152.52 2.7845C150.999 2.6683 147.021 2.6683 145.617 2.7845C138.831 3.5979 134.502 8.8269 132.162 8.4783C122.919 0.576701 111.804 -1.97969 101.859 6.38671C89.1061 -3.37409 73.8961 -1.39869 69.9182 14.1721C54.2401 14.1721 56.5802 22.1899 50.7302 31.4859C50.0282 40.0847 51.1981 41.5953 56.4631 47.7539H56.3461Z" fill="#391825"/>
<path d="M200.958 34.7397C196.395 35.0883 191.715 34.0425 187.269 35.5531L193.821 50.3105C182.355 46.8245 171.357 48.5675 173.229 40.4335C165.858 42.6413 156.966 38.9229 149.244 41.9441C145.5 40.5497 152.403 32.9967 137.193 41.4793C135.204 38.4581 132.045 36.2503 128.652 34.7397L120.696 46.1273L109.23 38.3419L101.274 46.5921C94.8391 40.7821 85.8301 37.5285 77.5231 35.4369C95.6581 53.7965 71.3221 41.9441 66.9931 41.3631C63.9511 41.0145 62.8981 41.9441 62.6641 41.8279C62.6641 41.8279 62.6641 42.1765 61.2601 42.8737C60.7921 42.5251 60.4411 41.9441 59.8561 41.8279C58.5691 41.7117 54.9421 40.2011 52.9531 40.5497C53.6551 42.9899 56.9311 46.2435 56.3461 47.5217C57.7501 49.1485 59.3881 50.1943 60.9091 51.7049C63.4831 50.5429 64.8871 52.8669 68.6311 53.2155C78.5761 54.3775 116.016 48.6837 121.749 49.6133C128.769 50.7753 130.056 57.8635 144.564 47.5217C159.54 61.4657 156.147 49.9619 158.253 50.0781C164.922 68.5539 171.24 66.6947 174.282 47.9865C175.452 83.0789 187.737 57.0501 193.704 73.8991C198.618 70.8779 205.17 64.2545 206.223 66.6947C207.042 62.9763 216.168 60.1875 220.497 55.7719C222.486 60.5361 206.457 65.1841 207.042 68.4377C212.19 71.3427 218.625 77.5013 221.316 76.4555C218.625 73.3181 213.243 70.6455 209.85 67.8567L222.954 56.0043C222.954 55.1909 219.444 40.2011 218.976 39.3877C218.625 38.9229 218.04 39.5039 217.221 38.5743C213.711 37.6447 203.649 36.4827 202.947 33.9263C202.011 33.9263 201.66 34.3911 200.607 34.3911L200.958 34.7397Z" fill="#1D1A23"/>
<path d="M62.664 42.06C62.664 42.06 63.951 41.1304 66.993 41.5952C71.439 42.06 95.658 54.0286 77.523 35.669C85.83 37.7606 94.839 41.0142 101.274 46.8242L109.23 38.574L120.696 46.3594L128.652 34.9718C132.162 36.4824 135.204 38.6902 137.193 41.7114C152.403 33.345 145.5 40.898 149.244 42.1762C156.966 39.0388 165.858 42.7572 173.229 40.6656C171.357 48.7996 182.238 47.0566 193.821 50.5426L187.269 35.7852C191.715 34.2746 196.395 35.3204 200.958 34.9718C200.373 29.859 198.969 26.2568 194.055 23.5842C184.11 18.1228 176.037 20.4468 167.496 26.7216C165.624 26.7216 166.209 24.8624 166.092 24.63C163.284 21.3764 161.412 17.658 158.136 14.753C146.085 11.3832 140.703 16.3798 130.992 21.9574C129.354 21.9574 129.588 20.4468 129.588 20.4468C128.301 19.0524 127.833 17.658 126.195 15.7988C117.771 11.1508 108.762 12.5452 102.444 19.401C100.689 19.401 101.157 17.8904 101.04 17.8904C98.934 16.3798 99.285 15.915 98.232 14.753C75.534 5.45701 79.161 23.7004 76.821 24.63C63.951 21.725 57.048 31.7182 62.781 42.2924L62.664 42.06Z" fill="#391825"/>
<path d="M59.8562 42.0601C60.4412 42.0601 60.7922 42.7573 61.2602 43.1059C62.6642 42.4087 62.5472 42.0601 62.6642 42.0601C56.9312 31.6021 63.8342 21.4927 76.7042 24.3977C79.0442 23.5843 75.4172 5.22468 98.1152 14.5207C86.7662 3.13308 77.1722 7.08387 74.9492 21.7251C60.2072 17.5419 54.9422 30.9049 59.8562 41.9439V42.0601Z" fill="#863D44"/>
<path d="M166.092 24.3976C166.092 24.3976 165.624 26.373 167.496 26.4892C176.037 20.2144 184.11 17.8904 194.055 23.3518C185.865 11.848 175.335 16.8446 166.092 24.3976Z" fill="#863D44"/>
<path d="M100.923 17.6582C100.923 17.6582 100.689 19.1688 102.327 19.1688C108.645 12.313 117.654 10.9186 126.078 15.5666C117.303 5.92202 107.826 7.43261 100.923 17.6582Z" fill="#863D44"/>
<path d="M129.472 20.2145C129.472 20.2145 129.238 21.7251 130.876 21.7251C140.47 16.1475 145.969 11.1509 158.02 14.5207C146.905 4.75991 139.651 14.5207 129.472 20.2145Z" fill="#863D44"/>
<path d="M203.181 34.2746C203.883 36.831 213.945 37.993 217.455 38.9226C213.594 34.6232 204.936 32.5316 204 32.764C203.415 32.8802 204.234 34.1584 203.181 34.2746Z" fill="#863D44"/>
<path d="M155.211 96.3254C158.37 88.1914 167.964 83.311 175.803 90.1668C184.461 97.6036 178.377 110.967 170.07 117.125C181.536 112.71 187.737 91.7936 184.929 81.1032C184.11 78.082 180.6 79.4764 183.759 72.272C181.653 69.948 174.282 77.8496 174.282 66.8106C162.699 71.5748 154.158 64.4866 151.467 64.2542C135.555 62.7436 141.873 85.2864 144.564 88.0752C148.659 89.121 150.648 93.6528 154.86 93.769C155.445 94.35 155.094 95.3958 155.094 96.3254H155.211Z" fill="#332E38"/>
<path d="M198.034 131.069C207.394 125.608 208.213 122.122 207.16 111.896C206.341 112.361 205.99 113.872 204.001 112.361C201.895 115.499 201.193 121.309 200.257 123.516C200.14 123.981 194.524 127.119 197.917 131.069H198.034Z" fill="#391825"/>
<path d="M60.909 51.8209C62.196 53.0991 63.483 54.8421 64.887 56.0041C65.121 56.2365 65.589 57.0499 65.472 57.5147C67.227 58.0957 69.567 59.7225 71.205 60.0711C71.556 60.0711 72.024 60.0711 72.375 60.0711C77.757 55.3069 86.532 63.7895 96.711 57.5147C102.21 58.7929 115.431 60.8845 118.941 57.0499C126.078 60.5359 130.875 61.2331 138.948 59.1415C144.213 69.2509 139.65 67.9727 138.714 69.4833C129.822 84.0083 147.138 90.8641 147.84 92.0261C149.01 93.8853 147.957 104.808 148.425 105.505C148.542 105.738 153.924 105.157 154.158 105.041C154.392 104.808 155.328 98.8819 155.328 98.5333C155.328 97.8361 155.328 97.1389 155.328 96.4417C155.328 95.5121 155.562 94.3501 155.094 93.8853C150.882 93.8853 148.893 89.2373 144.798 88.1915C141.99 85.4027 135.789 62.8599 151.701 64.3705C154.392 64.6029 162.933 71.6911 174.516 66.9269C174.516 77.9659 181.77 69.9481 183.993 72.3883C180.717 79.5927 184.344 78.1983 185.163 81.2195C187.971 91.9099 181.77 112.71 170.304 117.242C164.805 119.449 164.22 119.798 159.423 116.777C159.189 116.661 158.37 116.312 158.253 116.312C154.509 114.801 156.849 118.171 158.487 119.449C161.295 121.425 164.337 121.076 166.209 122.354C166.209 130.256 161.646 137.228 156.498 143.27C161.295 145.13 166.209 145.594 171.357 145.362C175.218 142.108 180.366 143.735 185.397 140.714C188.439 138.855 190.194 134.555 191.13 133.974C191.481 133.742 194.874 133.393 198.267 131.418C194.874 127.583 200.373 124.33 200.607 123.865C201.426 121.657 202.245 115.847 204.351 112.71C206.34 114.22 206.691 112.71 207.51 112.245C217.572 105.854 222.252 105.157 219.561 92.6071C218.742 93.5367 218.976 96.3255 216.402 98.3009C212.073 89.0049 214.53 89.7021 224.124 80.4061C223.305 79.2441 222.72 78.0821 221.784 77.0363C219.093 78.0821 212.658 71.9235 207.51 69.0185C206.925 65.7649 222.954 61.1169 220.965 56.3527C216.636 60.6521 207.51 63.4409 206.691 67.2755C205.638 64.8353 199.086 71.4587 194.172 74.4799C188.205 57.6309 175.92 83.6597 174.75 48.5673C171.708 67.1593 165.507 69.1347 158.721 50.6589C156.498 50.5427 160.008 62.0465 145.032 48.1025C130.407 58.4443 129.12 51.3561 122.217 50.1941C116.484 49.2645 79.044 54.9583 69.099 53.7963C65.355 53.3315 63.951 51.0075 61.377 52.2857L60.909 51.8209Z" fill="#1D1A23"/>
<path d="M184.578 131.069C184.578 131.069 182.589 136.182 182.589 136.531C181.77 143.619 188.907 136.531 188.907 135.02C188.907 133.974 184.929 131.069 184.578 131.186V131.069Z" fill="#391825"/>
<path d="M170.07 310.714C167.028 312.922 148.893 318.267 148.074 318.964C146.904 320.01 146.202 323.729 146.085 325.123C146.085 325.472 147.255 329.887 146.67 331.863C146.904 331.863 147.255 331.863 147.255 332.327C151.818 330.584 153.924 317.919 158.136 323.031C158.37 322.915 162.699 321.521 163.05 321.521C167.262 321.753 158.019 326.401 156.498 333.373C164.454 338.835 168.081 330.003 173.346 325.588C174.633 326.169 164.922 336.975 173.346 336.511C174.75 336.511 178.026 333.373 179.313 332.327C182.823 329.422 182.94 325.82 194.172 323.031C189.843 320.591 185.28 318.5 181.653 315.246C177.792 313.387 173.229 309.552 170.187 310.598L170.07 310.714Z" fill="#EBA483"/>
<path d="M156.381 333.49C156.264 334.187 156.732 335.116 155.796 335C158.721 341.391 162.816 341.275 167.496 336.046C166.794 344.18 173.346 343.134 178.377 338.602C179.079 342.669 195.927 338.602 198.033 337.556C201.894 335.813 205.638 331.863 203.181 327.68C198.267 329.306 193.002 329.306 187.737 329.19C192.417 335.232 174.75 342.204 182.004 331.746L179.196 332.211C177.909 333.257 174.633 336.278 173.229 336.395C164.805 336.859 174.516 326.053 173.229 325.472C167.964 329.771 164.337 338.719 156.381 333.257V333.49Z" fill="#AA5041"/>
<path d="M158.019 323.148C156.381 324.194 152.754 330.585 152.286 333.025C157.317 331.166 154.626 332.676 155.679 335.116C156.615 335.116 156.147 334.303 156.264 333.606C157.785 326.634 167.028 321.87 162.816 321.753C162.582 321.753 158.136 323.148 157.902 323.264L158.019 323.148Z" fill="#1D1A23"/>
<path d="M147.255 332.444C146.202 337.208 150.531 333.606 152.403 332.908C152.871 330.584 156.498 324.077 158.136 323.031C154.041 317.919 151.818 330.701 147.255 332.327V332.444Z" fill="#CF6E5D"/>
<path d="M179.196 332.443L182.004 331.979C182.94 330.584 183.642 329.306 185.163 328.376C186.567 327.912 187.035 329.422 187.737 329.422C192.885 329.422 198.15 329.422 203.181 327.912C202.596 326.982 196.044 324.426 194.055 323.264C182.823 326.052 182.823 329.655 179.196 332.56V332.443Z" fill="#DF805C"/>
<path d="M182.004 331.979C174.633 342.437 192.417 335.349 187.737 329.423C187.035 329.423 186.567 328.028 185.163 328.377C183.642 329.306 182.94 330.585 182.004 331.979Z" fill="#E69163"/>
<path d="M217.454 285.383C215.114 288.636 213.827 290.728 209.498 292.122C209.966 293.749 213.593 299.675 214.061 300.14C217.922 303.859 220.496 302.348 220.379 303.975C220.262 305.834 215.348 304.556 213.827 305.021C211.136 305.834 207.977 309.785 206.456 310.25C201.308 311.76 186.332 308.042 200.723 313.387C204.818 314.898 209.381 315.479 213.593 316.757C213.827 317.803 195.926 320.127 194.171 319.662C201.893 323.613 209.498 326.866 217.571 330.004C219.794 329.771 221.315 329.19 223.304 328.958C233.132 323.032 236.993 310.482 231.845 300.721C233.366 298.862 235.94 296.189 236.993 294.214C235.706 292.82 234.302 297.003 233.6 297.584C229.856 300.256 224.942 288.288 217.571 285.383H217.454Z" fill="#737373"/>
<path d="M181.535 315.362C185.279 318.5 189.842 320.707 194.054 323.148C196.043 324.31 202.595 326.866 203.18 327.796C205.637 331.979 201.893 335.93 198.032 337.673L199.787 339.183C202.127 333.373 206.924 338.137 208.679 329.887C211.955 330.933 214.412 330.236 217.571 329.887C209.498 326.75 201.776 323.496 194.171 319.545C192.884 318.848 189.725 317.802 189.023 317.454C192.416 322.334 185.63 316.408 182.471 314.897C182.471 314.897 182.003 315.595 181.652 315.362H181.535Z" fill="#1D2531"/>
<path d="M182.004 166.743C182.355 168.253 180.132 169.299 178.611 170.926C210.786 190.331 239.568 254.357 217.455 285.383C224.826 288.288 229.74 300.257 233.484 297.584C234.186 297.003 235.59 292.82 236.877 294.214C244.014 280.735 245.067 264.583 243.195 249.71C243.195 249.361 242.844 249.245 242.61 248.199C239.217 225.772 225.996 202.068 210.084 184.754C207.042 181.5 196.278 171.158 193.002 168.951C191.832 168.137 190.896 167.324 189.843 166.394C188.439 166.046 185.631 166.975 182.121 166.859L182.004 166.743Z" fill="#737373"/>
<path d="M188.907 317.454C189.609 317.803 192.768 318.848 194.055 319.546C195.81 320.127 213.711 317.803 213.477 316.641C209.265 315.362 204.702 314.781 200.607 313.271C186.216 308.042 201.192 311.644 206.34 310.133C207.861 309.669 211.02 305.718 213.711 304.904C215.232 304.44 220.146 305.834 220.263 303.859C203.649 304.207 188.673 300.024 176.271 289.915C173.931 293.052 170.538 295.608 173.931 304.672C175.569 308.855 184.578 314.898 188.79 317.338L188.907 317.454Z" fill="#C9C9C9"/>
<path d="M176.972 288.985C176.972 288.985 176.621 289.798 176.387 290.031C188.789 300.256 203.765 304.323 220.379 303.975C220.613 302.348 217.922 303.975 214.061 300.14C213.593 299.675 209.849 293.749 209.498 292.122C201.191 294.795 184.577 293.052 176.972 288.985Z" fill="#4E4E4E"/>
<path d="M176.388 166.743C170.538 173.715 162.114 179.06 157.551 186.961C144.798 208.691 148.074 245.41 156.381 268.301C160.593 279.805 167.028 286.429 168.9 299.908C169.368 303.51 169.368 307.228 170.07 310.831C173.112 309.785 177.675 313.619 181.536 315.479C181.887 315.595 182.355 314.898 182.355 315.014C185.514 316.525 192.3 322.451 188.907 317.57C184.695 315.13 175.686 309.088 174.048 304.904C170.655 295.841 174.048 293.284 176.388 290.147C176.622 289.915 176.856 289.45 176.973 289.101C159.306 279.805 142.575 213.804 164.922 184.754C166.911 182.197 175.335 174.296 178.611 171.042C180.249 169.531 182.355 168.369 182.004 166.859C180.132 166.859 178.143 166.859 176.271 166.859L176.388 166.743Z" fill="#4E4E4E"/>
<path d="M176.973 288.985C184.578 292.936 201.191 294.795 209.498 292.122C213.827 290.728 215.231 288.636 217.454 285.383C239.567 254.357 210.785 190.331 178.61 170.926C175.217 174.179 166.793 182.081 164.921 184.637C142.574 213.687 159.188 279.689 176.973 288.985Z" fill="#DADADA"/>
<path d="M177.791 231.466C176.972 231.234 176.387 233.906 176.387 234.371C175.451 239.484 172.76 279.573 173.579 282.478C173.696 283.175 176.387 286.429 176.738 286.312C183.29 268.766 182.705 249.477 177.908 231.466H177.791Z" fill="#737373"/>
<path d="M110.05 186.961C99.6367 226.818 87.3517 268.999 87.8197 310.25C109.582 313.852 136.375 315.014 156.967 306.647C155.563 293.865 153.925 281.083 156.382 268.301C148.075 245.41 144.799 208.807 157.552 186.961H110.167H110.05Z" fill="#F5F5F5"/>
<path d="M88.4042 322.102C88.7552 325.239 87.7022 329.887 91.7972 330.352H92.9672C105.486 336.046 144.096 331.166 146.67 331.863C147.255 329.887 146.085 325.472 146.085 325.123C124.908 327.912 108.762 329.539 88.4042 321.986V322.102Z" fill="#737373"/>
<path d="M156.966 306.647C136.374 315.014 109.581 313.968 87.8193 310.25C87.8193 314.317 87.8193 318.151 88.4043 322.102C108.879 329.655 124.908 328.028 146.085 325.239C146.085 323.845 146.904 320.01 148.074 319.081C148.893 318.384 167.028 312.922 170.07 310.831C169.368 307.228 169.485 303.51 168.9 299.908C164.805 302.464 161.529 304.788 156.849 306.647H156.966Z" fill="#DBDBDB"/>
<path d="M162.582 166.743C158.955 175.922 129.939 183.011 126.546 170.345C123.036 171.274 113.559 174.877 112.857 174.993C113.676 174.877 112.389 176.968 111.687 179.176C110.985 181.732 110.634 184.405 109.932 186.961H157.317C161.88 179.176 170.304 173.715 176.154 166.743C171.942 166.743 166.092 167.091 162.465 166.743H162.582Z" fill="#DBDBDB"/>
<path d="M156.967 306.647C161.53 304.788 164.923 302.464 169.018 299.908C167.146 286.428 160.594 279.805 156.499 268.301C154.042 280.967 155.68 293.865 157.084 306.647H156.967Z" fill="#DBDBDB"/>
<path d="M34.1157 193.701L33.5307 194.165C34.2327 195.095 33.8817 197.884 33.5307 198.813C33.0627 200.208 29.9038 205.088 28.3828 210.433C27.9148 212.176 25.5747 223.448 25.5747 224.145C25.5747 232.86 31.7757 241.459 30.7227 250.058C33.9987 258.424 37.2747 264.466 44.4117 270.741C81.9687 256.332 77.2887 259.935 92.3817 225.656C93.6687 220.31 100.455 199.975 102.678 194.63C100.572 193.701 94.8387 192.422 92.9667 192.539L76.3527 217.87C73.6617 227.399 72.6087 237.276 68.9817 246.572C49.5597 236.927 71.3217 206.831 66.1737 190.447C62.1957 191.028 36.3388 189.634 35.0518 190.447C34.3498 190.912 35.4028 192.306 34.2328 193.584L34.1157 193.701Z" fill="#DADADA"/>
<path d="M44.4118 270.858C55.7609 280.851 68.2798 283.407 83.8408 282.71C84.6598 273.53 90.5098 233.906 92.3818 225.772C77.2888 259.935 81.9689 256.333 44.4118 270.858Z" fill="#4E4E4E"/>
<path d="M103.848 175.109C94.6051 186.613 84.5431 197.419 76.7041 209.853C74.5981 202.183 69.6841 198.233 68.9821 190.68H66.1741C71.3221 207.064 49.6771 237.16 68.9821 246.804C72.6091 237.508 73.6621 227.631 76.3531 218.103C76.7041 216.708 76.8211 213.687 76.9381 212.177C80.4481 208.458 88.7551 193.12 92.9671 192.771C94.8391 192.655 100.572 193.933 102.678 194.863C103.263 193.585 103.848 192.423 104.433 191.261L108.996 175.225C107.241 175.225 105.603 175.225 103.848 175.225V175.109Z" fill="#4E4E4E"/>
<path d="M63.2492 186.961C54.1232 186.613 44.9972 187.194 35.8712 186.961C35.8712 187.31 33.9992 187.426 34.1162 193.701C35.2862 192.423 34.2332 191.028 34.9352 190.563C36.2222 189.75 62.0792 191.144 66.0572 190.563H68.8652C68.8652 189.75 68.2802 187.077 68.2802 186.961C65.3552 188.123 64.3022 186.961 63.1322 186.961H63.2492Z" fill="#472539"/>
<path d="M27.2132 198.93C24.5222 206.018 23.9373 216.36 24.4053 223.796L25.5752 224.261C25.5752 223.564 27.9153 212.293 28.3833 210.55C29.9043 205.204 33.0633 200.324 33.5312 198.93H27.2132Z" fill="#737373"/>
<path d="M76.3528 218.103L92.9668 192.771C88.7548 193.12 80.5648 208.458 76.9378 212.177C76.9378 213.804 76.7038 216.825 76.3528 218.103Z" fill="#737373"/>
<path d="M27.7982 197.884C27.7982 197.884 27.3302 198.465 27.2132 198.93H33.5312C33.8822 197.884 34.2332 195.212 33.5312 194.282C33.1802 194.398 29.2022 194.282 28.6172 194.747C28.1492 195.096 28.6172 196.141 27.7982 197.884Z" fill="#1B2236"/>
<path d="M116.952 154.89C116.367 162.56 108.762 168.834 103.848 175.109C105.603 175.109 107.241 175.109 108.996 175.109C110.283 175.109 112.038 175.225 112.974 175.109C113.676 174.993 123.153 171.391 126.663 170.461C128.067 170.113 129.705 169.764 131.226 169.415C133.215 167.905 130.524 159.306 130.056 154.193C129.471 153.728 121.398 154.89 116.952 155.007V154.89Z" fill="#34E89E"/>
<path d="M39.2639 307.112C52.4849 311.76 68.5139 312.573 82.6709 312.806C82.6709 312.341 82.6709 311.76 82.6709 311.295C75.0659 310.366 59.0369 310.598 56.1119 310.249C54.3569 310.017 45.1139 306.996 42.4229 306.066C41.3699 305.718 41.6039 307.228 41.2529 307.112C39.2639 306.531 35.0519 297.119 34.1159 294.911C27.4469 279.573 26.7449 260.516 19.0229 261.562C11.3009 256.333 10.5989 215.082 12.4709 206.367C13.8749 199.976 22.5329 188.937 30.7229 191.609C30.7229 191.377 31.8929 190.215 30.7229 186.148C29.5529 184.986 23.5859 198.233 19.2569 165.929C-5.3131 156.284 -6.60011 97.3709 31.7759 97.0223C28.4999 78.6627 40.9019 68.4371 57.5159 61.0003V59.4897C40.1999 67.7399 29.2019 76.8035 30.1379 95.9765C-6.0151 97.9519 -7.41908 154.309 18.0869 166.394C19.4909 168.369 18.5549 181.151 25.4579 189.169C24.8729 194.398 8.37592 186.961 10.5989 232.163C12.3539 267.953 21.5969 261.213 23.7029 264.234C26.6279 277.946 31.6589 294.679 39.1469 306.996L39.2639 307.112Z" fill="#34E89E"/>
<path d="M228.921 68.9018C243.195 78.895 251.853 84.9374 254.661 102.832C255.48 108.294 255.597 113.639 253.491 118.868C278.997 117.938 294.558 173.947 269.52 181.5C269.52 198.116 269.52 225.772 257.001 238.67C253.725 242.04 246.588 247.501 242.727 247.966C242.844 249.012 243.312 249.128 243.312 249.477C270.807 238.321 270.807 206.018 270.105 182.429C270.69 180.338 283.794 180.105 283.209 158.841C283.209 156.749 282.39 153.728 282.039 151.636C280.635 142.805 276.891 131.882 269.988 125.259C262.5 118.054 255.012 118.287 254.544 117.241C254.895 116.892 255.714 115.149 255.714 114.917C256.299 96.6736 250.332 79.7084 232.314 69.8314C232.08 69.7152 229.857 69.018 228.921 68.7856V68.9018Z" fill="#34E89E"/>
<path d="M223.188 69.948C235.239 83.7758 220.965 90.1668 219.21 92.2584C222.018 104.808 217.221 105.621 207.159 111.896C208.212 122.122 207.393 125.608 198.033 131.069C194.64 133.045 191.247 133.509 190.896 133.626C189.96 134.207 188.322 138.506 185.163 140.365C180.249 143.386 175.101 141.76 171.123 145.013C175.335 151.056 151.233 149.777 156.849 153.612C157.785 154.309 167.496 153.961 180.6 159.538C185.397 161.63 191.832 164.651 192.885 168.834C196.161 170.926 207.042 181.384 209.967 184.637C225.879 201.951 239.1 225.656 242.493 248.083C246.354 247.618 253.491 242.156 256.767 238.787C266.946 221.24 267.999 200.557 267.648 181.035C294.558 170.693 276.306 117.59 247.641 119.914C259.107 113.639 250.683 84.7054 235.356 74.596C233.484 73.3178 222.369 67.5078 223.071 69.948H223.188Z" fill="#48C78E"/>
<path d="M223.188 69.9478C222.486 67.5076 233.601 73.3176 235.473 74.5958C250.8 84.7052 259.224 113.639 247.758 119.914C276.423 117.59 294.558 170.693 267.765 181.035C268.116 200.557 267.18 221.24 256.884 238.786C269.52 225.888 269.52 198.233 269.403 181.616C294.441 174.063 278.997 118.055 253.374 118.984C255.48 113.755 255.363 108.41 254.544 102.949C251.736 85.17 243.078 79.0114 228.804 69.0182C227.166 67.8562 225.411 67.0428 224.241 65.416C223.656 65.997 220.263 67.8562 220.263 68.321C221.199 69.483 222.954 69.9478 223.071 70.1802L223.188 69.9478Z" fill="#34E89E"/>
<path d="M82.6708 311.295C82.5538 301.883 82.9048 292.239 83.8408 282.826C68.2798 283.407 55.7608 280.851 44.4118 270.974C37.2748 264.699 33.9988 258.657 30.7228 250.29C27.3298 241.808 24.9898 232.977 24.4048 223.913C24.0538 216.476 24.5218 206.134 27.2128 199.046C27.3298 198.698 27.5638 198.349 27.7978 198C25.1068 191.609 32.1268 194.631 31.7758 192.074C31.7758 191.609 30.6058 191.842 30.6058 191.842C22.4158 189.169 13.7578 200.208 12.3538 206.599C10.4818 215.198 11.1838 256.449 18.9058 261.794C26.6278 260.865 27.3298 279.805 33.9988 295.144C34.9348 297.351 39.1468 306.764 41.1358 307.345C41.3698 307.345 41.2528 305.95 42.3058 306.299C45.1138 307.228 54.3568 310.25 55.9948 310.482C58.9198 310.831 74.9488 310.482 82.5538 311.528L82.6708 311.295Z" fill="#48C78E"/>
<path d="M24.4044 223.797C24.8724 232.86 27.3294 241.692 30.7224 250.174C31.7754 241.575 25.4574 232.977 25.5744 224.262L24.4044 223.797Z" fill="#34E89E"/>
<path d="M84.4252 152.798C84.3082 155.471 84.4252 158.144 83.8402 160.816C59.6212 172.204 71.2042 168.485 71.7892 176.852C72.0232 179.408 68.5132 185.102 68.3962 186.961C68.3962 187.194 68.8642 189.75 68.9812 190.563C69.6832 198.116 74.4802 201.951 76.7032 209.736C84.5422 197.303 94.6042 186.496 103.847 174.993C108.761 168.834 116.366 162.443 116.951 154.774C105.368 155.006 95.8912 154.425 84.4252 152.682V152.798Z" fill="#34E89E"/>
<path d="M57.5157 59.6061V61.1167C60.2067 59.9547 63.0147 59.0251 65.4717 57.5145C65.4717 57.0497 65.2377 56.2363 64.8867 56.0039C62.3127 56.9335 59.9727 58.4441 57.5157 59.6061Z" fill="#4DC305"/>
<path d="M57.5153 61.1169C40.9013 68.4375 28.6163 78.7792 31.7753 97.1388C-6.60072 97.3712 -5.43072 156.401 19.2563 166.045C23.5853 198.349 29.5523 185.102 30.7223 186.264C31.8923 190.331 30.7223 191.377 30.7223 191.726C30.7223 191.726 31.8923 191.609 31.8923 191.958C32.1263 194.514 25.1063 191.493 27.9143 197.884C28.7333 196.141 28.3823 195.212 28.7333 194.747C29.3183 194.282 33.1793 194.398 33.6473 194.282C33.6473 194.282 34.1153 193.817 34.2323 193.817C33.9983 187.542 35.8703 187.426 35.9873 187.078C35.9873 186.38 35.9873 185.683 35.9873 184.986C30.9563 184.405 31.4243 174.063 38.7953 170.229C35.4023 142.922 42.1883 121.192 66.1733 103.646L67.3433 102.833L66.1733 80.2899C62.1953 80.2899 60.4403 75.758 60.4403 75.4094C60.4403 74.9446 65.3543 68.6698 66.7583 70.9938C69.5663 69.5994 69.5663 63.0923 71.3213 60.0711C69.6833 59.6063 67.3433 58.0956 65.5883 57.5146C63.1313 59.0252 60.2063 59.9549 57.6323 61.1169H57.5153Z" fill="#48C78E"/>
<path d="M35.7536 184.87C33.7646 177.433 32.2436 174.993 40.9016 173.017C39.7316 155.936 39.7316 144.781 47.8046 128.978C52.0166 120.727 59.5046 111.083 66.6416 104.692C66.5246 104.343 66.8756 103.646 66.0566 103.646C42.0716 121.192 35.2856 142.922 38.6786 170.229C31.1906 174.063 30.7226 184.405 35.8706 184.986L35.7536 184.87Z" fill="#34E89E"/>
<path d="M47.8052 128.978C49.2092 128.629 49.3262 129.326 50.1452 130.023C50.6132 127.816 56.1122 125.956 58.1012 125.84C59.5052 116.196 65.0042 110.967 66.0572 108.759C66.8762 107.132 67.6952 108.294 66.6422 104.576C59.5052 111.083 52.0172 120.611 47.8052 128.861V128.978Z" fill="#34E89E"/>
<path d="M47.8053 128.977C39.7323 144.664 39.7323 155.936 40.9023 173.017C42.0723 172.785 44.7633 173.598 45.4653 172.204C43.8273 164.883 47.4542 134.555 51.1982 130.488C50.8472 130.488 50.1453 130.023 50.0283 130.023C49.2093 129.442 49.2093 128.629 47.6883 128.977H47.8053Z" fill="#34E89E"/>
<path d="M100.923 149.196C84.0746 152.217 108.645 153.844 124.089 152.334C135.321 151.172 145.734 147.569 155.796 143.038H156.381C161.529 136.995 166.209 129.907 166.092 122.122C164.337 120.843 161.178 121.308 158.37 119.217C156.732 118.055 154.392 114.569 158.136 116.079C156.849 115.033 156.03 113.29 154.743 112.245C158.37 136.995 123.504 149.893 101.04 149.312L100.923 149.196Z" fill="#AA5041"/>
<path d="M72.3748 60.1872C74.4808 60.652 83.1388 61.3492 90.3928 63.7894C108.762 56.585 111.804 61.5816 121.866 64.2542C127.248 65.7648 137.544 67.3916 138.714 69.4832C139.65 67.8564 144.33 69.2508 138.948 59.1414C130.875 61.233 126.078 60.5358 118.941 57.0498C115.431 61.0006 102.093 58.7928 96.7108 57.5146C86.5318 63.7894 77.7568 55.3068 72.3748 60.071V60.1872Z" fill="#AA5041"/>
<path d="M131.226 169.415C129.705 169.764 128.067 170.112 126.663 170.461C130.056 183.127 158.955 176.038 162.699 166.859C161.295 166.742 157.668 166.394 156.966 165.58C156.732 160.468 154.392 149.893 154.626 146.175C153.105 147.337 153.573 145.594 153.222 145.71C152.052 146.059 142.575 152.45 130.641 153.728C131.577 155.82 133.8 169.415 133.215 169.996C130.875 170.228 131.343 169.415 131.226 169.531V169.415Z" fill="#923E38"/>
<path d="M66.6424 70.9939C65.2384 68.6699 60.3244 74.9447 60.3244 75.4095C60.3244 75.7581 62.0794 80.2899 66.0574 80.2899C71.7904 80.2899 85.1284 74.0151 84.8944 70.1805C84.5434 62.2789 63.7174 82.0329 66.6424 70.9939Z" fill="#1D1A23"/>
<path d="M100.923 149.196C95.6577 149.08 89.2227 147.802 84.3087 146.059C85.1277 149.777 84.3087 151.055 84.3087 152.798C95.7747 154.541 105.252 155.122 116.835 154.89C121.398 154.89 129.471 153.612 129.939 154.077C130.407 159.306 133.098 167.904 131.109 169.299C131.109 169.299 130.758 170.112 133.098 169.764C133.683 169.183 131.46 155.471 130.524 153.496C142.458 152.217 151.935 145.826 153.105 145.478C153.456 145.478 153.105 147.105 154.509 145.943C154.626 143.967 155.445 144.2 155.679 142.805C145.617 147.337 135.204 150.939 123.972 152.101C108.528 153.728 83.9577 152.101 100.806 148.964L100.923 149.196Z" fill="#812E31"/>
<path d="M155.211 96.3256C155.211 97.0228 155.211 97.72 155.211 98.4172L156.381 97.6038C153.573 103.065 159.189 102.949 160.125 102.484C160.827 102.252 163.518 90.0508 169.017 93.653C172.41 95.8608 166.56 108.294 163.869 111.315C165.975 112.826 167.145 112.477 166.677 114.918C175.101 111.432 179.781 97.6038 175.803 90.0508C167.964 83.195 158.37 88.1916 155.211 96.2094V96.3256Z" fill="#FCC29D"/>
<path d="M175.803 90.167C179.781 97.72 175.101 111.548 166.677 115.034C163.986 116.196 163.167 117.242 159.306 116.544C164.103 119.682 164.571 119.217 170.187 117.009C178.494 110.967 184.461 97.6038 175.92 90.0508L175.803 90.167Z" fill="#B56C63"/>
<path d="M161.529 107.713C161.529 107.713 162.465 109.224 161.763 109.224C161.412 109.224 161.412 107.713 161.529 107.713C161.529 107.713 160.476 107.597 160.359 107.945C160.008 111.896 163.518 111.083 163.752 111.315C166.443 108.41 172.293 95.9768 168.9 93.6528C162.348 98.6494 162.231 100.276 161.529 107.597V107.713Z" fill="#610E17"/>
<path d="M58.101 125.84C58.101 125.84 61.494 126.305 62.079 126.305C62.313 120.263 66.174 114.336 66.057 108.643C64.887 110.85 59.505 116.079 58.101 125.724V125.84Z" fill="#DF805C"/>
<path d="M51.1974 130.604C47.4534 134.671 43.8264 165 45.4644 172.32C44.7624 173.715 42.0714 172.785 40.9014 173.134C32.2434 175.225 33.7644 177.665 35.7534 184.986C35.7534 185.683 35.7534 186.38 35.7534 187.078C44.8794 187.31 54.0054 186.729 63.1314 187.078C62.8974 186.38 62.1954 185.799 61.3764 185.567C58.1004 184.289 39.6144 181.849 40.1994 180.106C47.8044 181.151 56.1114 181.965 63.0144 178.246C63.0144 177.782 63.7164 176.852 64.1844 176.387L63.3654 175.574L48.2724 173.715L59.7384 166.975L62.8974 151.172C67.2264 154.658 66.9924 161.514 73.4274 157.679C72.9594 149.313 61.8444 139.203 63.4824 138.738C72.2574 147.221 72.7254 153.147 75.7674 145.71C77.8734 140.365 75.8844 137.925 71.7894 134.09C64.5354 127.235 54.4734 127.002 51.1974 130.488V130.604Z" fill="#EBA483"/>
<path d="M70.6195 130.604L71.7895 134.207C75.8845 138.157 77.8735 140.598 75.7675 145.827C72.7255 153.263 72.2575 147.337 63.4825 138.855C61.9615 139.319 72.9595 149.313 73.4275 157.795C66.9925 161.746 67.2264 154.774 62.8974 151.288L59.7384 167.091L48.2724 173.831L63.3655 175.69L64.1844 176.503C64.1844 176.503 63.1315 177.898 63.0145 178.363C62.5465 180.803 61.7275 183.127 61.2594 185.567C61.9614 185.916 62.6635 186.38 63.0145 187.078C64.1845 187.078 65.2375 188.24 68.1625 187.078C68.3965 185.218 71.7895 179.525 71.5555 176.968C70.8535 168.602 59.2705 172.204 83.6064 160.933C84.1914 158.26 84.0745 155.587 84.1915 152.915C84.1915 151.172 85.0105 149.894 84.1915 146.175C83.4895 142.922 80.0965 138.738 80.2135 137.344C85.0105 130.023 92.0304 129.442 100.22 132.115C105.251 133.858 114.26 141.062 105.602 132.58C86.5315 122.238 79.7455 136.182 78.2245 136.182C75.7675 134.09 73.3105 132.115 70.5025 130.488L70.6195 130.604Z" fill="#B56C63"/>
<path d="M50.1442 130.023C50.1442 130.023 50.9633 130.488 51.3143 130.488C54.4733 127.002 64.6523 127.234 71.9062 134.09L70.7363 130.488C70.7363 130.488 67.5773 127.234 62.1953 126.305C61.6103 126.305 58.4513 125.724 58.2173 125.84C56.1113 125.956 50.6123 127.815 50.2613 130.023H50.1442Z" fill="#610E17"/>
<path d="M61.493 185.451C61.844 183.01 62.78 180.686 63.248 178.246C56.345 181.964 48.038 181.151 40.433 180.105C39.848 181.848 58.3341 184.172 61.6101 185.567L61.493 185.451Z" fill="#AA5041"/>
<path d="M72.3754 60.187C72.3754 60.187 71.5564 60.187 71.2054 60.187C69.4504 63.092 69.4504 69.7154 66.6424 71.1098C63.8344 82.1488 84.5434 62.511 84.8944 70.2964C85.1284 74.131 71.6734 80.522 66.0574 80.4058L67.2274 102.949L66.0574 103.762C66.8764 103.762 66.5254 104.459 66.6424 104.808C67.8124 108.41 66.8764 107.364 66.0574 108.991C66.0574 114.569 62.3134 120.611 62.0794 126.653C67.4614 127.467 70.2694 130.604 70.6204 130.837C73.4284 132.463 75.8854 134.439 78.3424 136.53C79.8634 136.53 86.6494 122.586 105.72 132.928C114.261 141.411 105.252 134.09 100.338 132.463C89.2234 132.463 87.7024 135.485 80.3314 137.692C80.3314 139.087 83.6074 143.154 84.3094 146.524C89.2234 148.267 95.6584 149.429 100.923 149.661C123.387 150.242 158.253 137.344 154.626 112.593C155.913 113.639 156.732 115.382 158.019 116.428C158.019 116.428 158.955 116.776 159.189 116.893C163.05 117.474 163.869 116.428 166.56 115.382C167.028 112.942 165.741 113.29 163.752 111.78C163.518 111.664 160.008 112.361 160.359 108.41C160.359 107.945 161.529 108.178 161.529 108.178C162.348 100.857 162.465 99.114 168.9 94.2336C163.401 90.6314 160.71 102.716 160.008 103.065C159.072 103.413 153.573 103.646 156.264 98.1844L155.094 98.9978C155.094 98.9978 154.158 105.156 153.924 105.505C153.807 105.737 148.308 106.202 148.191 105.97C147.723 105.273 148.776 94.3498 147.606 92.4906C146.904 91.3286 129.588 84.589 138.48 69.9478C137.31 67.8562 127.014 66.2294 121.632 64.7188C111.687 62.0462 108.645 57.0496 90.1594 64.254C82.9054 61.8138 74.2474 61.1166 72.1414 60.6518L72.3754 60.187Z" fill="#EBA483"/>
<path d="M108.645 61.6974C96.4774 59.141 115.431 86.9128 124.674 81.9162C126.078 81.1028 126.546 79.476 126.078 78.0816C125.727 77.0358 109.932 62.046 108.645 61.8136V61.6974Z" fill="#1D2531"/>
<path d="M82.6722 108.759C82.6722 115.033 90.2772 121.541 97.2972 119.1C105.955 116.079 97.6483 102.6 87.3523 103.065C87.3523 103.065 86.5332 102.832 86.7672 104.575C93.4362 102.832 103.615 117.822 91.0962 115.963C82.6722 114.685 86.0652 106.318 86.1822 104.575C86.1822 104.343 85.7142 101.089 85.0122 100.973C84.7782 103.878 82.7892 108.294 82.6722 108.759Z" fill="#812E31"/>
<path d="M102.679 92.7228C100.69 99.811 104.083 105.04 111.571 107.713C116.602 109.572 117.187 108.177 117.538 108.177C122.218 102.019 121.282 91.6769 112.975 88.5395C111.922 88.1909 110.986 87.3775 110.635 87.7261C116.836 100.857 100.222 105.97 102.679 92.6065V92.7228Z" fill="#FAF8F5"/>
<path d="M102.679 92.7228C100.222 105.97 116.953 100.857 110.635 87.8424C110.869 87.3776 111.922 88.191 112.975 88.6558L112.39 86.5642C107.359 85.867 103.966 88.4234 102.679 92.7228Z" fill="#1C1617"/>
<path d="M112.39 86.564L112.975 88.6556C121.282 91.793 122.218 102.251 117.538 108.293C120.112 108.293 127.015 111.663 124.909 98.765C124.09 93.7684 117.889 87.3774 112.39 86.564Z" fill="#923E38"/>
<path d="M75.7692 86.5642C80.4492 93.42 79.9812 103.994 71.7912 100.508C73.3122 104.924 77.8752 107.713 82.6722 108.758C82.6722 108.294 84.7782 103.994 85.0122 100.973C85.2462 96.325 83.2572 85.5184 75.8862 86.448L75.7692 86.5642Z" fill="#FAF8F5"/>
<path d="M74.131 86.564C70.27 89.8176 70.387 96.441 71.791 100.508C79.981 103.878 80.449 93.3036 75.769 86.564C75.184 86.564 74.599 86.564 74.014 86.564H74.131Z" fill="#1C1617"/>
<path d="M74.1307 86.5643C74.1307 86.5643 75.3007 86.5643 75.8857 86.5643C83.3737 85.6347 85.2457 96.4413 85.0117 101.089C85.5967 101.206 86.1817 104.575 86.1817 104.692H86.7667C86.5327 102.949 87.3518 103.181 87.3518 103.181C93.2018 93.1877 80.2147 81.5677 74.2477 86.5643H74.1307Z" fill="#AA5041"/>
<path d="M80.3319 137.227C87.7029 135.136 89.2239 132.115 100.339 131.998C92.1489 129.21 85.1289 129.791 80.3319 137.227Z" fill="#FBD6C4"/>
<path d="M97.7646 66.3452C98.4666 72.2714 100.456 79.1272 106.891 81.916L97.7646 66.3452Z" fill="#823829"/>
<path d="M86.6497 104.692H86.0647C85.9477 106.435 82.5547 114.801 90.9787 116.079C103.498 117.938 93.3187 102.949 86.6497 104.692Z" fill="#EBA483"/>
<path d="M161.53 107.712C161.53 107.712 161.53 109.339 161.764 109.223C162.349 109.223 161.998 107.248 161.53 107.712Z" fill="#EBA483"/>
</svg>
