<svg width="76" height="76" viewBox="0 0 76 76" fill="none" xmlns="http://www.w3.org/2000/svg">
<g filter="url(#filter0_d_260_1091)">
<rect x="12" y="6" width="56" height="56" rx="28" fill="#48C78E" shape-rendering="crispEdges"/>
<path fill-rule="evenodd" clip-rule="evenodd" d="M40 24C40.6497 24 41.1765 24.5267 41.1765 25.1765V32.8235H48.8235C49.4733 32.8235 50 33.3503 50 34C50 34.6497 49.4733 35.1765 48.8235 35.1765H41.1765V42.8235C41.1765 43.4733 40.6497 44 40 44C39.3503 44 38.8235 43.4733 38.8235 42.8235V35.1765H31.1765C30.5267 35.1765 30 34.6497 30 34C30 33.3503 30.5267 32.8235 31.1765 32.8235H38.8235V25.1765C38.8235 24.5267 39.3503 24 40 24Z" fill="white"/>
</g>
<defs>
<filter id="filter0_d_260_1091" x="0" y="0" width="76" height="76" filterUnits="userSpaceOnUse" color-interpolation-filters="sRGB">
<feFlood flood-opacity="0" result="BackgroundImageFix"/>
<feColorMatrix in="SourceAlpha" type="matrix" values="0 0 0 0 0 0 0 0 0 0 0 0 0 0 0 0 0 0 127 0" result="hardAlpha"/>
<feOffset dx="-2" dy="4"/>
<feGaussianBlur stdDeviation="5"/>
<feComposite in2="hardAlpha" operator="out"/>
<feColorMatrix type="matrix" values="0 0 0 0 0 0 0 0 0 0 0 0 0 0 0 0 0 0 0.09 0"/>
<feBlend mode="normal" in2="BackgroundImageFix" result="effect1_dropShadow_260_1091"/>
<feBlend mode="normal" in="SourceGraphic" in2="effect1_dropShadow_260_1091" result="shape"/>
</filter>
</defs>
</svg>
