<svg width="24" height="24" viewBox="0 0 24 24" fill="none" xmlns="http://www.w3.org/2000/svg">
<path fill-rule="evenodd" clip-rule="evenodd" d="M8.4 2C8.89706 2 9.3 2.40701 9.3 2.90909V3.81818H14.7V2.90909C14.7 2.40701 15.1029 2 15.6 2C16.0971 2 16.5 2.40701 16.5 2.90909V3.81818H18.3C19.7912 3.81818 21 5.03922 21 6.54545V19.2727C21 20.779 19.7912 22 18.3 22H5.7C4.20883 22 3 20.779 3 19.2727V6.54545C3 5.03922 4.20883 3.81818 5.7 3.81818H7.5V2.90909C7.5 2.40701 7.90294 2 8.4 2ZM7.5 5.63636H5.7C5.20294 5.63636 4.8 6.04338 4.8 6.54545V9.27273H19.2V6.54545C19.2 6.04338 18.7971 5.63636 18.3 5.63636H16.5V6.54545C16.5 7.04753 16.0971 7.45455 15.6 7.45455C15.1029 7.45455 14.7 7.04753 14.7 6.54545V5.63636H9.3V6.54545C9.3 7.04753 8.89706 7.45455 8.4 7.45455C7.90294 7.45455 7.5 7.04753 7.5 6.54545V5.63636ZM19.2 11.0909H4.8V19.2727C4.8 19.7748 5.20294 20.1818 5.7 20.1818H18.3C18.7971 20.1818 19.2 19.7748 19.2 19.2727V11.0909Z" fill="#ACACAC"/>
</svg>
