<svg width="24" height="24" viewBox="0 0 24 24" fill="none" xmlns="http://www.w3.org/2000/svg">
<path fill-rule="evenodd" clip-rule="evenodd" d="M12 3.81818C7.48131 3.81818 3.81818 7.48131 3.81818 12C3.81818 16.5187 7.48131 20.1818 12 20.1818C16.5187 20.1818 20.1818 16.5187 20.1818 12C20.1818 7.48131 16.5187 3.81818 12 3.81818ZM2 12C2 6.47715 6.47715 2 12 2C17.5228 2 22 6.47715 22 12C22 17.5228 17.5228 22 12 22C6.47715 22 2 17.5228 2 12ZM11.9999 5.63629C12.502 5.63629 12.909 6.0433 12.909 6.54538V11.4381L16.0428 13.005C16.4919 13.2295 16.6739 13.7756 16.4494 14.2247C16.2249 14.6737 15.6788 14.8558 15.2297 14.6312L11.5934 12.813C11.2854 12.659 11.0908 12.3443 11.0908 11.9999V6.54538C11.0908 6.0433 11.4978 5.63629 11.9999 5.63629Z" fill="#ACACAC"/>
</svg>
