<svg width="24" height="24" viewBox="0 0 24 24" fill="none" xmlns="http://www.w3.org/2000/svg">
<path d="M19 10.3636C19 16.0909 12 21 12 21C12 21 5 16.0909 5 10.3636C5 8.41068 5.7375 6.53771 7.05025 5.15676C8.36301 3.77581 10.1435 3 12 3C13.8565 3 15.637 3.77581 16.9497 5.15676C18.2625 6.53771 19 8.41068 19 10.3636Z" stroke="currentColor" stroke-width="1.8" stroke-linecap="round" stroke-linejoin="round"/>
<path d="M12 13C13.6569 13 15 11.6569 15 10C15 8.34315 13.6569 7 12 7C10.3431 7 9 8.34315 9 10C9 11.6569 10.3431 13 12 13Z" stroke="currentColor" stroke-width="1.8" stroke-linecap="round" stroke-linejoin="round"/>
</svg>
