<svg width="24" height="24" viewBox="0 0 24 24" fill="none" xmlns="http://www.w3.org/2000/svg">
<path fill-rule="evenodd" clip-rule="evenodd" d="M6.92606 2.60743C7.89422 2.2064 8.93188 2 9.9798 2C11.0277 2 12.0654 2.2064 13.0335 2.60743C14.0017 3.00845 14.8814 3.59624 15.6224 4.33723C16.3634 5.07822 16.9511 5.95791 17.3522 6.92606C17.7532 7.89422 17.9596 8.93188 17.9596 9.9798C17.9596 11.0277 17.7532 12.0654 17.3522 13.0335C17.0676 13.7205 16.6891 14.3629 16.2285 14.9428L21.7337 20.4481C22.0888 20.8031 22.0888 21.3787 21.7337 21.7337C21.3787 22.0888 20.8031 22.0888 20.4481 21.7337L14.9428 16.2285C14.3629 16.6891 13.7205 17.0676 13.0335 17.3522C12.0654 17.7532 11.0277 17.9596 9.9798 17.9596C8.93188 17.9596 7.89422 17.7532 6.92606 17.3522C5.95791 16.9511 5.07822 16.3634 4.33723 15.6224C3.59624 14.8814 3.00845 14.0017 2.60743 13.0335C2.2064 12.0654 2 11.0277 2 9.9798C2 8.93188 2.2064 7.89422 2.60743 6.92606C3.00845 5.95791 3.59624 5.07822 4.33723 4.33723C5.07822 3.59624 5.95791 3.00845 6.92606 2.60743ZM9.9798 3.81818C9.17064 3.81818 8.36941 3.97756 7.62185 4.28721C6.87429 4.59686 6.19504 5.05072 5.62288 5.62288C5.05072 6.19504 4.59686 6.87429 4.28721 7.62185C3.97756 8.36941 3.81818 9.17064 3.81818 9.9798C3.81818 10.789 3.97756 11.5902 4.28721 12.3377C4.59686 13.0853 5.05072 13.7646 5.62288 14.3367C6.19504 14.9089 6.87429 15.3627 7.62185 15.6724C8.36941 15.982 9.17064 16.1414 9.9798 16.1414C10.789 16.1414 11.5902 15.982 12.3377 15.6724C13.0853 15.3627 13.7646 14.9089 14.3367 14.3367C14.9089 13.7646 15.3627 13.0853 15.6724 12.3377C15.982 11.5902 16.1414 10.789 16.1414 9.9798C16.1414 9.17064 15.982 8.36941 15.6724 7.62185C15.3627 6.87429 14.9089 6.19504 14.3367 5.62288C13.7646 5.05072 13.0853 4.59686 12.3377 4.28721C11.5902 3.97756 10.789 3.81818 9.9798 3.81818Z" fill="#ACACAC"/>
</svg>
