<svg width="24" height="24" viewBox="0 0 24 24" fill="none" xmlns="http://www.w3.org/2000/svg">
<path fill-rule="evenodd" clip-rule="evenodd" d="M12 2C12.2357 2 12.4618 2.09578 12.6285 2.26627L16.1841 5.90263C16.5312 6.25765 16.5312 6.83326 16.1841 7.18828C15.837 7.5433 15.2741 7.5433 14.927 7.18828L12.8889 5.10383V14.7273C12.8889 15.2293 12.4909 15.6364 12 15.6364C11.5091 15.6364 11.1111 15.2293 11.1111 14.7273V5.10383L9.07298 7.18828C8.72585 7.5433 8.16304 7.5433 7.81591 7.18828C7.46877 6.83326 7.46877 6.25765 7.81591 5.90263L11.3715 2.26627C11.5382 2.09578 11.7643 2 12 2ZM4.88889 11.0909C5.37981 11.0909 5.77778 11.4979 5.77778 12V19.2727C5.77778 19.5138 5.87143 19.7451 6.03813 19.9156C6.20483 20.086 6.43092 20.1818 6.66667 20.1818H17.3333C17.5691 20.1818 17.7952 20.086 17.9619 19.9156C18.1286 19.7451 18.2222 19.5138 18.2222 19.2727V12C18.2222 11.4979 18.6202 11.0909 19.1111 11.0909C19.602 11.0909 20 11.4979 20 12V19.2727C20 19.996 19.719 20.6897 19.219 21.2012C18.7189 21.7127 18.0406 22 17.3333 22H6.66667C5.95942 22 5.28115 21.7127 4.78105 21.2012C4.28095 20.6897 4 19.996 4 19.2727V12C4 11.4979 4.39797 11.0909 4.88889 11.0909Z" fill="currentColor"/>
</svg>
