<svg width="24" height="24" viewBox="0 0 24 24" fill="none" xmlns="http://www.w3.org/2000/svg">
<path d="M20.104 5.23133L20.0392 4.86388L19.6714 4.92688L11.2181 6.375H6.77164L20.649 3.9952L21.0684 6.375H20.3059L20.104 5.23133ZM19.1623 9.08568L19.2704 8.625H18.7972H5.2035H5.20275H4.74422L4.83521 9.07441C4.85968 9.1953 4.875 9.28611 4.875 9.375C4.875 9.57198 4.8362 9.76704 4.76082 9.94903C4.68544 10.131 4.57495 10.2964 4.43566 10.4357C4.29637 10.5749 4.13101 10.6854 3.94903 10.7608L4.09253 11.1073L3.94902 10.7608C3.76704 10.8362 3.57198 10.875 3.375 10.875C3.28518 10.875 3.19329 10.86 3.07441 10.836L2.625 10.745V11.2035V15.7972V16.2558L3.07441 16.1648C3.1953 16.1403 3.2861 16.125 3.375 16.125C3.57198 16.125 3.76704 16.1638 3.94902 16.2392L4.09253 15.8927L3.94903 16.2392C4.13101 16.3146 4.29637 16.4251 4.43566 16.5643L4.70083 16.2992L4.43566 16.5643C4.57495 16.7036 4.68544 16.869 4.76082 17.051C4.8362 17.233 4.875 17.428 4.875 17.625C4.875 17.7148 4.86003 17.8067 4.83596 17.9256L4.74497 18.375H5.2035H18.7972H19.2558L19.1648 17.9256C19.1403 17.8047 19.125 17.7139 19.125 17.625C19.125 17.2272 19.283 16.8456 19.5643 16.5643C19.8448 16.2839 20.2248 16.126 20.6212 16.125C20.7199 16.1273 20.8182 16.1398 20.9143 16.1623L21.375 16.2705V15.7972V11.2028V10.7442L20.9256 10.8352C20.8047 10.8597 20.7139 10.875 20.625 10.875C20.2272 10.875 19.8456 10.717 19.5643 10.4357C19.2839 10.1552 19.126 9.77525 19.125 9.37879C19.1273 9.28006 19.1398 9.18183 19.1623 9.08568ZM1.875 19.125V7.875H22.125V19.125H1.875ZM8.625 13.5C8.625 11.6446 10.1446 10.125 12 10.125C13.8554 10.125 15.375 11.6446 15.375 13.5C15.375 15.3554 13.8554 16.875 12 16.875C10.1446 16.875 8.625 15.3554 8.625 13.5ZM14.625 13.5C14.625 12.0404 13.4596 10.875 12 10.875C10.5404 10.875 9.375 12.0404 9.375 13.5C9.375 14.9596 10.5404 16.125 12 16.125C13.4596 16.125 14.625 14.9596 14.625 13.5Z" fill="currentColor" stroke="currentColor" stroke-width="0.75"/>
</svg>
