<svg width="24" height="24" viewBox="0 0 24 24" fill="none" xmlns="http://www.w3.org/2000/svg">
<path d="M8.93925 16.5059L5.62542 12.9185C5.44686 12.7252 5.20467 12.6166 4.95215 12.6166C4.69962 12.6166 4.45744 12.7252 4.27888 12.9185C4.10032 13.1118 4 13.3739 4 13.6473C4 13.7827 4.02463 13.9167 4.07248 14.0418C4.12033 14.1668 4.19046 14.2805 4.27888 14.3762L8.27075 18.6976C8.6432 19.1008 9.24484 19.1008 9.61729 18.6976L19.7211 7.75961C19.8997 7.56631 20 7.30413 20 7.03076C20 6.75738 19.8997 6.49521 19.7211 6.3019C19.5426 6.1086 19.3004 6 19.0479 6C18.7953 6 18.5531 6.1086 18.3746 6.3019L8.93925 16.5059Z" fill="currentColor"/>
</svg>
