<svg width="24" height="24" viewBox="0 0 24 24" fill="none" xmlns="http://www.w3.org/2000/svg">
<path d="M19.6456 4.36653C19.5333 4.25402 19.4 4.16477 19.2532 4.10387C19.1064 4.04297 18.949 4.01162 18.79 4.01162C18.6311 4.01162 18.4737 4.04297 18.3269 4.10387C18.1801 4.16477 18.0467 4.25402 17.9344 4.36653L12 10.2888L6.06555 4.35439C5.9532 4.24204 5.81981 4.15291 5.67301 4.0921C5.52621 4.0313 5.36887 4 5.20997 4C5.05108 4 4.89374 4.0313 4.74694 4.0921C4.60014 4.15291 4.46675 4.24204 4.35439 4.35439C4.24204 4.46675 4.15291 4.60014 4.0921 4.74694C4.0313 4.89374 4 5.05108 4 5.20997C4 5.36887 4.0313 5.52621 4.0921 5.67301C4.15291 5.81981 4.24204 5.9532 4.35439 6.06555L10.2888 12L4.35439 17.9344C4.24204 18.0468 4.15291 18.1802 4.0921 18.327C4.0313 18.4738 4 18.6311 4 18.79C4 18.9489 4.0313 19.1063 4.0921 19.2531C4.15291 19.3999 4.24204 19.5333 4.35439 19.6456C4.46675 19.758 4.60014 19.8471 4.74694 19.9079C4.89374 19.9687 5.05108 20 5.20997 20C5.36887 20 5.52621 19.9687 5.67301 19.9079C5.81981 19.8471 5.9532 19.758 6.06555 19.6456L12 13.7112L17.9344 19.6456C18.0468 19.758 18.1802 19.8471 18.327 19.9079C18.4738 19.9687 18.6311 20 18.79 20C18.9489 20 19.1063 19.9687 19.2531 19.9079C19.3999 19.8471 19.5333 19.758 19.6456 19.6456C19.758 19.5333 19.8471 19.3999 19.9079 19.2531C19.9687 19.1063 20 18.9489 20 18.79C20 18.6311 19.9687 18.4738 19.9079 18.327C19.8471 18.1802 19.758 18.0468 19.6456 17.9344L13.7112 12L19.6456 6.06555C20.1068 5.60439 20.1068 4.82769 19.6456 4.36653Z" fill="currentColor"/>
</svg>
