<svg width="24" height="17" viewBox="0 0 24 17" fill="none" xmlns="http://www.w3.org/2000/svg">
<path d="M23.8408 6.11658L21.4483 1.3297C21.3602 1.15352 21.2382 0.996416 21.0894 0.867375C20.9405 0.738333 20.7677 0.639878 20.5808 0.577633C20.3939 0.515387 20.1965 0.49057 20 0.504598C19.8035 0.518626 19.6117 0.571226 19.4355 0.659392L17.104 1.8247L12.1924 0.525329C12.0664 0.492533 11.934 0.492533 11.808 0.525329L6.89645 1.8247L4.56489 0.659392C4.38872 0.571226 4.1969 0.518626 4.0004 0.504598C3.8039 0.49057 3.60655 0.515387 3.41964 0.577633C3.23273 0.639878 3.05991 0.738333 2.91105 0.867375C2.7622 0.996416 2.64022 1.15352 2.55208 1.3297L0.159578 6.11564C0.0714119 6.29182 0.0188128 6.48363 0.00478447 6.68013C-0.00924383 6.87664 0.0155735 7.07398 0.0778192 7.26089C0.140065 7.4478 0.23852 7.62062 0.367561 7.76948C0.496603 7.91834 0.653703 8.04032 0.829891 8.12845L3.36114 9.39502L8.56333 13.1103C8.63998 13.1649 8.72615 13.2046 8.81739 13.2275L14.8174 14.7275C14.943 14.759 15.0747 14.7575 15.1996 14.723C15.3244 14.6885 15.4382 14.6222 15.5299 14.5306L20.6927 9.36689L23.1696 8.12845C23.5252 7.95045 23.7955 7.63854 23.9212 7.26128C24.0469 6.88402 24.0177 6.47228 23.8399 6.11658H23.8408ZM18.6949 9.24502L15.469 6.66127C15.3244 6.54553 15.1422 6.48734 14.9574 6.4979C14.7725 6.50846 14.5981 6.58702 14.4677 6.71845C12.798 8.40033 10.9371 8.18752 9.7502 7.43752L13.804 3.50002H16.7861L19.3371 8.60095L18.6949 9.24502ZM3.89364 2.00002L5.8127 2.95814L3.41552 7.74408L1.5002 6.78689L3.89364 2.00002ZM14.7686 13.1685L9.32083 11.8072L4.70833 8.51283L7.33333 3.26283L12.0002 2.02627L12.919 2.26908L8.7002 6.36408L8.6927 6.37252C8.5339 6.53132 8.41278 6.72376 8.33828 6.93563C8.26379 7.14751 8.23782 7.3734 8.26229 7.59665C8.28677 7.8199 8.36106 8.0348 8.47969 8.2255C8.59832 8.4162 8.75826 8.57783 8.9477 8.69845C10.8752 9.92939 13.2011 9.7297 15.033 8.2297L17.6252 10.3119L14.7686 13.1685ZM20.5811 7.74314L18.1886 2.96189L20.1068 2.00002L22.5002 6.78689L20.5811 7.74314ZM12.3546 16.431C12.3141 16.5931 12.2206 16.737 12.089 16.8399C11.9573 16.9428 11.7951 16.9988 11.628 16.9991C11.5664 16.999 11.505 16.9914 11.4452 16.9766L7.53864 15.9997C7.44727 15.9772 7.36104 15.9374 7.28458 15.8825L4.81427 14.1181C4.66237 13.9989 4.56234 13.8256 4.53499 13.6345C4.50764 13.4433 4.55509 13.2489 4.66745 13.0919C4.77981 12.9348 4.94842 12.8271 5.13818 12.7913C5.32794 12.7554 5.52422 12.7942 5.68614 12.8994L8.0402 14.5813L11.8127 15.5225C12.0056 15.5708 12.1715 15.6937 12.2738 15.8642C12.3761 16.0348 12.4065 16.2389 12.3583 16.4319L12.3546 16.431Z" fill="currentColor"/>
</svg>
