<?xml version="1.0" encoding="UTF-8"?>
<svg id="Layer_1" data-name="Layer 1" xmlns="http://www.w3.org/2000/svg" version="1.1" viewBox="0 0 24 24">
  <g id="fi-rr-dollar">
    <g id="Vector">
      <path d="M13.9,4.7c.8,0,1.6.3,2.2.8.6.5.9,1.2.9,2,0,.2.1.5.3.6s.4.3.7.3.5,0,.7-.3.3-.4.3-.6h0c0-1.3-.6-2.5-1.5-3.3-.9-.8-2.2-1.3-3.5-1.3h-.9v-.9c0-.2-.1-.5-.3-.6-.2-.2-.4-.3-.7-.3s-.5,0-.7.3c-.2.2-.3.4-.3.6v.9h-.9c-1.2,0-2.4.4-3.3,1.1-.9.7-1.5,1.7-1.7,2.8-.2,1.1,0,2.2.7,3.1.6.9,1.6,1.7,2.7,2l2.5.8v6.7h-.9c-.8,0-1.6-.3-2.2-.8-.6-.5-.9-1.2-.9-2,0-.2-.1-.5-.3-.6-.2-.2-.4-.3-.7-.3s-.5,0-.7.3c-.2.2-.3.4-.3.6h0c0,1.3.6,2.5,1.5,3.3.9.8,2.2,1.3,3.5,1.3h.9v.9c0,.2.1.5.3.6s.4.3.7.3.5,0,.7-.3.3-.4.3-.6v-.9h.9c1.2,0,2.4-.4,3.3-1.1.9-.7,1.5-1.7,1.7-2.8.2-1.1,0-2.2-.7-3.1-.6-.9-1.6-1.7-2.7-2l-2.5-.8v-6.7h.9ZM14.9,13.9c.7.2,1.3.6,1.7,1.2.4.6.5,1.2.4,1.9-.1.7-.5,1.3-1,1.7s-1.3.7-2,.7h-.9v-6.1l1.9.6ZM11,10.7l-1.9-.6c-.7-.2-1.3-.6-1.7-1.2-.4-.6-.5-1.2-.4-1.9.1-.7.5-1.3,1-1.7.6-.4,1.3-.7,2-.7h.9v6.1Z" fill="currentColor" stroke-width="0"/>
    </g>
  </g>
</svg>