<svg width="24" height="24" viewBox="0 0 24 24" fill="none" xmlns="http://www.w3.org/2000/svg">
<g clip-path="url(#clip0_2564_17558)">
<path d="M21.5934 13.2245C21.3482 13.0354 21.067 12.8983 20.7671 12.8215C20.4671 12.7446 20.1547 12.7295 19.8488 12.7773C21.6094 10.9998 22.5 9.23259 22.5 7.50009C22.5 5.01853 20.5041 3.00009 18.0506 3.00009C17.3996 2.996 16.7556 3.13445 16.1638 3.40573C15.5721 3.67701 15.0468 4.07454 14.625 4.5704C14.2032 4.07454 13.6779 3.67701 13.0862 3.40573C12.4944 3.13445 11.8504 2.996 11.1994 3.00009C8.74594 3.00009 6.75 5.01853 6.75 7.50009C6.75 8.53134 7.05375 9.53352 7.69312 10.5938C7.16947 10.7265 6.69158 10.9987 6.31031 11.3813L4.18969 13.5001H1.5C1.10218 13.5001 0.720644 13.6581 0.43934 13.9394C0.158035 14.2207 0 14.6023 0 15.0001L0 18.7501C0 19.1479 0.158035 19.5294 0.43934 19.8107C0.720644 20.0921 1.10218 20.2501 1.5 20.2501H11.25C11.3113 20.2501 11.3724 20.2426 11.4319 20.2276L17.4319 18.7276C17.4701 18.7185 17.5075 18.7059 17.5434 18.6901L21.1875 17.1395L21.2288 17.1207C21.579 16.9457 21.8789 16.6844 22.1002 16.3615C22.3215 16.0385 22.457 15.6646 22.4939 15.2748C22.5307 14.885 22.4678 14.4923 22.3109 14.1336C22.154 13.7749 21.9084 13.462 21.5972 13.2245H21.5934ZM11.1994 4.50009C11.7803 4.49159 12.3505 4.65653 12.8371 4.97384C13.3238 5.29114 13.7047 5.74638 13.9313 6.28134C13.9878 6.4189 14.0839 6.53655 14.2074 6.61935C14.3309 6.70215 14.4763 6.74636 14.625 6.74636C14.7737 6.74636 14.9191 6.70215 15.0426 6.61935C15.1661 6.53655 15.2622 6.4189 15.3187 6.28134C15.5453 5.74638 15.9262 5.29114 16.4129 4.97384C16.8995 4.65653 17.4697 4.49159 18.0506 4.50009C19.6491 4.50009 21 5.87353 21 7.50009C21 9.32915 19.5197 11.3982 16.7194 13.4907L15.6797 13.7298C15.7709 13.3443 15.7738 12.9431 15.6879 12.5564C15.6021 12.1696 15.4298 11.8073 15.1841 11.4966C14.9383 11.1859 14.6254 10.9348 14.2688 10.7622C13.9122 10.5897 13.5212 10.5 13.125 10.5001H9.43875C8.62969 9.40884 8.25 8.44884 8.25 7.50009C8.25 5.87353 9.60094 4.50009 11.1994 4.50009ZM1.5 15.0001H3.75V18.7501H1.5V15.0001ZM20.5716 15.7698L17.0091 17.2866L11.1562 18.7501H5.25V14.5604L7.37156 12.4398C7.51035 12.2999 7.67555 12.189 7.85758 12.1135C8.03961 12.038 8.23482 11.9995 8.43188 12.0001H13.125C13.4234 12.0001 13.7095 12.1186 13.9205 12.3296C14.1315 12.5406 14.25 12.8267 14.25 13.1251C14.25 13.4235 14.1315 13.7096 13.9205 13.9206C13.7095 14.1316 13.4234 14.2501 13.125 14.2501H10.5C10.3011 14.2501 10.1103 14.3291 9.96967 14.4698C9.82902 14.6104 9.75 14.8012 9.75 15.0001C9.75 15.199 9.82902 15.3898 9.96967 15.5304C10.1103 15.6711 10.3011 15.7501 10.5 15.7501H13.5C13.5565 15.7499 13.6127 15.7436 13.6678 15.7313L19.9491 14.2866L19.9781 14.2791C20.1699 14.2259 20.3745 14.2455 20.5527 14.3341C20.7309 14.4227 20.87 14.574 20.9433 14.759C21.0167 14.944 21.0189 15.1496 20.9498 15.3362C20.8806 15.5228 20.7449 15.6772 20.5687 15.7698H20.5716Z" fill="currentColor"/>
</g>
<defs>
<clipPath id="clip0_2564_17558">
<rect width="24" height="24" fill="white"/>
</clipPath>
</defs>
</svg>
