<svg width="24" height="24" viewBox="0 0 24 24" fill="none" xmlns="http://www.w3.org/2000/svg">
<path d="M13.125 12.4167C13.125 12.7257 13.0334 13.0278 12.8617 13.2847C12.69 13.5417 12.446 13.742 12.1604 13.8602C11.8749 13.9785 11.5608 14.0094 11.2577 13.9491C10.9546 13.8889 10.6762 13.74 10.4576 13.5215C10.2391 13.303 10.0903 13.0246 10.03 12.7215C9.96973 12.4184 10.0007 12.1042 10.1189 11.8187C10.2372 11.5332 10.4375 11.2892 10.6944 11.1175C10.9514 10.9458 11.2535 10.8542 11.5625 10.8542C11.9769 10.8542 12.3743 11.0188 12.6674 11.3118C12.9604 11.6048 13.125 12.0023 13.125 12.4167ZM11.5625 7.125C11.8715 7.125 12.1736 7.03336 12.4306 6.86167C12.6875 6.68998 12.8878 6.44595 13.0061 6.16044C13.1243 5.87493 13.1553 5.56077 13.095 5.25767C13.0347 4.95458 12.8859 4.67617 12.6674 4.45765C12.4488 4.23913 12.1704 4.09031 11.8673 4.03002C11.5642 3.96973 11.2501 4.00068 10.9646 4.11894C10.679 4.2372 10.435 4.43747 10.2633 4.69442C10.0916 4.95137 10 5.25347 10 5.5625C10 5.9769 10.1646 6.37433 10.4576 6.66735C10.7507 6.96038 11.1481 7.125 11.5625 7.125ZM11.5625 17.7083C11.2535 17.7083 10.9514 17.8 10.6944 17.9717C10.4375 18.1433 10.2372 18.3874 10.1189 18.6729C10.0007 18.9584 9.96973 19.2726 10.03 19.5757C10.0903 19.8787 10.2391 20.1572 10.4576 20.3757C10.6762 20.5942 10.9546 20.743 11.2577 20.8033C11.5608 20.8636 11.8749 20.8326 12.1604 20.7144C12.446 20.5961 12.69 20.3959 12.8617 20.1389C13.0334 19.882 13.125 19.5799 13.125 19.2708C13.125 18.8564 12.9604 18.459 12.6674 18.166C12.3743 17.8729 11.9769 17.7083 11.5625 17.7083Z" fill="#ACACAC"/>
</svg>
