<svg width="22" height="16" viewBox="0 0 22 16" fill="none" xmlns="http://www.w3.org/2000/svg">
<path d="M20.75 2.75V13.25C20.75 13.6478 20.592 14.0294 20.3107 14.3107C20.0294 14.592 19.6478 14.75 19.25 14.75H2.75C2.35218 14.75 1.97064 14.592 1.68934 14.3107C1.40804 14.0294 1.25 13.6478 1.25 13.25V2.75M20.75 2.75C20.75 2.35218 20.592 1.97064 20.3107 1.68934C20.0294 1.40804 19.6478 1.25 19.25 1.25H2.75C2.35218 1.25 1.97064 1.40804 1.68934 1.68934C1.40804 1.97064 1.25 2.35218 1.25 2.75M20.75 2.75L11.8535 8.909C11.6027 9.08253 11.305 9.17549 11 9.17549C10.695 9.17549 10.3973 9.08253 10.1465 8.909L1.25 2.75" stroke="white" stroke-width="1.5" stroke-linecap="round" stroke-linejoin="round"/>
</svg>
