<svg width="24" height="24" viewBox="0 0 24 24" fill="none" xmlns="http://www.w3.org/2000/svg">
<circle cx="12" cy="12" r="10" stroke="currentColor" stroke-width="2"/>
<path d="M15 12C15 14.9523 14.5632 17.5814 13.8886 19.4364C13.5499 20.3681 13.1701 21.0517 12.7987 21.4836C12.4245 21.9189 12.1512 22 12 22C11.8488 22 11.5755 21.9189 11.2013 21.4836C10.8299 21.0517 10.4501 20.3681 10.1114 19.4364C9.43679 17.5814 9 14.9523 9 12C9 9.04768 9.43679 6.41865 10.1114 4.56357C10.4501 3.63192 10.8299 2.94833 11.2013 2.51636C11.5755 2.08113 11.8488 2 12 2C12.1512 2 12.4245 2.08113 12.7987 2.51636C13.1701 2.94833 13.5499 3.63192 13.8886 4.56357C14.5632 6.41865 15 9.04768 15 12Z" stroke="currentColor" stroke-width="2"/>
<path d="M12 15C9.05947 15 6.44385 14.5105 4.60046 13.7564C3.67631 13.3784 2.99458 12.9535 2.55965 12.5328C2.12767 12.115 2 11.7662 2 11.5C2 11.2338 2.12767 10.885 2.55965 10.4672C2.99458 10.0465 3.67631 9.62163 4.60046 9.24357C6.44385 8.48945 9.05947 8 12 8C14.9405 8 17.5562 8.48945 19.3995 9.24357C20.3237 9.62163 21.0054 10.0465 21.4403 10.4672C21.8723 10.885 22 11.2338 22 11.5C22 11.7662 21.8723 12.115 21.4403 12.5328C21.0054 12.9535 20.3237 13.3784 19.3995 13.7564C17.5562 14.5105 14.9405 15 12 15Z" stroke="currentColor" stroke-width="2"/>
</svg>
