<svg width="20" height="21" viewBox="0 0 20 21" fill="none" xmlns="http://www.w3.org/2000/svg">
<path d="M8.75 17.375C8.75 17.5408 8.68415 17.6997 8.56694 17.8169C8.44973 17.9342 8.29076 18 8.125 18H3.75C3.41848 18 3.10054 17.8683 2.86612 17.6339C2.6317 17.3995 2.5 17.0815 2.5 16.75V4.25C2.5 3.91848 2.6317 3.60054 2.86612 3.36612C3.10054 3.1317 3.41848 3 3.75 3H8.125C8.29076 3 8.44973 3.06585 8.56694 3.18306C8.68415 3.30027 8.75 3.45924 8.75 3.625C8.75 3.79076 8.68415 3.94973 8.56694 4.06694C8.44973 4.18415 8.29076 4.25 8.125 4.25H3.75V16.75H8.125C8.29076 16.75 8.44973 16.8158 8.56694 16.9331C8.68415 17.0503 8.75 17.2092 8.75 17.375ZM17.3172 10.0578L14.1922 6.93281C14.0749 6.81554 13.9159 6.74965 13.75 6.74965C13.5841 6.74965 13.4251 6.81554 13.3078 6.93281C13.1905 7.05009 13.1247 7.20915 13.1247 7.375C13.1247 7.54085 13.1905 7.69991 13.3078 7.81719L15.3664 9.875H8.125C7.95924 9.875 7.80027 9.94085 7.68306 10.0581C7.56585 10.1753 7.5 10.3342 7.5 10.5C7.5 10.6658 7.56585 10.8247 7.68306 10.9419C7.80027 11.0592 7.95924 11.125 8.125 11.125H15.3664L13.3078 13.1828C13.1905 13.3001 13.1247 13.4591 13.1247 13.625C13.1247 13.7909 13.1905 13.9499 13.3078 14.0672C13.4251 14.1845 13.5841 14.2503 13.75 14.2503C13.9159 14.2503 14.0749 14.1845 14.1922 14.0672L17.3172 10.9422C17.3753 10.8841 17.4214 10.8152 17.4529 10.7393C17.4843 10.6635 17.5005 10.5821 17.5005 10.5C17.5005 10.4179 17.4843 10.3365 17.4529 10.2607C17.4214 10.1848 17.3753 10.1159 17.3172 10.0578Z" fill="currentColor"/>
</svg>
