<svg width="14" height="13" viewBox="0 0 14 13" fill="none" xmlns="http://www.w3.org/2000/svg">
<path fill-rule="evenodd" clip-rule="evenodd" d="M0.327334 0.260067C-0.0813233 0.631574 -0.11144 1.26402 0.260067 1.67268L4.64855 6.50001L0.260067 11.3273C-0.111439 11.736 -0.0813228 12.3684 0.327335 12.7399C0.735992 13.1115 1.36844 13.0813 1.73995 12.6727L6.73995 7.17268C7.08669 6.79126 7.08669 6.20876 6.73995 5.82733L1.73995 0.327334C1.36844 -0.0813234 0.735992 -0.11144 0.327334 0.260067Z" fill="currentColor"/>
<path fill-rule="evenodd" clip-rule="evenodd" d="M7.32733 0.260067C6.91868 0.631574 6.88856 1.26402 7.26007 1.67268L11.6485 6.50001L7.26007 11.3273C6.88856 11.736 6.91868 12.3684 7.32733 12.7399C7.73599 13.1115 8.36844 13.0813 8.73995 12.6727L13.7399 7.17268C14.0867 6.79126 14.0867 6.20876 13.7399 5.82733L8.73995 0.327334C8.36844 -0.0813234 7.73599 -0.11144 7.32733 0.260067Z" fill="currentColor"/>
</svg>
