<svg width="24" height="24" viewBox="0 0 24 24" fill="none" xmlns="http://www.w3.org/2000/svg">
<g clip-path="url(#clip0_533_9194)">
<path d="M16 12H8C7.45 12 7 12.45 7 13C7 13.55 7.45 14 8 14H16C16.55 14 17 13.55 17 13C17 12.45 16.55 12 16 12ZM19 3H18V2C18 1.45 17.55 1 17 1C16.45 1 16 1.45 16 2V3H8V2C8 1.45 7.55 1 7 1C6.45 1 6 1.45 6 2V3H5C3.89 3 3 3.9 3 5V19C3 20.1 3.89 21 5 21H19C20.1 21 21 20.1 21 19V5C21 3.9 20.1 3 19 3ZM18 20H6C4.5 20 4 19.5 4 18V7C4 6.44771 4.44772 6 5 6H19C19.5523 6 20 6.44772 20 7V18C20 19.5 19.5 20 18 20ZM15 16H8C7.45 16 7 16.45 7 17C7 17.55 7.45 18 8 18H15C15.55 18 16 17.55 16 17C16 16.45 15.55 16 15 16Z" fill="currentColor"/>
<path d="M14 8H8C7.45 8 7 8.45 7 9C7 9.55 7.45 10 8 10H14C14.55 10 15 9.55 15 9C15 8.45 14.55 8 14 8Z" fill="currentColor"/>
</g>
<defs>
<clipPath id="clip0_533_9194">
<rect width="24" height="24" fill="white"/>
</clipPath>
</defs>
</svg>
