<svg width="14" height="13" viewBox="0 0 14 13" fill="none" xmlns="http://www.w3.org/2000/svg">
<g>
<path fill-rule="evenodd" clip-rule="evenodd" d="M13.6727 12.7399C14.0813 12.3684 14.1114 11.736 13.7399 11.3273L9.35145 6.49999L13.7399 1.67267C14.1114 1.26401 14.0813 0.63156 13.6727 0.260053C13.264 -0.111454 12.6316 -0.081337 12.2601 0.32732L7.26005 5.82732C6.91331 6.20874 6.91331 6.79124 7.26005 7.17267L12.2601 12.6727C12.6316 13.0813 13.264 13.1114 13.6727 12.7399Z" fill="currentColor"/>
<path fill-rule="evenodd" clip-rule="evenodd" d="M6.67267 12.7399C7.08132 12.3684 7.11144 11.736 6.73993 11.3273L2.35145 6.49999L6.73993 1.67267C7.11144 1.26401 7.08132 0.63156 6.67267 0.260053C6.26401 -0.111454 5.63156 -0.081337 5.26005 0.32732L0.260053 5.82732C-0.0866935 6.20874 -0.0866935 6.79124 0.260053 7.17267L5.26005 12.6727C5.63156 13.0813 6.26401 13.1114 6.67267 12.7399Z" fill="currentColor"/>
</g>
</svg>
