<svg width="24" height="24" viewBox="0 0 24 24" fill="none" xmlns="http://www.w3.org/2000/svg">
<path fill-rule="evenodd" clip-rule="evenodd" d="M12.4731 3.70648C12.1667 3.59917 11.8335 3.59917 11.5271 3.70648C10.8365 3.94839 9.78107 4.30852 8.97265 4.54083C8.01663 4.81555 6.79247 5.08791 5.81067 5.29138C5.1517 5.42794 4.68312 6.00104 4.68312 6.65331V13.7582C4.68312 14.0974 4.80937 14.4182 5.03482 14.6577C5.79718 15.4676 7.14892 16.8697 8.19701 17.7794C9.07757 18.5437 10.3328 19.4713 11.2642 20.137C11.7062 20.453 12.294 20.453 12.736 20.137C13.6674 19.4713 14.9226 18.5437 15.8032 17.7794C16.8513 16.8698 18.203 15.4676 18.9654 14.6577C19.1908 14.4182 19.3171 14.0974 19.3171 13.7582V6.65331C19.3171 6.00104 18.8485 5.42794 18.1895 5.29138C17.2077 5.08791 15.9836 4.81555 15.0276 4.54083C14.2191 4.30852 13.1637 3.94839 12.4731 3.70648ZM10.9897 2.17189C11.644 1.9427 12.3562 1.9427 13.0105 2.17189C13.6995 2.41318 14.7167 2.75971 15.4766 2.97808C16.3709 3.23505 17.5454 3.49735 18.5195 3.69922C19.9129 3.98799 20.9431 5.20961 20.9431 6.65331V13.7582C20.9431 14.5012 20.6658 15.2235 20.1494 15.7722C19.3878 16.5812 17.9859 18.038 16.869 19.0074C15.9262 19.8257 14.6172 20.791 13.6816 21.4598C12.674 22.1801 11.3262 22.1801 10.3186 21.4598C9.38303 20.791 8.074 19.8257 7.13122 19.0074C6.01435 18.038 4.6124 16.5812 3.85083 15.7722C3.33441 15.2235 3.05713 14.5012 3.05713 13.7582V6.65331C3.05713 5.20961 4.08731 3.98799 5.48071 3.69922C6.45476 3.49735 7.62929 3.23505 8.52358 2.97808C9.28349 2.75971 10.3007 2.41318 10.9897 2.17189ZM12.0001 11.0764C12.4491 11.0764 12.8131 11.4404 12.8131 11.8894V14.5994C12.8131 15.0484 12.4491 15.4124 12.0001 15.4124C11.5511 15.4124 11.1871 15.0484 11.1871 14.5994V11.8894C11.1871 11.4404 11.5511 11.0764 12.0001 11.0764Z" fill="currentColor"/>
<path d="M13.5001 10.5001C13.5001 11.3285 12.8285 12.0001 12.0001 12.0001C11.1717 12.0001 10.5001 11.3285 10.5001 10.5001C10.5001 9.67164 11.1717 9.00007 12.0001 9.00007C12.8285 9.00007 13.5001 9.67164 13.5001 10.5001Z" fill="currentColor"/>
</svg>
