<svg width="24" height="24" viewBox="0 0 24 24" fill="none" xmlns="http://www.w3.org/2000/svg">
<path d="M12 2C10.0222 2 8.08879 2.58649 6.4443 3.6853C4.79981 4.78412 3.51809 6.3459 2.76121 8.17316C2.00433 10.0004 1.8063 12.0111 2.19215 13.9509C2.578 15.8907 3.53041 17.6725 4.92894 19.0711C6.32746 20.4696 8.10929 21.422 10.0491 21.8078C11.9889 22.1937 13.9996 21.9957 15.8268 21.2388C17.6541 20.4819 19.2159 19.2002 20.3147 17.5557C21.4135 15.9112 22 13.9778 22 12C21.9972 9.34869 20.9427 6.80678 19.068 4.93202C17.1932 3.05727 14.6513 2.0028 12 2ZM6.81539 18.6827C7.37186 17.8124 8.13847 17.0962 9.04454 16.6001C9.95062 16.1039 10.967 15.8439 12 15.8439C13.033 15.8439 14.0494 16.1039 14.9555 16.6001C15.8615 17.0962 16.6281 17.8124 17.1846 18.6827C15.7022 19.8356 13.8779 20.4615 12 20.4615C10.1221 20.4615 8.29776 19.8356 6.81539 18.6827ZM8.92308 11.2308C8.92308 10.6222 9.10354 10.0273 9.44164 9.52132C9.77973 9.01532 10.2603 8.62095 10.8225 8.38806C11.3847 8.15518 12.0034 8.09424 12.6003 8.21297C13.1971 8.33169 13.7454 8.62474 14.1757 9.05505C14.606 9.48537 14.8991 10.0336 15.0178 10.6305C15.1365 11.2274 15.0756 11.846 14.8427 12.4083C14.6098 12.9705 14.2154 13.451 13.7094 13.7891C13.2035 14.1272 12.6086 14.3077 12 14.3077C11.184 14.3077 10.4013 13.9835 9.82429 13.4065C9.24725 12.8294 8.92308 12.0468 8.92308 11.2308ZM18.3231 17.6163C17.4652 16.3731 16.2588 15.4114 14.8558 14.8519C15.6094 14.2583 16.1594 13.4446 16.4292 12.5239C16.6989 11.6033 16.6751 10.6214 16.361 9.71495C16.0469 8.80846 15.4581 8.02239 14.6765 7.46605C13.8949 6.90971 12.9594 6.61075 12 6.61075C11.0406 6.61075 10.1051 6.90971 9.32352 7.46605C8.54194 8.02239 7.95315 8.80846 7.63903 9.71495C7.32491 10.6214 7.30107 11.6033 7.57084 12.5239C7.84061 13.4446 8.39056 14.2583 9.14423 14.8519C7.74117 15.4114 6.53484 16.3731 5.67693 17.6163C4.59286 16.3973 3.8843 14.8908 3.63659 13.2784C3.38887 11.6659 3.61255 10.0162 4.28069 8.52798C4.94884 7.03971 6.03296 5.77632 7.40251 4.88994C8.77206 4.00355 10.3686 3.53197 12 3.53197C13.6314 3.53197 15.2279 4.00355 16.5975 4.88994C17.967 5.77632 19.0512 7.03971 19.7193 8.52798C20.3875 10.0162 20.6111 11.6659 20.3634 13.2784C20.1157 14.8908 19.4071 16.3973 18.3231 17.6163Z" fill="currentColor"/>
</svg>
