<svg width="24" height="24" viewBox="0 0 24 24" fill="none" xmlns="http://www.w3.org/2000/svg">
<circle cx="12" cy="12" r="10" fill="#1C1CFF"/>
<path d="M17.8933 11.6707L12.3931 4.20379C12.3463 4.14029 12.2867 4.08895 12.2185 4.05364C12.1504 4.01834 12.0757 4 12 4C11.9243 4 11.8496 4.01834 11.7815 4.05364C11.7133 4.08895 11.6537 4.14029 11.6069 4.20379L6.10672 11.6707C6.03758 11.7646 6 11.8806 6 12C6 12.1194 6.03758 12.2354 6.10672 12.3293L11.6069 19.7962C11.6537 19.8597 11.7133 19.9111 11.7815 19.9464C11.8496 19.9817 11.9243 20 12 20C12.0757 20 12.1504 19.9817 12.2185 19.9464C12.2867 19.9111 12.3463 19.8597 12.3931 19.7962L17.8933 12.3293C17.9624 12.2354 18 12.1194 18 12C18 11.8806 17.9624 11.7646 17.8933 11.6707ZM12.5 6.07517L16.7139 11.7953L12.5 13.8387V6.07517ZM11.5 13.8387L7.28612 11.7953L11.5 6.07517V13.8387ZM11.5 15.0101V17.9248L8.16052 13.3914L11.5 15.0101ZM12.5 15.0101L15.8395 13.3907L12.5 17.9242V15.0101Z" fill="white"/>
</svg>
