<?xml version="1.0" encoding="UTF-8"?>
<svg id="Layer_1" data-name="Layer 1" xmlns="http://www.w3.org/2000/svg" width="141" height="60.07" viewBox="0 0 141 60.07">
  <defs>
    <style>
      .identity-svg-1 {
        fill: #adacac;
      }

      .identity-svg-1, .identity-svg-2, .identity-svg-3, .identity-svg-4, .identity-svg-5, .identity-svg-6 {
        stroke-width: 0px;
      }

      .identity-svg-2 {
        fill: #194375;
      }

      .identity-svg-3 {
        fill: #febf05;
      }

      .identity-svg-4 {
        fill: #e30404;
      }

      .identity-svg-5 {
        fill: #c63740;
      }

      .identity-svg-6 {
        fill: #fefefe;
      }
    </style>
  </defs>
  <path class="identity-svg-4" d="M2.44,51.62c-.01-3.31-.02-6.63-.03-9.94,0-.54-.04-1.09.01-1.62.05-.52-.16-.66-.63-.59-.06,0-.13,0-.19,0-.81,0-1.13-.46-.87-1.23.09-.25.3-.23.48-.23,1.58,0,3.16,0,4.75-.01.37,0,.4.26.51.48,1.28,2.76,2.56,5.53,3.9,8.43.36-.77.67-1.44.98-2.11.97-2.1,1.95-4.19,2.9-6.3.18-.4.4-.52.83-.52,1.47.03,2.95.05,4.42,0,.67-.02.53.38.53.74,0,.36.16.77-.52.75-1.19-.04-1.19,0-1.19,1.22,0,3.64-.02,7.28-.03,10.92-1.12,0-2.23,0-3.35,0-.01-3.33-.02-6.66-.04-9.98,0-.24.13-.53-.17-.7,0,0,0,.01,0,.01-1.46,3.82-3.39,7.43-5.2,11.27-1.85-3.84-3.75-7.48-5.24-11.32-.06,0-.11,0-.17.01,0,3.57,0,7.14,0,10.71-.56,0-1.12,0-1.68,0Z"/>
  <path class="identity-svg-1" d="M62.98,18.76c-.01.28-.03.4-.03.53q-.02,1.34-1.38,1.34c-2.1,0-4.21-.01-6.31,0-.47,0-.66-.1-.63-.61.04-.78.04-1.56,0-2.34-.02-.47.16-.62.6-.57.19.02.39,0,.58,0,.28.01.39-.1.38-.38,0-2.12-.01-4.25,0-6.37,0-.46-.31-.46-.6-.52-.97-.2-.97-.2-.97-1.16,0-.37.04-.74,0-1.1-.09-.61.14-.88.76-.98.98-.15,1.95-.38,2.95-.62-1.13-.23-1.96-.8-2.33-1.91-.31-.93-.23-1.83.27-2.69.77-1.34,2.87-1.72,4.25-.76,1.49,1.03,1.52,3.04.06,4.83.03.02.06.08.08.07.69-.24.75.1.74.69-.03,3.43,0,6.85-.02,10.28,0,.39,0,.65.53.65.49,0,.57-.19.55-.62-.05-1.65.52-3.01,1.94-3.94.27-.18.37-.31,0-.47-1.75-.71-1.87-3.24-.61-4.6,1.08-1.17,2.5-1.64,4-1.8,1.51-.16,3.03-.15,4.46.55,1.75.86,2.62,2.3,2.68,4.2.06,1.99.03,3.99,0,5.98,0,.52.1.73.67.71,1-.04.89-.14.9.89,0,.33-.05.66.01.97.16.81-.27,1.22-.95,1.45-1.65.55-3.3.84-4.77-.46-.24-.21-.34,0-.49.08-1.89,1.09-3.82,1.11-5.77.17-.62-.3-1.03-.84-1.55-1.49ZM60.24,1.98c-.21-.7-1.16-1.08-2.09-.78-.39.13-.86.22-.9.78-.29.08-.32.35-.35.57-.11.76-.05,1.5.62,2,.66.49,1.43.49,2.16.19,1.03-.43,1.35-2.09.57-2.76ZM64.13,9c-.47,1.17.09,2.2,1.27,2.35.66.09,1.34-.2,1.6-.75.26-.53.44-1.09-.08-1.6.03-.27-.7-.66.11-.82,1.23-.23,2.41-.25,3.3.85.44.93.43,1.93.44,2.92,0,.48-.11.65-.61.62-1.23-.05-2.47-.01-3.68.25-1.82.39-2.84,1.48-2.98,3.19-.05,1.48.28,2.88,1.77,3.44,2.22.83,4.29.66,5.71-1.77.09,1.18.53,1.95,1.62,2.13.8.13,1.59.01,2.37-.21.69-.2.51-.71.49-1.15-.03-.51-.46-.23-.71-.29-.1-.03-.22-.02-.32,0-.4.05-.53-.12-.52-.52.02-.54,0-1.08,0-1.62,0-1.9.01-3.8,0-5.7,0-.47-.09-.94-.37-1.35-.41-1.21-1.36-1.82-2.51-2.1-1.76-.44-3.52-.33-5.19.4-.77.33-1.49.8-1.7,1.73ZM60.37,16.01c0-2.33-.02-4.66-.03-7,0-.63,0-1.25.03-1.88.02-.41-.17-.48-.51-.4-1.24.26-2.49.52-3.73.77-.32.06-.46.2-.48.56-.04.57.09.92.74.91.21,0,.43.05.64.08.18.23.13.5.13.75,0,1.84,0,3.68,0,5.52,0,.24-.04.48.1.7-.01.3-.03.61-.03.91,0,1.13,0,1.15-1.14,1.21-.55.03-.43.4-.41.68.02.29-.23.76.38.76,1.82,0,3.64,0,5.46,0,.14,0,.3.02.38-.16.31-.65-.06-1.27-.77-1.27-.09,0-.17,0-.26,0-.4.05-.54-.12-.52-.52.03-.54,0-1.08,0-1.62ZM67.5,11.67c.36-.05.57-.08.78-.1.21-.02.43-.03.64-.03q.87,0,.82-.91c-.06-.91-.42-1.42-1.1-1.54-.27-.05-.49-.04-.44.32.09.8-.11,1.53-.7,2.26Z"/>
  <path class="identity-svg-1" d="M14.03,5.13c0,.98-.01,1.95,0,2.93,0,.37-.12.49-.49.49-1.19-.02-2.39-.02-3.58,0-.37,0-.5-.12-.49-.49.02-.56,0-1.13,0-1.69,0-.52-.24-.87-.71-1.05-1.01-.39-2.04-.38-3.04-.01-.51.19-.76.63-.8,1.17-.04.55.19.97.68,1.22.78.4,1.64.53,2.49.71,1.56.33,3.05.83,4.31,1.86,2.23,1.82,2.6,5.63.78,8.01-1.35,1.77-3.23,2.46-5.37,2.61-.98.07-1.96,0-2.87-.4-.38-.17-.57.17-.89.16-1.17-.05-2.34-.03-3.51-.01-.43,0-.56-.16-.56-.57.01-1.95.01-3.9,0-5.85,0-.39.09-.6.54-.59,1.17.02,2.34.02,3.51,0,.36,0,.51.11.49.48-.02.52-.02,1.04,0,1.56.02.79.28,1.15,1.04,1.36.89.25,1.79.3,2.69.06.81-.22,1.18-.64,1.21-1.39.03-.9-.17-1.27-1.06-1.54-1.03-.31-2.1-.51-3.14-.81-2.08-.6-3.87-1.62-4.65-3.78C-.69,5.89,1.12,2.18,5.31,1.5c1.3-.21,2.59-.24,3.84.26.33.14.54-.15.85-.14,1.17.04,2.34.04,3.51,0,.44-.01.55.16.54.57-.03.97,0,1.95,0,2.93ZM1.02,16c0,.8,0,1.6,0,2.4q0,1.18,1.21,1.18t1.27-1.19c0-.05.05-.1.11-.21.73.99,1.69,1.54,2.86,1.65,1.04.09,2.09.07,3.09-.27,1.76-.59,3.09-1.63,3.54-3.54.58-2.04.02-4.34-2.17-5.56-1.53-.85-3.23-1.07-4.88-1.48-.2-.08-.4-.17-.6-.25-1.08-.46-1.62-1.26-1.56-2.3.06-1.05.72-1.9,1.81-2.2,1.15-.32,2.31-.28,3.44.14.77.29,1.21.87,1.36,1.69.08.47-.26,1.14.19,1.38.4.22,1.01.06,1.53.07.09,0,.17,0,.26,0,.4.05.52-.12.52-.52-.02-1,0-1.99,0-2.99q0-1.33-1.31-1.33-1.13,0-1.19,1.14s-.05.05-.1.1c-.36-.37-.71-.74-1.18-.99-1.3-.71-2.68-.65-4.05-.36C1.82,3.27.62,6.1,1.55,9.02c.3,1.11,1.06,1.86,1.98,2.47,1.38.9,2.99,1.07,4.54,1.47,1.91.49,2.54,1.18,2.47,3.06-.28,1.14-.98,1.86-2.13,2.08-1.13.22-2.26.23-3.37-.18-.71-.26-1.2-.74-1.39-1.49-.04-.15-.06-.3-.18-.4.24-1.36.23-1.38-1.09-1.38q-1.29,0-1.34,1.35Z"/>
  <path class="identity-svg-4" d="M75.83,51.61c-.01-2.12-.06-4.25-.02-6.37.01-.64-.18-.9-.79-.93-.54-.02-.85-.21-.78-.86.04-.39.11-.55.53-.62,1.26-.22,2.5-.49,3.75-.78.34-.08.42,0,.41.33-.01.62,0,1.24.05,1.87.28-.37.46-.78.77-1.1,1.36-1.38,3-1.41,4.71-.91,1.54.44,2.16,1.68,2.32,3.14.23,2.07.11,4.15.07,6.23-1.04,0-2.09,0-3.14,0,0-1.38-.02-2.77-.03-4.15,0-.32,0-.65-.01-.97-.08-2.01-1.45-2.91-3.34-2.18-.9.34-1.35.96-1.36,1.92-.02,1.8-.02,3.59-.03,5.39-1.04,0-2.08,0-3.12,0Z"/>
  <path class="identity-svg-4" d="M45.52,51.62c-.01-1.47-.02-2.94-.03-4.42,0-.3-.02-.61-.04-.91-.11-2.13-1.7-2.46-3.21-2.03-1,.28-1.49,1.01-1.5,2.09-.02,1.75-.02,3.51-.03,5.26-1.04,0-2.07,0-3.11,0,0-2.12-.05-4.25,0-6.37.01-.63-.16-.93-.78-.93-.72,0-.9-.38-.81-1.02.04-.24.06-.38.34-.43,1.3-.24,2.59-.51,3.88-.8.36-.08.5-.04.47.36-.03.6,0,1.21,0,1.81.06,0,.12,0,.13-.02,1.24-2.22,3.76-2.96,6.01-1.75,1.07.58,1.53,1.57,1.67,2.71.28,2.13.1,4.28.11,6.42-1.04,0-2.08,0-3.11,0Z"/>
  <path class="identity-svg-1" d="M40.73,12.49c0-2.47-.01-4.94.01-7.41,0-.47-.15-.64-.6-.72-.97-.15-.98-.18-.96-1.12.02-.62-.25-1.37.12-1.83.35-.43,1.12-.34,1.71-.46,1.46-.3,2.93-.58,4.38-.91.47-.11.56,0,.55.44-.02,1.73,0,3.47,0,5.2,0,.28-.09.57.43.38,3.23-1.2,6.33.16,7.54,3.41,1.04,2.79,1,5.61-.33,8.31-1.74,3.55-6.36,3.96-8.6,1.8-.14-.14-.29-.32-.44-.02-.55,1.14-1.55,1.13-2.59,1.05-.22-.02-.44-.02-.65,0-.47.06-.58-.16-.58-.59.02-2.51,0-5.03,0-7.54ZM41.77,16.02c0,.85,0,1.69,0,2.54,0,1.12,0,1.11,1.1,1.04.31-.02.47-.18.64-.38.3-.37.6-.74.89-1.12.24-.32.41-.44.69.02.58.96,1.47,1.49,2.57,1.7,2.5.48,5.15-1.34,5.48-3.78.07-.18.18-.35.22-.54.29-1.39.35-2.79.05-4.18-.18-.82-.31-1.66-.91-2.31-.58-1.29-1.65-2.01-2.97-2.25-1.89-.34-3.51.14-4.46,2.07-.05-.04-.1-.08-.15-.12V1.98c.18-.73.09-.84-.6-.71-.8.16-1.6.34-2.4.49-.14.03-.18.08-.14.21-.32.01-.65.02-.97.04-.36.02-.62.13-.59.59.03.38-.08.81.51.85.17,0,.34.1.51.1.46,0,.56.23.56.65-.01,1.6,0,3.21.02,4.81,0,2.33-.01,4.66-.02,7Z"/>
  <path class="identity-svg-4" d="M104.38,51.61c.31-.79.62-1.03,2.15-1.68-.01-.04-.01-.09-.04-.11-1.98-1.03-2.71-2.4-2.38-4.49.26-1.64,1.65-2.86,3.64-3.22,1.6-.29,3.14-.15,4.61.56.11-.44.18-.85.32-1.23.35-.98,1.41-1.52,2.42-1.26.79.21,1.24.96,1.04,1.75-.21.85-1.02,1.28-1.94,1.04-.32-.08-.58-.26-.87-.51-.09.43-.13.74.15,1.07,2.01,2.37,1.05,5.55-1.95,6.5-1.07.34-2.18.37-3.28.24-1.07-.12-1.54.23-1.64,1.33-.74,0-1.49,0-2.23,0ZM107.22,46.14s.01,0,.02,0c0,.32-.03.65,0,.97.13,1.09.8,1.7,1.9,1.75,1.21.06,1.93-.47,2.16-1.59.13-.6.11-1.21.06-1.81-.11-1.39-.83-2-2.22-1.96-1.23.04-1.9.77-1.92,2.12,0,.17,0,.35,0,.52Z"/>
  <path class="identity-svg-3" d="M104.38,51.61c.74,0,1.49,0,2.23,0,.25.66.8.78,1.42.8,1.54.04,3.08-.09,4.61.11,1.74.23,2.92,1.19,3.16,2.62.29,1.72-.42,3.19-1.96,4.03-1.05.57-2.21.77-3.38.85-1.47.1-2.95.08-4.4-.22-.73-.15-1.42-.38-2-.87-1.05-.9-.99-2.5.12-3.31.51-.38,1.11-.57,1.8-.79-.7-.3-1.29-.6-1.55-1.26-.26-.64-.32-1.29-.04-1.95ZM109.36,55.27c-.76,0-1.39.02-2.02,0-.67-.03-1.05.35-1.28.9-.43,1.04,0,1.99,1.14,2.25,1.55.35,3.13.32,4.69-.05.21-.05.41-.15.59-.27.59-.37.86-1.01.71-1.68-.14-.67-.62-.94-1.24-1.05-.9-.17-1.81-.06-2.58-.1Z"/>
  <path class="identity-svg-1" d="M34.82,6.19c1.2-.6,2.35-.72,3.51-.34,2.15.71,2.89,3.64,1.35,5.22-1.27,1.3-3.48,1.04-4.41-.53-.05-.09-.11-.17-.18-.29-.25.22-.24.47-.24.73,0,1.86.01,3.73,0,5.59,0,.42.11.56.54.56,1.53.01,1.54.03,1.52,1.57,0,.62.28,1.41-.13,1.81-.38.37-1.16.1-1.76.11-2.1.01-4.21,0-6.31.02-.49,0-.64-.14-.62-.63.04-.78.03-1.56,0-2.34-.02-.42.12-.56.55-.56,1.01,0,1.01-.02,1.01-1.04,0-1.82-.02-3.64.01-5.46.01-.54-.2-.75-.68-.77-.67-.03-1.02-.29-.9-1.04.1-.64-.24-1.43.13-1.9.37-.48,1.2-.36,1.82-.5,1.37-.31,2.76-.55,4.12-.87.53-.13.79-.06.66.66ZM39.41,9.01c.05-1.31-.65-2.13-1.9-2.32-1.73-.27-3.02.72-3.56,2.3-.04.02-.08.02-.12,0,0-.61-.03-1.21,0-1.82.02-.44-.17-.51-.55-.43-1.23.26-2.45.52-3.68.76-.32.06-.45.21-.47.56-.04.58.1.91.74.9.23,0,.47.06.71.09.18.23.12.5.12.75,0,2.07.01,4.14.02,6.22,0,.35,0,.69-.01,1.04,0,1.06,0,1.1-1.04,1.08-.68-.01-.49.43-.52.78-.03.39-.04.7.54.68,1.86-.04,3.73-.04,5.59,0,.54.01.62-.19.65-.67.03-.62-.14-.89-.78-.79-.25.04-.52-.01-.78.01-.39.03-.55-.1-.53-.51.03-.54,0-1.08,0-1.62,0-1.53.05-3.07.01-4.6-.02-.91.19-1.7.79-2.39.53-.36,1.01-.85,1.82-.7-.12.24-.32.41-.3.66-.22.77.09,1.45.79,1.73,1.35.53,2.5-.26,2.49-1.72Z"/>
  <path class="identity-svg-4" d="M129.52,51.63c-1.16-2.67-.55-6.45,1.38-8.17,1.78-1.58,3.88-1.84,6.09-1.18,2.18.65,3.36,2.29,3.81,4.45.34,1.65.32,3.31-.37,4.9-.98,0-1.96-.01-2.94-.02.17-1.88.14-3.76.04-5.63-.09-1.55-1.07-2.4-2.52-2.4-1.51,0-2.4.73-2.55,2.34-.18,1.89-.14,3.8,0,5.69-.98,0-1.96.01-2.94.02Z"/>
  <path class="identity-svg-4" d="M22.63,51.63c-.92-2.59-.89-5.14.74-7.42,1.54-2.16,3.82-2.59,6.27-2.04,2.49.56,3.83,2.32,4.29,4.75.3,1.59.24,3.19-.4,4.72-.98,0-1.96-.01-2.95-.02.13-1.99.21-3.98-.03-5.97-.11-.94-.62-1.67-1.58-1.95-1.82-.53-3.3.38-3.43,2.27-.13,1.88-.13,3.77.03,5.65-.98,0-1.96.01-2.94.02Z"/>
  <path class="identity-svg-1" d="M25.62,14.39c.7.43,1.38.89,2.1,1.29.36.2.4.4.27.78-1.14,3.23-4.02,4.83-7.39,4.37-3.82-.51-5.83-3.56-5.94-6.94-.06-1.95.18-3.8,1.31-5.45,1.55-2.26,4.38-3.29,7.23-2.62,2.69.63,4.51,2.67,4.9,5.42.13.87.07,1.73.11,2.59.02.34-.11.46-.45.45-.71-.02-1.42,0-2.13,0,0,.04-.02.08-.02.12ZM16.88,8.99c-1.52,2.21-1.57,4.58-.76,7.04.69,2.19,2.24,3.35,4.44,3.76,2.42.45,4.89-.61,6.01-2.66.13-.24.45-.5.23-.81-.21-.28-.57-.25-.9-.25-.27,0-.43.1-.59.31-.19.26-.43.5-.68.69-1.71,1.29-3.88.85-5.29-1.06-.14-.65-.25-1.3-.28-1.98-.02-.61.18-.76.76-.75,2.25.03,4.49.02,6.74,0,.22,0,.59.15.61-.27.06-1.45-.09-2.85-1.02-4.05-.08-.26-.25-.46-.43-.64-1.58-1.6-3.51-1.97-5.62-1.54-1.36.27-2.51.94-3.23,2.19ZM22.75,14.27c-.54,0-1.08,0-1.62,0-1.07,0-1.27.31-.82,1.29.24.54.62.91,1.22,1.08,1.64.48,3.15-.38,3.6-2.07.09-.35-.11-.3-.3-.3-.69,0-1.38,0-2.08,0Z"/>
  <path class="identity-svg-4" d="M61.33,51.65c-.84-2.4-.84-4.77.44-7.01,1.24-2.17,3.85-3.14,6.43-2.49,2.43.61,3.99,2.57,4.13,5.19q.07,1.27-1.19,1.27c-2.14,0-4.29.01-6.43-.01-.43,0-.55.12-.53.54.03.85.11,1.68.47,2.46-1.1.02-2.21.03-3.31.05ZM66.59,47.2h1.04q1.64,0,1.31-1.64c-.26-1.31-1.04-2.03-2.22-2.04-1.29-.02-2.11.65-2.39,1.99-.09.42-.09.86-.14,1.29-.04.32.08.42.39.41.67-.02,1.34,0,2.01,0Z"/>
  <path class="identity-svg-4" d="M90.67,51.63c-.94-2.74-.88-5.37.97-7.73,1.39-1.78,4.02-2.4,6.33-1.62,2.16.72,3.55,2.6,3.67,4.94q.07,1.39-1.33,1.39c-2.08,0-4.16.01-6.24,0-.42,0-.54.11-.54.53,0,.86.09,1.68.43,2.47-1.09,0-2.19.02-3.28.03ZM95.93,47.2c.28,0,.56.01.84,0,.51-.03,1.26.24,1.48-.11.33-.52.05-1.25-.11-1.88,0-.02-.01-.04-.02-.06-.38-1.15-1.09-1.67-2.27-1.64-1.12.03-1.89.67-2.17,1.79-.12.47-.13.94-.17,1.42-.03.43.14.51.52.49.63-.03,1.26,0,1.88,0Z"/>
  <path class="identity-svg-4" d="M118.97,51.62c0-2.12-.05-4.25,0-6.37.02-.68-.21-.94-.84-.94-.67,0-.81-.37-.74-.96.03-.27.06-.42.38-.48,1.42-.28,2.83-.58,4.3-.89v2.34c.35-.29.42-.63.59-.9,1.04-1.59,3.3-1.97,4.49-.74.66.68.79,1.98.29,2.78-.46.72-1.66.97-2.44.5-.77-.46-.9-1.33-.34-2.25-1.19-.17-2.48,1.03-2.5,2.37-.02,1.6,0,3.21,0,4.81,0,.24-.02.47-.03.71-1.05,0-2.1,0-3.15.01Z"/>
  <path class="identity-svg-4" d="M53.26,51.62c0-2.38-.03-4.76-.01-7.14,0-.53-.11-.77-.67-.67-.02,0-.04,0-.06,0-.31-.05-.77.17-.9-.12-.15-.35-.07-.81-.04-1.21.02-.3.29-.22.46-.21,1.04.1,1.61-.45,1.95-1.36.13-.34.27-.68.41-1.02.44-1.09.44-1.08,1.61-1.05.34,0,.45.11.44.45-.02.84,0,1.69-.01,2.53,0,.34.09.46.44.44.67-.02,1.34.01,2.01-.02.38-.02.47.12.47.48,0,1.08.02,1.08-1.08,1.08-.58,0-1.35-.19-1.69.1-.4.34-.12,1.14-.13,1.73-.03,1.99-.03,3.98-.04,5.97-1.04,0-2.09,0-3.14,0Z"/>
  <path class="identity-svg-3" d="M61.33,51.65c1.1-.02,2.21-.03,3.31-.05,1.17,1.99,4.59,2.01,5.93,0,.41,0,.82,0,1.24,0,.47.16.13.43.05.61-.88,1.75-2.32,2.72-4.26,2.97-2.81.36-5.16-.95-6.26-3.52Z"/>
  <path class="identity-svg-3" d="M90.67,51.63c1.09,0,2.19-.02,3.28-.03,1.09,1.84,4.35,2.16,5.97,0,.4,0,.81,0,1.21,0,.43.12.16.37.08.55-.93,2.03-3.06,3.24-5.47,3.06-2.39-.18-4.19-1.23-5.07-3.57Z"/>
  <path class="identity-svg-3" d="M22.63,51.63c.98,0,1.96-.01,2.94-.02.46,1.52,1.17,2.04,2.72,1.98,1.2-.05,1.81-.57,2.29-1.98.98,0,1.96.01,2.95.02-.94,2.38-2.92,3.64-5.65,3.59-2.52-.05-4.49-1.4-5.25-3.58Z"/>
  <path class="identity-svg-3" d="M129.52,51.63c.98,0,1.96-.01,2.94-.02.5,1.5,1.15,1.99,2.57,1.97,1.35-.02,1.99-.53,2.44-1.98.98,0,1.96.01,2.94.02-.83,2.4-3.27,3.84-6.03,3.56-2.33-.23-4.01-1.33-4.87-3.56Z"/>
  <path class="identity-svg-3" d="M14.94,51.62c1.12,0,2.23,0,3.35,0,0,.13.02.26.03.39.02.45-.12,1.01.09,1.32.22.32.81.1,1.23.11.32,0,.42.13.4.43-.02.19-.02.39,0,.58.06.42-.15.5-.52.5-1.93-.02-3.86-.03-5.78,0-.58.01-.59-.29-.54-.68.04-.35-.24-.85.51-.84,1.2.02,1.19-.02,1.2-1.23,0-.19.03-.38.04-.58Z"/>
  <path class="identity-svg-3" d="M118.97,51.62c1.05,0,2.1,0,3.15-.01,0,.02.02.04.02.06.02.56-.16,1.27.12,1.63.3.39,1.05.11,1.6.13.27.01.33.14.32.36,0,.19-.02.39,0,.58.04.4-.07.57-.53.56-1.9-.03-3.8-.04-5.7,0-.71.02-.54-.42-.56-.8-.02-.4-.08-.76.56-.73.99.05.99,0,.99-.97,0-.28.01-.56.02-.84Z"/>
  <path class="identity-svg-3" d="M75.83,51.61c1.04,0,2.08,0,3.12,0,0,.19.02.39.02.58.02.39-.1.86.08,1.14.18.28.68.09,1.04.1.24.01.37.08.35.33,0,.15-.02.31,0,.45.09.56-.1.74-.7.72-1.64-.04-3.29-.05-4.94,0-.7.02-.57-.39-.58-.78,0-.38-.12-.77.55-.74.99.05.99,0,.99-.98,0-.28.03-.56.05-.84Z"/>
  <path class="identity-svg-3" d="M83.71,51.62c1.05,0,2.09,0,3.14,0,.01.17.03.34.04.52.02.41-.11.9.08,1.2.19.3.72.1,1.1.11.3,0,.38.14.36.4,0,.15-.02.31,0,.45.07.5-.11.67-.64.66-1.67-.04-3.33-.03-5,0-.44,0-.6-.11-.59-.57.02-.91,0-.93.93-.92.42,0,.58-.11.55-.54-.03-.43.01-.86.02-1.29Z"/>
  <path class="identity-svg-3" d="M45.52,51.62c1.04,0,2.08,0,3.11,0,0,.17.01.34.02.52.01.41-.11.9.08,1.2.19.29.72.09,1.1.1.28,0,.39.1.38.38-.01.24-.02.48,0,.71.03.32-.11.41-.41.41-1.79,0-3.59-.01-5.38,0-.35,0-.47-.13-.43-.46.02-.19.02-.39,0-.58-.03-.32.07-.45.43-.47,1.06-.04,1.06-.06,1.07-1.11,0-.24.03-.47.04-.71Z"/>
  <path class="identity-svg-3" d="M37.61,51.62c1.04,0,2.07,0,3.11,0,0,.45.04.91.02,1.36-.02.38.13.51.49.47.09-.01.17-.01.26,0,.25.04.64-.14.71.12.11.38.05.81.02,1.22-.02.19-.24.15-.38.15-1.79,0-3.59,0-5.38,0-.29,0-.45-.07-.42-.4.02-.19.02-.39,0-.58-.04-.38.08-.52.5-.52,1.06,0,1.06-.02,1.06-1.1,0-.24.01-.47.02-.71Z"/>
  <path class="identity-svg-3" d="M53.26,51.62c1.05,0,2.09,0,3.14,0,.01.43.05.86.03,1.29-.02.38.09.54.5.52.62-.03,1.25-.02,1.88,0,.2,0,.56-.13.51.27-.05.36.3.9-.29,1.06-1.47.41-2.98.58-4.48.19-.92-.24-1.22-1.03-1.3-1.9-.04-.47,0-.95,0-1.42Z"/>
  <path class="identity-svg-3" d="M2.44,51.62c.56,0,1.12,0,1.68,0,0,.13.02.26.02.39.02.45-.12,1.01.09,1.32.22.32.81.1,1.23.1.32,0,.43.11.41.42-.01.19-.02.39,0,.58.05.41-.13.51-.52.51-1.39-.02-2.77-.04-4.16,0-.66.02-.53-.39-.53-.76,0-.37-.13-.77.53-.76,1.2.02,1.2-.01,1.2-1.23,0-.19.03-.39.04-.58Z"/>
  <path class="identity-svg-4" d="M71.81,51.6c-.41,0-.82,0-1.24,0q.35-.65,1.24,0Z"/>
  <path class="identity-svg-4" d="M101.13,51.6c-.4,0-.81,0-1.21,0q.31-.66,1.21,0Z"/>
  <path class="identity-svg-3" d="M14.73,40.95s0-.01,0-.01,0,.01,0,.01Z"/>
  <path class="identity-svg-2" d="M73.53,8.98c.28.41.37.88.37,1.35.01,1.9,0,3.8,0,5.7-1.04,0-2.07,0-3.11,0,0-.26-.02-.52-.03-.78,0-1.39,0-1.4-1.41-1.36-1.96.06-2.54.57-2.75,2.14-1.04,0-2.07,0-3.11,0,.14-1.71,1.16-2.8,2.98-3.19,1.22-.26,2.45-.3,3.68-.25.5.02.62-.15.61-.62-.01-1,0-1.99-.44-2.92,1.06-.02,2.13-.04,3.19-.06Z"/>
  <path class="identity-svg-6" d="M70.79,16.02c1.04,0,2.07,0,3.11,0,0,.54.03,1.08,0,1.62-.02.39.11.57.52.52.11-.01.22-.02.32,0,.25.07.68-.21.71.29.02.44.2.95-.49,1.15-.78.22-1.57.34-2.37.21-1.09-.18-1.53-.95-1.62-2.13-1.42,2.43-3.49,2.6-5.71,1.77-1.49-.56-1.83-1.96-1.77-3.44,1.04,0,2.07,0,3.11,0,.25,1.54.62,1.9,1.98,1.89,1.45,0,1.97-.46,2.2-1.9Z"/>
  <path class="identity-svg-2" d="M60.34,9.01c0,2.33.02,4.66.03,7-1.04,0-2.08,0-3.11.01-.14-.22-.1-.46-.1-.7,0-1.84,0-3.68,0-5.52,0-.26.05-.52-.13-.75,1.11-.01,2.21-.02,3.31-.04Z"/>
  <path class="identity-svg-6" d="M57.25,16.02c1.04,0,2.08,0,3.11-.01,0,.54.02,1.08,0,1.62-.02.39.12.57.52.52.09-.01.17,0,.26,0,.71,0,1.08.63.77,1.27-.09.18-.24.16-.38.16-1.82,0-3.64,0-5.46,0-.62,0-.36-.47-.38-.76-.02-.29-.15-.65.41-.68,1.14-.06,1.13-.08,1.14-1.21,0-.3.02-.61.03-.91Z"/>
  <path class="identity-svg-5" d="M73.53,8.98c-1.06.02-2.13.04-3.19.06-.89-1.11-2.07-1.09-3.3-.85-.81.16-.08.54-.11.82-.93,0-1.87,0-2.8,0,.21-.93.93-1.39,1.7-1.73,1.67-.73,3.43-.83,5.19-.4,1.15.29,2.1.9,2.51,2.1Z"/>
  <path class="identity-svg-5" d="M60.24,1.98c.78.67.46,2.33-.57,2.76-.73.3-1.5.3-2.16-.19-.66-.5-.73-1.24-.62-2,.03-.22.06-.49.35-.57,1,0,2,0,2.99,0Z"/>
  <path class="identity-svg-5" d="M60.34,9.01c-1.1.01-2.21.02-3.31.04-.21-.03-.43-.09-.64-.08-.65.02-.78-.34-.74-.91.02-.36.16-.49.48-.56,1.24-.25,2.49-.51,3.73-.77.35-.07.53,0,.51.4-.03.62-.02,1.25-.03,1.88Z"/>
  <path class="identity-svg-2" d="M64.13,9c.93,0,1.87,0,2.8,0,.52.51.33,1.07.08,1.6-.26.55-.94.84-1.6.75-1.19-.15-1.74-1.18-1.27-2.35Z"/>
  <path class="identity-svg-6" d="M60.24,1.98c-1,0-2,0-2.99,0,.04-.56.51-.65.9-.78.93-.3,1.88.08,2.09.78Z"/>
  <path class="identity-svg-2" d="M6.07,8.99c1.65.41,3.35.63,4.88,1.48,2.19,1.22,2.74,3.51,2.17,5.56-.86,0-1.73,0-2.59-.01.07-1.87-.56-2.57-2.47-3.06-1.54-.4-3.16-.57-4.54-1.47-.92-.6-1.68-1.36-1.98-2.47,1.51-.01,3.02-.02,4.53-.03Z"/>
  <path class="identity-svg-5" d="M6.07,8.99c-1.51.01-3.02.02-4.53.03-.93-2.92.27-5.75,3.64-6.46,1.37-.29,2.75-.35,4.05.36.46.25.82.62,1.18.99.05-.05.1-.08.1-.1q.06-1.14,1.19-1.14,1.31,0,1.31,1.33c0,1-.02,1.99,0,2.99,0,.39-.11.57-.52.52-.09-.01-.17,0-.26,0-.52,0-1.13.15-1.53-.07-.45-.25-.11-.91-.19-1.38-.14-.82-.59-1.4-1.36-1.69-1.12-.43-2.28-.47-3.44-.14-1.08.3-1.75,1.15-1.81,2.2-.06,1.05.48,1.85,1.56,2.3.2.08.4.17.6.25Z"/>
  <path class="identity-svg-6" d="M10.53,16.02c.86,0,1.73,0,2.59.01-.46,1.9-1.78,2.95-3.54,3.54-1,.33-2.05.36-3.09.27-1.18-.1-2.13-.66-2.86-1.65-.06.11-.11.16-.11.21q-.05,1.19-1.27,1.19t-1.21-1.18c0-.8,0-1.6,0-2.4.81,0,1.62.02,2.43.03.12.11.14.25.18.4.19.75.68,1.23,1.39,1.49,1.1.41,2.24.4,3.37.18,1.15-.22,1.86-.94,2.13-2.08Z"/>
  <path class="identity-svg-2" d="M3.45,16.02c-.81,0-1.62-.02-2.43-.03q.04-1.35,1.34-1.35c1.32,0,1.33.01,1.09,1.38Z"/>
  <path class="identity-svg-5" d="M44.89,1.98v6.72c.05.04.1.08.15.12.95-1.93,2.57-2.41,4.46-2.07,1.32.24,2.4.95,2.97,2.25-1.16.01-2.31.03-3.47.04-1.03-.55-2.06-.52-3.08,0-1.38,0-2.76-.02-4.14-.02,0-1.6-.03-3.21-.02-4.81,0-.42-.09-.66-.56-.65-.17,0-.34-.09-.51-.1-.6-.03-.48-.46-.51-.85-.04-.45.23-.56.59-.59.32-.02.65-.03.97-.04,1.05,0,2.09,0,3.14,0Z"/>
  <path class="identity-svg-6" d="M53.12,16.03c-.33,2.44-2.98,4.26-5.48,3.78-1.1-.21-1.99-.74-2.57-1.7-.28-.46-.45-.34-.69-.02-.29.38-.59.75-.89,1.12-.16.2-.33.36-.64.38-1.1.06-1.1.08-1.1-1.04,0-.85,0-1.69,0-2.54,1.08,0,2.15,0,3.23-.01.03.15.04.3.09.44.37.95,1.16,1.32,2.08,1.43,1.07.13,1.95-.26,2.55-1.2.14-.22.19-.49.41-.65,1,0,2,0,2.99,0Z"/>
  <path class="identity-svg-2" d="M45,16.01c-1.08,0-2.15,0-3.23.01,0-2.33.01-4.66.02-7,1.38,0,2.76.01,4.14.02-.51.45-.95.93-.95,1.68.01,1.76.01,3.52.02,5.29Z"/>
  <path class="identity-svg-2" d="M53.12,16.03c-1,0-2,0-2.99,0,.02-1.34.04-2.68.06-4.02.02-1.15-.26-2.19-1.18-2.97,1.16-.01,2.31-.03,3.47-.04.59.66.73,1.5.91,2.31.3,1.4.24,2.79-.05,4.18-.04.19-.14.36-.22.54Z"/>
  <path class="identity-svg-6" d="M44.89,1.98c-1.05,0-2.09,0-3.14,0-.04-.13,0-.18.14-.21.8-.16,1.6-.34,2.4-.49.69-.14.78-.02.6.71Z"/>
  <path class="identity-svg-2" d="M33.82,8.99s.08.02.12,0c.22.02.45.03.67.05-.6.69-.82,1.47-.79,2.39.04,1.53,0,3.07-.01,4.6-1.04,0-2.07,0-3.11,0,0-2.07,0-4.14-.02-6.22,0-.25.06-.52-.12-.75,1.09-.02,2.17-.04,3.25-.06Z"/>
  <path class="identity-svg-6" d="M30.7,16.02c1.04,0,2.07,0,3.11,0,0,.54.04,1.08,0,1.62-.02.41.14.54.53.51.26-.02.52.03.78-.01.64-.1.81.17.78.79-.02.48-.11.68-.65.67-1.86-.04-3.73-.04-5.59,0-.58.01-.57-.29-.54-.68.02-.35-.17-.79.52-.78,1.04.02,1.04-.02,1.04-1.08,0-.35,0-.69.01-1.04Z"/>
  <path class="identity-svg-5" d="M34.62,9.04c-.22-.02-.45-.03-.67-.05.55-1.58,1.83-2.57,3.56-2.3,1.26.19,1.95,1.01,1.9,2.32-1.09,0-2.19,0-3.28-.01-.02-.25.18-.42.3-.66-.81-.16-1.29.34-1.82.7Z"/>
  <path class="identity-svg-5" d="M33.82,8.99c-1.08.02-2.17.04-3.25.06-.24-.03-.47-.09-.71-.09-.64.01-.79-.33-.74-.9.03-.35.15-.49.47-.56,1.23-.25,2.46-.5,3.68-.76.38-.08.57-.01.55.43-.03.61,0,1.21,0,1.82Z"/>
  <path class="identity-svg-2" d="M36.13,9c1.09,0,2.19,0,3.28.01,0,1.46-1.14,2.25-2.49,1.71-.7-.28-1.01-.95-.79-1.73Z"/>
  <path class="identity-svg-2" d="M16.12,16.03c-.8-2.46-.76-4.83.76-7.04.91.01,1.83.03,2.74.04-.42.74-.56,1.53-.55,2.37,0,.35.1.5.48.5,1.3-.02,2.6-.02,3.9,0,.39,0,.48-.15.46-.5-.04-.83-.17-1.64-.58-2.37.94-.01,1.88-.03,2.83-.04.93,1.2,1.08,2.6,1.02,4.05-.02.42-.38.26-.61.27-2.25.01-4.49.03-6.74,0-.59,0-.78.14-.76.75.02.68.13,1.33.28,1.98-1.07,0-2.15.01-3.22.02Z"/>
  <path class="identity-svg-6" d="M16.12,16.03c1.07,0,2.15-.01,3.22-.02,1.41,1.91,3.58,2.35,5.29,1.06.26-.19.49-.43.68-.69.16-.21.32-.31.59-.31.33,0,.69-.03.9.25.22.31-.09.56-.23.81-1.12,2.05-3.58,3.12-6.01,2.66-2.21-.41-3.75-1.58-4.44-3.76Z"/>
  <path class="identity-svg-5" d="M19.62,9.03c-.91-.01-1.83-.03-2.74-.04.72-1.25,1.87-1.92,3.23-2.19,2.12-.43,4.05-.05,5.62,1.54.18.19.35.38.43.64-.94.01-1.88.03-2.83.04-1.24-1.18-2.5-1.18-3.71,0Z"/>
  <path class="identity-svg-1" d="M70.79,16.02c-.22,1.44-.75,1.89-2.2,1.9-1.36,0-1.73-.35-1.98-1.89.2-1.57.79-2.08,2.75-2.14,1.41-.04,1.41-.03,1.41,1.36,0,.26.02.52.03.78ZM69.74,15.75c0-.91-.05-.95-.96-.82-.19.03-.39.07-.57.13-.41.14-.54.48-.54.88,0,.32-.08.67.28.87.86.48,1.78-.07,1.79-1.06Z"/>
  <path class="identity-svg-1" d="M49.01,9.04c.92.78,1.2,1.81,1.18,2.97-.02,1.34-.04,2.68-.06,4.02-.22.16-.27.44-.41.65-.6.94-1.48,1.33-2.55,1.2-.92-.11-1.71-.48-2.08-1.43-.05-.14-.06-.29-.09-.44,0-1.76,0-3.52-.02-5.29,0-.74.43-1.23.95-1.68,1.03-.53,2.06-.55,3.08,0ZM45.94,13.21c0,.78-.01,1.56,0,2.34.02.73.48,1.21,1.2,1.3,1.19.15,1.99-.58,2.02-1.88.03-1.13.02-2.25,0-3.38,0-.28-.06-.56-.14-.83-.24-.8-.96-1.2-1.9-1.07-.82.11-1.18.57-1.19,1.5,0,.67,0,1.34,0,2.02Z"/>
  <path class="identity-svg-1" d="M19.62,9.03c1.21-1.18,2.47-1.18,3.71,0,.41.74.54,1.54.58,2.37.02.35-.07.51-.46.5-1.3-.02-2.6-.02-3.9,0-.38,0-.47-.14-.48-.5-.01-.84.13-1.64.55-2.37ZM21.47,10.87c.35,0,.69,0,1.04,0,.13,0,.3.05.33-.2.06-.57-.44-1.33-.99-1.46-.68-.16-1.32.17-1.57.83-.27.7-.18.84.54.84.22,0,.43,0,.65,0Z"/>
</svg>