<?xml version="1.0" encoding="UTF-8"?>
<svg id="Layer_1" data-name="Layer 1" xmlns="http://www.w3.org/2000/svg" width="118" height="47.27" viewBox="0 0 118 47.27">
  <defs>
    <style>
      .identity-svg-1 {
        fill: #c73840;
      }

      .identity-svg-1, .identity-svg-2, .identity-svg-3, .identity-svg-4, .identity-svg-5, .identity-svg-6 {
        stroke-width: 0px;
      }

      .identity-svg-2 {
        fill: #194375;
      }

      .identity-svg-3 {
        fill: #adacab;
      }

      .identity-svg-4 {
        fill: #e10202;
      }

      .identity-svg-5 {
        fill: #fdbf02;
      }

      .identity-svg-6 {
        fill: #fefefe;
      }
    </style>
  </defs>
  <path class="identity-svg-3" d="M88.85,47.27c-.84,0-1.69-.16-2.43-.55,0,0,0,0-.01,0-1.74-.93-2.05-3.11-.62-4.46.23-.22.26-.37.14-.68-.48-1.18-.42-2.31.48-3.29.16-.18.24-.31.04-.51-.43-.43-.64-.98-.89-1.54,0,.49-.01.97,0,1.46,0,.22-.16.39-.39.38-.43-.02-.85,0-1.28,0l-.02.12c.4.24.78.52,1.19.72.39.19.44.42.32.78-.83,2.63-3.58,4.22-6.31,3.78-1.96-.31-3.41-1.29-4.45-3.01v1.76c0,.6-.48,1.08-1.08,1.08-3.99,0-7.98-.01-11.96.01-.52,0-.67-.15-.64-.66.04-.69.01-1.38.01-2.2-1.16,2.04-2.81,3.05-5.04,3.07-2.21.02-3.96-.84-5.23-2.87,0,.61-.02,1.09,0,1.57.01.28-.15.53-.39.65-.59.31-1.23.44-1.88.5-.91.08-1.82.17-2.72-.05-1.18-.28-1.98-1.39-2-2.6-.02-2.02-.02-4.04,0-6.06,0-.32-.26-.57-.58-.56-.84.03-.84,0-.84-.86,0-.66.01-1.32,0-1.98,0-.3.07-.46.39-.41.02,0,.03,0,.05,0,1.11.23,1.73-.24,1.96-1.33.06-.28.26-.52.32-.8.14-.62.52-.77,1.1-.71.54.05,1.08.03,1.62,0,.41-.02.59.08.55.52-.04.38,0,.78,0,1.16q0,1.15,1.17,1.15c.2,0,.41.02.61,0,.49-.07.7.08.65.62-.05.6-.01,1.21-.01,2,1.28-1.99,2.99-2.91,5.23-2.83,2.24.08,3.92,1.07,5.03,3.07,0-.55.01-1.09,0-1.64-.01-.35.08-.5.54-.56,1.59-.2,3.19-.44,4.7-.97.86-.3.55.24.7.52,1.04-.47,2.12-.51,3.21-.31,1.88.35,3.07,1.75,3.22,3.69.14,1.72.03,3.44.08,5.16,0,.16-.11.42.16.46.3.05.62.1.9-.03.16-.08,0-.27-.04-.41-.6-1.96-.57-3.91.31-5.84.8-1.74,2.43-2.88,4.32-3.1,2.2-.26,4.14.35,5.49,2.26.43.6.67,1.3.9,2.09.06-.14.11-.19.11-.25,0-2.08,1.73-3.7,3.91-4.03.93-.14,1.85-.17,2.77.02.25.05.52-.04.63-.27.79-1.55,2.96-1.87,4.12-.65.32.34.47.74.52,1.18.04.33.17.36.47.3,1.32-.29,2.64-.55,3.96-.82.24-.05.48-.14.48.26,0,.29.19.15.32.1.72-.27,1.46-.3,2.19-.11,1.2.3,1.91,1.08,2.11,2.29.16.05.2-.06.25-.14,2.02-2.86,6.53-2.95,8.85-.71,1.12,1.09,1.66,2.48,1.8,4.02.01.14-.05.31.1.42v1.01c-.13.08-.09.21-.1.32-.27,2.78-2.01,5.18-5.12,5.52-3.16.35-5.76-1.25-6.54-4.49-.26-1.09-.25-2.2-.13-3.32-1.39.71-2.63.6-3.72-.69,0,1.62.02,3.11-.01,4.59,0,.44.15.56.55.52.25-.03.51.01.76,0,.38-.03.46.14.38.67-.08.57-.09,1.15,0,1.72.1.7.01.85-.48.85-1.98-.02-3.95,0-5.93-.01-.3,0-.42.06-.48.4-.16,1.04-.66,1.89-1.5,2.55-.21.17-.44.3-.67.42-.84.42-1.78.6-2.73.6h-3.44ZM59.92,39.53q-.71-.54-.96,0c-1.23,1.76-4,1.62-4.93,0-.26-.61-.34-1.26-.35-1.92,0-.39.1-.52.5-.51,1.77.02,3.54,0,5.31,0,.95,0,.97,0,.89-.94-.14-1.81-.8-3.35-2.57-4.09-1.85-.78-3.67-.67-5.27.67-1.98,1.67-1.99,5.01-1.24,6.8.07.17.12.35.21.51,1.07,2,3.06,2.74,5.28,2.38,1.48-.24,2.55-1.08,3.21-2.43.08-.17.24-.37-.09-.48ZM83.12,39.54c-1.19,1.68-3.9,1.69-4.95,0-.24-.62-.34-1.26-.34-1.92,0-.38.08-.52.5-.51,1.72.02,3.44.01,5.16.01,1.11,0,1.14,0,1.04-1.1-.18-1.93-1-3.46-2.93-4.09-1.91-.62-3.71-.4-5.18,1.13-1.42,1.47-1.84,4.43-.94,6.52.11.36.28.69.5.99,1.25,1.74,3.01,2.18,5.01,1.87,1.46-.23,2.52-1.08,3.17-2.41.09-.18.21-.37-.08-.5q-.71-.52-.96.01ZM44.69,39.54c-.12.56-.06,1.11.06,1.65.12.57.47.97,1.05,1.12,1.23.32,2.45.14,3.64-.17.46-.12.19-.58.23-.88.03-.28-.22-.25-.39-.25-.47,0-.95-.04-1.42,0-.51.05-.65-.15-.6-.62.03-.28,0-.57-.01-.86,0-1.64,0-3.27.02-4.91,0-.47-.2-1.08.08-1.37.31-.32.93-.09,1.41-.1.99-.02.98,0,.93-.99-.01-.25-.09-.32-.33-.31-.57.01-1.15,0-1.72,0-.28,0-.39-.08-.38-.37.02-.51,0-1.01,0-1.52,0-.97,0-.96-.96-.95-.26,0-.39.09-.48.33-.16.43-.36.84-.51,1.26-.29.81-.78,1.33-1.72,1.24-.15-.02-.28-.01-.31.22-.14.93-.04,1.06.88,1.08.03,0,.07,0,.1,0,.33-.05.4.12.39.41-.02.71-.01,1.42,0,2.13.02,1.28-.05,2.56.04,3.84ZM101.38,39.55c0-.19.02-.37.02-.56,0-1.28.02-2.57,0-3.85-.03-1.24,1.22-2.3,2.05-2.12-.08.16-.15.33-.23.49-.28.54.25,1.43.82,1.56,1.24.29,2.24-.69,1.96-1.93-.17-.75-.6-1.31-1.36-1.44-.82-.14-1.67-.14-2.36.51-.37.35-.57.81-.91,1.32,0-.61-.01-1.08,0-1.55,0-.27-.07-.37-.35-.31-1.08.23-2.17.46-3.25.69-.12.02-.22.03-.26.18-.17.58.03.92.64,1.02.44.07.64.24.63.76-.03,1.74.02,3.48.03,5.21,0,.2-.02.4-.02.61,0,.9,0,.91-.92.93-.28,0-.4.08-.37.37.02.17.02.34,0,.51-.03.28.11.34.36.34,1.62,0,3.24,0,4.86,0,.11,0,.3.03.32-.09.04-.33.08-.68,0-1-.05-.23-.35-.11-.54-.11-1.11-.01-1.11,0-1.12-1.1,0-.15-.01-.3-.02-.45ZM107.47,39.56c.29.79.73,1.49,1.38,2,1.41,1.09,3.04,1.2,4.7.74,1.44-.4,2.42-1.33,2.92-2.76.54-1.24.57-2.53.33-3.84-.56-3.06-2.96-4.44-5.93-3.97-.82.13-1.6.43-2.21,1.04-.97.95-1.39,2.13-1.59,3.45-.18,1.18,0,2.26.42,3.34ZM86.7,39.55c-.11,1.16-.12,2.27,1.5,2.64-.63.2-1.1.35-1.52.64-1.05.72-1,2.35.09,3.02.61.37,1.29.54,1.98.59,1.16.08,2.33.11,3.49.01,1.11-.1,2.14-.41,3.02-1.14,1.42-1.18,1.27-3.66-.3-4.56-.54-.31-1.16-.45-1.78-.47-1.05-.03-2.1.03-3.14-.05-.53-.04-1.2.04-1.45-.69.08-.81.43-1.13,1.22-1.1.2,0,.4.04.61.04,1.23.05,2.37-.1,3.44-.83,1.46-1,1.67-3.57.46-4.67-.26-.24-.3-.49-.2-.82.3.11.58.27.89.33.6.11,1.25-.27,1.44-.86.18-.57-.13-1.16-.73-1.4-.92-.37-2.03.19-2.22,1.15-.04.19-.13.38-.12.58.02.26-.08.24-.27.15-.99-.48-2.05-.49-3.11-.42-.85.06-1.69.28-2.37.83-.79.64-1.14,1.51-1.15,2.55,0,.91.23,1.66.89,2.33.34.34.81.45,1.16.83-.83.21-1.5.56-1.84,1.34ZM63.27,39.54c0,.22-.02.44-.02.66,0,.88,0,.9-.86.88-.35,0-.5.1-.45.45.02.13.01.27,0,.4-.02.25.05.36.33.36,1.5-.01,3,0,4.49,0,.13,0,.26,0,.31-.17.21-.66-.04-1.03-.72-1.03-.03,0-.07,0-.1,0-.31.04-.42-.08-.4-.39.02-.38-.02-.77-.03-1.16.01-1.47.03-2.93.03-4.4,0-.44.09-.85.41-1.15.68-.63,1.5-.73,2.36-.5.75.21.97.82,1.07,1.5.04.25.03.5.04.76,0,1.26.01,2.53.02,3.79,0,.3-.05.61,0,.91.07.54-.14.73-.66.64-.46-.08-.65.11-.57.57.01.08,0,.17,0,.25-.03.27.05.39.36.39,1.46-.01,2.93,0,4.39,0,.15,0,.29.01.34-.2.18-.73-.01-1-.75-1-.03,0-.07,0-.1,0-.3.04-.43-.06-.41-.39.02-.38-.01-.77-.02-1.16.01-1.72.12-3.44-.07-5.16-.16-1.52-1.01-2.45-2.44-2.69-.47-.08-.94-.08-1.41-.04-1.03.11-1.81.6-2.32,1.5-.07.12-.07.3-.28.34,0-.49-.01-.96,0-1.43.01-.32-.04-.46-.42-.37-1.02.24-2.04.45-3.07.64-.28.05-.38.15-.4.45-.03.46.08.69.59.76.73.1.72.14.72.87,0,1.7.01,3.41.02,5.11ZM96.47,33.24c-.42.05-.63.15-.49.7.32,1.31.16,2.58-.68,3.7-.57.76-1.37,1.22-2.34,1.6,1.4.1,2.59.42,3.58,1.52-.13-.64.14-.73.54-.68.1.01.2,0,.3,0,.32.04.44-.07.44-.42-.02-1.59-.01-3.17,0-4.76,0-.29-.1-.42-.37-.49-.89-.22-.89-.22-.95-1.11,0-.02-.01-.03-.03-.07ZM68.74,37.46s0,0,0,0c0-.76.02-1.52,0-2.28-.02-.65-.23-.81-.9-.79-.7.02-.99.26-1,.87,0,1.47,0,2.94,0,4.41,0,.3.07.43.4.41.37-.02.74-.03,1.11,0,.35.03.42-.13.42-.44-.02-.73,0-1.45,0-2.18ZM48.26,37.04c0,.88,0,1.75,0,2.63,0,.3.07.43.39.41.47-.02.94-.01,1.41,0,.26,0,.32-.06.23-.32-.56-1.76-.6-3.53-.01-5.3.1-.29,0-.35-.26-.34-.45.01-.91.02-1.36,0-.31-.01-.41.09-.41.4.02.84,0,1.68,0,2.53ZM59.71,38.07s-.02.07-.03.1c.43.27.85.56,1.31.8.31.17.42.34.26.68-.06.12-.21.34-.02.39.28.07.61.07.9.02.23-.05.13-.31.13-.48,0-1.43,0-2.87,0-4.3,0-.95.05-.72-.75-.93-.36-.09-.44.06-.34.36.31.99.16,2.01.2,3.02.01.26-.09.36-.35.35-.43-.01-.86,0-1.29,0ZM80.8,38.07c-.37,0-.74-.02-1.11,0-.27.02-.64-.18-.78.13-.14.31.07.66.24.95.14.24.37.39.62.5,1.15.47,2.37-.1,2.78-1.26.1-.28,0-.33-.24-.32-.51,0-1.01,0-1.52,0ZM56.66,38.07c-.52,0-1.04.01-1.57,0-.3,0-.38.11-.35.39.06.59.52,1.18,1.13,1.28,1.1.17,2.02,0,2.53-1.35.1-.26.04-.32-.22-.32-.51.01-1.01,0-1.52,0ZM85.53,35.41s0-.07,0-.1c-.01-.04-.04-.03-.05.02,0,.03.01.06.02.09,0,0,.02-.01.03-.02Z"/>
  <path class="identity-svg-3" d="M0,27.48c.53-.2,1.07-.15,1.61-.15,1.5,0,3.01.01,4.51,0,.36,0,.52.13.67.45.78,1.74,1.59,3.46,2.38,5.19.03.07.09.13.18.29.35-.75.67-1.42.98-2.1.53-1.14,1.06-2.27,1.57-3.42.11-.25.36-.41.63-.41,1.76.01,3.51.02,5.27,0,.3,0,.53.24.52.54-.03.75-.02,1.51,0,2.26,0,.31-.08.43-.4.44-.56,0-1.02.42-1.02.99,0,2.66.01,5.32-.01,7.98,0,.44.11.63.56.56.12-.02.24.01.35,0,.4-.07.51.16.51.49,0,.79,0,1.58,0,2.38,0,.2-.16.37-.36.37-2.33,0-4.66,0-6.99,0-.18,0-.32-.14-.32-.32,0-.86,0-1.73,0-2.59,0-.25.11-.31.34-.32.35-.01.8.16,1.01-.09.22-.26.07-.71.07-1.08,0-1.13,0-2.26-.09-3.43l-3.12,6.49c-.09.18-.34.18-.43,0l-3.07-6.38h-.12c0,.45,0,.89,0,1.33,0,.89.02,1.79,0,2.68,0,.28.21.5.49.49.87-.01.87,0,.87.87,0,.62-.02,1.25,0,1.87.02.39-.13.48-.49.48-1.76-.02-3.51,0-5.27-.01-.21,0-.43-.05-.64-.08,0-1.05,0-2.09,0-3.14.32,0,.64-.02.96.01.45.05.6-.1.6-.58-.02-2.63-.01-5.26-.01-7.89q0-1.06-1.04-1.07s-.07,0-.1,0l-.61-3.07ZM15.83,39.55c.01-.2.03-.4.03-.61,0-2.8,0-5.61,0-8.41,0-.97,0-1,.98-.97.55.02.44-.31.44-.61,0-.32.08-.63-.46-.61-1.21.04-2.43.03-3.65,0-.35,0-.5.13-.64.43-.55,1.21-1.11,2.42-1.67,3.63-.49,1.06-.98,2.13-1.47,3.19-.19-.05-.2-.19-.24-.29-1.01-2.19-2.03-4.37-3.03-6.57-.14-.3-.3-.39-.61-.39-1.22.01-2.43.02-3.65,0-.44-.01-.55.14-.53.55.04.76-.06.65.64.66.14,0,.27.01.41,0,.29-.03.38.08.37.37-.02.79,0,1.59,0,2.38,0,2.41.02,4.83.02,7.24,0,.15-.02.3-.02.45,0,1.04,0,1.05-1.06,1.09-.25,0-.38.07-.36.34.01.15.02.31,0,.45-.04.35.12.42.44.42,1.08-.02,2.16-.03,3.24,0,.5.02.66-.1.66-.63,0-.5-.16-.67-.63-.59-.13.02-.27,0-.4,0-.3.03-.42-.08-.41-.39,0-.38.08-.77-.05-1.15.01-.2.03-.4.03-.61,0-2.55,0-5.1,0-7.65,0-.17-.07-.37.1-.55.06.12.12.22.16.32,1.08,2.8,2.5,5.45,3.77,8.17.08.17.11.43.37.41.22-.01.34-.18.43-.38,1.06-2.31,2.26-4.56,3.24-6.91.23-.55.46-1.09.69-1.64.11.2.11.38.11.56,0,2.75.01,5.5.02,8.25,0,.18-.02.37-.02.55,0,.98,0,1.02-.96.98-.51-.02-.48.25-.47.59.01.32-.11.66.47.64,1.53-.04,3.07-.03,4.6,0,.45,0,.6-.11.61-.58,0-.49-.1-.73-.63-.64-.15.03-.3,0-.45,0-.26.02-.35-.08-.36-.34,0-.4.07-.81-.05-1.2Z"/>
  <path class="identity-svg-3" d="M31.73,11.3c-.66-.39-1.41-.62-2.02-1.12-1.14-.93-1.74-2.11-1.83-3.57-.11-1.65.34-3.09,1.64-4.16,1.31-1.07,2.89-1.49,4.51-1.24,1.63.25,3.25.1,4.87.17.64.03.64,0,.64.67,0,1.64-.01,3.28,0,4.91,0,.38-.11.49-.49.48-.86-.03-1.71,0-2.61.04,1.51.69,2.74,1.65,3.22,3.33.16-3.42,2.1-5.47,4.42-5.97,2.46-.53,5.32.2,6.71,3.02,0-.55.02-1.11,0-1.66-.02-.39.1-.56.5-.64,1.65-.32,3.3-.68,4.94-1.03.23-.05.43-.08.44.28,0,.35.24.12.35.08,1.16-.35,2.26-.29,3.28.43.4.28.61.71.91,1.26,0-.88,0-1.63,0-2.37,0-.26-.23-.2-.38-.23q-.91-.21-.91-1.15c0-.44.01-.88,0-1.32-.01-.28.12-.39.37-.44,1.68-.34,3.37-.67,5.05-1.03.43-.09.55-.02.54.43-.03,1.38,0,2.77-.02,4.15,0,.32.06.4.4.3,2.52-.75,4.91.27,5.97,2.67,1.07,2.43,1.05,4.94-.13,7.34-1.2,2.43-4.2,3.37-6.53,2.13-.01,0-.03-.02-.04-.02-.33-.14-.56-.59-.87-.53-.26.05-.46.45-.68.71-.13.15-.29.14-.46.14-.57,0-1.15-.03-1.72,0-.43.03-.58-.09-.57-.55.02-2.55.01-5.1.01-7.65v-.5c-.43.91-1.15,1.4-2.12,1.49-.96.09-1.75-.28-2.31-1.05-.13.05-.11.14-.11.22,0,1.47,0,2.94,0,4.41,0,.31.1.42.41.4.32-.02.64,0,.96,0,.27-.01.35.09.35.35-.01.84-.01,1.69,0,2.53,0,.27-.11.34-.36.34-2.28,0-4.56,0-6.84,0-.33,0-.4-.15-.39-.44.01-.76,0-1.52,0-2.44-1.41,2.45-3.46,3.38-6.08,3.02-2.69-.37-4.21-2.05-4.91-4.76-.07.35-.09.57-.15.78-.55,2.1-2.29,3.63-4.47,3.94-1.06.15-2.12.17-3.15-.16-.27-.08-.49.06-.74.05-1.05-.02-2.09-.02-3.14,0-.36,0-.5-.07-.5-.47.02-1.72.02-3.45,0-5.17,0-.36.12-.46.46-.45,1.2.02,2.4.01,3.6.01,0,.61.01,1.21,0,1.82-.01.49.21.81.67.95.79.24,1.6.26,2.38-.01.46-.16.68-.51.7-1,.02-.49-.18-.83-.63-.98-1.02-.35-2.07-.56-3.13-.76ZM57.59,7.53c-.24.7.07,1.33.76,1.55,1.13.36,1.99-.32,1.96-1.54.01-.97-.59-1.69-1.53-1.81-1.42-.19-2.43.43-2.93,1.8-.06.02-.12.12-.19,0,0-.5,0-1.01.01-1.51,0-.25-.09-.33-.33-.28-1.08.23-2.16.46-3.24.68-.11.02-.22.02-.28.17-.19.52.04.91.58.96q.71.24.71,1.06c0,1.58,0,3.15.01,4.73,0,.42-.04.85,0,1.26.05.47-.14.61-.57.54-.07-.01-.14,0-.2,0-.46-.08-.61.13-.54.56.02.12,0,.24,0,.35-.01.22.09.3.3.29,1.65,0,3.31,0,4.96,0,.14,0,.26,0,.31-.18.2-.69-.03-1.02-.73-1.02-.19,0-.37-.01-.56,0-.26.02-.36-.08-.35-.35.02-.49.01-.98.01-1.47,0-1.22.02-2.45-.03-3.67-.03-.82.13-1.52.72-2.11.42-.25.81-.6,1.42-.48-.11.18-.27.28-.27.46ZM28.8,13.35c-.24.62-.09,1.26-.1,1.89-.03,1.11,0,1.11,1.09,1.11q.91,0,.94-.93c0-.07-.04-.17.11-.21.5.66,1.14,1.12,1.98,1.26,1.43.24,2.81.1,4.04-.68.9-.56,1.65-1.29,1.75-2.45.09-.06.11-.16.12-.26.4-2.05-.52-3.7-2.52-4.57-1.18-.52-2.47-.62-3.69-1-.1-.06-.2-.13-.31-.17-1.04-.45-1.18-1.15-1.15-1.88.04-.91.61-1.53,1.52-1.8.71-.21,1.44-.18,2.15-.05.99.17,1.61.77,1.74,1.59.06.4-.21.96.16,1.17.34.19.85.05,1.29.06.07,0,.14,0,.2,0,.31.04.41-.09.4-.4-.02-.79,0-1.59,0-2.38q0-1.26-1.27-1.25-.76,0-.78.78c0,.09.06.21-.09.26-.25-.22-.46-.48-.74-.67-1.08-.73-2.27-.7-3.46-.47-2.82.55-3.85,2.85-3.13,5.25,0,.19.09.36.17.52.53,1.1,1.47,1.72,2.58,2.13.89.33,1.82.47,2.73.7,1.5.39,1.93.93,1.94,2.44-.17.84-.62,1.45-1.46,1.69-.73.21-1.47.25-2.24.14-1.11-.16-1.89-.64-2.08-1.83,0-.2,0-.4.02-.6.04-.34-.08-.49-.44-.46-.42.03-.84,0-1.26,0-.14,0-.35-.04-.33.19.02.29-.12.6.1.87ZM62.36,13.35s-.05.05-.06.08c-.12.9-.03,1.81-.05,2.72,0,.19.14.19.28.2.55.06,1.02-.02,1.33-.56.16-.27.4-.5.59-.76.2-.27.34-.21.48.04.15.25.32.46.53.67,1.15,1.14,3.47,1.1,4.75-.01.72-.63,1.31-1.36,1.35-2.38.37-.43.32-.98.36-1.48.13-1.53-.02-3.01-.87-4.35-.58-1.02-1.46-1.62-2.61-1.79-1.52-.22-2.75.23-3.52,1.71-.04-.12-.06-.15-.06-.18,0-1.85,0-3.71,0-5.56-.08-.16.16-.55-.2-.49-.68.12-1.37.2-2.02.46-.39.06-.78.14-1.17.18-.35.04-.56.13-.57.58,0,.45.18.59.56.64.1.01.2.04.3.05.37.03.48.21.48.59-.02,1.28,0,2.55,0,3.83,0,1.83-.01,3.67-.02,5.5,0,.12,0,.24.12.31ZM43.72,13.34c-.07-.53-.18-1.05-.21-1.59-.03-.47.13-.59.59-.58,1.9.03,3.8,0,5.71.01.26,0,.47,0,.46-.36-.03-1.18-.18-2.31-.91-3.3-.13-.17-.25-.37-.4-.52-1.25-1.23-2.79-1.5-4.44-1.22-1.13.19-2.09.74-2.72,1.74-.12.16-.24.32-.34.5-.78,1.37-.81,2.87-.62,4.38.04.33,0,.72.35.95-.08.35.11.62.27.89,1.12,1.95,3.01,2.54,5.05,2.28,1.53-.2,2.63-1.05,3.34-2.41.08-.14.24-.3.04-.49-.31-.3-.88-.29-1.15.05-.4.52-.9.91-1.55,1.06-1.47.34-2.66-.04-3.46-1.4ZM35.49,6.15c0-.25,0-.5,0-.76,0-.28-.14-.49-.39-.6-.84-.36-1.69-.4-2.54-.04-.34.14-.49.46-.5.81,0,.38.15.66.52.84.62.3,1.27.42,1.93.54.98.19.98.19.98-.8ZM49.58,12.12s-.03.07-.05.11c.46.29.93.58,1.39.87.15.1.3.16.23.43-.18.61-.16.62.49.61.23,0,.47.06.47-.33-.01-1.65,0-3.31,0-4.96,0-.2-.07-.32-.27-.36-.21-.04-.43-.09-.64-.13-.22-.04-.32,0-.23.26.34,1.01.21,2.07.25,3.11.01.33-.14.4-.43.39-.4-.02-.81,0-1.21,0ZM46.47,12.12c-.54,0-1.08,0-1.61,0-.17,0-.33-.03-.31.25.06.7.56,1.3,1.22,1.44,1.17.24,2.05-.25,2.48-1.38.1-.25.05-.33-.22-.32-.52.01-1.04,0-1.56,0Z"/>
  <path class="identity-svg-3" d="M75.11,5.12c-1.48-1.09-1.84-2.45-1.08-3.84.49-.88,1.7-1.36,2.83-1.1,1.09.25,1.86,1.14,1.91,2.21.03.67-.04,1.31-.45,1.88-.09.12-.16.21.08.25.28.05.15.3.15.46,0,2.84,0,5.67,0,8.51,0,.14,0,.27,0,.41,0,.26.17.24.35.24.21,0,.24-.1.23-.29-.07-1.33.37-2.45,1.45-3.28.15-.12.28-.2.02-.35-1.37-.75-1.54-2.93-.09-4.21.84-.74,1.85-1.12,2.94-1.24,1.47-.17,2.94-.19,4.28.6,1.28.76,1.94,1.91,1.98,3.38.05,1.64.02,3.28,0,4.91,0,.38.1.49.48.49.83-.02.83,0,.83.82,0,.35-.04.72,0,1.06.09.58-.2.86-.68,1.07-1.22.54-2.5.77-3.7.11-.59-.32-.95-.3-1.49-.02-1.32.69-3.93.53-5.13-.84-.03-.04-.08-.05-.15-.1-.18.25-.08.52-.09.77,0,.24-.09.33-.33.33-2.16,0-4.32,0-6.48,0-.21,0-.31-.06-.31-.29,0-.88,0-1.76,0-2.63,0-.36.24-.3.45-.3q.79-.02.79-.82c0-1.42-.01-2.84,0-4.25,0-.39-.1-.57-.51-.62-.74-.1-.74-.13-.74-.86,0-.49.03-.98,0-1.47-.03-.38.13-.5.46-.56.65-.12,1.32-.21,1.98-.43ZM75.02,1.68c-.49.66-.44,1.73.11,2.22.56.5,1.6.51,2.15.03.61-.53.69-1.53.17-2.25-.63-.75-1.82-.75-2.43,0ZM80.68,7.52c-.05.12-.13.24-.16.36-.14.64.16,1.28.7,1.54.57.27,1.32.14,1.68-.29.4-.48.42-1.11.03-1.62-.09-.13-.18-.26-.27-.4,1.07-.53,2.28-.36,3.03.43.32.56.41,1.17.41,1.8,0,1.22,0,1.23-1.2,1.22-1.09,0-2.16.05-3.17.49-.99.43-1.55,1.26-1.54,2.28-.14.73.03,1.39.38,2.03.86,1.59,4.48,1.67,5.39-.08.08-.15.11-.36.31-.42.11.06.09.15.1.23.1.89.57,1.37,1.46,1.45.56.05,1.11,0,1.65-.17.57-.17.66-.33.55-.98-.08-.47-.45-.18-.69-.26-.08-.02-.17-.01-.25,0-.3.03-.37-.12-.37-.39.01-.47,0-.94,0-1.42,0-1.54.01-3.08,0-4.62,0-.42-.09-.83-.32-1.19-.24-.65-.71-1.13-1.33-1.38-1.85-.74-3.68-.65-5.45.3-.43.23-.81.55-.93,1.07ZM77.54,7.54c0-.49,0-.98.02-1.47.01-.3-.08-.38-.38-.32-1,.22-2,.45-3.02.6-.6.09-.47.49-.47.85-.01.46.35.29.58.35.59.07.69.42.67.96-.04,1.61-.02,3.22-.02,4.83,0,.32,0,.64,0,.96,0,.82,0,.84-.81.84-.33,0-.47.09-.43.43.02.15.01.3,0,.45-.02.23.08.33.32.33,1.5,0,3,0,4.5,0,.16,0,.29-.02.34-.22.19-.69-.01-1.01-.71-.98-.44.02-.63-.08-.6-.57.02-.41.13-.84-.09-1.23.12-.08.11-.2.11-.32,0-1.83-.01-3.67-.02-5.5ZM83.87,9.57c.36,0,.68,0,.99,0,.1,0,.2,0,.26-.11.2-.36-.21-1.44-.6-1.57-.22-.07-.37-.05-.35.23.04.49-.08.96-.3,1.44Z"/>
  <path class="identity-svg-3" d="M29.51,34.3c0-.78,0-1.55-.01-2.33,0-.22.01-.37.29-.43,1.73-.35,3.46-.72,5.19-1.09.51-.11.34.31.44.58.76-.34,1.55-.42,2.37-.4,2.22.06,3.69,1.34,3.98,3.53.23,1.73.05,3.47.1,5.21.02.8-.09.72.7.69.49-.02.64.12.61.61-.04.72-.02,1.45,0,2.18,0,.32-.09.45-.43.45-4.29,0-8.58,0-12.87,0-.33,0-.39-.14-.39-.42.01-.79.02-1.59,0-2.38,0-.33.1-.47.43-.43.15.02.3,0,.46,0,.25.02.37-.06.36-.34,0-1.64,0-3.28,0-4.91,0-.25-.1-.39-.34-.41-.3-.03-.59-.17-.9-.12h0ZM31.77,39.54c0,.22-.02.44-.02.65,0,.87,0,.89-.85.89-.3,0-.44.08-.4.4.02.15.01.3,0,.45-.02.25.06.37.34.36,1.48,0,2.96,0,4.45,0,.2,0,.29-.05.31-.28.08-.88.07-.91-.82-.92-.3,0-.42-.07-.4-.39.02-.39,0-.77-.01-1.16,0-1.47.02-2.93.01-4.4,0-.42.11-.8.39-1.12.51-.58,1.63-.83,2.44-.53.79.29,1,.95,1.03,1.69.03.66.01,1.31.02,1.97,0,.79.02,1.58.03,2.37-.01.35-.06.71-.03,1.06.03.41-.12.51-.51.5-.78-.02-.69-.16-.72.72-.01.39.11.48.49.48,1.28-.02,2.56,0,3.85,0,.88,0,.92-.06.82-.94-.02-.19-.09-.25-.28-.27-.33-.03-.78.17-.95-.1-.16-.26-.05-.68-.06-1.04,0-.13-.01-.27-.02-.4,0-1.6.05-3.21-.02-4.81-.08-1.77-.98-2.8-2.54-3.05-.45-.07-.91-.08-1.36-.03-.99.1-1.75.57-2.27,1.42-.08.13-.09.32-.31.39,0-.49-.02-.94,0-1.39.01-.33-.06-.46-.42-.38-1,.23-2.01.45-3.02.63-.34.06-.39.22-.43.53-.09.61.3.69.7.71.49.03.59.25.58.71-.02,1.76,0,3.51.01,5.27ZM37.23,37.49s0,0,0,0c0-.78.02-1.55,0-2.33-.02-.61-.23-.78-.87-.76-.66.02-.96.27-.96.83,0,1.15,0,2.3,0,3.44,0,1.48,0,1.47,1.46,1.42.32-.01.4-.13.39-.42-.01-.73,0-1.45,0-2.18Z"/>
  <path class="identity-svg-3" d="M29.51,34.3c.07.73.32,1.44.37,2.18.16,2.31-.64,4.98-2.82,6.25-2.78,1.62-7.7,1.04-8.83-3.63-.5-2.08-.33-4.08.81-5.94.88-1.43,2.21-2.22,3.84-2.45,2.06-.29,3.93.14,5.41,1.72.43.46.75.99,1.01,1.56.05.12.06.27.22.31,0,0,0,0,0,0ZM19.45,39.56c.25.82.74,1.47,1.4,1.99,1.09.85,2.36,1.07,3.68.94,1.87-.19,3.2-1.14,3.89-2.93.57-1.37.6-2.79.26-4.21-.44-1.78-1.48-3.09-3.31-3.53-1.87-.46-3.63-.2-5.04,1.27-1.39,1.45-1.8,4.53-.89,6.48Z"/>
  <path class="identity-svg-4" d="M69.77,39.54c0-1.26,0-2.53-.02-3.79,0-.25,0-.51-.04-.76-.1-.68-.32-1.3-1.07-1.5-.86-.24-1.68-.14-2.36.5-.32.3-.42.71-.41,1.15,0,1.47-.02,2.93-.03,4.4-.86,0-1.72,0-2.57,0,0-1.7-.02-3.41-.02-5.11,0-.74,0-.78-.72-.87-.51-.07-.62-.3-.59-.76.02-.3.11-.39.4-.45,1.03-.19,2.05-.41,3.07-.64.38-.09.43.05.42.37-.02.47,0,.94,0,1.43.22-.04.22-.23.28-.34.52-.9,1.3-1.39,2.32-1.5.47-.05.95-.04,1.41.04,1.43.25,2.28,1.17,2.44,2.69.19,1.72.08,3.44.07,5.16-.86,0-1.72,0-2.58,0Z"/>
  <path class="identity-svg-4" d="M86.7,39.55c.34-.78,1.01-1.13,1.84-1.34-.35-.38-.82-.49-1.16-.83-.65-.67-.89-1.42-.89-2.33,0-1.03.35-1.91,1.15-2.55.67-.54,1.51-.77,2.37-.83,1.06-.07,2.12-.06,3.11.42.18.09.28.11.27-.15-.01-.2.08-.39.12-.58.19-.96,1.3-1.52,2.22-1.15.6.24.91.83.73,1.4-.18.59-.84.97-1.44.86-.32-.06-.59-.22-.89-.33-.1.33-.06.58.2.82,1.21,1.1,1,3.67-.46,4.67-1.07.73-2.22.88-3.44.83-.2,0-.4-.04-.61-.04-.8-.03-1.15.29-1.22,1.1-.63,0-1.26,0-1.89,0ZM89.11,35.16c.01.24-.02.56.06.87.21.86.77,1.28,1.69,1.26.92-.02,1.43-.42,1.61-1.29.14-.67.12-1.34-.03-2-.13-.58-.5-.94-1.08-1.08-1.29-.32-2.22.37-2.25,1.7,0,.15,0,.3,0,.54Z"/>
  <path class="identity-svg-4" d="M107.47,39.56c-.42-1.08-.61-2.17-.42-3.34.2-1.32.63-2.51,1.59-3.45.61-.6,1.39-.91,2.21-1.04,2.97-.47,5.37.91,5.93,3.97.24,1.31.22,2.6-.33,3.84-.8,0-1.6,0-2.4,0,.11-.87.07-1.75.07-2.63,0-.76.06-1.52-.09-2.27-.2-1.06-.86-1.64-1.91-1.68-1.22-.04-1.89.43-2.18,1.52-.07.28-.09.57-.09.85,0,1.4.02,2.8.02,4.2-.81,0-1.61.01-2.42.02Z"/>
  <path class="identity-svg-5" d="M86.7,39.55c.63,0,1.26,0,1.89,0,.24.72.91.65,1.45.69,1.04.07,2.09.01,3.14.05.62.02,1.24.15,1.78.47,1.57.9,1.72,3.38.3,4.56-.88.73-1.91,1.04-3.02,1.14-1.16.1-2.33.07-3.49-.01-.69-.05-1.37-.22-1.98-.59-1.09-.67-1.14-2.3-.09-3.02.42-.29.89-.43,1.52-.64-1.63-.36-1.61-1.48-1.5-2.64ZM90.88,42.61s0,0,0-.01c-.52,0-1.04,0-1.57,0-.67,0-1.12.34-1.22.94-.13.8.1,1.35.78,1.55,1.39.4,2.8.38,4.18,0,.74-.2,1.09-.81,1-1.44-.1-.65-.52-.98-1.35-1.02-.61-.03-1.21,0-1.82,0Z"/>
  <path class="identity-svg-4" d="M51.32,39.55c-.75-1.79-.74-5.13,1.24-6.8,1.59-1.35,3.42-1.45,5.27-.67,1.77.74,2.43,2.28,2.57,4.09.07.94.05.94-.89.94-1.77,0-3.54.01-5.31,0-.41,0-.51.12-.5.51.01.66.09,1.31.35,1.92-.91,0-1.81,0-2.72.01ZM55.67,35.93c.56,0,1.11-.01,1.67,0,.26,0,.35-.08.35-.34-.01-.48-.06-.94-.21-1.39-.29-.88-.92-1.33-1.82-1.31-.88.02-1.54.51-1.8,1.36-.13.44-.14.9-.17,1.35-.02.28.11.34.36.34.54-.01,1.08,0,1.62,0Z"/>
  <path class="identity-svg-4" d="M75.48,39.57c-.9-2.09-.48-5.05.94-6.52,1.47-1.52,3.27-1.74,5.18-1.13,1.93.63,2.76,2.16,2.93,4.09.1,1.1.07,1.1-1.04,1.1-1.72,0-3.44.01-5.16-.01-.41,0-.5.13-.5.51,0,.67.1,1.31.34,1.93-.9.01-1.8.02-2.7.03ZM79.84,35.93c.2,0,.41.01.61,0,.45-.03,1.12.21,1.29-.1.27-.47.07-1.11-.12-1.66-.3-.87-.9-1.29-1.79-1.28-.89,0-1.51.47-1.8,1.34-.15.44-.16.89-.19,1.35-.02.3.11.37.38.36.54-.02,1.08,0,1.62,0Z"/>
  <path class="identity-svg-4" d="M98.83,39.55c-.02-1.74-.06-3.48-.03-5.21,0-.52-.19-.69-.63-.76-.61-.1-.81-.44-.64-1.02.04-.15.14-.16.26-.18,1.08-.23,2.17-.45,3.25-.69.28-.06.35.04.35.31-.02.47,0,.94,0,1.55.33-.51.54-.97.91-1.32.69-.66,1.53-.66,2.36-.51.75.13,1.19.69,1.36,1.44.28,1.24-.72,2.22-1.96,1.93-.57-.14-1.1-1.02-.82-1.56.08-.16.15-.33.23-.49-.83-.18-2.08.88-2.05,2.12.03,1.28,0,2.57,0,3.85,0,.19-.02.37-.02.56-.85,0-1.7,0-2.55,0Z"/>
  <path class="identity-svg-4" d="M44.69,39.54c-.09-1.28-.02-2.56-.04-3.84,0-.71-.01-1.42,0-2.13,0-.29-.06-.46-.39-.41-.03,0-.07,0-.1,0-.92-.01-1.03-.15-.88-1.08.03-.23.16-.23.31-.22.94.1,1.43-.43,1.72-1.24.15-.43.35-.84.51-1.26.09-.24.22-.33.48-.33.96,0,.96-.02.96.95,0,.51.02,1.01,0,1.52-.01.29.09.38.38.37.57-.02,1.15,0,1.72,0,.24,0,.31.07.33.31.05.98.06.97-.93.99-.48,0-1.1-.22-1.41.1-.28.29-.08.9-.08,1.37-.02,1.64-.02,3.27-.02,4.91-.85,0-1.7,0-2.55,0Z"/>
  <path class="identity-svg-5" d="M75.48,39.57c.9-.01,1.8-.02,2.7-.03,1.04,1.68,3.76,1.68,4.95,0,.32,0,.64,0,.96-.01.29.12.17.31.08.5-.65,1.33-1.71,2.18-3.17,2.41-2,.31-3.76-.13-5.01-1.87-.22-.3-.39-.63-.5-.99Z"/>
  <path class="identity-svg-5" d="M51.32,39.55c.91,0,1.81,0,2.72-.01.93,1.61,3.7,1.76,4.93,0,.32,0,.64,0,.96,0,.33.1.17.3.09.48-.66,1.35-1.73,2.19-3.21,2.43-2.21.36-4.21-.37-5.28-2.38-.09-.16-.14-.34-.21-.51Z"/>
  <path class="identity-svg-5" d="M114.06,39.54c.8,0,1.6,0,2.4,0-.5,1.42-1.48,2.36-2.92,2.76-1.66.46-3.28.35-4.7-.74-.65-.5-1.09-1.21-1.38-2,.81,0,1.61-.01,2.42-.02.23.68.51,1.34,1.29,1.54,1.22.32,2.42.11,2.88-1.54Z"/>
  <path class="identity-svg-5" d="M98.83,39.55c.85,0,1.7,0,2.55,0,0,.15.02.3.02.45,0,1.09,0,1.08,1.12,1.1.19,0,.49-.12.54.11.07.32.03.67,0,1-.01.12-.2.09-.32.09-1.62,0-3.24,0-4.86,0-.25,0-.38-.06-.36-.34.02-.17.02-.34,0-.51-.03-.29.09-.37.37-.37.92-.02.92-.03.92-.93,0-.2.01-.4.02-.61Z"/>
  <path class="identity-svg-5" d="M63.27,39.54c.86,0,1.72,0,2.57,0,.01.39.04.77.03,1.16-.01.31.09.44.4.39.03,0,.07,0,.1,0,.68,0,.93.37.72,1.03-.06.18-.18.17-.31.17-1.5,0-3,0-4.49,0-.28,0-.35-.11-.33-.36.01-.13.02-.27,0-.4-.05-.36.09-.46.45-.45.85.01.85,0,.86-.88,0-.22.01-.44.02-.66Z"/>
  <path class="identity-svg-5" d="M69.77,39.54c.86,0,1.72,0,2.58,0,0,.39.04.77.02,1.16-.02.32.11.43.41.39.03,0,.07,0,.1,0,.74,0,.93.27.75,1-.05.21-.19.2-.34.2-1.46,0-2.93,0-4.39,0-.3,0-.39-.12-.36-.39,0-.08.01-.17,0-.25-.08-.46.11-.65.57-.57.52.09.73-.1.66-.64-.04-.3,0-.6,0-.91Z"/>
  <path class="identity-svg-5" d="M44.69,39.54c.85,0,1.7,0,2.55,0,0,.29.04.58.01.86-.06.48.09.67.6.62.47-.04.94-.01,1.42,0,.18,0,.43-.03.39.25-.04.3.23.76-.23.88-1.2.31-2.41.48-3.64.17-.58-.15-.93-.55-1.05-1.12-.11-.54-.17-1.1-.06-1.65Z"/>
  <path class="identity-svg-4" d="M59.92,39.53c-.32,0-.64,0-.96,0q.25-.55.96,0Z"/>
  <path class="identity-svg-4" d="M84.08,39.53c-.32,0-.64,0-.96.01q.25-.54.96-.01Z"/>
  <path class="identity-svg-4" d="M2.78,39.54c0-2.41-.02-4.83-.02-7.24,0-.79-.01-1.59,0-2.38,0-.29-.08-.41-.37-.37-.13.02-.27,0-.41,0-.7-.01-.61.1-.64-.66-.02-.41.09-.56.53-.55,1.22.03,2.43.02,3.65,0,.31,0,.47.09.61.39.99,2.2,2.01,4.38,3.03,6.57.05.1.06.24.24.29.49-1.06.98-2.13,1.47-3.19.56-1.21,1.13-2.41,1.67-3.63.13-.3.28-.43.64-.43,1.22.03,2.43.04,3.65,0,.54-.02.46.29.46.61,0,.3.11.63-.44.61-.97-.03-.98,0-.98.97,0,2.8,0,5.61,0,8.41,0,.2-.02.4-.03.61-.91,0-1.82,0-2.74,0,0-2.75-.01-5.5-.02-8.25,0-.18,0-.36-.11-.56-.23.55-.46,1.09-.69,1.64-.98,2.35-2.18,4.6-3.24,6.91-.09.2-.21.36-.43.38-.27.02-.3-.25-.37-.41-1.26-2.72-2.68-5.37-3.77-8.17-.04-.11-.1-.21-.16-.32-.17.18-.1.38-.1.55,0,2.55,0,5.1,0,7.65,0,.2-.02.4-.03.61-.46,0-.93,0-1.39,0Z"/>
  <path class="identity-svg-5" d="M13.1,39.54c.91,0,1.82,0,2.74,0,.13.4.05.8.05,1.2,0,.26.1.37.36.34.15-.01.31.02.45,0,.53-.1.64.14.63.64,0,.48-.15.59-.61.58-1.53-.03-3.07-.04-4.6,0-.57.01-.45-.32-.47-.64-.01-.33-.05-.61.47-.59.95.04.95,0,.96-.98,0-.18.01-.37.02-.55Z"/>
  <path class="identity-svg-5" d="M2.78,39.54c.46,0,.93,0,1.39,0,.13.38.06.77.05,1.15,0,.32.11.43.41.39.13-.02.27.02.4,0,.47-.08.63.09.63.59,0,.53-.16.65-.66.63-1.08-.04-2.16-.02-3.24,0-.32,0-.48-.07-.44-.42.02-.15.01-.3,0-.45-.03-.27.1-.33.36-.34,1.05-.04,1.05-.05,1.06-1.09,0-.15.02-.3.02-.45Z"/>
  <path class="identity-svg-2" d="M49.35,7.52c.73.98.88,2.12.91,3.3,0,.36-.2.36-.46.36-1.9,0-3.8.01-5.71-.01-.46,0-.62.11-.59.58.03.54.15,1.06.21,1.59-.85,0-1.7,0-2.55,0-.35-.23-.31-.62-.35-.95-.19-1.51-.16-3,.62-4.38.1-.17.23-.33.34-.5.76,0,1.52.02,2.29.03-.44.62-.5,1.34-.56,2.06-.02.29.09.38.37.37,1.09-.01,2.19-.01,3.28,0,.29,0,.4-.09.37-.38-.06-.72-.13-1.44-.57-2.06.79,0,1.59-.02,2.38-.03Z"/>
  <path class="identity-svg-2" d="M32.53,7.52c1.22.39,2.5.49,3.69,1,2,.87,2.92,2.52,2.52,4.57-.02.1-.03.2-.12.26-.7,0-1.41,0-2.11,0-.01-1.51-.44-2.05-1.94-2.44-.91-.24-1.85-.37-2.73-.7-1.1-.42-2.04-1.03-2.58-2.13-.08-.17-.17-.33-.17-.52,1.15,0,2.31-.02,3.46-.03Z"/>
  <path class="identity-svg-1" d="M32.53,7.52c-1.15,0-2.31.02-3.46.03-.72-2.4.31-4.7,3.13-5.25,1.19-.23,2.38-.26,3.46.47.28.19.5.45.74.67.14-.06.08-.17.09-.26q.02-.78.78-.78,1.27,0,1.27,1.25c0,.79-.01,1.59,0,2.38,0,.31-.09.44-.4.4-.07,0-.13,0-.2,0-.44,0-.96.13-1.29-.06-.37-.21-.09-.77-.16-1.17-.13-.82-.75-1.42-1.74-1.59-.72-.12-1.44-.15-2.15.05-.91.27-1.48.89-1.52,1.8-.03.73.11,1.43,1.15,1.88.11.05.21.11.31.17Z"/>
  <path class="identity-svg-1" d="M64.87,1.7c0,1.85,0,3.71,0,5.56,0,.03.02.06.06.18.76-1.48,2-1.93,3.52-1.71,1.15.17,2.03.77,2.61,1.79-1,0-2.01.02-3.01.03-.74-.31-1.48-.28-2.22,0-1.19,0-2.38-.01-3.56-.02,0-1.28-.03-2.55,0-3.83,0-.38-.11-.56-.48-.59-.1,0-.2-.03-.3-.05-.38-.04-.57-.18-.56-.64,0-.45.21-.53.57-.58.39-.05.78-.12,1.17-.18.74,0,1.48.01,2.22.02Z"/>
  <path class="identity-svg-6" d="M71.56,13.35c-.04,1.03-.63,1.76-1.35,2.38-1.28,1.12-3.59,1.16-4.75.01-.21-.2-.39-.42-.53-.67-.15-.25-.29-.31-.48-.04-.19.26-.43.48-.59.76-.31.54-.78.62-1.33.56-.14-.01-.29-.02-.28-.2.02-.91-.07-1.82.05-2.72,0-.03.04-.05.06-.08.84,0,1.68,0,2.52-.01.02.51.28.89.68,1.18,1.12.8,3,.56,3.48-1.18.84,0,1.68.01,2.52.02Z"/>
  <path class="identity-svg-6" d="M36.5,13.34c.7,0,1.41,0,2.11,0-.1,1.16-.85,1.89-1.75,2.45-1.24.77-2.62.92-4.04.68-.84-.14-1.48-.6-1.98-1.26-.14.03-.1.13-.11.21q-.02.93-.94.93c-1.1,0-1.12,0-1.09-1.11.02-.63-.13-1.27.1-1.89.64,0,1.28,0,1.92,0,.19,1.19.97,1.66,2.08,1.83.77.11,1.51.07,2.24-.14.84-.24,1.3-.85,1.46-1.69Z"/>
  <path class="identity-svg-6" d="M41.17,13.35c.85,0,1.7,0,2.55,0,.79,1.35,1.98,1.73,3.46,1.4.65-.15,1.15-.54,1.55-1.06.26-.34.84-.35,1.15-.05.2.2.04.35-.04.49-.71,1.36-1.81,2.21-3.34,2.41-2.04.26-3.93-.33-5.05-2.28-.16-.27-.35-.54-.27-.89Z"/>
  <path class="identity-svg-2" d="M71.56,13.35c-.84,0-1.68-.01-2.52-.02.23-1.14.06-2.29.11-3.43.04-.97-.3-1.78-1.11-2.35,1,0,2.01-.02,3.01-.03.85,1.34,1,2.82.87,4.35-.04.5.02,1.05-.36,1.48Z"/>
  <path class="identity-svg-2" d="M64.88,13.34c-.84,0-1.68,0-2.52.01-.12-.07-.12-.19-.12-.31,0-1.83.01-3.67.02-5.5,1.19,0,2.38.01,3.56.02-.53.39-.96.83-.95,1.56.01,1.41,0,2.82.01,4.23Z"/>
  <path class="identity-svg-2" d="M55.66,7.53c.07.11.13.01.19,0,.2,0,.4.02.59.03-.58.59-.75,1.29-.72,2.11.05,1.22.02,2.45.03,3.67-.88,0-1.75,0-2.63,0,0-1.58-.01-3.15-.01-4.73q0-.82-.71-1.06c1.09,0,2.17-.02,3.26-.02Z"/>
  <path class="identity-svg-6" d="M53.13,13.34c.88,0,1.75,0,2.63,0,0,.49,0,.98-.01,1.47,0,.27.09.37.35.35.18-.01.37,0,.56,0,.7,0,.93.33.73,1.02-.05.18-.17.18-.31.18-1.65,0-3.31,0-4.96,0-.21,0-.32-.08-.3-.29,0-.12.02-.24,0-.35-.07-.43.08-.65.54-.56.07.01.14,0,.2,0,.43.07.62-.07.57-.54-.04-.42,0-.84,0-1.26Z"/>
  <path class="identity-svg-1" d="M44.07,7.55c-.76,0-1.52-.02-2.29-.03.64-1,1.59-1.55,2.72-1.74,1.65-.27,3.19-.01,4.44,1.22.15.15.27.34.4.52-.79,0-1.59.02-2.38.03-.65-.76-2.04-.9-2.9,0Z"/>
  <path class="identity-svg-1" d="M56.45,7.55c-.2,0-.4-.02-.59-.03.5-1.37,1.51-1.99,2.93-1.8.93.12,1.54.84,1.53,1.81-.9,0-1.81,0-2.71,0,0-.18.16-.28.27-.46-.6-.12-.99.22-1.42.48Z"/>
  <path class="identity-svg-1" d="M55.66,7.53c-1.09,0-2.17.02-3.26.02-.54-.05-.77-.44-.58-.96.05-.15.16-.14.28-.17,1.08-.23,2.16-.45,3.24-.68.24-.05.34.03.33.28-.01.5-.01,1.01-.01,1.51Z"/>
  <path class="identity-svg-2" d="M57.59,7.53c.9,0,1.81,0,2.71,0,.04,1.22-.82,1.9-1.96,1.54-.69-.22-1-.84-.76-1.55Z"/>
  <path class="identity-svg-2" d="M30.72,13.35c-.64,0-1.28,0-1.92,0-.22-.27-.08-.58-.1-.87-.01-.23.19-.19.33-.19.42,0,.84.02,1.26,0,.36-.03.48.12.44.46-.02.2-.01.4-.02.6Z"/>
  <path class="identity-svg-6" d="M64.87,1.7c-.74,0-1.48-.01-2.22-.02.65-.26,1.34-.35,2.02-.46.36-.06.12.32.2.49Z"/>
  <path class="identity-svg-2" d="M88.39,7.53c.23.36.32.78.32,1.19,0,1.54,0,3.08,0,4.62-.88,0-1.75-.01-2.63-.02,0-.15.02-.3.02-.45q0-1.23-1.21-1.21c-1.48.02-1.82.29-2.17,1.68-.85,0-1.69,0-2.54,0,0-1.01.56-1.85,1.54-2.28,1.01-.44,2.09-.5,3.17-.49,1.21,0,1.2,0,1.2-1.22,0-.64-.09-1.24-.41-1.8.9,0,1.79-.02,2.69-.02Z"/>
  <path class="identity-svg-6" d="M80.19,13.35c.85,0,1.69,0,2.54,0,.03.42.01.84.33,1.18.42.45,1.48.59,2.18.3.62-.25.85-.68.84-1.5.88,0,1.75.01,2.63.02,0,.47.02.94,0,1.42,0,.27.07.42.37.39.08,0,.17-.02.25,0,.23.07.61-.21.69.26.11.66.01.81-.55.98-.54.16-1.09.22-1.65.17-.88-.08-1.36-.56-1.46-1.45,0-.08.01-.17-.1-.23-.2.06-.23.27-.31.42-.9,1.74-4.53,1.67-5.39.08-.35-.64-.52-1.3-.38-2.03Z"/>
  <path class="identity-svg-2" d="M74.92,13.34c0-1.61-.02-3.22.02-4.83.01-.54-.08-.89-.67-.96,1.09,0,2.18-.01,3.27-.02,0,1.83.01,3.67.02,5.5,0,.12.01.24-.11.32-.84,0-1.68,0-2.52,0Z"/>
  <path class="identity-svg-6" d="M74.92,13.34c.84,0,1.68,0,2.52,0,.22.4.11.83.09,1.23-.03.49.16.59.6.57.7-.03.91.29.71.98-.05.19-.18.22-.34.22-1.5,0-3,0-4.5,0-.24,0-.34-.1-.32-.33,0-.15.02-.31,0-.45-.04-.34.1-.43.43-.43.81,0,.81-.01.81-.84,0-.32,0-.64,0-.96Z"/>
  <path class="identity-svg-1" d="M88.39,7.53c-.9,0-1.79.02-2.69.02-.75-.79-1.96-.96-3.03-.43.09.13.18.27.27.4-.75,0-1.5,0-2.25,0,.11-.53.5-.84.93-1.07,1.76-.95,3.6-1.04,5.45-.3.62.25,1.09.72,1.33,1.38Z"/>
  <path class="identity-svg-1" d="M77.45,1.68c.52.72.44,1.71-.17,2.25-.56.48-1.59.47-2.15-.03-.55-.49-.6-1.56-.11-2.22.81,0,1.62,0,2.43,0Z"/>
  <path class="identity-svg-1" d="M77.54,7.54c-1.09,0-2.18.01-3.27.02-.23-.06-.59.11-.58-.35,0-.37-.13-.76.47-.85,1.01-.16,2.01-.38,3.02-.6.3-.07.4.02.38.32-.02.49-.02.98-.02,1.47Z"/>
  <path class="identity-svg-2" d="M80.68,7.52c.75,0,1.5,0,2.25,0,.38.51.37,1.14-.03,1.62-.36.43-1.11.55-1.68.29-.54-.25-.84-.9-.7-1.54.03-.13.11-.24.16-.36Z"/>
  <path class="identity-svg-6" d="M77.45,1.68c-.81,0-1.62,0-2.43,0,.62-.75,1.8-.75,2.43,0Z"/>
  <path class="identity-svg-4" d="M38.28,39.54c-.01-.79-.02-1.58-.03-2.37,0-.66,0-1.32-.02-1.97-.03-.75-.25-1.4-1.03-1.69-.81-.3-1.93-.05-2.44.53-.28.32-.39.69-.39,1.12,0,1.47,0,2.93-.01,4.4-.86,0-1.72,0-2.58,0,0-1.76-.03-3.51-.01-5.27,0-.46-.09-.68-.58-.71-.41-.02-.8-.1-.7-.71.05-.31.09-.47.43-.53,1.01-.18,2.02-.4,3.02-.63.37-.08.44.05.42.38-.02.45,0,.91,0,1.39.23-.07.24-.26.31-.39.52-.85,1.28-1.32,2.27-1.42.46-.05.91-.04,1.36.03,1.56.24,2.47,1.27,2.54,3.05.07,1.6.02,3.21.02,4.81-.86,0-1.72,0-2.57,0Z"/>
  <path class="identity-svg-5" d="M38.28,39.54c.86,0,1.72,0,2.57,0,0,.13.01.27.02.4.01.35-.1.78.06,1.04.17.27.62.07.95.1.19.01.26.07.28.27.11.88.06.94-.82.94-1.28,0-2.56-.01-3.85,0-.38,0-.5-.09-.49-.48.03-.88-.06-.74.72-.72.39,0,.54-.09.51-.5-.03-.35.02-.71.03-1.06Z"/>
  <path class="identity-svg-5" d="M31.77,39.54c.86,0,1.72,0,2.58,0,0,.39.03.78.01,1.16-.02.32.1.39.4.39.9,0,.91.04.82.92-.02.23-.11.28-.31.28-1.48,0-2.96,0-4.45,0-.27,0-.36-.11-.34-.36.01-.15.02-.3,0-.45-.04-.31.1-.4.4-.4.85,0,.85-.02.85-.89,0-.22.02-.44.02-.65Z"/>
  <path class="identity-svg-4" d="M19.45,39.56c-.91-1.95-.5-5.02.89-6.48,1.41-1.47,3.17-1.73,5.04-1.27,1.83.45,2.87,1.75,3.31,3.53.35,1.42.31,2.84-.26,4.21-.81,0-1.62-.02-2.43-.03.13-1.55.1-3.1.03-4.65-.05-1.01-.64-1.67-1.44-1.87-1.53-.38-2.7.45-2.76,2.02-.06,1.5-.07,3,.02,4.51-.8,0-1.6.02-2.4.03Z"/>
  <path class="identity-svg-5" d="M19.45,39.56c.8,0,1.6-.02,2.4-.03.21.7.52,1.33,1.29,1.55,1.12.31,2.48.13,2.86-1.55.81,0,1.62.02,2.43.03-.69,1.79-2.02,2.74-3.89,2.93-1.33.13-2.6-.09-3.68-.94-.67-.52-1.15-1.18-1.4-1.99Z"/>
  <path class="identity-svg-3" d="M89.11,35.16c0-.23,0-.39,0-.54.04-1.33.96-2.03,2.25-1.7.58.14.95.51,1.08,1.08.15.66.16,1.34.03,2-.18.87-.69,1.27-1.61,1.29-.93.02-1.48-.4-1.69-1.26-.08-.32-.05-.64-.06-.87ZM90.12,35.05c0,.18,0,.37,0,.55.03.51.24.71.72.71.45,0,.68-.23.69-.68,0-.35.02-.71,0-1.06-.03-.57-.18-.7-.75-.7-.52,0-.65.15-.67.72,0,.15,0,.3,0,.45Z"/>
  <path class="identity-svg-3" d="M114.06,39.54c-.46,1.65-1.65,1.86-2.88,1.54-.78-.2-1.06-.86-1.29-1.54,0-1.4-.02-2.8-.02-4.2,0-.29.01-.57.09-.85.29-1.09.96-1.57,2.18-1.52,1.05.04,1.71.62,1.91,1.68.14.75.08,1.52.09,2.27,0,.88.04,1.76-.07,2.63ZM113.12,36.89c-.04-.55.1-1.3-.06-2.03-.15-.7-.48-.97-1.1-.94-.67.04-.98.28-1.05.98-.17,1.49-.14,2.99.01,4.48.06.55.36.78.93.8.87.03,1.24-.31,1.27-1.24.03-.62,0-1.25,0-2.06Z"/>
  <path class="identity-svg-3" d="M90.88,42.61c.61,0,1.21-.02,1.82,0,.83.04,1.25.37,1.35,1.02.1.64-.26,1.24-1,1.44-1.38.38-2.8.41-4.18,0-.68-.2-.92-.75-.78-1.55.1-.6.55-.94,1.22-.94.52,0,1.04,0,1.57,0,0,0,0,0,0,.01ZM91.01,43.62s0,0,0,0c-.5,0-1.01,0-1.51,0-.2,0-.44-.04-.46.26-.01.26.19.32.4.37.85.17,1.71.09,2.56.07.23,0,.46-.08.68-.15.17-.05.4-.1.35-.35-.04-.22-.25-.19-.41-.19-.54,0-1.07,0-1.61,0Z"/>
  <path class="identity-svg-3" d="M55.67,35.93c-.54,0-1.08,0-1.62,0-.25,0-.37-.06-.36-.34.03-.45.04-.91.17-1.35.26-.85.91-1.35,1.8-1.36.9-.02,1.53.43,1.82,1.31.15.45.2.92.21,1.39,0,.27-.08.35-.35.34-.56-.02-1.11,0-1.67,0ZM55.63,34.92c.12,0,.24.02.35,0,.2-.04.51.14.57-.14.06-.3-.11-.59-.38-.77-.37-.24-.97-.12-1.22.25-.11.17-.23.37-.17.56.08.22.32.08.49.11.11.02.23,0,.35,0Z"/>
  <path class="identity-svg-3" d="M79.84,35.93c-.54,0-1.08-.01-1.62,0-.27,0-.4-.06-.38-.36.03-.46.04-.91.19-1.35.29-.87.91-1.34,1.8-1.34.89,0,1.48.42,1.79,1.28.19.55.39,1.19.12,1.66-.17.31-.85.07-1.29.1-.2.01-.4,0-.61,0ZM79.86,34.92c.22,0,.44,0,.66,0,.15,0,.27-.01.22-.23-.09-.34-.2-.68-.57-.77-.38-.09-.78-.07-1.05.31-.12.18-.26.41-.17.61.08.18.33.06.51.08.13.01.27,0,.4,0Z"/>
  <path class="identity-svg-3" d="M44.07,7.55c.86-.9,2.25-.76,2.9,0,.44.62.5,1.34.57,2.06.03.29-.08.38-.37.38-1.09-.01-2.19-.01-3.28,0-.29,0-.4-.09-.37-.37.06-.72.12-1.44.56-2.06ZM45.5,8.97c.1,0,.21.02.3,0,.21-.05.55.15.6-.16.05-.32-.13-.62-.44-.79-.4-.21-.96-.06-1.2.33-.09.16-.21.34-.12.52.09.18.3.08.46.1.13.01.27,0,.4,0Z"/>
  <path class="identity-svg-3" d="M64.88,13.34c0-1.41,0-2.82-.01-4.23,0-.72.42-1.17.95-1.56.74-.27,1.48-.31,2.22,0,.82.57,1.15,1.38,1.11,2.35-.04,1.14.12,2.29-.11,3.43-.47,1.75-2.36,1.98-3.48,1.18-.4-.29-.66-.66-.68-1.18ZM65.88,11.07c0,.66,0,1.32,0,1.97,0,.41.18.66.56.8.87.34,1.67-.2,1.69-1.19.03-1.01,0-2.02,0-3.04,0-.26-.07-.5-.19-.73-.25-.48-.76-.67-1.35-.53-.52.12-.72.39-.72.99,0,.57,0,1.15,0,1.72Z"/>
  <path class="identity-svg-3" d="M86.07,13.33c.02.82-.22,1.25-.84,1.5-.7.29-1.76.14-2.18-.3-.32-.34-.3-.76-.33-1.18.35-1.39.69-1.65,2.17-1.68q1.21-.02,1.21,1.21c0,.15-.02.3-.02.45ZM85.14,13.21c-.03-.24.12-.59-.37-.58-.73.02-.98.21-1.03.74-.05.49.2.62.61.64.57.02.78-.19.79-.8Z"/>
  <path class="identity-svg-3" d="M25.99,39.54c-.38,1.67-1.75,1.86-2.86,1.55-.77-.22-1.08-.85-1.29-1.55-.09-1.5-.08-3.01-.02-4.51.06-1.58,1.23-2.4,2.76-2.02.8.2,1.39.86,1.44,1.87.08,1.55.11,3.1-.03,4.65ZM22.81,37.05h0c0,.69-.03,1.38,0,2.07.04.76.37,1.06,1.07,1.07.74,0,1.12-.29,1.14-1.04.04-1.38.03-2.76,0-4.14-.01-.42-.15-.91-.64-.98-.92-.14-1.48-.11-1.57,1.11-.04.64,0,1.28,0,1.92Z"/>
</svg>