<svg width="32" height="30" viewBox="0 0 32 30" fill="none" xmlns="http://www.w3.org/2000/svg">
<path d="M16 26.85C19.3948 26.85 22.6505 25.5927 25.051 23.3548C27.4514 21.1169 28.8 18.0816 28.8 14.9167C28.8 11.7518 27.4514 8.71646 25.051 6.47853C22.6505 4.24059 19.3948 2.98333 16 2.98333C12.6052 2.98333 9.3495 4.24059 6.94903 6.47853C4.54857 8.71646 3.2 11.7518 3.2 14.9167C3.2 18.0816 4.54857 21.1169 6.94903 23.3548C9.3495 25.5927 12.6052 26.85 16 26.85ZM16 29.8333C7.1632 29.8333 0 23.1551 0 14.9167C0 6.67819 7.1632 0 16 0C24.8368 0 32 6.67819 32 14.9167C32 23.1551 24.8368 29.8333 16 29.8333Z" fill="currentColor"/>
<path d="M18.3423 7.76563C15.1807 7.76563 12.6095 10.1493 12.6095 13.0804C12.6095 16.0011 15.1807 18.3773 18.3423 18.3773C21.4927 18.3773 24.0543 16.0011 24.0543 13.0804C24.0513 11.6699 23.4482 10.3181 22.3773 9.32166C21.3064 8.32524 19.8553 7.76562 18.3423 7.76563ZM8.13428 21.9215V7.76563H10.9375V21.9215H8.13428Z" fill="currentColor"/>
</svg>
