<svg width="32" height="29" viewBox="0 0 32 29" fill="none" xmlns="http://www.w3.org/2000/svg">
<path d="M13.2399 15.6962C13.3732 15.6962 16.4665 15.8171 18.3065 15.4062H18.3199C20.4399 14.935 23.3865 13.5817 24.1465 9.15917C24.1465 9.15917 25.8399 3.625 17.4399 3.625H10.2265C9.57322 3.625 9.01322 4.06 8.90655 4.64L5.83988 22.2333C5.77322 22.5958 6.09322 22.9342 6.49322 22.9342H11.0665L12.1865 16.5058C12.2665 16.0467 12.7065 15.6962 13.2399 15.6962Z" fill="white"/>
<path d="M25.3199 10.0171C24.2399 14.5242 20.8399 16.9046 15.4266 16.9046H13.4666L12.0932 24.7829C12.0399 25.0971 12.3066 25.375 12.6532 25.375H15.1866C15.6399 25.375 16.0399 25.0729 16.1066 24.6621C16.2132 24.1788 16.7999 20.6504 16.9199 20.0463C16.9866 19.6354 17.3866 19.3333 17.8399 19.3333H18.4266C22.1866 19.3333 25.1332 17.9438 25.9999 13.9442C26.3466 12.325 26.1599 10.9958 25.3199 10.0171Z" fill="white"/>
</svg>
