<svg width="24" height="24" viewBox="0 0 24 24" fill="none" xmlns="http://www.w3.org/2000/svg">
<path d="M13.8729 9.32288V7.2581H18.7185V4H5.26788V7.2581H10.1271V9.32288C6.05619 9.51269 3 10.3049 3 11.254C3 12.203 6.05278 12.9903 10.1271 13.1851V20H13.8729V13.1851C17.9438 12.9969 21 12.2047 21 11.254C21 10.3033 17.9472 9.51269 13.8729 9.32288ZM12 12.5678C7.59194 12.5678 4.01816 11.9076 4.01816 11.112C4.01816 10.4271 6.62145 9.85269 10.1237 9.69919V12.0314C10.7264 12.0578 11.353 12.0726 11.9966 12.0726C12.6402 12.0726 13.2701 12.0578 13.8695 12.0314V9.69919C17.3717 9.85269 19.975 10.4271 19.975 11.112C19.9818 11.9158 16.4081 12.5678 12 12.5678Z" fill="currentColor"/>
</svg>
