<svg width="24" height="24" viewBox="0 0 24 24" fill="none" xmlns="http://www.w3.org/2000/svg">
<path d="M15.48 11.3852C15.9298 10.9521 16.2457 10.399 16.3902 9.79155C16.5346 9.18412 16.5016 8.54798 16.295 7.95879C16.0884 7.36959 15.7169 6.85215 15.2247 6.468C14.7324 6.08385 14.1403 5.84916 13.5185 5.79185V4.59259C13.5185 4.43543 13.4561 4.2847 13.345 4.17357C13.2338 4.06243 13.0831 4 12.9259 4C12.7688 4 12.618 4.06243 12.5069 4.17357C12.3958 4.2847 12.3333 4.43543 12.3333 4.59259V5.77778H11.1481V4.59259C11.1481 4.43543 11.0857 4.2847 10.9746 4.17357C10.8634 4.06243 10.7127 4 10.5556 4C10.3984 4 10.2477 4.06243 10.1365 4.17357C10.0254 4.2847 9.96296 4.43543 9.96296 4.59259V5.77778H7.59259C7.43543 5.77778 7.2847 5.84021 7.17357 5.95134C7.06243 6.06248 7 6.21321 7 6.37037C7 6.52754 7.06243 6.67826 7.17357 6.7894C7.2847 6.90053 7.43543 6.96296 7.59259 6.96296H8.18519V17.037H7.59259C7.43543 17.037 7.2847 17.0995 7.17357 17.2106C7.06243 17.3217 7 17.4725 7 17.6296C7 17.7868 7.06243 17.9375 7.17357 18.0487C7.2847 18.1598 7.43543 18.2222 7.59259 18.2222H9.96296V19.4074C9.96296 19.5646 10.0254 19.7153 10.1365 19.8264C10.2477 19.9376 10.3984 20 10.5556 20C10.7127 20 10.8634 19.9376 10.9746 19.8264C11.0857 19.7153 11.1481 19.5646 11.1481 19.4074V18.2222H12.3333V19.4074C12.3333 19.5646 12.3958 19.7153 12.5069 19.8264C12.618 19.9376 12.7688 20 12.9259 20C13.0831 20 13.2338 19.9376 13.345 19.8264C13.4561 19.7153 13.5185 19.5646 13.5185 19.4074V18.2222H14.1111C14.9329 18.2222 15.7294 17.9375 16.365 17.4166C17.0006 16.8956 17.4361 16.1705 17.5975 15.3647C17.7588 14.5589 17.636 13.722 17.25 12.9965C16.8639 12.271 16.2385 11.7016 15.48 11.3852ZM15.2963 9.03704C15.2963 9.58712 15.0778 10.1147 14.6888 10.5036C14.2999 10.8926 13.7723 11.1111 13.2222 11.1111H9.37037V6.96296H13.2222C13.7723 6.96296 14.2999 7.18148 14.6888 7.57045C15.0778 7.95941 15.2963 8.48696 15.2963 9.03704ZM14.1111 17.037H9.37037V12.2963H14.1111C14.7398 12.2963 15.3427 12.546 15.7872 12.9906C16.2317 13.4351 16.4815 14.038 16.4815 14.6667C16.4815 15.2953 16.2317 15.8982 15.7872 16.3428C15.3427 16.7873 14.7398 17.037 14.1111 17.037Z" fill="currentColor"/>
</svg>
