<svg width="203" height="203" viewBox="0 0 203 203" fill="none" xmlns="http://www.w3.org/2000/svg">
<g opacity="0.5">
<path opacity="0.5" d="M101.5 203C157.281 203 202.5 157.781 202.5 102C202.5 46.2192 157.281 1 101.5 1C45.7192 1 0.5 46.2192 0.5 102C0.5 157.781 45.7192 203 101.5 203Z" fill="#DBDBDB"/>
<g filter="url(#filter0_d_509_35000)">
<rect x="43.5" y="56" width="130" height="140" rx="8" fill="white"/>
</g>
<rect x="59.5" y="118" width="40" height="8" rx="4" fill="#DBDBDB"/>
<rect opacity="0.5" x="59.5" y="134" width="72" height="8" rx="4" fill="#DBDBDB"/>
<rect x="59.5" y="154" width="40" height="8" rx="4" fill="#DBDBDB"/>
<rect opacity="0.5" x="59.5" y="170" width="72" height="8" rx="4" fill="#DBDBDB"/>
<rect x="59.5" y="82" width="40" height="8" rx="4" fill="#DBDBDB"/>
<rect opacity="0.5" x="59.5" y="98" width="72" height="8" rx="4" fill="#DBDBDB"/>
<rect x="43.5" width="130" height="48" rx="8" fill="#DBDBDB"/>
<rect x="59.5" y="12" width="40" height="8" rx="4" fill="white"/>
<rect x="59.5" y="28" width="72" height="8" rx="4" fill="white"/>
</g>
<defs>
<filter id="filter0_d_509_35000" x="37.5" y="47" width="142" height="152" filterUnits="userSpaceOnUse" color-interpolation-filters="sRGB">
<feFlood flood-opacity="0" result="BackgroundImageFix"/>
<feColorMatrix in="SourceAlpha" type="matrix" values="0 0 0 0 0 0 0 0 0 0 0 0 0 0 0 0 0 0 127 0" result="hardAlpha"/>
<feOffset dy="-3"/>
<feGaussianBlur stdDeviation="3"/>
<feComposite in2="hardAlpha" operator="out"/>
<feColorMatrix type="matrix" values="0 0 0 0 0.791667 0 0 0 0 0.791667 0 0 0 0 0.791667 0 0 0 0.3 0"/>
<feBlend mode="normal" in2="BackgroundImageFix" result="effect1_dropShadow_509_35000"/>
<feBlend mode="normal" in="SourceGraphic" in2="effect1_dropShadow_509_35000" result="shape"/>
</filter>
</defs>
</svg>
