<svg width="24" height="24" viewBox="0 0 24 24" fill="none" xmlns="http://www.w3.org/2000/svg">
<path fill-rule="evenodd" clip-rule="evenodd" d="M5.77475 4.28389C5.77475 5.52898 4.82671 6.5366 3.34415 6.5366C1.91935 6.5366 0.971323 5.52898 1.00066 4.28389C0.971323 2.97828 1.91933 2 3.37255 2C4.82669 2 5.74633 2.97828 5.77475 4.28389ZM1.11986 22.8191V8.31621H5.62712V22.8181L1.11986 22.8191Z" fill="currentColor"/>
<path fill-rule="evenodd" clip-rule="evenodd" d="M9.23977 12.9446C9.23977 11.1356 9.18017 9.59349 9.12057 8.31814H13.0356L13.2437 10.305H13.3326C13.9258 9.38537 15.4084 7.99266 17.8106 7.99266C20.7757 7.99266 23 9.95015 23 14.219V22.821H18.4927V14.7838C18.4927 12.9143 17.8408 11.6399 16.2097 11.6399C14.9637 11.6399 14.2229 12.4999 13.9268 13.3297C13.8076 13.6267 13.7489 14.0412 13.7489 14.4574V22.821H9.24159V12.9446H9.23977Z" fill="currentColor"/>
</svg>
