<svg width="40" height="40" viewBox="0 0 40 40" fill="none" xmlns="http://www.w3.org/2000/svg">
<g clip-path="url(#clip0_14_165)">
<circle cx="20" cy="20" r="20" fill="#0077B5"/>
<path fill-rule="evenodd" clip-rule="evenodd" d="M14.7747 10.2839C14.7747 11.529 13.8267 12.5366 12.3442 12.5366C10.9194 12.5366 9.97132 11.529 10.0007 10.2839C9.97132 8.97828 10.9193 8 12.3726 8C13.8267 8 14.7463 8.97828 14.7747 10.2839ZM10.1199 28.8191V14.3162H14.6271V28.8181L10.1199 28.8191Z" fill="white"/>
<path fill-rule="evenodd" clip-rule="evenodd" d="M18.2398 18.9446C18.2398 17.1356 18.1802 15.5935 18.1206 14.3181H22.0356L22.2437 16.305H22.3326C22.9258 15.3854 24.4084 13.9927 26.8106 13.9927C29.7757 13.9927 32 15.9502 32 20.219V28.821H27.4927V20.7838C27.4927 18.9143 26.8408 17.6399 25.2097 17.6399C23.9637 17.6399 23.2229 18.4999 22.9268 19.3297C22.8076 19.6267 22.7489 20.0412 22.7489 20.4574V28.821H18.2416V18.9446H18.2398Z" fill="white"/>
</g>
<defs>
<clipPath id="clip0_14_165">
<rect width="40" height="40" fill="white"/>
</clipPath>
</defs>
</svg>
