<svg width="24" height="24" viewBox="0 0 24 24" fill="none" xmlns="http://www.w3.org/2000/svg">
<path fill-rule="evenodd" clip-rule="evenodd" d="M2.49314 10.7489C8.32354 8.20867 12.2114 6.534 14.1567 5.72489C19.7109 3.4147 20.865 3.01339 21.6173 3.00014C21.7827 2.99723 22.1526 3.03823 22.3923 3.23267C22.5946 3.39685 22.6503 3.61863 22.6769 3.77429C22.7035 3.92995 22.7367 4.28455 22.7103 4.56163C22.4094 7.7241 21.107 15.3986 20.4444 18.9406C20.1641 20.4394 19.6121 20.9419 19.0776 20.9911C17.9162 21.098 17.0342 20.2235 15.9093 19.4861C14.1491 18.3323 13.1546 17.614 11.446 16.488C9.47138 15.1868 10.7514 14.4716 11.8768 13.3027C12.1713 12.9969 17.2886 8.34226 17.3876 7.92001C17.4 7.86721 17.4115 7.67036 17.2946 7.56642C17.1776 7.46247 17.005 7.49802 16.8805 7.52629C16.7039 7.56636 13.8919 9.42501 8.44438 13.1022C7.64619 13.6503 6.92322 13.9174 6.27546 13.9034C5.56136 13.888 4.18771 13.4996 3.16654 13.1677C1.91404 12.7606 0.918579 12.5453 1.00526 11.8539C1.05041 11.4937 1.54637 11.1254 2.49314 10.7489Z" fill="currentColor"/>
</svg>
