<svg width="24" height="24" viewBox="0 0 24 24" fill="none" xmlns="http://www.w3.org/2000/svg">
<path fill-rule="evenodd" clip-rule="evenodd" d="M24 4.30865C23.1177 4.70062 22.1681 4.9646 21.1722 5.08379C22.1889 4.47423 22.9697 3.5095 23.3368 2.35997C22.3865 2.92474 21.3314 3.33351 20.2107 3.5551C19.3123 2.59836 18.0316 2 16.6165 2C13.8975 2 11.6928 4.20465 11.6928 6.92367C11.6928 7.30924 11.7368 7.68522 11.8208 8.046C7.72829 7.84121 4.10053 5.88054 1.67189 2.90154C1.24792 3.62869 1.00553 4.47424 1.00553 5.37658C1.00553 7.08447 1.87347 8.59157 3.19579 9.47471C2.38784 9.44911 1.62949 9.22752 0.964734 8.85875V8.92034C0.964734 11.3066 2.66302 13.296 4.91407 13.7496C4.5013 13.8616 4.06613 13.9224 3.61736 13.9224C3.29978 13.9224 2.991 13.8912 2.69022 13.8336C3.31658 15.7895 5.13566 17.2134 7.28991 17.2534C5.60523 18.5733 3.48217 19.3612 1.17512 19.3612C0.776747 19.3612 0.384774 19.338 0 19.2916C2.17905 20.6884 4.76688 21.5043 7.5475 21.5043C16.6037 21.5043 21.5562 14.0016 21.5562 7.49563C21.5562 7.28204 21.5522 7.06927 21.5418 6.85888C22.5049 6.16293 23.34 5.29578 24 4.30865Z" fill="currentColor"/>
</svg>
