<svg width="400" height="279" viewBox="0 0 400 279" fill="none" xmlns="http://www.w3.org/2000/svg">
<g clip-path="url(#clip0_8197_31244)">
<rect width="400" height="279" fill="#48C78E" fill-opacity="0.1"/>
<g filter="url(#filter0_f_8197_31244)">
<path d="M-69.1433 147.548C-111.93 100.43 -96.6125 34.0193 -34.9317 -0.784028C26.749 -35.5874 111.436 -25.6041 154.222 21.5142C197.009 68.6324 181.691 135.043 120.011 169.846C58.33 204.65 -26.3571 194.666 -69.1433 147.548Z" fill="url(#paint0_linear_8197_31244)" fill-opacity="0.4"/>
</g>
<g filter="url(#filter1_f_8197_31244)">
<path d="M507.099 186.274C577.381 220.134 569.392 275.219 489.256 309.31C409.12 343.4 287.182 343.587 216.901 309.726C146.619 275.866 154.608 220.781 234.744 186.69C314.88 152.6 436.818 152.413 507.099 186.274Z" fill="url(#paint1_linear_8197_31244)" fill-opacity="0.5"/>
</g>
<path opacity="0.03" d="M204.275 384.605C193.627 335.203 236.472 288.873 271.528 264.217C298.703 245.104 328.25 233.378 359.168 221.973C376.513 215.575 395.222 206.504 404.511 189.285C420.922 158.863 401.347 123.885 403.727 91.9008C406.754 51.2044 464.961 40.2289 496.036 29.7221" stroke="#11998E" stroke-linecap="round"/>
<path opacity="0.0454167" d="M197.69 381.401C187.842 332.212 231.176 286.752 266.433 262.714C293.762 244.081 323.341 232.812 354.279 221.88C371.634 215.748 390.389 206.978 399.892 189.998C416.682 159.999 397.734 125.019 400.585 93.2901C404.214 52.919 462.299 42.7594 493.379 32.7209" stroke="#11998E" stroke-linecap="round"/>
<path opacity="0.0608333" d="M191.137 378.137C182.081 329.173 225.888 284.588 261.333 261.169C288.809 243.015 318.412 232.203 349.362 221.742C366.725 215.873 385.519 207.404 395.232 190.666C412.393 161.094 394.066 126.122 397.383 94.6555C401.604 54.618 459.555 45.2688 490.634 35.6967" stroke="#11998E" stroke-linecap="round"/>
<path opacity="0.07625" d="M184.618 374.813C176.345 326.086 220.608 282.379 256.231 259.58C283.845 241.906 313.465 231.549 344.42 221.557C361.785 215.951 380.614 207.782 390.532 191.288C408.054 162.147 390.346 127.194 394.121 95.9957C398.925 56.2999 456.731 47.7555 487.8 38.6478" stroke="#11998E" stroke-linecap="round"/>
<path opacity="0.0916667" d="M178.133 371.431C170.636 322.953 215.338 280.128 251.129 257.948C278.872 240.755 308.501 230.85 339.454 221.325C356.818 215.982 375.677 208.113 385.794 191.865C403.668 163.159 386.574 128.234 390.8 97.3104C396.178 57.9642 453.827 50.2189 484.88 41.5735" stroke="#11998E" stroke-linecap="round"/>
<path opacity="0.107083" d="M171.683 367.992C164.952 319.774 210.077 277.833 246.024 256.274C273.889 239.561 303.52 230.108 334.463 221.048C351.821 215.966 370.705 208.395 381.016 192.396C399.233 164.128 382.749 129.241 387.42 98.5987C393.363 59.6099 450.843 52.6577 481.872 44.4723" stroke="#11998E" stroke-linecap="round"/>
<path opacity="0.1225" d="M165.27 364.495C159.296 316.548 204.827 275.496 240.92 254.556C268.897 238.324 298.524 229.32 329.449 220.723C346.797 215.901 365.702 208.628 376.202 192.879C394.754 165.054 378.875 130.215 383.982 99.8589C390.481 61.235 447.78 55.0699 478.779 47.3422" stroke="#11998E" stroke-linecap="round"/>
<path opacity="0.137917" d="M158.894 360.943C153.668 313.278 199.588 273.117 235.816 252.797C263.898 237.045 293.513 228.488 324.413 220.352C341.748 215.788 360.667 208.812 371.351 193.316C390.228 165.937 374.95 131.155 380.487 101.092C387.532 62.8403 444.64 57.456 475.601 50.1836" stroke="#11998E" stroke-linecap="round"/>
<path opacity="0.153333" d="M152.557 357.335C148.069 309.963 194.362 270.696 230.714 250.994C258.892 235.722 288.488 227.61 319.357 219.933C336.673 215.626 355.603 208.946 366.466 193.704C385.658 166.775 370.976 132.059 376.935 102.294C384.518 64.4226 441.422 59.8126 472.338 52.993" stroke="#11998E" stroke-linecap="round"/>
<path opacity="0.16875" d="M146.258 353.673C142.5 306.605 189.149 268.233 225.614 249.15C253.88 234.358 283.449 226.688 314.28 219.467C331.574 215.416 350.51 209.031 361.546 194.045C381.045 167.568 366.954 132.929 373.328 103.468C381.438 65.9828 438.128 62.1407 468.992 55.7711" stroke="#11998E" stroke-linecap="round"/>
<path opacity="0.184167" d="M140 349.957C136.962 303.204 183.95 265.73 220.517 247.264C248.863 232.951 278.399 225.722 309.183 218.954C326.452 215.158 345.389 209.066 356.593 194.338C376.389 168.317 362.884 133.763 369.665 104.611C378.293 67.5196 434.758 64.4386 465.563 58.5164" stroke="#11998E" stroke-linecap="round"/>
<path opacity="0.199583" d="M133.782 346.189C131.453 299.76 178.764 263.185 215.423 245.337C243.84 231.501 273.337 224.711 304.068 218.394C321.308 214.85 340.24 209.05 351.607 194.582C371.691 169.02 358.767 134.559 365.947 105.723C375.083 69.0312 431.313 66.7045 462.052 61.2268" stroke="#11998E" stroke-linecap="round"/>
<path opacity="0.215" d="M127.606 342.37C125.977 296.275 173.593 260.601 210.334 243.368C238.814 230.009 268.264 223.655 298.936 217.786C316.141 214.494 335.065 208.985 346.59 194.778C366.953 169.677 354.604 135.32 362.176 106.802C371.81 70.5178 427.793 68.9383 458.461 63.9023" stroke="#11998E" stroke-linecap="round"/>
<path opacity="0.230417" d="M121.472 338.499C120.533 292.749 168.439 257.977 205.25 241.358C233.786 228.475 263.182 222.554 293.787 217.13C310.955 214.088 329.865 208.868 341.543 194.924C362.175 170.286 350.396 136.041 358.352 107.849C368.474 71.9771 424.201 71.1378 454.789 66.5403" stroke="#11998E" stroke-linecap="round"/>
<path opacity="0.245833" d="M115.38 334.578C115.121 289.182 163.3 255.313 200.172 239.307C228.754 226.899 258.09 221.408 288.621 216.427C305.748 213.632 324.641 208.701 336.466 195.02C357.357 170.849 346.143 136.725 354.475 108.862C365.076 73.4093 420.535 73.3029 451.037 69.1407" stroke="#11998E" stroke-linecap="round"/>
<path opacity="0.26125" d="M109.333 330.609C109.744 285.577 158.178 252.61 195.1 237.215C223.721 225.282 252.99 220.218 283.441 215.676C300.523 213.128 319.393 208.484 331.36 195.068C352.502 171.365 341.846 137.37 350.546 109.841C361.616 74.8136 416.797 75.4328 447.207 71.7028" stroke="#11998E" stroke-linecap="round"/>
<path opacity="0.276667" d="M103.33 326.591C104.399 281.932 153.073 249.869 190.035 235.084C218.687 223.622 247.883 218.984 278.247 214.878C295.28 212.574 314.123 208.215 326.226 195.065C347.61 171.833 337.506 137.976 346.566 110.785C358.094 76.1884 412.988 77.5254 443.3 74.2243" stroke="#11998E" stroke-linecap="round"/>
<path opacity="0.292083" d="M97.3738 322.527C99.0909 278.249 147.988 247.09 184.979 232.912C213.654 221.921 242.77 217.704 273.04 214.031C290.021 211.971 308.832 207.895 321.067 195.012C342.682 172.252 333.125 138.541 342.537 111.693C354.513 77.5331 409.11 79.5804 439.317 76.7048" stroke="#11998E" stroke-linecap="round"/>
<path opacity="0.3075" d="M91.4625 318.416C93.817 274.529 142.92 244.273 179.931 230.7C208.62 220.179 237.65 216.381 267.821 213.137C284.745 211.318 303.521 207.524 315.881 194.91C337.719 172.623 328.703 139.066 338.458 112.566C350.872 78.8471 405.162 81.597 435.257 79.1433" stroke="#11998E" stroke-linecap="round"/>
<path opacity="0.322917" d="M85.598 314.26C88.5789 270.772 137.872 241.419 174.892 228.45C203.588 218.396 232.526 215.013 262.59 212.195C279.455 210.615 298.19 207.101 310.671 194.756C332.721 172.945 324.239 139.55 334.331 113.401C347.172 80.1293 401.145 83.5737 431.123 81.5384" stroke="#11998E" stroke-linecap="round"/>
<path opacity="0.338333" d="M79.7813 310.061C83.3777 266.98 132.845 238.53 169.863 226.16C198.559 216.572 227.398 213.602 257.349 211.206C274.151 209.863 292.841 206.627 305.437 194.552C327.691 173.218 319.737 139.993 330.156 114.199C343.414 81.3793 397.062 85.5103 426.916 83.8897" stroke="#11998E" stroke-linecap="round"/>
<path opacity="0.35375" d="M74.0125 305.818C78.2132 263.153 127.838 235.603 164.845 223.832C193.532 214.707 222.266 212.146 252.098 210.17C268.833 209.061 287.474 206.101 300.18 194.297C322.629 173.442 315.195 140.395 325.934 114.959C339.598 82.5958 392.911 87.4052 422.635 86.1956" stroke="#11998E" stroke-linecap="round"/>
<path opacity="0.369167" d="M68.2918 301.532C73.0856 259.291 122.852 232.641 159.838 221.465C188.508 212.801 217.131 210.646 246.838 209.085C263.503 208.209 282.09 205.524 294.901 193.99C317.535 173.614 310.615 140.753 321.666 115.68C335.725 83.7774 388.694 89.2569 418.283 88.4544" stroke="#11998E" stroke-linecap="round"/>
<path opacity="0.384583" d="M62.6212 297.207C67.9967 255.396 117.888 229.644 154.843 219.061C183.49 210.857 211.995 209.103 241.571 207.953C258.162 207.308 276.692 204.895 289.602 193.634C312.411 173.738 305.999 141.069 317.352 116.362C331.797 84.9253 384.414 91.0665 413.861 90.6673" stroke="#11998E" stroke-linecap="round"/>
<path opacity="0.4" d="M57 292.84C62.9457 251.468 112.946 226.612 149.861 216.618C178.476 208.871 206.858 207.516 236.296 206.774C252.81 206.357 271.279 204.214 284.283 193.225C307.258 173.81 301.347 141.342 312.994 117.004C327.814 86.0365 380.069 92.831 409.368 92.831" stroke="#11998E" stroke-linecap="round"/>
<rect x="18" y="147" width="142" height="26" rx="8" fill="#48C78E"/>
<path d="M35.9429 158.602H34.7241C34.6772 158.341 34.59 158.112 34.4624 157.914C34.3348 157.716 34.1785 157.548 33.9937 157.41C33.8088 157.272 33.6017 157.168 33.3726 157.098C33.146 157.027 32.9051 156.992 32.6499 156.992C32.189 156.992 31.7762 157.108 31.4116 157.34C31.0496 157.572 30.7632 157.911 30.5522 158.359C30.3439 158.807 30.2397 159.354 30.2397 160C30.2397 160.651 30.3439 161.201 30.5522 161.648C30.7632 162.096 31.0509 162.435 31.4155 162.664C31.7801 162.893 32.1903 163.008 32.646 163.008C32.8986 163.008 33.1382 162.974 33.3647 162.906C33.5939 162.836 33.8009 162.733 33.9858 162.598C34.1707 162.462 34.327 162.297 34.4546 162.102C34.5848 161.904 34.6746 161.677 34.7241 161.422L35.9429 161.426C35.8778 161.819 35.7515 162.181 35.564 162.512C35.3791 162.84 35.1408 163.124 34.8491 163.363C34.5601 163.6 34.2293 163.784 33.8569 163.914C33.4845 164.044 33.0783 164.109 32.6382 164.109C31.9455 164.109 31.3283 163.945 30.7866 163.617C30.245 163.286 29.8179 162.814 29.5054 162.199C29.1955 161.585 29.0405 160.852 29.0405 160C29.0405 159.146 29.1968 158.413 29.5093 157.801C29.8218 157.186 30.2489 156.715 30.7905 156.387C31.3322 156.056 31.9481 155.891 32.6382 155.891C33.0627 155.891 33.4585 155.952 33.8257 156.074C34.1955 156.194 34.5275 156.371 34.8218 156.605C35.116 156.837 35.3595 157.121 35.5522 157.457C35.745 157.79 35.8752 158.172 35.9429 158.602ZM39.8208 164.121C39.2583 164.121 38.7674 163.992 38.3481 163.734C37.9289 163.477 37.6034 163.116 37.3716 162.652C37.1398 162.189 37.0239 161.647 37.0239 161.027C37.0239 160.405 37.1398 159.861 37.3716 159.395C37.6034 158.928 37.9289 158.566 38.3481 158.309C38.7674 158.051 39.2583 157.922 39.8208 157.922C40.3833 157.922 40.8742 158.051 41.2935 158.309C41.7127 158.566 42.0382 158.928 42.27 159.395C42.5018 159.861 42.6177 160.405 42.6177 161.027C42.6177 161.647 42.5018 162.189 42.27 162.652C42.0382 163.116 41.7127 163.477 41.2935 163.734C40.8742 163.992 40.3833 164.121 39.8208 164.121ZM39.8247 163.141C40.1893 163.141 40.4914 163.044 40.731 162.852C40.9705 162.659 41.1476 162.402 41.2622 162.082C41.3794 161.762 41.438 161.409 41.438 161.023C41.438 160.641 41.3794 160.289 41.2622 159.969C41.1476 159.646 40.9705 159.387 40.731 159.191C40.4914 158.996 40.1893 158.898 39.8247 158.898C39.4575 158.898 39.1528 158.996 38.9106 159.191C38.6711 159.387 38.4927 159.646 38.3755 159.969C38.2609 160.289 38.2036 160.641 38.2036 161.023C38.2036 161.409 38.2609 161.762 38.3755 162.082C38.4927 162.402 38.6711 162.659 38.9106 162.852C39.1528 163.044 39.4575 163.141 39.8247 163.141ZM43.5659 162.414H44.7612C44.7769 162.659 44.8875 162.848 45.0933 162.98C45.3016 163.113 45.5711 163.18 45.9019 163.18C46.2378 163.18 46.5243 163.108 46.7612 162.965C46.9982 162.819 47.1167 162.594 47.1167 162.289C47.1167 162.107 47.0711 161.948 46.98 161.812C46.8914 161.674 46.7651 161.568 46.6011 161.492C46.4396 161.417 46.2482 161.379 46.0269 161.379H45.0503V160.461H46.0269C46.3576 160.461 46.605 160.385 46.769 160.234C46.9331 160.083 47.0151 159.895 47.0151 159.668C47.0151 159.423 46.9266 159.227 46.7495 159.078C46.575 158.927 46.3315 158.852 46.019 158.852C45.7013 158.852 45.437 158.923 45.2261 159.066C45.0151 159.207 44.9045 159.389 44.894 159.613H43.7144C43.7222 159.277 43.8237 158.983 44.019 158.73C44.217 158.475 44.4826 158.277 44.8159 158.137C45.1519 157.993 45.5334 157.922 45.9604 157.922C46.4058 157.922 46.7912 157.993 47.1167 158.137C47.4422 158.28 47.6935 158.478 47.8706 158.73C48.0503 158.983 48.1401 159.273 48.1401 159.602C48.1401 159.932 48.0412 160.203 47.8433 160.414C47.6479 160.622 47.3927 160.772 47.0776 160.863V160.926C47.3094 160.941 47.5151 161.012 47.6948 161.137C47.8745 161.262 48.0151 161.427 48.1167 161.633C48.2183 161.839 48.269 162.072 48.269 162.332C48.269 162.699 48.1675 163.017 47.9644 163.285C47.7638 163.553 47.4852 163.76 47.1284 163.906C46.7743 164.049 46.3693 164.121 45.9136 164.121C45.4709 164.121 45.0737 164.052 44.7222 163.914C44.3732 163.773 44.0959 163.576 43.8901 163.32C43.687 163.065 43.5789 162.763 43.5659 162.414ZM48.8892 165.73V162.988H49.3774C49.5024 162.874 49.6079 162.737 49.6938 162.578C49.7824 162.419 49.8566 162.23 49.9165 162.012C49.979 161.793 50.0311 161.538 50.0728 161.246C50.1144 160.952 50.1509 160.616 50.1821 160.238L50.3696 158H54.4478V162.988H55.3696V165.73H54.229V164H50.0454V165.73H48.8892ZM50.6274 162.988H53.3071V159H51.4165L51.2915 160.238C51.2316 160.868 51.1561 161.415 51.0649 161.879C50.9738 162.34 50.828 162.71 50.6274 162.988ZM58.2573 164.133C57.8771 164.133 57.5334 164.063 57.2261 163.922C56.9188 163.779 56.6753 163.572 56.4956 163.301C56.3185 163.03 56.23 162.698 56.23 162.305C56.23 161.966 56.2951 161.687 56.4253 161.469C56.5555 161.25 56.7313 161.077 56.9526 160.949C57.174 160.822 57.4214 160.725 57.6948 160.66C57.9683 160.595 58.2469 160.546 58.5308 160.512C58.8901 160.47 59.1818 160.436 59.4058 160.41C59.6297 160.382 59.7925 160.336 59.894 160.273C59.9956 160.211 60.0464 160.109 60.0464 159.969V159.941C60.0464 159.6 59.95 159.336 59.7573 159.148C59.5672 158.961 59.2834 158.867 58.9058 158.867C58.5125 158.867 58.2026 158.954 57.9761 159.129C57.7521 159.301 57.5972 159.492 57.5112 159.703L56.4136 159.453C56.5438 159.089 56.7339 158.794 56.9839 158.57C57.2365 158.344 57.5269 158.18 57.855 158.078C58.1831 157.974 58.5282 157.922 58.8901 157.922C59.1297 157.922 59.3836 157.951 59.6519 158.008C59.9227 158.062 60.1753 158.164 60.4097 158.312C60.6466 158.461 60.8407 158.673 60.9917 158.949C61.1427 159.223 61.2183 159.578 61.2183 160.016V164H60.0776V163.18H60.0308C59.9552 163.331 59.842 163.479 59.6909 163.625C59.5399 163.771 59.3459 163.892 59.1089 163.988C58.8719 164.085 58.5881 164.133 58.2573 164.133ZM58.5112 163.195C58.8341 163.195 59.1102 163.132 59.3394 163.004C59.5711 162.876 59.7469 162.71 59.8667 162.504C59.9891 162.296 60.0503 162.073 60.0503 161.836V161.062C60.0086 161.104 59.9279 161.143 59.8081 161.18C59.6909 161.214 59.5568 161.243 59.4058 161.27C59.2547 161.293 59.1076 161.315 58.9644 161.336C58.8211 161.354 58.7013 161.37 58.605 161.383C58.3784 161.411 58.1714 161.46 57.9839 161.527C57.799 161.595 57.6506 161.693 57.5386 161.82C57.4292 161.945 57.3745 162.112 57.3745 162.32C57.3745 162.609 57.4813 162.828 57.6948 162.977C57.9084 163.122 58.1805 163.195 58.5112 163.195ZM62.0298 159.008V158H67.0923V159.008H65.1353V164H63.9946V159.008H62.0298ZM69.2065 160.062H70.9487C71.6831 160.062 72.2482 160.245 72.644 160.609C73.0399 160.974 73.2378 161.444 73.2378 162.02C73.2378 162.395 73.1493 162.732 72.9722 163.031C72.7951 163.331 72.536 163.568 72.1948 163.742C71.8537 163.914 71.4383 164 70.9487 164H68.3276V158H69.4722V162.992H70.9487C71.2847 162.992 71.5607 162.905 71.7769 162.73C71.993 162.553 72.1011 162.328 72.1011 162.055C72.1011 161.766 71.993 161.53 71.7769 161.348C71.5607 161.163 71.2847 161.07 70.9487 161.07H69.2065V160.062ZM80.8257 162.555L82.7632 158H83.771L81.2593 164H80.3921L77.9312 158H78.9272L80.8257 162.555ZM78.603 158V164H77.4585V158H78.603ZM83.0796 164V158H84.2163V164H83.0796ZM88.3589 164.121C87.7677 164.121 87.2586 163.995 86.8315 163.742C86.4071 163.487 86.0789 163.129 85.8472 162.668C85.618 162.204 85.5034 161.661 85.5034 161.039C85.5034 160.424 85.618 159.883 85.8472 159.414C86.0789 158.945 86.4019 158.579 86.8159 158.316C87.2326 158.053 87.7196 157.922 88.2769 157.922C88.6154 157.922 88.9435 157.978 89.2612 158.09C89.5789 158.202 89.8641 158.378 90.1167 158.617C90.3693 158.857 90.5685 159.168 90.7144 159.551C90.8602 159.931 90.9331 160.393 90.9331 160.937V161.352H86.1636V160.477H89.7886C89.7886 160.169 89.7261 159.897 89.6011 159.66C89.4761 159.421 89.3003 159.232 89.0737 159.094C88.8498 158.956 88.5868 158.887 88.2847 158.887C87.9565 158.887 87.6701 158.967 87.4253 159.129C87.1831 159.288 86.9956 159.496 86.8628 159.754C86.7326 160.009 86.6675 160.286 86.6675 160.586V161.27C86.6675 161.671 86.7378 162.012 86.8784 162.293C87.0216 162.574 87.2209 162.789 87.4761 162.937C87.7313 163.083 88.0295 163.156 88.3706 163.156C88.592 163.156 88.7938 163.125 88.9761 163.062C89.1584 162.997 89.3159 162.901 89.4487 162.773C89.5815 162.646 89.6831 162.488 89.7534 162.301L90.8589 162.5C90.7703 162.826 90.6115 163.111 90.3823 163.355C90.1558 163.598 89.8706 163.786 89.5269 163.922C89.1857 164.055 88.7964 164.121 88.3589 164.121ZM92.229 166.25V158H93.3696V158.973H93.4673C93.535 158.848 93.6326 158.703 93.7603 158.539C93.8879 158.375 94.0649 158.232 94.2915 158.109C94.5181 157.984 94.8175 157.922 95.1899 157.922C95.6743 157.922 96.1066 158.044 96.4868 158.289C96.867 158.534 97.1652 158.887 97.3813 159.348C97.6001 159.809 97.7095 160.363 97.7095 161.012C97.7095 161.66 97.6014 162.216 97.3853 162.68C97.1691 163.141 96.8722 163.496 96.4946 163.746C96.117 163.993 95.686 164.117 95.2017 164.117C94.8371 164.117 94.5389 164.056 94.3071 163.934C94.078 163.811 93.8983 163.668 93.7681 163.504C93.6379 163.34 93.5376 163.194 93.4673 163.066H93.397V166.25H92.229ZM93.3735 161C93.3735 161.422 93.4347 161.792 93.5571 162.109C93.6795 162.427 93.8566 162.676 94.0884 162.855C94.3201 163.033 94.604 163.121 94.9399 163.121C95.2889 163.121 95.5806 163.029 95.8149 162.844C96.0493 162.656 96.2264 162.402 96.3462 162.082C96.4686 161.762 96.5298 161.401 96.5298 161C96.5298 160.604 96.4699 160.249 96.3501 159.934C96.2329 159.618 96.0558 159.37 95.8188 159.188C95.5845 159.005 95.2915 158.914 94.9399 158.914C94.6014 158.914 94.3149 159.001 94.0806 159.176C93.8488 159.35 93.673 159.594 93.5532 159.906C93.4334 160.219 93.3735 160.583 93.3735 161ZM101.545 164.121C100.983 164.121 100.492 163.992 100.073 163.734C99.6535 163.477 99.328 163.116 99.0962 162.652C98.8644 162.189 98.7485 161.647 98.7485 161.027C98.7485 160.405 98.8644 159.861 99.0962 159.395C99.328 158.928 99.6535 158.566 100.073 158.309C100.492 158.051 100.983 157.922 101.545 157.922C102.108 157.922 102.599 158.051 103.018 158.309C103.437 158.566 103.763 158.928 103.995 159.395C104.226 159.861 104.342 160.405 104.342 161.027C104.342 161.647 104.226 162.189 103.995 162.652C103.763 163.116 103.437 163.477 103.018 163.734C102.599 163.992 102.108 164.121 101.545 164.121ZM101.549 163.141C101.914 163.141 102.216 163.044 102.456 162.852C102.695 162.659 102.872 162.402 102.987 162.082C103.104 161.762 103.163 161.409 103.163 161.023C103.163 160.641 103.104 160.289 102.987 159.969C102.872 159.646 102.695 159.387 102.456 159.191C102.216 158.996 101.914 158.898 101.549 158.898C101.182 158.898 100.877 158.996 100.635 159.191C100.396 159.387 100.217 159.646 100.1 159.969C99.9855 160.289 99.9282 160.641 99.9282 161.023C99.9282 161.409 99.9855 161.762 100.1 162.082C100.217 162.402 100.396 162.659 100.635 162.852C100.877 163.044 101.182 163.141 101.549 163.141ZM105.646 164V158H110.541V164H109.396V159.008H106.783V164H105.646ZM112.102 166.25V158H113.243V158.973H113.34C113.408 158.848 113.506 158.703 113.633 158.539C113.761 158.375 113.938 158.232 114.165 158.109C114.391 157.984 114.691 157.922 115.063 157.922C115.547 157.922 115.98 158.044 116.36 158.289C116.74 158.534 117.038 158.887 117.254 159.348C117.473 159.809 117.583 160.363 117.583 161.012C117.583 161.66 117.474 162.216 117.258 162.68C117.042 163.141 116.745 163.496 116.368 163.746C115.99 163.993 115.559 164.117 115.075 164.117C114.71 164.117 114.412 164.056 114.18 163.934C113.951 163.811 113.771 163.668 113.641 163.504C113.511 163.34 113.411 163.194 113.34 163.066H113.27V166.25H112.102ZM113.247 161C113.247 161.422 113.308 161.792 113.43 162.109C113.553 162.427 113.73 162.676 113.961 162.855C114.193 163.033 114.477 163.121 114.813 163.121C115.162 163.121 115.454 163.029 115.688 162.844C115.922 162.656 116.099 162.402 116.219 162.082C116.342 161.762 116.403 161.401 116.403 161C116.403 160.604 116.343 160.249 116.223 159.934C116.106 159.618 115.929 159.37 115.692 159.188C115.458 159.005 115.165 158.914 114.813 158.914C114.474 158.914 114.188 159.001 113.954 159.176C113.722 159.35 113.546 159.594 113.426 159.906C113.306 160.219 113.247 160.583 113.247 161ZM120.036 162.363L122.68 158H123.938V164H122.793V159.633L120.161 164H118.891V158H120.036V162.363ZM129.086 164V158.996H127.649C127.308 158.996 127.042 159.076 126.852 159.234C126.662 159.393 126.567 159.602 126.567 159.859C126.567 160.115 126.654 160.32 126.829 160.477C127.006 160.63 127.253 160.707 127.571 160.707H129.426V161.652H127.571C127.128 161.652 126.745 161.579 126.422 161.434C126.102 161.285 125.855 161.076 125.68 160.805C125.508 160.534 125.422 160.214 125.422 159.844C125.422 159.466 125.511 159.141 125.688 158.867C125.868 158.591 126.124 158.378 126.458 158.227C126.793 158.076 127.191 158 127.649 158H130.184V164H129.086ZM125.149 164L126.84 160.969H128.036L126.344 164H125.149ZM130.995 159.008V158H136.057V159.008H134.1V164H132.959V159.008H130.995ZM138.437 162.363L141.082 158H142.339V164H141.195V159.633L138.562 164H137.292V158H138.437V162.363ZM146.496 164.121C145.904 164.121 145.395 163.995 144.968 163.742C144.544 163.487 144.216 163.129 143.984 162.668C143.755 162.204 143.64 161.661 143.64 161.039C143.64 160.424 143.755 159.883 143.984 159.414C144.216 158.945 144.539 158.579 144.953 158.316C145.369 158.053 145.856 157.922 146.414 157.922C146.752 157.922 147.08 157.978 147.398 158.09C147.716 158.202 148.001 158.378 148.253 158.617C148.506 158.857 148.705 159.168 148.851 159.551C148.997 159.931 149.07 160.393 149.07 160.937V161.352H144.3V160.477H147.925C147.925 160.169 147.863 159.897 147.738 159.66C147.613 159.421 147.437 159.232 147.21 159.094C146.986 158.956 146.723 158.887 146.421 158.887C146.093 158.887 145.807 158.967 145.562 159.129C145.32 159.288 145.132 159.496 145 159.754C144.869 160.009 144.804 160.286 144.804 160.586V161.27C144.804 161.671 144.875 162.012 145.015 162.293C145.158 162.574 145.358 162.789 145.613 162.937C145.868 163.083 146.166 163.156 146.507 163.156C146.729 163.156 146.931 163.125 147.113 163.062C147.295 162.997 147.453 162.901 147.585 162.773C147.718 162.646 147.82 162.488 147.89 162.301L148.996 162.5C148.907 162.826 148.748 163.111 148.519 163.355C148.292 163.598 148.007 163.786 147.664 163.922C147.322 164.055 146.933 164.121 146.496 164.121Z" fill="white"/>
<g filter="url(#filter2_d_8197_31244)">
<rect x="20" y="195" width="38" height="38" rx="19" fill="#48C78E" shape-rendering="crispEdges"/>
<path fill-rule="evenodd" clip-rule="evenodd" d="M39 204C39.6497 204 40.1765 204.527 40.1765 205.176V212.823H47.8235C48.4733 212.823 49 213.35 49 214C49 214.65 48.4733 215.176 47.8235 215.176H40.1765V222.823C40.1765 223.473 39.6497 224 39 224C38.3503 224 37.8235 223.473 37.8235 222.823V215.176H30.1765C29.5267 215.176 29 214.65 29 214C29 213.35 29.5267 212.823 30.1765 212.823H37.8235V205.176C37.8235 204.527 38.3503 204 39 204Z" fill="white"/>
</g>
<path d="M6.99056 27.8514L14.1149 19.3281L10.0093 9.08022L17.5122 16.5855L27.0093 11.6908L19.8849 20.2141L23.9906 30.462L16.4876 22.9567L6.99056 27.8514Z" fill="white"/>
<path d="M12.7611 30.7992L14.9947 37.5809L22.4216 37.5356L15.3 40.478L14.5599 47.8704L12.3263 41.0887L4.89943 41.134L12.0211 38.1916L12.7611 30.7992Z" fill="white"/>
<path d="M38.8124 11.3637L41.7382 18.5427L47.7562 18.1295L42.4617 21.6413L43.0753 29.6225L40.1495 22.4435L34.1315 22.8567L39.426 19.3449L38.8124 11.3637Z" fill="white"/>
</g>
<defs>
<filter id="filter0_f_8197_31244" x="-243.395" y="-171.541" width="571.869" height="512.144" filterUnits="userSpaceOnUse" color-interpolation-filters="sRGB">
<feFlood flood-opacity="0" result="BackgroundImageFix"/>
<feBlend mode="normal" in="SourceGraphic" in2="BackgroundImageFix" result="shape"/>
<feGaussianBlur stdDeviation="75" result="effect1_foregroundBlur_8197_31244"/>
</filter>
<filter id="filter1_f_8197_31244" x="19" y="11" width="686" height="474" filterUnits="userSpaceOnUse" color-interpolation-filters="sRGB">
<feFlood flood-opacity="0" result="BackgroundImageFix"/>
<feBlend mode="normal" in="SourceGraphic" in2="BackgroundImageFix" result="shape"/>
<feGaussianBlur stdDeviation="75" result="effect1_foregroundBlur_8197_31244"/>
</filter>
<filter id="filter2_d_8197_31244" x="17" y="192" width="44" height="44" filterUnits="userSpaceOnUse" color-interpolation-filters="sRGB">
<feFlood flood-opacity="0" result="BackgroundImageFix"/>
<feColorMatrix in="SourceAlpha" type="matrix" values="0 0 0 0 0 0 0 0 0 0 0 0 0 0 0 0 0 0 127 0" result="hardAlpha"/>
<feOffset/>
<feGaussianBlur stdDeviation="1.5"/>
<feComposite in2="hardAlpha" operator="out"/>
<feColorMatrix type="matrix" values="0 0 0 0 0 0 0 0 0 0 0 0 0 0 0 0 0 0 0.15 0"/>
<feBlend mode="normal" in2="BackgroundImageFix" result="effect1_dropShadow_8197_31244"/>
<feBlend mode="normal" in="SourceGraphic" in2="effect1_dropShadow_8197_31244" result="shape"/>
</filter>
<linearGradient id="paint0_linear_8197_31244" x1="154.223" y1="21.5139" x2="-30.9226" y2="189.637" gradientUnits="userSpaceOnUse">
<stop stop-color="#34E89E"/>
<stop offset="1" stop-color="#0F3443"/>
</linearGradient>
<linearGradient id="paint1_linear_8197_31244" x1="216.902" y1="309.726" x2="319.844" y2="96.0568" gradientUnits="userSpaceOnUse">
<stop stop-color="#34E89E"/>
<stop offset="1" stop-color="#0F3443"/>
</linearGradient>
<clipPath id="clip0_8197_31244">
<rect width="400" height="279" fill="white"/>
</clipPath>
</defs>
</svg>
