<svg width="836" height="470" fill="none" xmlns="http://www.w3.org/2000/svg"><g clip-path="url(#a)"><path fill="#181818" d="M0 0h836v469.438H0z"/><g opacity=".6"><path opacity=".03" d="M65.921-89.285h-338.026v314.761L65.921-89.284z" fill="#546FEF"/><path opacity=".03" d="M865.402 225.476v-54.337H581.806V94.934h244.276V41.257H581.806v-76.204h283.596v-54.338H527.844v314.761h337.558zM182.826 121.773h130.338v44.472l74.618 59.115h42.678v-44.278l-76.024-59.425h57.555v-43.19l7.809-10.371h46.154v-103.82h-46.857l-6.989-9.283v-44.278H182.826v44.395l-6.99 9.282H128.98v261.084h53.963l-.117-103.703zm0-53.677v-93.217l7.809-10.603H403.83l7.809 10.603v83.623l-7.184 9.477-221.629.117z" fill="#fff"/><path opacity=".03" d="M527.383 624.093H865.41V309.332L527.383 624.093z" fill="#546FEF"/><path opacity=".03" d="M128.75 624.093h337.324v-54.338H182.712v-66.183l7.576-10.021h236.466v-53.677H190.209l-7.497-9.943v-66.262h283.362v-54.337H128.75V439.99h46.543l7.419 9.827v33.907l-7.497 9.943H128.75v130.426zM9.113 624.093v-44.395l7.34-9.282h49.043V363.009H16.414l-7.301-9.244v-44.433h-281.136v314.605H9.113v.156zm-224.831-261.084H.757l8.356 10.603v186.2L.757 570.416h-216.475V363.009z" fill="#fff"/></g><path d="m38 62.5 6.449 31.551L76 100.5l-31.551 6.449L38 138.5l-6.449-31.551L0 100.5l31.551-6.449L38 62.5z" fill="#fff"/><path d="m215.07 64.692 24.54 109.616h-19.474l-5.066-23.02h-41.163l-5.383 23.02H150l25.173-109.616h39.897zm-3.325 70.154L200.03 82.231h-10.45l-12.349 52.615h34.514zm109.376-70.154v17.539h-52.405v28.5h50.821v17.225h-50.821v46.352h-18.998V64.692h71.403zm37.362 92.077V82.231h-25.648V64.692h70.295v17.539h-25.648v74.538h25.648v17.539h-70.295v-17.539h25.648zm53.814-21.61h18.524v6.264c0 3.289.475 6.107 1.742 8.3 1.266 2.192 2.849 4.071 5.066 5.48 2.216 1.41 4.749 2.506 7.758 3.132 3.008.627 6.332.94 10.132.94 7.916 0 13.774-1.253 17.257-3.759 3.483-2.505 5.383-6.576 5.383-12.37 0-4.385-1.267-7.673-3.483-10.179-2.217-2.505-5.858-4.228-10.924-5.168l-24.065-5.167c-9.183-1.879-15.832-5.324-19.948-10.492-4.117-5.167-6.017-11.275-6.017-18.478 0-4.385.792-8.456 2.533-12.214 1.584-3.758 4.117-7.047 7.442-9.866 3.324-2.818 7.599-5.01 12.665-6.576 5.067-1.566 10.924-2.506 17.574-2.506 6.649 0 12.665.783 17.89 2.349 5.066 1.566 9.341 3.758 12.824 6.577 3.325 2.819 5.858 5.95 7.599 9.709 1.742 3.758 2.692 7.673 2.692 11.9v8.613h-18.524V97.42c0-3.445-.633-6.42-1.741-8.769-1.267-2.349-2.85-4.228-4.908-5.637-2.058-1.253-4.433-2.193-7.283-2.819-2.85-.626-5.699-.94-8.866-.94-2.85 0-5.541.314-8.074.784-2.533.47-4.591 1.252-6.491 2.348-1.9 1.097-3.483 2.506-4.592 4.385-1.108 1.88-1.583 4.071-1.583 6.733 0 1.566.158 3.132.475 4.542.317 1.566.95 2.818 2.058 3.915.95 1.252 2.375 2.192 4.275 3.131 1.9.94 4.433 1.723 7.599 2.349l22.798 4.542c8.866 1.879 15.674 5.167 20.424 10.178 4.591 5.011 6.966 11.588 6.966 20.044 0 5.168-.95 9.865-2.692 14.093-1.899 4.228-4.591 7.83-8.074 10.805-3.641 2.976-8.074 5.325-13.457 6.891-5.383 1.722-11.399 2.505-18.365 2.505-8.233 0-15.041-.94-20.424-2.975-5.383-1.879-9.816-4.385-12.982-7.517-3.325-3.132-5.7-6.577-7.124-10.335-1.425-3.758-2.059-7.36-2.059-10.961v-9.553zm116.939-70.467v45.099h44.014V64.692h18.998v109.616H573.25V127.33h-44.014v46.978h-18.998V64.692h18.998zm138.224 0L692 174.308h-19.473l-5.067-23.02h-41.163l-5.383 23.02H602.39l25.173-109.616h39.897zm-3.325 70.154L652.42 82.231h-10.45l-12.349 52.615h34.514z" fill="#48C78E"/><path d="M545.336 224.76h20.311v-7.571h-20.311v7.571z" fill="#fff"/><path d="M578.152 198.482v36.521h-7.811v-35.185l-1.118-1.336h-27.457l-1.115 1.336v35.185h-7.589v-36.521h6.473l1.116-1.559v-6.235h29.69v6.235l1.116 1.559h6.695zM359.165 235.003v-7.572h-35.493V216.52h29.913v-7.572h-29.913v-10.689h35.493v-7.571h-43.083V235.003h43.083zM484.842 228.767v6.236h37.727v-7.572h-36.612l-.893-1.336v-35.407h-7.81v36.743h6.473l1.115 1.336zM424.574 235.003h43.307v-7.572h-35.494v-9.352l.893-1.559h29.02v-7.572h-29.02l-.893-1.336v-9.353h35.494v-7.571h-43.307V208.948h6.697l1.116 1.559v4.677l-1.116 1.559h-6.697v18.26zM213.843 235.003h37.726v-7.572h-37.726v-9.352l1.117-1.559h31.028v-7.572H214.96l-1.117-1.336v-9.353h37.726v-7.571h-45.315v18.26h6.474l1.115 1.559v4.677l-1.115 1.336h-6.474v18.483h7.589z" fill="#fff"/><path fill-rule="evenodd" clip-rule="evenodd" d="M685.529 198.259h6.473v29.172h-6.473l-1.118 1.559v6.013h-32.367v-6.013l-1.115-1.559h-6.476v-29.172h6.476l1.115-1.558v-6.013h32.367v6.013l1.118 1.558zm-33.485 27.836 1.116 1.559h30.135l1.116-1.336v-26.723l-1.116-1.336H653.16l-1.116 1.336v26.5zM267.191 235.003h-7.589v-36.744h6.473l1.116-1.336v-6.235h32.145v6.235l1.116 1.336h6.474v14.475h-6.474l-1.116 1.559v6.013H291.3l10.715 8.461v6.236h-6.027l-10.492-8.24v-6.457h-18.305v14.697zm31.252-22.046.893-1.336v-11.803l-1.116-1.559h-29.913l-1.116 1.559v13.139h31.252zM368.543 235.003v-44.315h37.949v6.235l1.116 1.336h6.474v29.172h-6.474l-1.116 1.336v6.236h-37.949zm7.59-7.572h29.243l1.116-1.336v-26.5l-1.116-1.336h-29.243v29.172z" fill="#fff"/><path d="M627.708 227.431h-6.476l-1.115-1.558v-7.572l-12.501-20.042h-3.349l-1.115-1.336v-6.235h-15.179v44.315h7.588v-36.744h6.475l1.116 1.336v7.349l12.948 20.487h2.901l1.116 1.336v6.236h15.179v-44.315h-7.588v36.743z" fill="#fff"/><path fill-rule="evenodd" clip-rule="evenodd" d="M197.548 190.466v29.617H157.59v15.143H150v-44.76h47.548zm-7.59 7.571H157.59v14.475h32.368v-14.475z" fill="#fff"/><path d="M152.782 334.98c-1.92 0-3.664-.448-5.232-1.344a10.35 10.35 0 0 1-3.648-3.696v4.56h-4.656v-35.04h5.28v14.688c.992-1.6 2.224-2.864 3.696-3.792 1.504-.928 3.264-1.392 5.28-1.392 1.664 0 3.184.352 4.56 1.056a10.519 10.519 0 0 1 3.504 2.88 12.845 12.845 0 0 1 2.256 4.176c.544 1.568.816 3.232.816 4.992 0 1.76-.304 3.424-.912 4.992a12.299 12.299 0 0 1-2.496 4.128 11.994 11.994 0 0 1-3.792 2.784c-1.408.672-2.96 1.008-4.656 1.008zm-1.392-4.512c1.152 0 2.208-.224 3.168-.672a8.522 8.522 0 0 0 2.496-1.872 7.57 7.57 0 0 0 1.584-2.688 8.951 8.951 0 0 0 .576-3.168c0-1.504-.32-2.912-.96-4.224-.608-1.312-1.472-2.368-2.592-3.168-1.12-.8-2.416-1.2-3.888-1.2a6.065 6.065 0 0 0-2.976.768 8.591 8.591 0 0 0-2.496 1.968c-.704.8-1.296 1.696-1.776 2.688v6.624a5.438 5.438 0 0 0 1.008 2.016 8.57 8.57 0 0 0 1.68 1.536c.64.416 1.328.752 2.064 1.008s1.44.384 2.112.384zm32.109-16.512c-2.048.032-3.872.496-5.472 1.392-1.568.896-2.688 2.16-3.36 3.792v15.36h-5.28v-25.104h4.896v5.616c.864-1.728 2-3.104 3.408-4.128 1.408-1.056 2.896-1.632 4.464-1.728h.768c.224 0 .416.016.576.048v4.752zm3.841 20.544v-25.104h5.28V334.5h-5.28zm0-29.232v-5.808h5.28v5.808h-5.28zm34.137 29.232h-5.28v-14.064c0-2.336-.384-4.048-1.152-5.136-.736-1.088-1.84-1.632-3.312-1.632-1.024 0-2.048.256-3.072.768a9.338 9.338 0 0 0-2.688 2.112 7.702 7.702 0 0 0-1.728 3.024V334.5h-5.28v-25.104h4.8v5.04a9.781 9.781 0 0 1 2.496-2.88 11.911 11.911 0 0 1 3.552-1.92 12.835 12.835 0 0 1 4.176-.672c1.504 0 2.736.272 3.696.816a5.79 5.79 0 0 1 2.304 2.256c.576.928.96 2.016 1.152 3.264.224 1.216.336 2.512.336 3.888V334.5zm16.065.24c-1.696 0-3.248-.336-4.656-1.008a11.682 11.682 0 0 1-3.648-2.832c-.992-1.184-1.776-2.544-2.352-4.08a14.413 14.413 0 0 1-.816-4.848c0-1.792.288-3.472.864-5.04.576-1.568 1.376-2.944 2.4-4.128a11.31 11.31 0 0 1 3.696-2.832c1.408-.672 2.976-1.008 4.704-1.008 2.016 0 3.776.48 5.28 1.44 1.536.96 2.8 2.208 3.792 3.744v-4.752h4.656v24.384c0 2.432-.592 4.496-1.776 6.192-1.152 1.696-2.736 2.992-4.752 3.888-2.016.896-4.288 1.344-6.816 1.344-2.784 0-5.088-.48-6.912-1.44a14.106 14.106 0 0 1-4.656-3.936l2.976-2.784a9.324 9.324 0 0 0 3.696 3.072 11.612 11.612 0 0 0 4.896 1.056c1.44 0 2.768-.272 3.984-.816a6.377 6.377 0 0 0 2.976-2.448c.736-1.088 1.104-2.464 1.104-4.128v-3.84c-.896 1.504-2.128 2.688-3.696 3.552-1.568.832-3.216 1.248-4.944 1.248zm1.728-4.272c.8 0 1.568-.128 2.304-.384a8.763 8.763 0 0 0 2.016-1.104 8.543 8.543 0 0 0 1.632-1.584 6.009 6.009 0 0 0 .96-1.92V318.9a8.338 8.338 0 0 0-1.776-2.832 8.28 8.28 0 0 0-2.592-1.92c-.96-.448-1.936-.672-2.928-.672-1.152 0-2.192.256-3.12.768a7.134 7.134 0 0 0-2.304 1.968 9.046 9.046 0 0 0-1.488 2.736 9.679 9.679 0 0 0-.528 3.168c0 1.152.192 2.224.576 3.216a9.745 9.745 0 0 0 1.68 2.688 7.858 7.858 0 0 0 2.496 1.824c.96.416 1.984.624 3.072.624zm18.523 4.032v-25.104h5.28V334.5h-5.28zm0-29.232v-5.808h5.28v5.808h-5.28zM291.93 334.5h-5.28v-14.064c0-2.336-.384-4.048-1.152-5.136-.736-1.088-1.84-1.632-3.312-1.632-1.024 0-2.048.256-3.072.768a9.338 9.338 0 0 0-2.688 2.112 7.702 7.702 0 0 0-1.728 3.024V334.5h-5.28v-25.104h4.8v5.04a9.781 9.781 0 0 1 2.496-2.88 11.911 11.911 0 0 1 3.552-1.92 12.835 12.835 0 0 1 4.176-.672c1.504 0 2.736.272 3.696.816a5.79 5.79 0 0 1 2.304 2.256c.576.928.96 2.016 1.152 3.264.224 1.216.336 2.512.336 3.888V334.5zm16.065.24c-1.696 0-3.248-.336-4.656-1.008a11.682 11.682 0 0 1-3.648-2.832c-.992-1.184-1.776-2.544-2.352-4.08a14.413 14.413 0 0 1-.816-4.848c0-1.792.288-3.472.864-5.04.576-1.568 1.376-2.944 2.4-4.128a11.31 11.31 0 0 1 3.696-2.832c1.408-.672 2.976-1.008 4.704-1.008 2.016 0 3.776.48 5.28 1.44 1.536.96 2.8 2.208 3.792 3.744v-4.752h4.656v24.384c0 2.432-.592 4.496-1.776 6.192-1.152 1.696-2.736 2.992-4.752 3.888-2.016.896-4.288 1.344-6.816 1.344-2.784 0-5.088-.48-6.912-1.44a14.106 14.106 0 0 1-4.656-3.936l2.976-2.784a9.324 9.324 0 0 0 3.696 3.072 11.612 11.612 0 0 0 4.896 1.056c1.44 0 2.768-.272 3.984-.816a6.377 6.377 0 0 0 2.976-2.448c.736-1.088 1.104-2.464 1.104-4.128v-3.84c-.896 1.504-2.128 2.688-3.696 3.552-1.568.832-3.216 1.248-4.944 1.248zm1.728-4.272c.8 0 1.568-.128 2.304-.384a8.763 8.763 0 0 0 2.016-1.104 8.543 8.543 0 0 0 1.632-1.584 6.009 6.009 0 0 0 .96-1.92V318.9a8.338 8.338 0 0 0-1.776-2.832 8.28 8.28 0 0 0-2.592-1.92c-.96-.448-1.936-.672-2.928-.672-1.152 0-2.192.256-3.12.768a7.134 7.134 0 0 0-2.304 1.968 9.046 9.046 0 0 0-1.488 2.736 9.679 9.679 0 0 0-.528 3.168c0 1.152.192 2.224.576 3.216a9.745 9.745 0 0 0 1.68 2.688 7.858 7.858 0 0 0 2.496 1.824c.96.416 1.984.624 3.072.624zm44.639 4.512c-2.016 0-3.792-.48-5.328-1.44a10.748 10.748 0 0 1-3.648-3.744v14.928h-5.281v-35.328h4.657v4.512a10.894 10.894 0 0 1 3.744-3.6c1.536-.896 3.248-1.344 5.136-1.344 1.728 0 3.312.352 4.752 1.056a11.163 11.163 0 0 1 3.744 2.832 13.301 13.301 0 0 1 2.448 4.176 13.18 13.18 0 0 1 .912 4.896c0 2.4-.48 4.592-1.441 6.576-.927 1.984-2.239 3.568-3.935 4.752-1.664 1.152-3.584 1.728-5.76 1.728zm-1.728-4.512c1.12 0 2.128-.24 3.024-.72a7.226 7.226 0 0 0 2.352-1.92 8.515 8.515 0 0 0 1.536-2.736 9.679 9.679 0 0 0 .528-3.168c0-1.152-.192-2.24-.576-3.264a7.795 7.795 0 0 0-1.68-2.688 7.858 7.858 0 0 0-2.496-1.824c-.928-.448-1.952-.672-3.072-.672-.672 0-1.376.128-2.112.384a8.387 8.387 0 0 0-2.064 1.056 7.9 7.9 0 0 0-1.68 1.584 5.554 5.554 0 0 0-1.008 1.92v6.576a10.569 10.569 0 0 0 1.776 2.784 9.52 9.52 0 0 0 2.544 1.968c.96.48 1.936.72 2.928.72zm28.988 4.512c-1.952 0-3.728-.336-5.328-1.008a13.137 13.137 0 0 1-4.08-2.832 13.512 13.512 0 0 1-2.688-4.128 13.686 13.686 0 0 1-.912-4.992c0-2.368.544-4.528 1.632-6.48a12.502 12.502 0 0 1 4.56-4.752c1.952-1.216 4.24-1.824 6.864-1.824 2.624 0 4.88.608 6.768 1.824 1.92 1.184 3.408 2.752 4.464 4.704a13.013 13.013 0 0 1 1.584 6.288c0 .384-.016.752-.048 1.104-.032.32-.064.592-.096.816H374.23c.096 1.472.496 2.768 1.2 3.888a8.291 8.291 0 0 0 2.784 2.592 7.43 7.43 0 0 0 3.6.912 7.983 7.983 0 0 0 3.984-1.056c1.28-.704 2.144-1.632 2.592-2.784l4.512 1.296c-.544 1.216-1.376 2.32-2.496 3.312-1.088.96-2.384 1.728-3.888 2.304-1.504.544-3.136.816-4.896.816zm-7.536-14.784h15.168c-.096-1.44-.512-2.704-1.248-3.792-.704-1.12-1.616-1.984-2.736-2.592-1.088-.64-2.304-.96-3.648-.96-1.312 0-2.528.32-3.648.96-1.088.608-1.984 1.472-2.688 2.592-.704 1.088-1.104 2.352-1.2 3.792zm35.987 14.784c-1.984 0-3.76-.336-5.328-1.008a12.754 12.754 0 0 1-4.08-2.88 13.23 13.23 0 0 1-2.592-4.128 13.686 13.686 0 0 1-.912-4.992c0-1.76.304-3.424.912-4.992a12.536 12.536 0 0 1 2.592-4.128 12.147 12.147 0 0 1 4.08-2.832c1.6-.704 3.376-1.056 5.328-1.056 1.952 0 3.712.352 5.28 1.056 1.6.672 2.96 1.616 4.08 2.832a12.156 12.156 0 0 1 2.64 4.128c.608 1.568.912 3.232.912 4.992 0 1.76-.304 3.424-.912 4.992a12.808 12.808 0 0 1-2.64 4.128c-1.12 1.216-2.48 2.176-4.08 2.88-1.568.672-3.328 1.008-5.28 1.008zm-7.488-12.96c0 1.6.336 3.04 1.008 4.32.672 1.28 1.568 2.288 2.688 3.024 1.12.736 2.384 1.104 3.792 1.104 1.376 0 2.624-.368 3.744-1.104 1.152-.768 2.064-1.792 2.736-3.072.672-1.312 1.008-2.752 1.008-4.32 0-1.6-.336-3.04-1.008-4.32-.672-1.28-1.584-2.288-2.736-3.024a6.472 6.472 0 0 0-3.744-1.152c-1.408 0-2.672.384-3.792 1.152-1.12.768-2.016 1.792-2.688 3.072-.672 1.248-1.008 2.688-1.008 4.32zm39.339 12.96c-2.016 0-3.792-.48-5.328-1.44a10.748 10.748 0 0 1-3.648-3.744v14.928h-5.28v-35.328h4.656v4.512a10.894 10.894 0 0 1 3.744-3.6c1.536-.896 3.248-1.344 5.136-1.344 1.728 0 3.312.352 4.752 1.056a11.163 11.163 0 0 1 3.744 2.832 13.301 13.301 0 0 1 2.448 4.176 13.18 13.18 0 0 1 .912 4.896c0 2.4-.48 4.592-1.44 6.576-.928 1.984-2.24 3.568-3.936 4.752-1.664 1.152-3.584 1.728-5.76 1.728zm-1.728-4.512c1.12 0 2.128-.24 3.024-.72a7.226 7.226 0 0 0 2.352-1.92 8.515 8.515 0 0 0 1.536-2.736 9.679 9.679 0 0 0 .528-3.168c0-1.152-.192-2.24-.576-3.264a7.795 7.795 0 0 0-1.68-2.688 7.858 7.858 0 0 0-2.496-1.824c-.928-.448-1.952-.672-3.072-.672-.672 0-1.376.128-2.112.384a8.387 8.387 0 0 0-2.064 1.056 7.9 7.9 0 0 0-1.68 1.584 5.554 5.554 0 0 0-1.008 1.92v6.576a10.569 10.569 0 0 0 1.776 2.784 9.52 9.52 0 0 0 2.544 1.968c.96.48 1.936.72 2.928.72zm17.661-31.008h5.28v27.792c0 1.28.192 2.096.576 2.448.384.352.864.528 1.44.528.64 0 1.232-.064 1.776-.192a7.397 7.397 0 0 0 1.488-.48l.768 4.176c-.768.32-1.68.592-2.736.816-1.056.224-2 .336-2.832.336-1.792 0-3.2-.496-4.224-1.488-1.024-1.024-1.536-2.432-1.536-4.224V299.46zm25.765 35.52c-1.952 0-3.728-.336-5.328-1.008a13.137 13.137 0 0 1-4.08-2.832 13.512 13.512 0 0 1-2.688-4.128 13.686 13.686 0 0 1-.912-4.992c0-2.368.544-4.528 1.632-6.48a12.502 12.502 0 0 1 4.56-4.752c1.952-1.216 4.24-1.824 6.864-1.824 2.624 0 4.88.608 6.768 1.824 1.92 1.184 3.408 2.752 4.464 4.704a13.013 13.013 0 0 1 1.584 6.288c0 .384-.016.752-.048 1.104-.032.32-.064.592-.096.816H476.23c.096 1.472.496 2.768 1.2 3.888a8.291 8.291 0 0 0 2.784 2.592 7.43 7.43 0 0 0 3.6.912 7.983 7.983 0 0 0 3.984-1.056c1.28-.704 2.144-1.632 2.592-2.784l4.512 1.296c-.544 1.216-1.376 2.32-2.496 3.312-1.088.96-2.384 1.728-3.888 2.304-1.504.544-3.136.816-4.896.816zm-7.536-14.784h15.168c-.096-1.44-.512-2.704-1.248-3.792-.704-1.12-1.616-1.984-2.736-2.592-1.088-.64-2.304-.96-3.648-.96-1.312 0-2.528.32-3.648.96-1.088.608-1.984 1.472-2.688 2.592-.704 1.088-1.104 2.352-1.2 3.792zm50.534 13.008a18.79 18.79 0 0 1-1.68.72c-.672.256-1.44.48-2.304.672-.832.192-1.696.288-2.592.288-1.088 0-2.096-.192-3.024-.576a5.031 5.031 0 0 1-2.256-1.824c-.544-.864-.816-1.968-.816-3.312v-15.696h-3.312v-4.08h3.312v-8.256h5.28v8.256h5.472v4.08h-5.472v14.016c.064.864.336 1.504.816 1.92.512.416 1.136.624 1.872.624.736 0 1.44-.128 2.112-.384a17.727 17.727 0 0 0 1.488-.624l1.104 4.176zm14.609 1.776c-1.984 0-3.76-.336-5.328-1.008a12.754 12.754 0 0 1-4.08-2.88 13.23 13.23 0 0 1-2.592-4.128 13.686 13.686 0 0 1-.912-4.992c0-1.76.304-3.424.912-4.992a12.536 12.536 0 0 1 2.592-4.128 12.147 12.147 0 0 1 4.08-2.832c1.6-.704 3.376-1.056 5.328-1.056 1.952 0 3.712.352 5.28 1.056 1.6.672 2.96 1.616 4.08 2.832a12.156 12.156 0 0 1 2.64 4.128c.608 1.568.912 3.232.912 4.992 0 1.76-.304 3.424-.912 4.992a12.808 12.808 0 0 1-2.64 4.128c-1.12 1.216-2.48 2.176-4.08 2.88-1.568.672-3.328 1.008-5.28 1.008zm-7.488-12.96c0 1.6.336 3.04 1.008 4.32.672 1.28 1.568 2.288 2.688 3.024 1.12.736 2.384 1.104 3.792 1.104 1.376 0 2.624-.368 3.744-1.104 1.152-.768 2.064-1.792 2.736-3.072.672-1.312 1.008-2.752 1.008-4.32 0-1.6-.336-3.04-1.008-4.32-.672-1.28-1.584-2.288-2.736-3.024a6.472 6.472 0 0 0-3.744-1.152c-1.408 0-2.672.384-3.792 1.152-1.12.768-2.016 1.792-2.688 3.072-.672 1.248-1.008 2.688-1.008 4.32zm35.019 12.72c-1.696 0-3.248-.336-4.656-1.008a11.682 11.682 0 0 1-3.648-2.832c-.992-1.184-1.776-2.544-2.352-4.08a14.413 14.413 0 0 1-.816-4.848c0-1.792.288-3.472.864-5.04.576-1.568 1.376-2.944 2.4-4.128a11.31 11.31 0 0 1 3.696-2.832c1.408-.672 2.976-1.008 4.704-1.008 2.016 0 3.776.48 5.28 1.44 1.536.96 2.8 2.208 3.792 3.744v-4.752h4.656v24.384c0 2.432-.592 4.496-1.776 6.192-1.152 1.696-2.736 2.992-4.752 3.888-2.016.896-4.288 1.344-6.816 1.344-2.784 0-5.088-.48-6.912-1.44a14.106 14.106 0 0 1-4.656-3.936l2.976-2.784a9.324 9.324 0 0 0 3.696 3.072 11.612 11.612 0 0 0 4.896 1.056c1.44 0 2.768-.272 3.984-.816a6.377 6.377 0 0 0 2.976-2.448c.736-1.088 1.104-2.464 1.104-4.128v-3.84c-.896 1.504-2.128 2.688-3.696 3.552-1.568.832-3.216 1.248-4.944 1.248zm1.728-4.272c.8 0 1.568-.128 2.304-.384a8.763 8.763 0 0 0 2.016-1.104 8.543 8.543 0 0 0 1.632-1.584 6.009 6.009 0 0 0 .96-1.92V318.9a8.338 8.338 0 0 0-1.776-2.832 8.28 8.28 0 0 0-2.592-1.92c-.96-.448-1.936-.672-2.928-.672-1.152 0-2.192.256-3.12.768a7.134 7.134 0 0 0-2.304 1.968 9.046 9.046 0 0 0-1.488 2.736 9.679 9.679 0 0 0-.528 3.168c0 1.152.192 2.224.576 3.216a9.745 9.745 0 0 0 1.68 2.688 7.858 7.858 0 0 0 2.496 1.824c.96.416 1.984.624 3.072.624zm29.9 4.512c-1.952 0-3.728-.336-5.328-1.008a13.137 13.137 0 0 1-4.08-2.832 13.512 13.512 0 0 1-2.688-4.128 13.686 13.686 0 0 1-.912-4.992c0-2.368.544-4.528 1.632-6.48a12.502 12.502 0 0 1 4.56-4.752c1.952-1.216 4.24-1.824 6.864-1.824 2.624 0 4.88.608 6.768 1.824 1.92 1.184 3.408 2.752 4.464 4.704a13.013 13.013 0 0 1 1.584 6.288c0 .384-.016.752-.048 1.104-.032.32-.064.592-.096.816h-20.112c.096 1.472.496 2.768 1.2 3.888a8.291 8.291 0 0 0 2.784 2.592 7.43 7.43 0 0 0 3.6.912 7.983 7.983 0 0 0 3.984-1.056c1.28-.704 2.144-1.632 2.592-2.784l4.512 1.296c-.544 1.216-1.376 2.32-2.496 3.312-1.088.96-2.384 1.728-3.888 2.304-1.504.544-3.136.816-4.896.816zm-7.536-14.784h15.168c-.096-1.44-.512-2.704-1.248-3.792-.704-1.12-1.616-1.984-2.736-2.592-1.088-.64-2.304-.96-3.648-.96-1.312 0-2.528.32-3.648.96-1.088.608-1.984 1.472-2.688 2.592-.704 1.088-1.104 2.352-1.2 3.792zm38.44 13.008a18.79 18.79 0 0 1-1.68.72c-.672.256-1.44.48-2.304.672-.832.192-1.696.288-2.592.288-1.088 0-2.096-.192-3.024-.576a5.031 5.031 0 0 1-2.256-1.824c-.544-.864-.816-1.968-.816-3.312v-15.696h-3.312v-4.08h3.312v-8.256h5.28v8.256h5.472v4.08H623.9v14.016c.064.864.336 1.504.816 1.92.512.416 1.136.624 1.872.624.736 0 1.44-.128 2.112-.384a17.727 17.727 0 0 0 1.488-.624l1.104 4.176zm26.169 1.296h-5.28v-14.064c0-2.272-.416-3.968-1.248-5.088-.832-1.12-2-1.68-3.504-1.68-.928 0-1.888.256-2.88.768a8.744 8.744 0 0 0-2.64 2.112 8.016 8.016 0 0 0-1.68 3.024V334.5h-5.28v-35.04h5.28v14.976a10.46 10.46 0 0 1 3.936-3.984 10.317 10.317 0 0 1 5.376-1.488c1.568 0 2.864.272 3.888.816a6.043 6.043 0 0 1 2.4 2.256c.608.928 1.024 2.016 1.248 3.264.256 1.216.384 2.512.384 3.888V334.5zm17.505.48c-1.952 0-3.728-.336-5.328-1.008a13.137 13.137 0 0 1-4.08-2.832 13.512 13.512 0 0 1-2.688-4.128 13.686 13.686 0 0 1-.912-4.992c0-2.368.544-4.528 1.632-6.48a12.502 12.502 0 0 1 4.56-4.752c1.952-1.216 4.24-1.824 6.864-1.824 2.624 0 4.88.608 6.768 1.824 1.92 1.184 3.408 2.752 4.464 4.704a13.013 13.013 0 0 1 1.584 6.288c0 .384-.016.752-.048 1.104-.032.32-.064.592-.096.816h-20.112c.096 1.472.496 2.768 1.2 3.888a8.291 8.291 0 0 0 2.784 2.592 7.43 7.43 0 0 0 3.6.912 7.983 7.983 0 0 0 3.984-1.056c1.28-.704 2.144-1.632 2.592-2.784l4.512 1.296c-.544 1.216-1.376 2.32-2.496 3.312-1.088.96-2.384 1.728-3.888 2.304-1.504.544-3.136.816-4.896.816zm-7.536-14.784h15.168c-.096-1.44-.512-2.704-1.248-3.792-.704-1.12-1.616-1.984-2.736-2.592-1.088-.64-2.304-.96-3.648-.96-1.312 0-2.528.32-3.648.96-1.088.608-1.984 1.472-2.688 2.592-.704 1.088-1.104 2.352-1.2 3.792zm38.819-6.24c-2.048.032-3.872.496-5.472 1.392-1.568.896-2.688 2.16-3.36 3.792v15.36h-5.28v-25.104h4.896v5.616c.864-1.728 2-3.104 3.408-4.128 1.408-1.056 2.896-1.632 4.464-1.728h.768c.224 0 .416.016.576.048v4.752zm-445.944 84.2c0-1.6.448-2.992 1.344-4.176.928-1.216 2.192-2.144 3.792-2.784 1.6-.672 3.456-1.008 5.568-1.008 1.12 0 2.256.08 3.408.24 1.184.16 2.224.416 3.12.768v-1.584c0-1.76-.528-3.136-1.584-4.128s-2.576-1.488-4.56-1.488c-1.408 0-2.736.256-3.984.768-1.248.48-2.576 1.168-3.984 2.064l-1.776-3.552c1.664-1.12 3.328-1.952 4.992-2.496a17.337 17.337 0 0 1 5.328-.816c3.36 0 6 .896 7.92 2.688 1.952 1.76 2.928 4.272 2.928 7.536v9.36c0 .608.096 1.04.288 1.296.224.256.592.4 1.104.432v4.224a11.588 11.588 0 0 1-2.256.24c-1.12 0-1.968-.272-2.544-.816-.576-.544-.912-1.184-1.008-1.92l-.144-1.44c-1.088 1.408-2.48 2.496-4.176 3.264-1.696.768-3.408 1.152-5.136 1.152-1.664 0-3.152-.336-4.464-1.008-1.312-.704-2.336-1.648-3.072-2.832-.736-1.184-1.104-2.512-1.104-3.984zm15.984 1.536c.384-.416.688-.832.912-1.248.224-.416.336-.784.336-1.104v-2.88a13.676 13.676 0 0 0-2.832-.768 15.385 15.385 0 0 0-2.928-.288c-1.92 0-3.488.384-4.704 1.152-1.184.768-1.776 1.824-1.776 3.168 0 .736.192 1.44.576 2.112a4.715 4.715 0 0 0 1.728 1.632c.768.416 1.712.624 2.832.624a8.395 8.395 0 0 0 3.312-.672c1.056-.448 1.904-1.024 2.544-1.728zm27.046-14.736c-2.048.032-3.872.496-5.472 1.392-1.568.896-2.688 2.16-3.36 3.792v15.36h-5.28v-25.104h4.896v5.616c.864-1.728 2-3.104 3.408-4.128 1.408-1.056 2.896-1.632 4.464-1.728h.768c.224 0 .416.016.576.048v4.752zm14.652 21.024c-1.984 0-3.76-.336-5.328-1.008a12.754 12.754 0 0 1-4.08-2.88 13.23 13.23 0 0 1-2.592-4.128 13.686 13.686 0 0 1-.912-4.992c0-1.76.304-3.424.912-4.992a12.536 12.536 0 0 1 2.592-4.128 12.147 12.147 0 0 1 4.08-2.832c1.6-.704 3.376-1.056 5.328-1.056 1.952 0 3.712.352 5.28 1.056 1.6.672 2.96 1.616 4.08 2.832a12.156 12.156 0 0 1 2.64 4.128c.608 1.568.912 3.232.912 4.992 0 1.76-.304 3.424-.912 4.992a12.808 12.808 0 0 1-2.64 4.128c-1.12 1.216-2.48 2.176-4.08 2.88-1.568.672-3.328 1.008-5.28 1.008zm-7.488-12.96c0 1.6.336 3.04 1.008 4.32.672 1.28 1.568 2.288 2.688 3.024 1.12.736 2.384 1.104 3.792 1.104 1.376 0 2.624-.368 3.744-1.104 1.152-.768 2.064-1.792 2.736-3.072.672-1.312 1.008-2.752 1.008-4.32 0-1.6-.336-3.04-1.008-4.32-.672-1.28-1.584-2.288-2.736-3.024a6.472 6.472 0 0 0-3.744-1.152c-1.408 0-2.672.384-3.792 1.152-1.12.768-2.016 1.792-2.688 3.072-.672 1.248-1.008 2.688-1.008 4.32zm24.843 2.736v-15.36h5.28V394.7c0 2.24.4 3.936 1.2 5.088.832 1.12 2.032 1.68 3.6 1.68.992 0 1.952-.208 2.88-.624a7.965 7.965 0 0 0 2.592-1.824c.8-.832 1.44-1.824 1.92-2.976v-15.648h5.28v19.152c0 .608.112 1.04.336 1.296.224.256.592.4 1.104.432v4.224c-.544.096-.992.16-1.344.192a11.15 11.15 0 0 1-1.008.048c-.96 0-1.76-.256-2.4-.768a3.082 3.082 0 0 1-1.104-2.064l-.096-2.496c-1.12 1.824-2.576 3.216-4.368 4.176-1.792.928-3.76 1.392-5.904 1.392-2.624 0-4.608-.864-5.952-2.592-1.344-1.728-2.016-4.272-2.016-7.632zm52.002 9.744h-5.28v-14.064c0-2.336-.384-4.048-1.152-5.136-.736-1.088-1.84-1.632-3.312-1.632-1.024 0-2.048.256-3.072.768a9.338 9.338 0 0 0-2.688 2.112 7.702 7.702 0 0 0-1.728 3.024V405.5h-5.28v-25.104h4.8v5.04a9.781 9.781 0 0 1 2.496-2.88 11.911 11.911 0 0 1 3.552-1.92 12.835 12.835 0 0 1 4.176-.672c1.504 0 2.736.272 3.696.816a5.79 5.79 0 0 1 2.304 2.256c.576.928.96 2.016 1.152 3.264.224 1.216.336 2.512.336 3.888V405.5zm4.545-12.528c0-2.4.48-4.576 1.44-6.528.992-1.984 2.336-3.552 4.032-4.704 1.696-1.184 3.648-1.776 5.856-1.776 1.92 0 3.648.496 5.184 1.488 1.568.992 2.784 2.224 3.648 3.696V370.46h5.28v29.088c0 .608.112 1.04.336 1.296.224.256.592.4 1.104.432v4.224c-.992.16-1.76.24-2.304.24-.992 0-1.84-.288-2.544-.864-.672-.576-1.024-1.264-1.056-2.064l-.048-1.872a10.16 10.16 0 0 1-3.888 3.744c-1.632.864-3.328 1.296-5.088 1.296-1.728 0-3.328-.336-4.8-1.008a11.67 11.67 0 0 1-3.792-2.832 14.065 14.065 0 0 1-2.496-4.176c-.576-1.568-.864-3.232-.864-4.992zm20.16 3.504V389.9a7.096 7.096 0 0 0-1.728-2.736 8.764 8.764 0 0 0-2.64-1.968c-.96-.48-1.92-.72-2.88-.72-1.12 0-2.144.24-3.072.72a7.96 7.96 0 0 0-2.352 1.92 9.046 9.046 0 0 0-1.488 2.736 9.823 9.823 0 0 0-.528 3.216c0 1.152.192 2.24.576 3.264a8.903 8.903 0 0 0 1.632 2.688 8.64 8.64 0 0 0 2.496 1.824c.96.416 2 .624 3.12.624.704 0 1.408-.128 2.112-.384a8.387 8.387 0 0 0 2.064-1.056 6.629 6.629 0 0 0 1.68-1.584 5.486 5.486 0 0 0 1.008-1.968zm35.222 9.504c-1.952 0-3.728-.336-5.328-1.008a13.137 13.137 0 0 1-4.08-2.832 13.512 13.512 0 0 1-2.688-4.128 13.686 13.686 0 0 1-.912-4.992c0-2.368.544-4.528 1.632-6.48a12.502 12.502 0 0 1 4.56-4.752c1.952-1.216 4.24-1.824 6.864-1.824 2.624 0 4.88.608 6.768 1.824 1.92 1.184 3.408 2.752 4.464 4.704a13.013 13.013 0 0 1 1.584 6.288c0 .384-.016.752-.048 1.104-.032.32-.064.592-.096.816h-20.112c.096 1.472.496 2.768 1.2 3.888a8.291 8.291 0 0 0 2.784 2.592 7.43 7.43 0 0 0 3.6.912 7.983 7.983 0 0 0 3.984-1.056c1.28-.704 2.144-1.632 2.592-2.784l4.512 1.296c-.544 1.216-1.376 2.32-2.496 3.312-1.088.96-2.384 1.728-3.888 2.304-1.504.544-3.136.816-4.896.816zm-7.536-14.784h15.168c-.096-1.44-.512-2.704-1.248-3.792-.704-1.12-1.616-1.984-2.736-2.592-1.088-.64-2.304-.96-3.648-.96-1.312 0-2.528.32-3.648.96-1.088.608-1.984 1.472-2.688 2.592-.704 1.088-1.104 2.352-1.2 3.792zm31.011 14.304-9.552-25.104h5.472l7.152 20.208 7.152-20.208h5.088l-9.552 25.104h-5.76zm29.634.48c-1.952 0-3.728-.336-5.328-1.008a13.137 13.137 0 0 1-4.08-2.832 13.512 13.512 0 0 1-2.688-4.128 13.686 13.686 0 0 1-.912-4.992c0-2.368.544-4.528 1.632-6.48a12.502 12.502 0 0 1 4.56-4.752c1.952-1.216 4.24-1.824 6.864-1.824 2.624 0 4.88.608 6.768 1.824 1.92 1.184 3.408 2.752 4.464 4.704a13.013 13.013 0 0 1 1.584 6.288c0 .384-.016.752-.048 1.104-.032.32-.064.592-.096.816h-20.112c.096 1.472.496 2.768 1.2 3.888a8.291 8.291 0 0 0 2.784 2.592 7.43 7.43 0 0 0 3.6.912 7.983 7.983 0 0 0 3.984-1.056c1.28-.704 2.144-1.632 2.592-2.784l4.512 1.296c-.544 1.216-1.376 2.32-2.496 3.312-1.088.96-2.384 1.728-3.888 2.304-1.504.544-3.136.816-4.896.816zm-7.536-14.784h15.168c-.096-1.44-.512-2.704-1.248-3.792-.704-1.12-1.616-1.984-2.736-2.592-1.088-.64-2.304-.96-3.648-.96-1.312 0-2.528.32-3.648.96-1.088.608-1.984 1.472-2.688 2.592-.704 1.088-1.104 2.352-1.2 3.792zm47.219 14.304h-5.28v-14.064c0-2.336-.384-4.048-1.152-5.136-.736-1.088-1.84-1.632-3.312-1.632-1.024 0-2.048.256-3.072.768a9.338 9.338 0 0 0-2.688 2.112 7.702 7.702 0 0 0-1.728 3.024V405.5h-5.28v-25.104h4.8v5.04a9.781 9.781 0 0 1 2.496-2.88 11.911 11.911 0 0 1 3.552-1.92 12.835 12.835 0 0 1 4.176-.672c1.504 0 2.736.272 3.696.816a5.79 5.79 0 0 1 2.304 2.256c.576.928.96 2.016 1.152 3.264.224 1.216.336 2.512.336 3.888V405.5zm19.909-1.296a18.79 18.79 0 0 1-1.68.72c-.672.256-1.44.48-2.304.672-.832.192-1.696.288-2.592.288-1.088 0-2.096-.192-3.024-.576a5.031 5.031 0 0 1-2.256-1.824c-.544-.864-.816-1.968-.816-3.312v-15.696h-3.312v-4.08h3.312v-8.256h5.28v8.256h5.472v4.08h-5.472v14.016c.064.864.336 1.504.816 1.92.512.416 1.136.624 1.872.624.736 0 1.44-.128 2.112-.384a17.727 17.727 0 0 0 1.488-.624l1.104 4.176zm12.585 1.776c-2.112 0-4.112-.336-6-1.008-1.888-.704-3.504-1.744-4.848-3.12l1.968-3.552c1.44 1.28 2.88 2.208 4.32 2.784 1.472.576 2.928.864 4.368.864 1.472 0 2.672-.272 3.6-.816.928-.576 1.392-1.408 1.392-2.496 0-.8-.24-1.392-.72-1.776-.48-.384-1.184-.72-2.112-1.008a81.59 81.59 0 0 0-3.264-.96c-1.792-.544-3.296-1.104-4.512-1.68-1.216-.608-2.128-1.344-2.736-2.208-.608-.864-.912-1.968-.912-3.312 0-1.632.416-3.024 1.248-4.176.832-1.152 1.984-2.032 3.456-2.64 1.504-.608 3.232-.912 5.184-.912 1.824 0 3.504.288 5.04.864a10.753 10.753 0 0 1 4.128 2.592l-2.256 3.504c-1.12-1.024-2.272-1.776-3.456-2.256-1.152-.48-2.4-.72-3.744-.72-.768 0-1.504.096-2.208.288-.704.16-1.296.48-1.776.96-.448.448-.672 1.088-.672 1.92 0 .672.192 1.216.576 1.632.384.416.96.768 1.728 1.056a56.45 56.45 0 0 0 2.832.96c1.952.576 3.616 1.152 4.992 1.728 1.376.544 2.432 1.264 3.168 2.16.768.864 1.152 2.064 1.152 3.6 0 2.432-.912 4.336-2.736 5.712-1.792 1.344-4.192 2.016-7.2 2.016z" fill="#fff"/><path d="m805 332.5 6.449 31.551L843 370.5l-31.551 6.449L805 408.5l-6.449-31.551L767 370.5l31.551-6.449L805 332.5z" fill="#48C78E"/></g><defs><clipPath id="a"><path fill="#fff" d="M0 0h836v469.438H0z"/></clipPath></defs></svg>