<svg width="1569" height="703" fill="none" xmlns="http://www.w3.org/2000/svg"><g clip-path="url(#a)"><path fill="#181818" d="M0 0h1569v703H0z"/><g opacity=".6"><path opacity=".03" d="M383.911-18.644H-.211v359.585L383.911-18.644z" fill="#546FEF"/><path opacity=".03" d="M1292.41 340.941v-62.075H970.141v-87.057h277.589v-61.321H970.141V43.432h322.269v-62.076H908.82v359.585H1292.41zM516.758 222.47H664.87v50.805l84.793 67.533h48.497v-50.583l-86.39-67.888h65.403v-49.341l8.874-11.847h52.447V42.544h-53.245l-7.943-10.604v-50.584H516.758v50.717l-7.942 10.604H455.57v298.264h61.322l-.134-118.471zm0-61.321V54.658l8.875-12.114h242.266l8.875 12.114v95.531l-8.164 10.827-251.852.133z" fill="#fff"/><path opacity=".03" d="M908.297 796.322h384.123V436.737L908.297 796.322z" fill="#546FEF"/><path opacity=".03" d="M455.309 796.322h383.322v-62.076H516.629v-75.608l8.609-11.448H793.95v-61.321H525.149l-8.52-11.359v-75.697h322.002v-62.076H455.309v149.265h52.89l8.43 11.226v38.736l-8.519 11.359h-52.801v148.999zM319.356 796.322v-50.717l8.341-10.604h55.73V498.058h-55.774l-8.297-10.56v-50.761H-.117v359.407h319.473v.178zM63.866 498.058H309.86l9.496 12.114v212.715l-9.496 12.114H63.866V498.058z" fill="#fff"/></g><path d="m406 230 6.449 31.551L444 268l-31.551 6.449L406 306l-6.449-31.551L368 268l31.551-6.449L406 230z" fill="#fff"/><path d="m578.07 232.192 24.54 109.616h-19.474l-5.066-23.02h-41.163l-5.383 23.02H513l25.173-109.616h39.897zm-3.325 70.154-11.715-52.615h-10.45l-12.349 52.615h34.514zm109.376-70.154v17.539h-52.405v28.5h50.821v17.225h-50.821v46.352h-18.998V232.192h71.403zm37.362 92.077v-74.538h-25.648v-17.539h70.295v17.539h-25.648v74.538h25.648v17.539h-70.295v-17.539h25.648zm53.814-21.61h18.524v6.264c0 3.289.475 6.107 1.741 8.3 1.267 2.192 2.85 4.071 5.067 5.48 2.216 1.41 4.749 2.506 7.758 3.132 3.008.627 6.332.94 10.132.94 7.916 0 13.774-1.253 17.257-3.759 3.483-2.505 5.383-6.576 5.383-12.37 0-4.385-1.267-7.673-3.483-10.179-2.217-2.505-5.858-4.228-10.924-5.168l-24.065-5.167c-9.183-1.879-15.832-5.324-19.948-10.492-4.117-5.167-6.017-11.275-6.017-18.478 0-4.385.792-8.456 2.533-12.214 1.584-3.758 4.117-7.047 7.442-9.866 3.324-2.818 7.599-5.011 12.665-6.577 5.067-1.565 10.924-2.505 17.574-2.505 6.649 0 12.665.783 17.89 2.349 5.066 1.566 9.341 3.758 12.824 6.577 3.325 2.819 5.858 5.95 7.599 9.709 1.742 3.758 2.692 7.673 2.692 11.901v8.612h-18.524v-4.228c0-3.445-.633-6.42-1.741-8.769-1.267-2.349-2.85-4.228-4.908-5.637-2.058-1.253-4.433-2.193-7.283-2.819-2.85-.626-5.699-.94-8.866-.94-2.85 0-5.541.314-8.074.783-2.533.47-4.591 1.253-6.491 2.349-1.9 1.097-3.483 2.506-4.592 4.385-1.108 1.879-1.583 4.071-1.583 6.733 0 1.566.159 3.132.475 4.542.317 1.566.95 2.818 2.058 3.915.95 1.252 2.375 2.192 4.275 3.131 1.9.94 4.433 1.723 7.599 2.349l22.798 4.542c8.866 1.879 15.674 5.167 20.424 10.178 4.591 5.011 6.966 11.588 6.966 20.044 0 5.168-.95 9.865-2.692 14.093-1.899 4.228-4.591 7.83-8.074 10.805-3.641 2.976-8.074 5.325-13.457 6.891-5.383 1.722-11.399 2.505-18.365 2.505-8.233 0-15.041-.94-20.424-2.975-5.383-1.879-9.816-4.385-12.982-7.517-3.325-3.132-5.7-6.577-7.124-10.335-1.425-3.758-2.059-7.36-2.059-10.961v-9.553zm116.939-70.467v45.099h44.014v-45.099h18.998v109.616H936.25V294.83h-44.014v46.978h-18.998V232.192h18.998zm138.224 0L1055 341.808h-19.47l-5.07-23.02h-41.163l-5.383 23.02H965.39l25.173-109.616h39.897zm-3.32 70.154-11.72-52.615h-10.45l-12.349 52.615h34.519z" fill="#48C78E"/><path d="M908.336 392.26h20.311v-7.571h-20.311v7.571z" fill="#fff"/><path d="M941.152 365.982v36.521h-7.811v-35.185l-1.118-1.336h-27.457l-1.115 1.336v35.185h-7.589v-36.521h6.473l1.116-1.559v-6.235h29.69v6.235l1.116 1.559h6.695zM722.165 402.503v-7.572h-35.493V384.02h29.913v-7.572h-29.913v-10.689h35.493v-7.571h-43.083V402.503h43.083zM847.842 396.268v6.235h37.727v-7.572h-36.612l-.893-1.336v-35.407h-7.81v36.743h6.473l1.115 1.337zM787.574 402.503h43.307v-7.572h-35.494v-9.352l.893-1.559h29.02v-7.572h-29.02l-.893-1.336v-9.353h35.494v-7.571h-43.307V376.448h6.697l1.116 1.559v4.677l-1.116 1.559h-6.697v18.26zM576.843 402.503h37.726v-7.572h-37.726v-9.352l1.117-1.559h31.028v-7.572H577.96l-1.117-1.336v-9.353h37.726v-7.571h-45.315v18.26h6.474l1.115 1.559v4.677l-1.115 1.336h-6.474v18.483h7.589z" fill="#fff"/><path fill-rule="evenodd" clip-rule="evenodd" d="M1048.53 365.759h6.47v29.172h-6.47l-1.12 1.559v6.013h-32.37v-6.013l-1.11-1.559h-6.48v-29.172h6.48l1.11-1.558v-6.013h32.37v6.013l1.12 1.558zm-33.49 27.836 1.12 1.559h30.14l1.11-1.336v-26.722l-1.11-1.337h-30.14l-1.12 1.337v26.499zM630.191 402.503h-7.589v-36.744h6.473l1.116-1.336v-6.235h32.145v6.235l1.116 1.336h6.474v14.475h-6.474l-1.116 1.559v6.013H654.3l10.715 8.462v6.235h-6.027l-10.492-8.239v-6.458h-18.305v14.697zm31.252-22.046.893-1.336v-11.803l-1.116-1.559h-29.913l-1.116 1.559v13.139h31.252zM731.543 402.503v-44.315h37.949v6.235l1.116 1.336h6.474v29.172h-6.474l-1.116 1.337v6.235h-37.949zm7.59-7.572h29.243l1.116-1.336v-26.499l-1.116-1.337h-29.243v29.172z" fill="#fff"/><path d="M990.708 394.931h-6.476l-1.115-1.558v-7.572l-12.501-20.042h-3.349l-1.115-1.336v-6.235h-15.179v44.315h7.588v-36.744h6.475l1.116 1.337v7.348l12.948 20.487h2.901l1.116 1.337v6.235h15.179v-44.315h-7.588v36.743z" fill="#fff"/><path fill-rule="evenodd" clip-rule="evenodd" d="M560.548 357.966v29.617H520.59v15.143H513v-44.76h47.548zm-7.59 7.571H520.59v14.475h32.368v-14.475z" fill="#fff"/><path d="M514.085 465.32c-1.323 0-2.507-.224-3.552-.672a8.496 8.496 0 0 1-2.72-1.92 8.812 8.812 0 0 1-1.728-2.752 9.13 9.13 0 0 1-.608-3.328 9.13 9.13 0 0 1 .608-3.328 8.346 8.346 0 0 1 1.728-2.752 8.097 8.097 0 0 1 2.72-1.888c1.067-.469 2.251-.704 3.552-.704 1.301 0 2.475.235 3.52.704a7.691 7.691 0 0 1 2.72 1.888 8.1 8.1 0 0 1 1.76 2.752 9.13 9.13 0 0 1 .608 3.328 9.13 9.13 0 0 1-.608 3.328 8.536 8.536 0 0 1-1.76 2.752 8.05 8.05 0 0 1-2.72 1.92c-1.045.448-2.219.672-3.52.672zm-4.992-8.64c0 1.067.224 2.027.672 2.88.448.853 1.045 1.525 1.792 2.016.747.491 1.589.736 2.528.736.917 0 1.749-.245 2.496-.736a5.47 5.47 0 0 0 1.824-2.048c.448-.875.672-1.835.672-2.88 0-1.067-.224-2.027-.672-2.88-.448-.853-1.056-1.525-1.824-2.016a4.316 4.316 0 0 0-2.496-.768c-.939 0-1.781.256-2.528.768-.747.512-1.344 1.195-1.792 2.048-.448.832-.672 1.792-.672 2.88zm24.818 8.64c-2.795 0-4.917-.843-6.368-2.528-1.451-1.685-2.176-4.096-2.176-7.232 0-2.048.171-3.776.512-5.184.363-1.429.885-2.603 1.568-3.52a8.46 8.46 0 0 1 2.592-2.24c1.045-.597 2.251-1.077 3.616-1.44l7.136-1.984.128 2.944-7.008 1.984c-1.109.341-2.059.789-2.848 1.344a5.874 5.874 0 0 0-1.824 2.176c-.448.875-.747 1.984-.896 3.328a6.428 6.428 0 0 1 2.56-2.56c1.109-.619 2.421-.928 3.936-.928 1.557 0 2.901.331 4.032.992a6.632 6.632 0 0 1 2.624 2.688c.619 1.152.928 2.475.928 3.968 0 1.621-.331 3.051-.992 4.288-.64 1.216-1.6 2.176-2.88 2.88-1.259.683-2.805 1.024-4.64 1.024zm0-3.008c1.557 0 2.763-.459 3.616-1.376.875-.917 1.312-2.133 1.312-3.648 0-1.451-.437-2.635-1.312-3.552-.853-.939-2.059-1.408-3.616-1.408-.917 0-1.749.203-2.496.608a4.21 4.21 0 0 0-1.76 1.696c-.427.725-.64 1.611-.64 2.656 0 .981.192 1.856.576 2.624a4.27 4.27 0 0 0 1.664 1.76c.725.427 1.611.64 2.656.64zM548.073 465v-13.856h-4.576v-2.88h8.032v5.504h4.032c1.984 0 3.488.501 4.512 1.504 1.024 1.003 1.536 2.325 1.536 3.968 0 1.109-.224 2.101-.672 2.976a4.638 4.638 0 0 1-1.952 2.048c-.875.491-1.952.736-3.232.736h-7.68zm3.456-2.72h3.712c.683 0 1.237-.128 1.664-.384.427-.277.747-.64.96-1.088.213-.469.32-.971.32-1.504s-.096-1.013-.288-1.44a2.19 2.19 0 0 0-.96-1.056c-.427-.277-1.013-.416-1.76-.416h-3.648v5.888zm20.558 3.04c-1.302 0-2.486-.224-3.552-.672a8.75 8.75 0 0 1-2.72-1.888 9 9 0 0 1-1.792-2.752 9.11 9.11 0 0 1-.608-3.328c0-1.579.362-3.019 1.088-4.32a8.322 8.322 0 0 1 3.04-3.168c1.301-.811 2.826-1.216 4.576-1.216 1.749 0 3.253.405 4.512 1.216a8.233 8.233 0 0 1 2.976 3.136 8.675 8.675 0 0 1 1.056 4.192 8.264 8.264 0 0 1-.096 1.28h-13.408c.064.981.33 1.845.8 2.592a5.525 5.525 0 0 0 1.856 1.728 4.954 4.954 0 0 0 2.4.608c.938 0 1.824-.235 2.656-.704.853-.469 1.429-1.088 1.728-1.856l3.008.864c-.363.811-.918 1.547-1.664 2.208-.726.64-1.59 1.152-2.592 1.536-1.003.363-2.091.544-3.264.544zm-5.024-9.856h10.112c-.064-.96-.342-1.803-.832-2.528a4.885 4.885 0 0 0-1.824-1.728c-.726-.427-1.536-.64-2.432-.64-.875 0-1.686.213-2.432.64a4.944 4.944 0 0 0-1.792 1.728c-.47.725-.736 1.568-.8 2.528zM581.934 469v-7.104h.384c.448 0 .864-.128 1.248-.384s.725-.693 1.024-1.312c.299-.64.544-1.515.736-2.624.192-1.131.309-2.549.352-4.256l.192-5.056h11.936v13.632h2.304V469h-3.104v-4h-12v4h-3.072zm5.024-7.104h7.328v-10.592h-5.312l-.096 2.336c-.064 1.621-.181 2.987-.352 4.096-.149 1.109-.363 1.995-.64 2.656-.256.661-.565 1.163-.928 1.504zM603.096 465v-16.704h3.52v12l8.48-12.032h3.2V465h-3.52v-11.744L606.392 465h-3.296zm19.407 0v-16.736h3.52v6.656h7.776v-6.656h3.52V465h-3.52v-7.04h-7.776V465h-3.52zm18.006 0 4.48-6.624c-1.045-.256-1.877-.789-2.496-1.6s-.928-1.899-.928-3.264c0-1.045.235-1.963.704-2.752.491-.789 1.173-1.408 2.048-1.856.875-.448 1.888-.672 3.04-.672h7.36V465h-3.52v-6.048h-2.752L644.349 465h-3.84zm7.2-8.608h3.488v-5.44h-3.264c-.896 0-1.611.245-2.144.736-.512.491-.768 1.131-.768 1.92 0 .789.224 1.451.672 1.984.469.533 1.141.8 2.016.8zm18.846 8.928c-1.301 0-2.485-.224-3.552-.672a8.762 8.762 0 0 1-2.72-1.888 9.018 9.018 0 0 1-1.792-2.752 9.13 9.13 0 0 1-.608-3.328c0-1.579.363-3.019 1.088-4.32a8.337 8.337 0 0 1 3.04-3.168c1.302-.811 2.827-1.216 4.576-1.216 1.75 0 3.254.405 4.512 1.216a8.233 8.233 0 0 1 2.976 3.136 8.675 8.675 0 0 1 1.056 4.192c0 .256-.01.501-.032.736-.021.213-.042.395-.064.544h-13.408c.064.981.331 1.845.8 2.592a5.544 5.544 0 0 0 1.856 1.728 4.96 4.96 0 0 0 2.4.608c.939 0 1.824-.235 2.656-.704.854-.469 1.43-1.088 1.728-1.856l3.008.864c-.362.811-.917 1.547-1.664 2.208-.725.64-1.589 1.152-2.592 1.536-1.002.363-2.09.544-3.264.544zm-5.024-9.856h10.112c-.064-.96-.341-1.803-.832-2.528a4.87 4.87 0 0 0-1.824-1.728c-.725-.427-1.536-.64-2.432-.64-.874 0-1.685.213-2.432.64a4.96 4.96 0 0 0-1.792 1.728c-.469.725-.736 1.568-.8 2.528zM678.003 465v-16.736h3.648l5.76 10.336 5.792-10.336h3.584V465h-3.36v-11.776l-4.928 8.8h-2.208l-4.96-8.8V465h-3.328zm29.562.16v-3.136c.533 0 1.013-.128 1.44-.384.427-.277.8-.725 1.12-1.344.32-.64.576-1.525.768-2.656.192-1.131.32-2.571.384-4.32l.224-5.056h11.936V465h-3.52v-13.632h-5.312l-.064 2.272c-.085 2.24-.288 4.107-.608 5.6-.32 1.472-.768 2.645-1.344 3.52-.555.853-1.259 1.472-2.112 1.856-.832.363-1.803.544-2.912.544zm34.494.16c-1.472 0-2.784-.309-3.936-.928a7.638 7.638 0 0 1-2.752-2.528c-.683-1.088-1.12-2.315-1.312-3.68h-2.88V465h-3.52v-16.736h3.52v6.848h2.88c.192-1.408.64-2.645 1.344-3.712a7.526 7.526 0 0 1 2.784-2.528c1.131-.597 2.421-.896 3.872-.896 1.749 0 3.243.395 4.48 1.184a7.907 7.907 0 0 1 2.848 3.136c.661 1.301.992 2.752.992 4.352 0 1.643-.341 3.115-1.024 4.416a7.612 7.612 0 0 1-2.88 3.104c-1.237.768-2.709 1.152-4.416 1.152zm0-3.008c.939 0 1.76-.235 2.464-.704.704-.491 1.259-1.152 1.664-1.984.405-.853.608-1.845.608-2.976 0-1.152-.203-2.144-.608-2.976-.405-.853-.971-1.515-1.696-1.984a4.383 4.383 0 0 0-2.432-.704c-.896 0-1.696.235-2.4.704-.683.469-1.216 1.131-1.6 1.984-.384.853-.576 1.845-.576 2.976 0 1.152.192 2.155.576 3.008.405.853.949 1.515 1.632 1.984a4.317 4.317 0 0 0 2.368.672zm9.875 6.688v-7.104h.384c.448 0 .864-.128 1.248-.384s.725-.693 1.024-1.312c.299-.64.544-1.515.736-2.624.192-1.131.309-2.549.352-4.256l.192-5.056h11.936v13.632h2.304V469h-3.104v-4h-12v4h-3.072zm5.024-7.104h7.328v-10.592h-5.312l-.096 2.336c-.064 1.621-.181 2.987-.352 4.096-.149 1.109-.363 1.995-.64 2.656-.256.661-.565 1.163-.928 1.504zm23.722 3.424c-1.301 0-2.485-.224-3.552-.672a8.762 8.762 0 0 1-2.72-1.888 9.018 9.018 0 0 1-1.792-2.752 9.13 9.13 0 0 1-.608-3.328c0-1.579.363-3.019 1.088-4.32a8.337 8.337 0 0 1 3.04-3.168c1.302-.811 2.827-1.216 4.576-1.216 1.75 0 3.254.405 4.512 1.216a8.233 8.233 0 0 1 2.976 3.136 8.675 8.675 0 0 1 1.056 4.192c0 .256-.01.501-.032.736-.021.213-.042.395-.064.544h-13.408c.064.981.331 1.845.8 2.592a5.544 5.544 0 0 0 1.856 1.728 4.96 4.96 0 0 0 2.4.608c.939 0 1.824-.235 2.656-.704.854-.469 1.43-1.088 1.728-1.856l3.008.864c-.362.811-.917 1.547-1.664 2.208-.725.64-1.589 1.152-2.592 1.536-1.002.363-2.09.544-3.264.544zm-5.024-9.856h10.112c-.064-.96-.341-1.803-.832-2.528a4.87 4.87 0 0 0-1.824-1.728c-.725-.427-1.536-.64-2.432-.64-.874 0-1.685.213-2.432.64a4.96 4.96 0 0 0-1.792 1.728c-.469.725-.736 1.568-.8 2.528zM792.128 465v-16.704h3.52v12l8.48-12.032h3.2V465h-3.52v-11.744L795.424 465h-3.296zm7.616-18.464c-1.579 0-2.806-.395-3.68-1.184-.854-.789-1.28-1.781-1.28-2.976h2.304c0 .619.202 1.131.608 1.536.426.405 1.109.608 2.048.608.917 0 1.568-.192 1.952-.576.405-.384.65-.907.736-1.568h2.304c0 1.195-.438 2.187-1.312 2.976-.854.789-2.08 1.184-3.68 1.184zM819.44 465v-16.736h8.96c1.067 0 1.941.203 2.624.608.704.384 1.227.885 1.568 1.504.341.597.512 1.259.512 1.984 0 .917-.213 1.728-.64 2.432-.427.704-1.056 1.237-1.888 1.6.96.277 1.739.768 2.336 1.472.619.683.928 1.568.928 2.656 0 .981-.235 1.813-.704 2.496-.469.661-1.141 1.163-2.016 1.504-.853.32-1.856.48-3.008.48h-8.672zm3.328-2.432h5.248c.448 0 .853-.107 1.216-.32a2.57 2.57 0 0 0 .896-.896 2.47 2.47 0 0 0 .32-1.216 2.42 2.42 0 0 0-.32-1.248 2.153 2.153 0 0 0-.832-.864c-.341-.213-.747-.32-1.216-.32h-5.312v4.864zm0-7.136h4.736a2.19 2.19 0 0 0 1.184-.32 2.42 2.42 0 0 0 .8-.928c.192-.384.288-.789.288-1.216 0-.619-.203-1.152-.608-1.6-.405-.448-.939-.672-1.6-.672h-4.8v4.736zm21.942 9.888c-1.323 0-2.507-.224-3.552-.672a8.496 8.496 0 0 1-2.72-1.92 8.812 8.812 0 0 1-1.728-2.752 9.13 9.13 0 0 1-.608-3.328 9.13 9.13 0 0 1 .608-3.328 8.346 8.346 0 0 1 1.728-2.752 8.097 8.097 0 0 1 2.72-1.888c1.067-.469 2.251-.704 3.552-.704 1.301 0 2.475.235 3.52.704a7.691 7.691 0 0 1 2.72 1.888 8.1 8.1 0 0 1 1.76 2.752 9.13 9.13 0 0 1 .608 3.328 9.13 9.13 0 0 1-.608 3.328 8.536 8.536 0 0 1-1.76 2.752 8.05 8.05 0 0 1-2.72 1.92c-1.045.448-2.219.672-3.52.672zm-4.992-8.64c0 1.067.224 2.027.672 2.88.448.853 1.045 1.525 1.792 2.016.747.491 1.589.736 2.528.736.917 0 1.749-.245 2.496-.736a5.47 5.47 0 0 0 1.824-2.048c.448-.875.672-1.835.672-2.88 0-1.067-.224-2.027-.672-2.88-.448-.853-1.056-1.525-1.824-2.016a4.316 4.316 0 0 0-2.496-.768c-.939 0-1.781.256-2.528.768-.747.512-1.344 1.195-1.792 2.048-.448.832-.672 1.792-.672 2.88zM856.44 465v-16.736h3.488v6.624h1.664l4.928-6.624h3.904l-6.112 8.096 6.816 8.64h-4.064l-5.504-6.944h-1.632V465h-3.488zm26.879.32c-1.344 0-2.528-.32-3.552-.96a7.162 7.162 0 0 1-2.432-2.496v9.952h-3.52v-23.552h3.104v3.008a7.257 7.257 0 0 1 2.496-2.4c1.024-.597 2.165-.896 3.424-.896 1.152 0 2.208.235 3.168.704a7.437 7.437 0 0 1 2.496 1.888 8.875 8.875 0 0 1 1.632 2.784 8.794 8.794 0 0 1 .608 3.264c0 1.6-.32 3.061-.96 4.384-.619 1.323-1.493 2.379-2.624 3.168-1.109.768-2.389 1.152-3.84 1.152zm-1.152-3.008c.747 0 1.419-.16 2.016-.48a4.822 4.822 0 0 0 1.568-1.28 5.676 5.676 0 0 0 1.024-1.824 6.447 6.447 0 0 0 .352-2.112c0-.768-.128-1.493-.384-2.176a5.189 5.189 0 0 0-1.12-1.792 5.24 5.24 0 0 0-1.664-1.216 4.644 4.644 0 0 0-2.048-.448c-.448 0-.917.085-1.408.256a5.592 5.592 0 0 0-1.376.704c-.427.299-.8.651-1.12 1.056a3.7 3.7 0 0 0-.672 1.28v4.384a7.046 7.046 0 0 0 1.184 1.856 6.352 6.352 0 0 0 1.696 1.312c.64.32 1.291.48 1.952.48zm13.451 9.792c-.384 0-.789-.053-1.216-.16a7.988 7.988 0 0 1-1.344-.48l.896-2.624c.256.128.502.224.736.288.235.064.448.096.64.096.534 0 1.014-.224 1.44-.672.448-.427.843-1.077 1.184-1.952l.64-1.728-7.072-16.608h3.68l5.12 13.152 4.544-13.152h3.392l-7.36 19.296c-.362 1.003-.821 1.835-1.376 2.496-.533.661-1.13 1.163-1.792 1.504a4.32 4.32 0 0 1-2.112.544zM910.846 465v-16.736h10.688v3.104h-7.168V465h-3.52zm28.834.32c-1.301 0-2.485-.224-3.552-.672a8.496 8.496 0 0 1-2.72-1.92 8.917 8.917 0 0 1-1.792-2.784 9.13 9.13 0 0 1-.608-3.328c0-1.579.352-3.019 1.056-4.32a8.487 8.487 0 0 1 3.008-3.136c1.302-.789 2.838-1.184 4.608-1.184 1.707 0 3.19.384 4.448 1.152 1.28.747 2.219 1.749 2.816 3.008l-3.424 1.088a4.008 4.008 0 0 0-1.632-1.632 4.368 4.368 0 0 0-2.272-.608c-.938 0-1.792.245-2.56.736-.746.469-1.344 1.131-1.792 1.984-.426.832-.64 1.803-.64 2.912 0 1.067.224 2.037.672 2.912.448.853 1.046 1.536 1.792 2.048a4.655 4.655 0 0 0 2.56.736c.576 0 1.131-.096 1.664-.288a4.99 4.99 0 0 0 1.44-.832c.406-.363.694-.757.864-1.184l3.456 1.024a6.251 6.251 0 0 1-1.632 2.208c-.704.64-1.546 1.152-2.528 1.536-.96.363-2.037.544-3.232.544zm17.655 0c-1.323 0-2.507-.224-3.552-.672a8.496 8.496 0 0 1-2.72-1.92 8.812 8.812 0 0 1-1.728-2.752 9.13 9.13 0 0 1-.608-3.328 9.13 9.13 0 0 1 .608-3.328 8.346 8.346 0 0 1 1.728-2.752 8.097 8.097 0 0 1 2.72-1.888c1.067-.469 2.251-.704 3.552-.704 1.301 0 2.475.235 3.52.704a7.691 7.691 0 0 1 2.72 1.888 8.1 8.1 0 0 1 1.76 2.752 9.13 9.13 0 0 1 .608 3.328 9.13 9.13 0 0 1-.608 3.328 8.536 8.536 0 0 1-1.76 2.752 8.05 8.05 0 0 1-2.72 1.92c-1.045.448-2.219.672-3.52.672zm-4.992-8.64c0 1.067.224 2.027.672 2.88.448.853 1.045 1.525 1.792 2.016.747.491 1.589.736 2.528.736.917 0 1.749-.245 2.496-.736a5.47 5.47 0 0 0 1.824-2.048c.448-.875.672-1.835.672-2.88 0-1.067-.224-2.027-.672-2.88-.448-.853-1.056-1.525-1.824-2.016a4.316 4.316 0 0 0-2.496-.768c-.939 0-1.781.256-2.528.768-.747.512-1.344 1.195-1.792 2.048-.448.832-.672 1.792-.672 2.88zm24.818 8.64c-2.795 0-4.917-.843-6.368-2.528-1.451-1.685-2.176-4.096-2.176-7.232 0-2.048.171-3.776.512-5.184.363-1.429.885-2.603 1.568-3.52a8.46 8.46 0 0 1 2.592-2.24c1.045-.597 2.251-1.077 3.616-1.44l7.136-1.984.128 2.944-7.008 1.984c-1.109.341-2.059.789-2.848 1.344a5.874 5.874 0 0 0-1.824 2.176c-.448.875-.747 1.984-.896 3.328a6.428 6.428 0 0 1 2.56-2.56c1.109-.619 2.421-.928 3.936-.928 1.557 0 2.901.331 4.032.992a6.632 6.632 0 0 1 2.624 2.688c.619 1.152.928 2.475.928 3.968 0 1.621-.331 3.051-.992 4.288-.64 1.216-1.6 2.176-2.88 2.88-1.259.683-2.805 1.024-4.64 1.024zm0-3.008c1.557 0 2.763-.459 3.616-1.376.875-.917 1.312-2.133 1.312-3.648 0-1.451-.437-2.635-1.312-3.552-.853-.939-2.059-1.408-3.616-1.408-.917 0-1.749.203-2.496.608a4.21 4.21 0 0 0-1.76 1.696c-.427.725-.64 1.611-.64 2.656 0 .981.192 1.856.576 2.624a4.27 4.27 0 0 0 1.664 1.76c.725.427 1.611.64 2.656.64zM988.846 465v-16.736h3.52v5.504h3.168c1.984 0 3.499.501 4.546 1.504 1.04 1.003 1.57 2.325 1.57 3.968 0 1.109-.23 2.101-.68 2.976-.44.875-1.105 1.557-1.98 2.048-.853.491-1.92.736-3.2.736h-6.944zm3.52-2.72h2.88c.704 0 1.27-.128 1.696-.384.427-.277.736-.64.928-1.088.214-.469.32-.971.32-1.504s-.096-1.013-.288-1.44a2.19 2.19 0 0 0-.96-1.056c-.426-.277-1.002-.416-1.728-.416h-2.848v5.888zM1004.4 465v-16.704h3.52V465h-3.52zm11.73 0v-13.632h-5.54v-3.104h14.62v3.104h-5.56V465h-3.52zm11.72 0v-16.704h3.52v12l8.48-12.032h3.2V465h-3.52v-11.744L1031.14 465h-3.29zm19.4 0v-16.704h3.52v12l8.48-12.032h3.2V465h-3.52v-11.744L1050.55 465h-3.3zm7.62-18.464c-1.58 0-2.81-.395-3.68-1.184-.85-.789-1.28-1.781-1.28-2.976h2.3c0 .619.21 1.131.61 1.536.43.405 1.11.608 2.05.608.92 0 1.57-.192 1.95-.576.41-.384.65-.907.74-1.568h2.3c0 1.195-.44 2.187-1.31 2.976-.85.789-2.08 1.184-3.68 1.184z" fill="#fff"/><path d="m1163 398 6.45 31.551L1201 436l-31.55 6.449L1163 474l-6.45-31.551L1125 436l31.55-6.449L1163 398z" fill="#48C78E"/></g><defs><clipPath id="a"><path fill="#fff" d="M0 0h1569v703H0z"/></clipPath></defs></svg>