<svg width="1569" height="703" fill="none" xmlns="http://www.w3.org/2000/svg"><g clip-path="url(#a)"><path fill="#181818" d="M0 0h1569v703H0z"/><g opacity=".6"><path opacity=".03" d="M383.911-18.644H-.211v359.585L383.911-18.644z" fill="#546FEF"/><path opacity=".03" d="M1292.41 340.941v-62.075H970.141v-87.057h277.589v-61.321H970.141V43.432h322.269v-62.076H908.82v359.585H1292.41zM516.758 222.47H664.87v50.805l84.793 67.533h48.497v-50.583l-86.39-67.888h65.403v-49.341l8.874-11.847h52.447V42.544h-53.245l-7.943-10.604v-50.584H516.758v50.717l-7.942 10.604H455.57v298.264h61.322l-.134-118.471zm0-61.321V54.658l8.875-12.114h242.266l8.875 12.114v95.531l-8.164 10.827-251.852.133z" fill="#fff"/><path opacity=".03" d="M908.297 796.322h384.123V436.737L908.297 796.322z" fill="#546FEF"/><path opacity=".03" d="M455.309 796.322h383.322v-62.076H516.629v-75.608l8.609-11.448H793.95v-61.321H525.149l-8.52-11.359v-75.697h322.002v-62.076H455.309v149.265h52.89l8.43 11.226v38.736l-8.519 11.359h-52.801v148.999zM319.356 796.322v-50.717l8.341-10.604h55.73V498.058h-55.774l-8.297-10.56v-50.761H-.117v359.407h319.473v.178zM63.866 498.058H309.86l9.496 12.114v212.715l-9.496 12.114H63.866V498.058z" fill="#fff"/></g><path d="m384 230 6.449 31.551L422 268l-31.551 6.449L384 306l-6.449-31.551L346 268l31.551-6.449L384 230z" fill="#fff"/><path d="m578.07 232.192 24.54 109.616h-19.474l-5.066-23.02h-41.163l-5.383 23.02H513l25.173-109.616h39.897zm-3.325 70.154-11.715-52.615h-10.45l-12.349 52.615h34.514zm109.376-70.154v17.539h-52.405v28.5h50.821v17.225h-50.821v46.352h-18.998V232.192h71.403zm37.362 92.077v-74.538h-25.648v-17.539h70.295v17.539h-25.648v74.538h25.648v17.539h-70.295v-17.539h25.648zm53.814-21.61h18.524v6.264c0 3.289.475 6.107 1.741 8.3 1.267 2.192 2.85 4.071 5.067 5.48 2.216 1.41 4.749 2.506 7.758 3.132 3.008.627 6.332.94 10.132.94 7.916 0 13.774-1.253 17.257-3.759 3.483-2.505 5.383-6.576 5.383-12.37 0-4.385-1.267-7.673-3.483-10.179-2.217-2.505-5.858-4.228-10.924-5.168l-24.065-5.167c-9.183-1.879-15.832-5.324-19.948-10.492-4.117-5.167-6.017-11.275-6.017-18.478 0-4.385.792-8.456 2.533-12.214 1.584-3.758 4.117-7.047 7.442-9.866 3.324-2.818 7.599-5.011 12.665-6.577 5.067-1.565 10.924-2.505 17.574-2.505 6.649 0 12.665.783 17.89 2.349 5.066 1.566 9.341 3.758 12.824 6.577 3.325 2.819 5.858 5.95 7.599 9.709 1.742 3.758 2.692 7.673 2.692 11.901v8.612h-18.524v-4.228c0-3.445-.633-6.42-1.741-8.769-1.267-2.349-2.85-4.228-4.908-5.637-2.058-1.253-4.433-2.193-7.283-2.819-2.85-.626-5.699-.94-8.866-.94-2.85 0-5.541.314-8.074.783-2.533.47-4.591 1.253-6.491 2.349-1.9 1.097-3.483 2.506-4.592 4.385-1.108 1.879-1.583 4.071-1.583 6.733 0 1.566.159 3.132.475 4.542.317 1.566.95 2.818 2.058 3.915.95 1.252 2.375 2.192 4.275 3.131 1.9.94 4.433 1.723 7.599 2.349l22.798 4.542c8.866 1.879 15.674 5.167 20.424 10.178 4.591 5.011 6.966 11.588 6.966 20.044 0 5.168-.95 9.865-2.692 14.093-1.899 4.228-4.591 7.83-8.074 10.805-3.641 2.976-8.074 5.325-13.457 6.891-5.383 1.722-11.399 2.505-18.365 2.505-8.233 0-15.041-.94-20.424-2.975-5.383-1.879-9.816-4.385-12.982-7.517-3.325-3.132-5.7-6.577-7.124-10.335-1.425-3.758-2.059-7.36-2.059-10.961v-9.553zm116.939-70.467v45.099h44.014v-45.099h18.998v109.616H936.25V294.83h-44.014v46.978h-18.998V232.192h18.998zm138.224 0L1055 341.808h-19.47l-5.07-23.02h-41.163l-5.383 23.02H965.39l25.173-109.616h39.897zm-3.32 70.154-11.72-52.615h-10.45l-12.349 52.615h34.519z" fill="#48C78E"/><path d="M908.336 392.26h20.311v-7.571h-20.311v7.571z" fill="#fff"/><path d="M941.152 365.982v36.521h-7.811v-35.185l-1.118-1.336h-27.457l-1.115 1.336v35.185h-7.589v-36.521h6.473l1.116-1.559v-6.235h29.69v6.235l1.116 1.559h6.695zM722.165 402.503v-7.572h-35.493V384.02h29.913v-7.572h-29.913v-10.689h35.493v-7.571h-43.083V402.503h43.083zM847.842 396.268v6.235h37.727v-7.572h-36.612l-.893-1.336v-35.407h-7.81v36.743h6.473l1.115 1.337zM787.574 402.503h43.307v-7.572h-35.494v-9.352l.893-1.559h29.02v-7.572h-29.02l-.893-1.336v-9.353h35.494v-7.571h-43.307V376.448h6.697l1.116 1.559v4.677l-1.116 1.559h-6.697v18.26zM576.843 402.503h37.726v-7.572h-37.726v-9.352l1.117-1.559h31.028v-7.572H577.96l-1.117-1.336v-9.353h37.726v-7.571h-45.315v18.26h6.474l1.115 1.559v4.677l-1.115 1.336h-6.474v18.483h7.589z" fill="#fff"/><path fill-rule="evenodd" clip-rule="evenodd" d="M1048.53 365.759h6.47v29.172h-6.47l-1.12 1.559v6.013h-32.37v-6.013l-1.11-1.559h-6.48v-29.172h6.48l1.11-1.558v-6.013h32.37v6.013l1.12 1.558zm-33.49 27.836 1.12 1.559h30.14l1.11-1.336v-26.722l-1.11-1.337h-30.14l-1.12 1.337v26.499zM630.191 402.503h-7.589v-36.744h6.473l1.116-1.336v-6.235h32.145v6.235l1.116 1.336h6.474v14.475h-6.474l-1.116 1.559v6.013H654.3l10.715 8.462v6.235h-6.027l-10.492-8.239v-6.458h-18.305v14.697zm31.252-22.046.893-1.336v-11.803l-1.116-1.559h-29.913l-1.116 1.559v13.139h31.252zM731.543 402.503v-44.315h37.949v6.235l1.116 1.336h6.474v29.172h-6.474l-1.116 1.337v6.235h-37.949zm7.59-7.572h29.243l1.116-1.336v-26.499l-1.116-1.337h-29.243v29.172z" fill="#fff"/><path d="M990.708 394.931h-6.476l-1.115-1.558v-7.572l-12.501-20.042h-3.349l-1.115-1.336v-6.235h-15.179v44.315h7.588v-36.744h6.475l1.116 1.337v7.348l12.948 20.487h2.901l1.116 1.337v6.235h15.179v-44.315h-7.588v36.743z" fill="#fff"/><path fill-rule="evenodd" clip-rule="evenodd" d="M560.548 357.966v29.617H520.59v15.143H513v-44.76h47.548zm-7.59 7.571H520.59v14.475h32.368v-14.475z" fill="#fff"/><path d="M493.402 465.32c-1.28 0-2.443-.299-3.488-.896a6.9 6.9 0 0 1-2.432-2.464V465h-3.104v-23.36h3.52v9.792c.661-1.067 1.482-1.909 2.464-2.528 1.002-.619 2.176-.928 3.52-.928 1.109 0 2.122.235 3.04.704a7.008 7.008 0 0 1 2.336 1.92 8.589 8.589 0 0 1 1.504 2.784c.362 1.045.544 2.155.544 3.328a9.13 9.13 0 0 1-.608 3.328 8.205 8.205 0 0 1-1.664 2.752 8.009 8.009 0 0 1-2.528 1.856c-.939.448-1.974.672-3.104.672zm-.928-3.008c.768 0 1.472-.149 2.112-.448a5.69 5.69 0 0 0 1.664-1.248 5.054 5.054 0 0 0 1.056-1.792 5.97 5.97 0 0 0 .384-2.112 6.347 6.347 0 0 0-.64-2.816 5.263 5.263 0 0 0-1.728-2.112c-.747-.533-1.611-.8-2.592-.8-.704 0-1.366.171-1.984.512a5.709 5.709 0 0 0-1.664 1.312 7.893 7.893 0 0 0-1.184 1.792v4.416c.128.491.352.939.672 1.344.32.384.693.725 1.12 1.024.426.277.885.501 1.376.672.49.171.96.256 1.408.256zm21.405-11.008c-1.365.021-2.581.331-3.648.928-1.045.597-1.792 1.44-2.24 2.528V465h-3.52v-16.736h3.264v3.744c.576-1.152 1.334-2.069 2.272-2.752.939-.704 1.931-1.088 2.976-1.152h.512c.15 0 .278.011.384.032v3.168zM516.44 465v-16.736h3.52V465h-3.52zm0-19.488v-3.872h3.52v3.872h-3.52zM539.198 465h-3.52v-9.376c0-1.557-.256-2.699-.768-3.424-.491-.725-1.227-1.088-2.208-1.088-.683 0-1.365.171-2.048.512a6.225 6.225 0 0 0-1.792 1.408 5.143 5.143 0 0 0-1.152 2.016V465h-3.52v-16.736h3.2v3.36a6.512 6.512 0 0 1 1.664-1.92 7.937 7.937 0 0 1 2.368-1.28 8.55 8.55 0 0 1 2.784-.448c1.003 0 1.824.181 2.464.544a3.866 3.866 0 0 1 1.536 1.504c.384.619.64 1.344.768 2.176.149.811.224 1.675.224 2.592V465zm10.71.16c-1.131 0-2.165-.224-3.104-.672a7.788 7.788 0 0 1-2.432-1.888 9.26 9.26 0 0 1-1.568-2.72 9.6 9.6 0 0 1-.544-3.232c0-1.195.192-2.315.576-3.36a8.795 8.795 0 0 1 1.6-2.752 7.531 7.531 0 0 1 2.464-1.888c.939-.448 1.984-.672 3.136-.672 1.344 0 2.517.32 3.52.96a8.062 8.062 0 0 1 2.528 2.496v-3.168h3.104v16.256c0 1.621-.395 2.997-1.184 4.128-.768 1.131-1.824 1.995-3.168 2.592s-2.859.896-4.544.896c-1.856 0-3.392-.32-4.608-.96a9.405 9.405 0 0 1-3.104-2.624l1.984-1.856a6.211 6.211 0 0 0 2.464 2.048 7.747 7.747 0 0 0 3.264.704c.96 0 1.845-.181 2.656-.544a4.249 4.249 0 0 0 1.984-1.632c.491-.725.736-1.643.736-2.752v-2.56a6.412 6.412 0 0 1-2.464 2.368 6.931 6.931 0 0 1-3.296.832zm1.152-2.848c.533 0 1.045-.085 1.536-.256a5.815 5.815 0 0 0 1.344-.736c.427-.32.789-.672 1.088-1.056.299-.405.512-.832.64-1.28V454.6a5.554 5.554 0 0 0-1.184-1.888 5.52 5.52 0 0 0-1.728-1.28 4.57 4.57 0 0 0-1.952-.448c-.768 0-1.461.171-2.08.512a4.759 4.759 0 0 0-1.536 1.312 6.023 6.023 0 0 0-.992 1.824 6.447 6.447 0 0 0-.352 2.112c0 .768.128 1.483.384 2.144a6.497 6.497 0 0 0 1.12 1.792 5.24 5.24 0 0 0 1.664 1.216c.64.277 1.323.416 2.048.416zM563.409 465v-16.736h3.52V465h-3.52zm0-19.488v-3.872h3.52v3.872h-3.52zM586.167 465h-3.52v-9.376c0-1.557-.256-2.699-.768-3.424-.491-.725-1.227-1.088-2.208-1.088-.683 0-1.365.171-2.048.512a6.225 6.225 0 0 0-1.792 1.408 5.143 5.143 0 0 0-1.152 2.016V465h-3.52v-16.736h3.2v3.36a6.512 6.512 0 0 1 1.664-1.92 7.937 7.937 0 0 1 2.368-1.28 8.55 8.55 0 0 1 2.784-.448c1.003 0 1.824.181 2.464.544a3.866 3.866 0 0 1 1.536 1.504c.384.619.64 1.344.768 2.176.149.811.224 1.675.224 2.592V465zm10.71.16c-1.131 0-2.166-.224-3.104-.672a7.777 7.777 0 0 1-2.432-1.888 9.237 9.237 0 0 1-1.568-2.72 9.6 9.6 0 0 1-.544-3.232c0-1.195.192-2.315.576-3.36a8.795 8.795 0 0 1 1.6-2.752 7.531 7.531 0 0 1 2.464-1.888c.938-.448 1.984-.672 3.136-.672 1.344 0 2.517.32 3.52.96a8.073 8.073 0 0 1 2.528 2.496v-3.168h3.104v16.256c0 1.621-.395 2.997-1.184 4.128-.768 1.131-1.824 1.995-3.168 2.592s-2.859.896-4.544.896c-1.856 0-3.392-.32-4.608-.96a9.405 9.405 0 0 1-3.104-2.624l1.984-1.856a6.211 6.211 0 0 0 2.464 2.048 7.747 7.747 0 0 0 3.264.704c.96 0 1.845-.181 2.656-.544a4.249 4.249 0 0 0 1.984-1.632c.49-.725.736-1.643.736-2.752v-2.56a6.419 6.419 0 0 1-2.464 2.368 6.934 6.934 0 0 1-3.296.832zm1.152-2.848c.533 0 1.045-.085 1.536-.256.49-.192.938-.437 1.344-.736.426-.32.789-.672 1.088-1.056.298-.405.512-.832.64-1.28V454.6a5.569 5.569 0 0 0-1.184-1.888 5.52 5.52 0 0 0-1.728-1.28 4.57 4.57 0 0 0-1.952-.448c-.768 0-1.462.171-2.08.512-.598.32-1.11.757-1.536 1.312a6.001 6.001 0 0 0-.992 1.824 6.447 6.447 0 0 0-.352 2.112c0 .768.128 1.483.384 2.144.277.661.65 1.259 1.12 1.792a5.24 5.24 0 0 0 1.664 1.216c.64.277 1.322.416 2.048.416zm29.759 3.008c-1.344 0-2.528-.32-3.552-.96a7.162 7.162 0 0 1-2.432-2.496v9.952h-3.52v-23.552h3.104v3.008a7.257 7.257 0 0 1 2.496-2.4c1.024-.597 2.165-.896 3.424-.896 1.152 0 2.208.235 3.168.704a7.437 7.437 0 0 1 2.496 1.888 8.875 8.875 0 0 1 1.632 2.784 8.794 8.794 0 0 1 .608 3.264c0 1.6-.32 3.061-.96 4.384-.619 1.323-1.493 2.379-2.624 3.168-1.109.768-2.389 1.152-3.84 1.152zm-1.152-3.008c.747 0 1.419-.16 2.016-.48a4.822 4.822 0 0 0 1.568-1.28 5.676 5.676 0 0 0 1.024-1.824 6.447 6.447 0 0 0 .352-2.112c0-.768-.128-1.493-.384-2.176a5.189 5.189 0 0 0-1.12-1.792 5.24 5.24 0 0 0-1.664-1.216 4.644 4.644 0 0 0-2.048-.448c-.448 0-.917.085-1.408.256a5.592 5.592 0 0 0-1.376.704c-.427.299-.8.651-1.12 1.056a3.7 3.7 0 0 0-.672 1.28v4.384a7.046 7.046 0 0 0 1.184 1.856 6.352 6.352 0 0 0 1.696 1.312c.64.32 1.291.48 1.952.48zm19.326 3.008c-1.302 0-2.486-.224-3.552-.672a8.75 8.75 0 0 1-2.72-1.888 9 9 0 0 1-1.792-2.752 9.11 9.11 0 0 1-.608-3.328c0-1.579.362-3.019 1.088-4.32a8.322 8.322 0 0 1 3.04-3.168c1.301-.811 2.826-1.216 4.576-1.216 1.749 0 3.253.405 4.512 1.216a8.233 8.233 0 0 1 2.976 3.136 8.675 8.675 0 0 1 1.056 4.192 8.264 8.264 0 0 1-.096 1.28h-13.408c.064.981.33 1.845.8 2.592a5.525 5.525 0 0 0 1.856 1.728 4.954 4.954 0 0 0 2.4.608c.938 0 1.824-.235 2.656-.704.853-.469 1.429-1.088 1.728-1.856l3.008.864c-.363.811-.918 1.547-1.664 2.208-.726.64-1.59 1.152-2.592 1.536-1.003.363-2.091.544-3.264.544zm-5.024-9.856h10.112c-.064-.96-.342-1.803-.832-2.528a4.885 4.885 0 0 0-1.824-1.728c-.726-.427-1.536-.64-2.432-.64-.875 0-1.686.213-2.432.64a4.944 4.944 0 0 0-1.792 1.728c-.47.725-.736 1.568-.8 2.528zm23.991 9.856c-1.323 0-2.507-.224-3.552-.672a8.496 8.496 0 0 1-2.72-1.92 8.812 8.812 0 0 1-1.728-2.752 9.13 9.13 0 0 1-.608-3.328 9.13 9.13 0 0 1 .608-3.328 8.346 8.346 0 0 1 1.728-2.752 8.097 8.097 0 0 1 2.72-1.888c1.067-.469 2.251-.704 3.552-.704 1.301 0 2.475.235 3.52.704a7.691 7.691 0 0 1 2.72 1.888 8.1 8.1 0 0 1 1.76 2.752 9.13 9.13 0 0 1 .608 3.328 9.13 9.13 0 0 1-.608 3.328 8.536 8.536 0 0 1-1.76 2.752 8.05 8.05 0 0 1-2.72 1.92c-1.045.448-2.219.672-3.52.672zm-4.992-8.64c0 1.067.224 2.027.672 2.88.448.853 1.045 1.525 1.792 2.016.747.491 1.589.736 2.528.736.917 0 1.749-.245 2.496-.736a5.47 5.47 0 0 0 1.824-2.048c.448-.875.672-1.835.672-2.88 0-1.067-.224-2.027-.672-2.88-.448-.853-1.056-1.525-1.824-2.016a4.316 4.316 0 0 0-2.496-.768c-.939 0-1.781.256-2.528.768-.747.512-1.344 1.195-1.792 2.048-.448.832-.672 1.792-.672 2.88zm26.226 8.64c-1.344 0-2.528-.32-3.552-.96a7.162 7.162 0 0 1-2.432-2.496v9.952h-3.52v-23.552h3.104v3.008a7.257 7.257 0 0 1 2.496-2.4c1.024-.597 2.165-.896 3.424-.896 1.152 0 2.208.235 3.168.704a7.437 7.437 0 0 1 2.496 1.888 8.875 8.875 0 0 1 1.632 2.784 8.794 8.794 0 0 1 .608 3.264c0 1.6-.32 3.061-.96 4.384-.619 1.323-1.493 2.379-2.624 3.168-1.109.768-2.389 1.152-3.84 1.152zm-1.152-3.008c.747 0 1.419-.16 2.016-.48a4.822 4.822 0 0 0 1.568-1.28 5.676 5.676 0 0 0 1.024-1.824 6.447 6.447 0 0 0 .352-2.112c0-.768-.128-1.493-.384-2.176a5.189 5.189 0 0 0-1.12-1.792 5.24 5.24 0 0 0-1.664-1.216 4.644 4.644 0 0 0-2.048-.448c-.448 0-.917.085-1.408.256a5.592 5.592 0 0 0-1.376.704c-.427.299-.8.651-1.12 1.056a3.7 3.7 0 0 0-.672 1.28v4.384a7.046 7.046 0 0 0 1.184 1.856 6.352 6.352 0 0 0 1.696 1.312c.64.32 1.291.48 1.952.48zm11.774-20.672h3.52v18.528c0 .853.128 1.397.384 1.632.256.235.576.352.96.352a5.19 5.19 0 0 0 1.184-.128c.384-.085.714-.192.992-.32l.512 2.784a10.37 10.37 0 0 1-1.824.544c-.704.149-1.334.224-1.888.224-1.195 0-2.134-.331-2.816-.992-.683-.683-1.024-1.621-1.024-2.816V441.64zm17.177 23.68c-1.302 0-2.486-.224-3.552-.672a8.75 8.75 0 0 1-2.72-1.888 9 9 0 0 1-1.792-2.752 9.11 9.11 0 0 1-.608-3.328c0-1.579.362-3.019 1.088-4.32a8.322 8.322 0 0 1 3.04-3.168c1.301-.811 2.826-1.216 4.576-1.216 1.749 0 3.253.405 4.512 1.216a8.233 8.233 0 0 1 2.976 3.136 8.675 8.675 0 0 1 1.056 4.192 8.264 8.264 0 0 1-.096 1.28h-13.408c.064.981.33 1.845.8 2.592a5.525 5.525 0 0 0 1.856 1.728 4.954 4.954 0 0 0 2.4.608c.938 0 1.824-.235 2.656-.704.853-.469 1.429-1.088 1.728-1.856l3.008.864c-.363.811-.918 1.547-1.664 2.208-.726.64-1.59 1.152-2.592 1.536-1.003.363-2.091.544-3.264.544zm-5.024-9.856h10.112c-.064-.96-.342-1.803-.832-2.528a4.885 4.885 0 0 0-1.824-1.728c-.726-.427-1.536-.64-2.432-.64-.875 0-1.686.213-2.432.64a4.944 4.944 0 0 0-1.792 1.728c-.47.725-.736 1.568-.8 2.528zm33.689 8.672c-.299.149-.672.309-1.12.48-.448.171-.96.32-1.536.448a7.665 7.665 0 0 1-1.728.192 5.223 5.223 0 0 1-2.016-.384 3.35 3.35 0 0 1-1.504-1.216c-.363-.576-.544-1.312-.544-2.208v-10.464h-2.208v-2.72h2.208v-5.504h3.52v5.504h3.648v2.72h-3.648v9.344c.043.576.224 1.003.544 1.28.341.277.757.416 1.248.416s.96-.085 1.408-.256c.448-.171.779-.309.992-.416l.736 2.784zm9.739 1.184c-1.322 0-2.506-.224-3.552-.672a8.496 8.496 0 0 1-2.72-1.92 8.848 8.848 0 0 1-1.728-2.752 9.13 9.13 0 0 1-.608-3.328 9.13 9.13 0 0 1 .608-3.328 8.379 8.379 0 0 1 1.728-2.752 8.097 8.097 0 0 1 2.72-1.888c1.067-.469 2.251-.704 3.552-.704 1.302 0 2.475.235 3.52.704a7.683 7.683 0 0 1 2.72 1.888 8.1 8.1 0 0 1 1.76 2.752 9.11 9.11 0 0 1 .608 3.328 9.11 9.11 0 0 1-.608 3.328 8.536 8.536 0 0 1-1.76 2.752 8.04 8.04 0 0 1-2.72 1.92c-1.045.448-2.218.672-3.52.672zm-4.992-8.64c0 1.067.224 2.027.672 2.88.448.853 1.046 1.525 1.792 2.016.747.491 1.59.736 2.528.736.918 0 1.75-.245 2.496-.736a5.47 5.47 0 0 0 1.824-2.048c.448-.875.672-1.835.672-2.88 0-1.067-.224-2.027-.672-2.88-.448-.853-1.056-1.525-1.824-2.016a4.311 4.311 0 0 0-2.496-.768c-.938 0-1.781.256-2.528.768-.746.512-1.344 1.195-1.792 2.048-.448.832-.672 1.792-.672 2.88zm23.346 8.48c-1.13 0-2.165-.224-3.104-.672a7.8 7.8 0 0 1-2.432-1.888 9.26 9.26 0 0 1-1.568-2.72 9.624 9.624 0 0 1-.544-3.232c0-1.195.192-2.315.576-3.36a8.814 8.814 0 0 1 1.6-2.752 7.542 7.542 0 0 1 2.464-1.888c.939-.448 1.984-.672 3.136-.672 1.344 0 2.518.32 3.52.96a8.062 8.062 0 0 1 2.528 2.496v-3.168H780v16.256c0 1.621-.394 2.997-1.184 4.128-.768 1.131-1.824 1.995-3.168 2.592s-2.858.896-4.544.896c-1.856 0-3.392-.32-4.608-.96a9.415 9.415 0 0 1-3.104-2.624l1.984-1.856a6.218 6.218 0 0 0 2.464 2.048 7.747 7.747 0 0 0 3.264.704c.96 0 1.846-.181 2.656-.544a4.244 4.244 0 0 0 1.984-1.632c.491-.725.736-1.643.736-2.752v-2.56a6.405 6.405 0 0 1-2.464 2.368 6.931 6.931 0 0 1-3.296.832zm1.152-2.848c.534 0 1.046-.085 1.536-.256a5.666 5.666 0 0 0 2.432-1.792c.299-.405.512-.832.64-1.28V454.6a5.554 5.554 0 0 0-1.184-1.888 5.52 5.52 0 0 0-1.728-1.28 4.566 4.566 0 0 0-1.952-.448c-.768 0-1.461.171-2.08.512a4.759 4.759 0 0 0-1.536 1.312 6.045 6.045 0 0 0-.992 1.824 6.473 6.473 0 0 0-.352 2.112c0 .768.128 1.483.384 2.144a6.52 6.52 0 0 0 1.12 1.792c.47.512 1.024.917 1.664 1.216.64.277 1.323.416 2.048.416zm19.933 3.008c-1.301 0-2.485-.224-3.552-.672a8.762 8.762 0 0 1-2.72-1.888 9.018 9.018 0 0 1-1.792-2.752 9.13 9.13 0 0 1-.608-3.328c0-1.579.363-3.019 1.088-4.32a8.337 8.337 0 0 1 3.04-3.168c1.302-.811 2.827-1.216 4.576-1.216 1.75 0 3.254.405 4.512 1.216a8.233 8.233 0 0 1 2.976 3.136 8.675 8.675 0 0 1 1.056 4.192c0 .256-.01.501-.032.736-.021.213-.042.395-.064.544h-13.408c.064.981.331 1.845.8 2.592a5.544 5.544 0 0 0 1.856 1.728 4.96 4.96 0 0 0 2.4.608c.939 0 1.824-.235 2.656-.704.854-.469 1.43-1.088 1.728-1.856l3.008.864c-.362.811-.917 1.547-1.664 2.208-.725.64-1.589 1.152-2.592 1.536-1.002.363-2.09.544-3.264.544zm-5.024-9.856h10.112c-.064-.96-.341-1.803-.832-2.528a4.87 4.87 0 0 0-1.824-1.728c-.725-.427-1.536-.64-2.432-.64-.874 0-1.685.213-2.432.64a4.96 4.96 0 0 0-1.792 1.728c-.469.725-.736 1.568-.8 2.528zm25.627 8.672c-.298.149-.672.309-1.12.48-.448.171-.96.32-1.536.448a7.653 7.653 0 0 1-1.728.192 5.223 5.223 0 0 1-2.016-.384 3.356 3.356 0 0 1-1.504-1.216c-.362-.576-.544-1.312-.544-2.208v-10.464h-2.208v-2.72h2.208v-5.504h3.52v5.504h3.648v2.72h-3.648v9.344c.043.576.224 1.003.544 1.28.342.277.758.416 1.248.416.491 0 .96-.085 1.408-.256.448-.171.779-.309.992-.416l.736 2.784zm17.446.864h-3.52v-9.376c0-1.515-.277-2.645-.832-3.392-.554-.747-1.333-1.12-2.336-1.12-.618 0-1.258.171-1.92.512a5.833 5.833 0 0 0-1.76 1.408 5.348 5.348 0 0 0-1.12 2.016V465h-3.52v-23.36h3.52v9.984a6.973 6.973 0 0 1 2.624-2.656 6.883 6.883 0 0 1 3.584-.992c1.046 0 1.91.181 2.592.544a4.029 4.029 0 0 1 1.6 1.504c.406.619.683 1.344.832 2.176.171.811.256 1.675.256 2.592V465zm11.67.32c-1.301 0-2.485-.224-3.552-.672a8.762 8.762 0 0 1-2.72-1.888 9.018 9.018 0 0 1-1.792-2.752 9.13 9.13 0 0 1-.608-3.328c0-1.579.363-3.019 1.088-4.32a8.33 8.33 0 0 1 3.04-3.168c1.301-.811 2.827-1.216 4.576-1.216 1.749 0 3.253.405 4.512 1.216a8.233 8.233 0 0 1 2.976 3.136 8.675 8.675 0 0 1 1.056 4.192 8.264 8.264 0 0 1-.096 1.28h-13.408c.064.981.331 1.845.8 2.592a5.534 5.534 0 0 0 1.856 1.728 4.96 4.96 0 0 0 2.4.608c.939 0 1.824-.235 2.656-.704.853-.469 1.429-1.088 1.728-1.856l3.008.864c-.363.811-.917 1.547-1.664 2.208-.725.64-1.589 1.152-2.592 1.536-1.003.363-2.091.544-3.264.544zm-5.024-9.856h10.112c-.064-.96-.341-1.803-.832-2.528a4.87 4.87 0 0 0-1.824-1.728c-.725-.427-1.536-.64-2.432-.64-.875 0-1.685.213-2.432.64a4.952 4.952 0 0 0-1.792 1.728c-.469.725-.736 1.568-.8 2.528zm25.879-4.16c-1.365.021-2.581.331-3.648.928-1.045.597-1.792 1.44-2.24 2.528V465h-3.52v-16.736h3.264v3.744c.576-1.152 1.334-2.069 2.272-2.752.939-.704 1.931-1.088 2.976-1.152h.512c.15 0 .278.011.384.032v3.168zm8.533 8.8c0-1.067.298-1.995.896-2.784.618-.811 1.461-1.429 2.528-1.856 1.066-.448 2.304-.672 3.712-.672.746 0 1.504.053 2.272.16.789.107 1.482.277 2.08.512v-1.056c0-1.173-.352-2.091-1.056-2.752-.704-.661-1.718-.992-3.04-.992-.939 0-1.824.171-2.656.512-.832.32-1.718.779-2.656 1.376l-1.184-2.368c1.109-.747 2.218-1.301 3.328-1.664a11.542 11.542 0 0 1 3.552-.544c2.24 0 4 .597 5.28 1.792 1.301 1.173 1.952 2.848 1.952 5.024v6.24c0 .405.064.693.192.864.149.171.394.267.736.288V465a7.648 7.648 0 0 1-1.504.16c-.747 0-1.312-.181-1.696-.544-.384-.363-.608-.789-.672-1.28l-.096-.96c-.726.939-1.654 1.664-2.784 2.176-1.131.512-2.272.768-3.424.768-1.11 0-2.102-.224-2.976-.672-.875-.469-1.558-1.099-2.048-1.888-.491-.789-.736-1.675-.736-2.656zm10.656 1.024c.256-.277.458-.555.608-.832.149-.277.224-.523.224-.736v-1.92a9.135 9.135 0 0 0-1.888-.512 10.262 10.262 0 0 0-1.952-.192c-1.28 0-2.326.256-3.136.768-.79.512-1.184 1.216-1.184 2.112 0 .491.128.96.384 1.408.277.448.661.811 1.152 1.088.512.277 1.141.416 1.888.416.768 0 1.504-.149 2.208-.448.704-.299 1.269-.683 1.696-1.152zm18.03-9.824c-1.365.021-2.581.331-3.648.928-1.045.597-1.792 1.44-2.24 2.528V465h-3.52v-16.736h3.264v3.744c.576-1.152 1.333-2.069 2.272-2.752.939-.704 1.931-1.088 2.976-1.152h.512c.149 0 .277.011.384.032v3.168zm9.768 14.016c-1.322 0-2.506-.224-3.552-.672a8.496 8.496 0 0 1-2.72-1.92 8.848 8.848 0 0 1-1.728-2.752 9.13 9.13 0 0 1-.608-3.328 9.13 9.13 0 0 1 .608-3.328 8.379 8.379 0 0 1 1.728-2.752 8.097 8.097 0 0 1 2.72-1.888c1.067-.469 2.251-.704 3.552-.704 1.302 0 2.475.235 3.52.704a7.683 7.683 0 0 1 2.72 1.888 8.1 8.1 0 0 1 1.76 2.752 9.11 9.11 0 0 1 .608 3.328 9.11 9.11 0 0 1-.608 3.328 8.536 8.536 0 0 1-1.76 2.752 8.04 8.04 0 0 1-2.72 1.92c-1.045.448-2.218.672-3.52.672zm-4.992-8.64c0 1.067.224 2.027.672 2.88.448.853 1.046 1.525 1.792 2.016.747.491 1.59.736 2.528.736.918 0 1.75-.245 2.496-.736a5.47 5.47 0 0 0 1.824-2.048c.448-.875.672-1.835.672-2.88 0-1.067-.224-2.027-.672-2.88-.448-.853-1.056-1.525-1.824-2.016a4.311 4.311 0 0 0-2.496-.768c-.938 0-1.781.256-2.528.768-.746.512-1.344 1.195-1.792 2.048-.448.832-.672 1.792-.672 2.88zm16.562 1.824v-10.24h3.52v9.536c0 1.493.267 2.624.8 3.392.555.747 1.355 1.12 2.4 1.12.662 0 1.302-.139 1.92-.416a5.31 5.31 0 0 0 1.728-1.216 6.346 6.346 0 0 0 1.28-1.984v-10.432h3.52v12.768c0 .405.075.693.224.864.15.171.395.267.736.288V465a10.97 10.97 0 0 1-.896.128 7.534 7.534 0 0 1-.672.032c-.64 0-1.173-.171-1.6-.512a2.058 2.058 0 0 1-.736-1.376l-.064-1.664c-.746 1.216-1.717 2.144-2.912 2.784-1.194.619-2.506.928-3.936.928-1.749 0-3.072-.576-3.968-1.728-.896-1.152-1.344-2.848-1.344-5.088zM955.604 465h-3.52v-9.376c0-1.557-.256-2.699-.768-3.424-.49-.725-1.226-1.088-2.208-1.088-.682 0-1.365.171-2.048.512a6.239 6.239 0 0 0-1.792 1.408 5.143 5.143 0 0 0-1.152 2.016V465h-3.52v-16.736h3.2v3.36a6.527 6.527 0 0 1 1.664-1.92 7.949 7.949 0 0 1 2.368-1.28 8.55 8.55 0 0 1 2.784-.448c1.003 0 1.824.181 2.464.544a3.854 3.854 0 0 1 1.536 1.504c.384.619.64 1.344.768 2.176.15.811.224 1.675.224 2.592V465zm3.03-8.352c0-1.6.32-3.051.96-4.352.661-1.323 1.557-2.368 2.688-3.136 1.131-.789 2.432-1.184 3.904-1.184 1.28 0 2.432.331 3.456.992 1.045.661 1.856 1.483 2.432 2.464v-9.792h3.52v19.392c0 .405.075.693.224.864.149.171.395.267.736.288V465c-.661.107-1.173.16-1.536.16-.661 0-1.227-.192-1.696-.576-.448-.384-.683-.843-.704-1.376l-.032-1.248a6.77 6.77 0 0 1-2.592 2.496c-1.088.576-2.219.864-3.392.864-1.152 0-2.219-.224-3.2-.672a7.772 7.772 0 0 1-2.528-1.888 9.378 9.378 0 0 1-1.664-2.784 9.575 9.575 0 0 1-.576-3.328zm13.44 2.336V454.6a4.734 4.734 0 0 0-1.152-1.824 5.841 5.841 0 0 0-1.76-1.312c-.64-.32-1.28-.48-1.92-.48a4.39 4.39 0 0 0-2.048.48c-.597.32-1.12.747-1.568 1.28a6.023 6.023 0 0 0-.992 1.824 6.54 6.54 0 0 0-.352 2.144c0 .768.128 1.493.384 2.176a5.942 5.942 0 0 0 1.088 1.792 5.767 5.767 0 0 0 1.664 1.216c.64.277 1.333.416 2.08.416.469 0 .939-.085 1.408-.256a5.592 5.592 0 0 0 1.376-.704 4.436 4.436 0 0 0 1.12-1.056c.32-.405.544-.843.672-1.312zm23.481 6.336c-1.301 0-2.485-.224-3.552-.672a8.762 8.762 0 0 1-2.72-1.888 9.018 9.018 0 0 1-1.792-2.752 9.13 9.13 0 0 1-.608-3.328c0-1.579.363-3.019 1.088-4.32a8.337 8.337 0 0 1 3.04-3.168c1.302-.811 2.827-1.216 4.576-1.216 1.75 0 3.254.405 4.513 1.216a8.289 8.289 0 0 1 2.98 3.136 8.714 8.714 0 0 1 1.05 4.192c0 .256-.01.501-.03.736-.02.213-.04.395-.06.544h-13.413c.064.981.331 1.845.8 2.592a5.544 5.544 0 0 0 1.856 1.728 4.96 4.96 0 0 0 2.4.608c.939 0 1.824-.235 2.656-.704.854-.469 1.43-1.088 1.731-1.856l3.01.864c-.37.811-.92 1.547-1.67 2.208-.72.64-1.588 1.152-2.591 1.536-1.002.363-2.09.544-3.264.544zm-5.024-9.856h10.109c-.06-.96-.34-1.803-.829-2.528a4.87 4.87 0 0 0-1.824-1.728c-.725-.427-1.536-.64-2.432-.64-.874 0-1.685.213-2.432.64a4.96 4.96 0 0 0-1.792 1.728c-.469.725-.736 1.568-.8 2.528zM1011.21 465l-6.37-16.736h3.65l4.76 13.472 4.77-13.472h3.39L1015.05 465h-3.84zm19.75.32c-1.3 0-2.48-.224-3.55-.672a8.727 8.727 0 0 1-2.72-1.888 8.849 8.849 0 0 1-1.79-2.752 9.029 9.029 0 0 1-.61-3.328c0-1.579.36-3.019 1.09-4.32a8.3 8.3 0 0 1 3.04-3.168c1.3-.811 2.82-1.216 4.57-1.216 1.75 0 3.26.405 4.52 1.216a8.187 8.187 0 0 1 2.97 3.136 8.612 8.612 0 0 1 1.06 4.192c0 .256-.01.501-.03.736-.03.213-.05.395-.07.544h-13.41c.07.981.33 1.845.8 2.592a5.51 5.51 0 0 0 1.86 1.728c.75.405 1.55.608 2.4.608.94 0 1.82-.235 2.66-.704.85-.469 1.42-1.088 1.72-1.856l3.01.864c-.36.811-.92 1.547-1.66 2.208-.73.64-1.59 1.152-2.59 1.536-1.01.363-2.1.544-3.27.544zm-5.02-9.856h10.11c-.06-.96-.34-1.803-.83-2.528a4.872 4.872 0 0 0-1.83-1.728c-.72-.427-1.53-.64-2.43-.64-.87 0-1.68.213-2.43.64-.73.405-1.32.981-1.79 1.728-.47.725-.74 1.568-.8 2.528zm31.48 9.536h-3.52v-9.376c0-1.557-.26-2.699-.77-3.424-.49-.725-1.23-1.088-2.21-1.088-.68 0-1.36.171-2.05.512a6.19 6.19 0 0 0-1.79 1.408 5.114 5.114 0 0 0-1.15 2.016V465h-3.52v-16.736h3.2v3.36c.43-.747.98-1.387 1.66-1.92.71-.555 1.5-.981 2.37-1.28.88-.299 1.8-.448 2.78-.448 1.01 0 1.83.181 2.47.544.66.363 1.17.864 1.53 1.504.39.619.64 1.344.77 2.176.15.811.23 1.675.23 2.592V465zm13.27-.864c-.3.149-.67.309-1.12.48-.45.171-.96.32-1.54.448-.55.128-1.13.192-1.72.192-.73 0-1.4-.128-2.02-.384a3.314 3.314 0 0 1-1.5-1.216c-.37-.576-.55-1.312-.55-2.208v-10.464h-2.21v-2.72h2.21v-5.504h3.52v5.504h3.65v2.72h-3.65v9.344c.04.576.23 1.003.55 1.28.34.277.75.416 1.24.416s.96-.085 1.41-.256c.45-.171.78-.309.99-.416l.74 2.784zm8.39 1.184c-1.41 0-2.74-.224-4-.672-1.26-.469-2.34-1.163-3.23-2.08l1.31-2.368c.96.853 1.92 1.472 2.88 1.856.98.384 1.95.576 2.91.576.98 0 1.78-.181 2.4-.544.62-.384.93-.939.93-1.664 0-.533-.16-.928-.48-1.184-.32-.256-.79-.48-1.41-.672-.6-.192-1.32-.405-2.17-.64-1.2-.363-2.2-.736-3.01-1.12-.81-.405-1.42-.896-1.83-1.472-.4-.576-.6-1.312-.6-2.208 0-1.088.27-2.016.83-2.784.55-.768 1.32-1.355 2.3-1.76 1-.405 2.16-.608 3.46-.608 1.21 0 2.33.192 3.36.576 1.04.363 1.96.939 2.75 1.728l-1.5 2.336c-.75-.683-1.52-1.184-2.31-1.504-.77-.32-1.6-.48-2.49-.48-.52 0-1.01.064-1.48.192-.47.107-.86.32-1.18.64-.3.299-.45.725-.45 1.28 0 .448.13.811.39 1.088.25.277.64.512 1.15.704.51.192 1.14.405 1.89.64 1.3.384 2.41.768 3.32 1.152.92.363 1.62.843 2.12 1.44.51.576.76 1.376.76 2.4 0 1.621-.6 2.891-1.82 3.808-1.2.896-2.8 1.344-4.8 1.344z" fill="#fff"/><path d="m1185 398 6.45 31.551L1223 436l-31.55 6.449L1185 474l-6.45-31.551L1147 436l31.55-6.449L1185 398z" fill="#48C78E"/></g><defs><clipPath id="a"><path fill="#fff" d="M0 0h1569v703H0z"/></clipPath></defs></svg>