<svg width="836" height="470" fill="none" xmlns="http://www.w3.org/2000/svg"><g clip-path="url(#a)"><path fill="#181818" d="M0 0h836v469.438H0z"/><g opacity=".6"><path opacity=".03" d="M65.921-89.285h-338.026v314.761L65.921-89.284z" fill="#546FEF"/><path opacity=".03" d="M865.402 225.476v-54.337H581.806V94.934h244.276V41.257H581.806v-76.204h283.596v-54.338H527.844v314.761h337.558zM182.826 121.773h130.338v44.472l74.618 59.115h42.678v-44.278l-76.024-59.425h57.555v-43.19l7.809-10.371h46.154v-103.82h-46.857l-6.989-9.283v-44.278H182.826v44.395l-6.99 9.282H128.98v261.084h53.963l-.117-103.703zm0-53.677v-93.217l7.809-10.603H403.83l7.809 10.603v83.623l-7.184 9.477-221.629.117z" fill="#fff"/><path opacity=".03" d="M527.383 624.093H865.41V309.332L527.383 624.093z" fill="#546FEF"/><path opacity=".03" d="M128.75 624.093h337.324v-54.338H182.712v-66.183l7.576-10.021h236.466v-53.677H190.209l-7.497-9.943v-66.262h283.362v-54.337H128.75V439.99h46.543l7.419 9.827v33.907l-7.497 9.943H128.75v130.426zM9.113 624.093v-44.395l7.34-9.282h49.043V363.009H16.414l-7.301-9.244v-44.433h-281.136v314.605H9.113v.156zm-224.831-261.084H.757l8.356 10.603v186.2L.757 570.416h-216.475V363.009z" fill="#fff"/></g><path d="m38 52 6.449 31.551L76 90l-31.551 6.449L38 128l-6.449-31.551L0 90l31.551-6.449L38 52z" fill="#fff"/><path d="m223.07 54.192 24.54 109.616h-19.474l-5.066-23.02h-41.163l-5.383 23.02H158l25.173-109.616h39.897zm-3.325 70.154L208.03 71.731h-10.45l-12.349 52.615h34.514zm109.376-70.154v17.539h-52.405v28.5h50.821v17.225h-50.821v46.352h-18.998V54.192h71.403zm37.362 92.077V71.731h-25.648V54.192h70.295v17.539h-25.648v74.538h25.648v17.539h-70.295v-17.539h25.648zm53.814-21.61h18.524v6.264c0 3.289.475 6.107 1.742 8.3 1.266 2.192 2.849 4.071 5.066 5.48 2.216 1.41 4.749 2.506 7.758 3.132 3.008.627 6.332.94 10.132.94 7.916 0 13.774-1.253 17.257-3.759 3.483-2.505 5.383-6.576 5.383-12.37 0-4.385-1.267-7.673-3.483-10.179-2.217-2.505-5.858-4.228-10.924-5.168l-24.065-5.167c-9.183-1.879-15.832-5.324-19.948-10.492-4.117-5.168-6.017-11.275-6.017-18.478 0-4.385.792-8.456 2.533-12.214 1.584-3.758 4.117-7.047 7.442-9.866 3.324-2.818 7.599-5.01 12.665-6.577C449.429 52.94 455.286 52 461.936 52c6.649 0 12.665.783 17.89 2.349 5.066 1.566 9.341 3.758 12.824 6.577 3.325 2.819 5.858 5.95 7.599 9.709 1.742 3.758 2.692 7.673 2.692 11.9v8.613h-18.524V86.92c0-3.445-.633-6.42-1.741-8.769-1.267-2.349-2.85-4.228-4.908-5.637-2.058-1.253-4.433-2.193-7.283-2.819-2.85-.626-5.699-.94-8.866-.94-2.85 0-5.541.314-8.074.784-2.533.47-4.591 1.252-6.491 2.348-1.9 1.097-3.483 2.506-4.592 4.385-1.108 1.88-1.583 4.071-1.583 6.733 0 1.566.158 3.132.475 4.542.317 1.566.95 2.818 2.058 3.915.95 1.252 2.375 2.192 4.275 3.131 1.9.94 4.433 1.723 7.599 2.35l22.798 4.541c8.866 1.879 15.674 5.167 20.424 10.178 4.591 5.011 6.966 11.588 6.966 20.044 0 5.168-.95 9.865-2.692 14.093-1.899 4.228-4.591 7.83-8.074 10.805-3.641 2.976-8.074 5.325-13.457 6.891-5.383 1.722-11.399 2.505-18.365 2.505-8.233 0-15.041-.94-20.424-2.975-5.383-1.879-9.816-4.385-12.982-7.517-3.325-3.132-5.7-6.577-7.124-10.335-1.425-3.758-2.059-7.36-2.059-10.961v-9.553zm116.939-70.467v45.1h44.014v-45.1h18.998v109.616H581.25V116.83h-44.014v46.978h-18.998V54.192h18.998zm138.224 0L700 163.808h-19.473l-5.067-23.02h-41.163l-5.383 23.02H610.39l25.173-109.616h39.897zm-3.325 70.154L660.42 71.731h-10.45l-12.349 52.615h34.514z" fill="#48C78E"/><path d="M553.336 214.26h20.311v-7.571h-20.311v7.571z" fill="#fff"/><path d="M586.152 187.982v36.521h-7.811v-35.185l-1.118-1.336h-27.457l-1.115 1.336v35.185h-7.589v-36.521h6.473l1.116-1.559v-6.235h29.69v6.235l1.116 1.559h6.695zM367.165 224.503v-7.572h-35.493V206.02h29.913v-7.572h-29.913v-10.689h35.493v-7.571h-43.083V224.503h43.083zM492.842 218.268v6.235h37.727v-7.572h-36.612l-.893-1.336v-35.407h-7.81v36.743h6.473l1.115 1.337zM432.574 224.503h43.307v-7.572h-35.494v-9.352l.893-1.559h29.02v-7.572h-29.02l-.893-1.336v-9.353h35.494v-7.571h-43.307V198.448h6.697l1.116 1.559v4.677l-1.116 1.559h-6.697v18.26zM221.843 224.503h37.726v-7.572h-37.726v-9.352l1.117-1.559h31.028v-7.572H222.96l-1.117-1.336v-9.353h37.726v-7.571h-45.315v18.26h6.474l1.115 1.559v4.677l-1.115 1.336h-6.474v18.483h7.589z" fill="#fff"/><path fill-rule="evenodd" clip-rule="evenodd" d="M693.529 187.759h6.473v29.172h-6.473l-1.118 1.559v6.013h-32.367v-6.013l-1.115-1.559h-6.476v-29.172h6.476l1.115-1.558v-6.013h32.367v6.013l1.118 1.558zm-33.485 27.836 1.116 1.559h30.135l1.116-1.336v-26.722l-1.116-1.337H661.16l-1.116 1.337v26.499zM275.191 224.503h-7.589v-36.744h6.473l1.116-1.336v-6.235h32.145v6.235l1.116 1.336h6.474v14.475h-6.474l-1.116 1.559v6.013H299.3l10.715 8.462v6.235h-6.027l-10.492-8.239v-6.458h-18.305v14.697zm31.252-22.046.893-1.336v-11.803l-1.116-1.559h-29.913l-1.116 1.559v13.139h31.252zM376.543 224.503v-44.315h37.949v6.235l1.116 1.336h6.474v29.172h-6.474l-1.116 1.337v6.235h-37.949zm7.59-7.572h29.243l1.116-1.336v-26.499l-1.116-1.337h-29.243v29.172z" fill="#fff"/><path d="M635.708 216.931h-6.476l-1.115-1.558v-7.572l-12.501-20.042h-3.349l-1.115-1.336v-6.235h-15.179v44.315h7.588v-36.744h6.475l1.116 1.337v7.348l12.948 20.487h2.901l1.116 1.337v6.235h15.179v-44.315h-7.588v36.743z" fill="#fff"/><path fill-rule="evenodd" clip-rule="evenodd" d="M205.548 179.966v29.617H165.59v15.143H158v-44.76h47.548zm-7.59 7.571H165.59v14.475h32.368v-14.475z" fill="#fff"/><path d="M214.721 324.48c-1.984 0-3.76-.336-5.328-1.008a12.754 12.754 0 0 1-4.08-2.88 13.23 13.23 0 0 1-2.592-4.128 13.686 13.686 0 0 1-.912-4.992c0-1.76.304-3.424.912-4.992a12.536 12.536 0 0 1 2.592-4.128 12.147 12.147 0 0 1 4.08-2.832c1.6-.704 3.376-1.056 5.328-1.056 1.952 0 3.712.352 5.28 1.056 1.6.672 2.96 1.616 4.08 2.832a12.156 12.156 0 0 1 2.64 4.128c.608 1.568.912 3.232.912 4.992 0 1.76-.304 3.424-.912 4.992a12.808 12.808 0 0 1-2.64 4.128c-1.12 1.216-2.48 2.176-4.08 2.88-1.568.672-3.328 1.008-5.28 1.008zm-7.488-12.96c0 1.6.336 3.04 1.008 4.32.672 1.28 1.568 2.288 2.688 3.024 1.12.736 2.384 1.104 3.792 1.104 1.376 0 2.624-.368 3.744-1.104 1.152-.768 2.064-1.792 2.736-3.072.672-1.312 1.008-2.752 1.008-4.32 0-1.6-.336-3.04-1.008-4.32-.672-1.28-1.584-2.288-2.736-3.024a6.472 6.472 0 0 0-3.744-1.152c-1.408 0-2.672.384-3.792 1.152-1.12.768-2.016 1.792-2.688 3.072-.672 1.248-1.008 2.688-1.008 4.32zm37.227 12.96c-4.192 0-7.376-1.264-9.552-3.792-2.176-2.528-3.264-6.144-3.264-10.848 0-3.072.256-5.664.768-7.776.544-2.144 1.328-3.904 2.352-5.28a12.683 12.683 0 0 1 3.888-3.36c1.568-.896 3.376-1.616 5.424-2.16l10.704-2.976.192 4.416-10.512 2.976c-1.664.512-3.088 1.184-4.272 2.016-1.152.832-2.064 1.92-2.736 3.264-.672 1.312-1.12 2.976-1.344 4.992.896-1.632 2.176-2.912 3.84-3.84 1.664-.928 3.632-1.392 5.904-1.392 2.336 0 4.352.496 6.048 1.488a9.948 9.948 0 0 1 3.936 4.032c.928 1.728 1.392 3.712 1.392 5.952 0 2.432-.496 4.576-1.488 6.432-.96 1.824-2.4 3.264-4.32 4.32-1.888 1.024-4.208 1.536-6.96 1.536zm0-4.512c2.336 0 4.144-.688 5.424-2.064 1.312-1.376 1.968-3.2 1.968-5.472 0-2.176-.656-3.952-1.968-5.328-1.28-1.408-3.088-2.112-5.424-2.112-1.376 0-2.624.304-3.744.912-1.12.576-2 1.424-2.64 2.544-.64 1.088-.96 2.416-.96 3.984 0 1.472.288 2.784.864 3.936a6.4 6.4 0 0 0 2.496 2.64c1.088.64 2.416.96 3.984.96zM265.703 324v-20.784h-6.864v-4.32h12.048v8.256h6.048c2.976 0 5.232.752 6.768 2.256 1.536 1.504 2.304 3.488 2.304 5.952 0 1.664-.336 3.152-1.008 4.464-.64 1.312-1.616 2.336-2.928 3.072-1.312.736-2.928 1.104-4.848 1.104h-11.52zm5.184-4.08h5.568c1.024 0 1.856-.192 2.496-.576.64-.416 1.12-.96 1.44-1.632.32-.704.48-1.456.48-2.256 0-.8-.144-1.52-.432-2.16-.288-.672-.768-1.2-1.44-1.584-.64-.416-1.52-.624-2.64-.624h-5.472v8.832zm30.837 4.56c-1.952 0-3.728-.336-5.328-1.008a13.137 13.137 0 0 1-4.08-2.832 13.512 13.512 0 0 1-2.688-4.128 13.686 13.686 0 0 1-.912-4.992c0-2.368.544-4.528 1.632-6.48a12.502 12.502 0 0 1 4.56-4.752c1.952-1.216 4.24-1.824 6.864-1.824 2.624 0 4.88.608 6.768 1.824 1.92 1.184 3.408 2.752 4.464 4.704a13.013 13.013 0 0 1 1.584 6.288c0 .384-.016.752-.048 1.104-.032.32-.064.592-.096.816h-20.112c.096 1.472.496 2.768 1.2 3.888a8.291 8.291 0 0 0 2.784 2.592 7.43 7.43 0 0 0 3.6.912 7.983 7.983 0 0 0 3.984-1.056c1.28-.704 2.144-1.632 2.592-2.784l4.512 1.296c-.544 1.216-1.376 2.32-2.496 3.312-1.088.96-2.384 1.728-3.888 2.304-1.504.544-3.136.816-4.896.816zm-7.536-14.784h15.168c-.096-1.44-.512-2.704-1.248-3.792-.704-1.12-1.616-1.984-2.736-2.592-1.088-.64-2.304-.96-3.648-.96-1.312 0-2.528.32-3.648.96-1.088.608-1.984 1.472-2.688 2.592-.704 1.088-1.104 2.352-1.2 3.792zM316.495 330v-10.656h.576a3.31 3.31 0 0 0 1.872-.576c.576-.384 1.088-1.04 1.536-1.968.448-.96.816-2.272 1.104-3.936.288-1.696.464-3.824.528-6.384l.288-7.584h17.904v20.448h3.456V330h-4.656v-6h-18v6h-4.608zm7.536-10.656h10.992v-15.888h-7.968l-.144 3.504c-.096 2.432-.272 4.48-.528 6.144-.224 1.664-.544 2.992-.96 3.984-.384.992-.848 1.744-1.392 2.256zM348.238 324v-25.056h5.28v18l12.72-18.048h4.8V324h-5.28v-17.616L353.182 324h-4.944zm29.11 0v-25.104h5.28v9.984h11.664v-9.984h5.28V324h-5.28v-10.56h-11.664V324h-5.28zm27.009 0 6.72-9.936c-1.568-.384-2.816-1.184-3.744-2.4-.928-1.216-1.392-2.848-1.392-4.896 0-1.568.352-2.944 1.056-4.128.736-1.184 1.76-2.112 3.072-2.784 1.312-.672 2.832-1.008 4.56-1.008h11.04V324h-5.28v-9.072h-4.128L410.117 324h-5.76zm10.8-12.912h5.232v-8.16h-4.896c-1.344 0-2.416.368-3.216 1.104-.768.736-1.152 1.696-1.152 2.88s.336 2.176 1.008 2.976c.704.8 1.712 1.2 3.024 1.2zm28.27 13.392c-1.952 0-3.728-.336-5.328-1.008a13.137 13.137 0 0 1-4.08-2.832 13.512 13.512 0 0 1-2.688-4.128 13.686 13.686 0 0 1-.912-4.992c0-2.368.544-4.528 1.632-6.48a12.502 12.502 0 0 1 4.56-4.752c1.952-1.216 4.24-1.824 6.864-1.824 2.624 0 4.88.608 6.768 1.824 1.92 1.184 3.408 2.752 4.464 4.704a13.013 13.013 0 0 1 1.584 6.288c0 .384-.016.752-.048 1.104-.032.32-.064.592-.096.816h-20.112c.096 1.472.496 2.768 1.2 3.888a8.291 8.291 0 0 0 2.784 2.592 7.43 7.43 0 0 0 3.6.912 7.983 7.983 0 0 0 3.984-1.056c1.28-.704 2.144-1.632 2.592-2.784l4.512 1.296c-.544 1.216-1.376 2.32-2.496 3.312-1.088.96-2.384 1.728-3.888 2.304-1.504.544-3.136.816-4.896.816zm-7.536-14.784h15.168c-.096-1.44-.512-2.704-1.248-3.792-.704-1.12-1.616-1.984-2.736-2.592-1.088-.64-2.304-.96-3.648-.96-1.312 0-2.528.32-3.648.96-1.088.608-1.984 1.472-2.688 2.592-.704 1.088-1.104 2.352-1.2 3.792zM460.598 324v-25.104h5.472l8.64 15.504 8.688-15.504h5.376V324h-5.04v-17.664l-7.392 13.2h-3.312l-7.44-13.2V324h-4.992zm44.343.24v-4.704c.8 0 1.52-.192 2.16-.576.64-.416 1.2-1.088 1.68-2.016.48-.96.864-2.288 1.152-3.984.288-1.696.48-3.856.576-6.48l.336-7.584h17.904V324h-5.28v-20.448h-7.968l-.096 3.408c-.128 3.36-.432 6.16-.912 8.4-.48 2.208-1.152 3.968-2.016 5.28-.832 1.28-1.888 2.208-3.168 2.784-1.248.544-2.704.816-4.368.816zm51.741.24c-2.208 0-4.176-.464-5.904-1.392a11.462 11.462 0 0 1-4.128-3.792c-1.024-1.632-1.68-3.472-1.968-5.52h-4.32V324h-5.28v-25.104h5.28v10.272h4.32c.288-2.112.96-3.968 2.016-5.568 1.088-1.632 2.48-2.896 4.176-3.792 1.696-.896 3.632-1.344 5.808-1.344 2.624 0 4.864.592 6.72 1.776a11.86 11.86 0 0 1 4.272 4.704c.992 1.952 1.488 4.128 1.488 6.528 0 2.464-.512 4.672-1.536 6.624-.992 1.952-2.432 3.504-4.32 4.656-1.856 1.152-4.064 1.728-6.624 1.728zm0-4.512c1.408 0 2.64-.352 3.696-1.056 1.056-.736 1.888-1.728 2.496-2.976.608-1.28.912-2.768.912-4.464 0-1.728-.304-3.216-.912-4.464-.608-1.28-1.456-2.272-2.544-2.976-1.088-.704-2.304-1.056-3.648-1.056-1.344 0-2.544.352-3.6 1.056-1.024.704-1.824 1.696-2.4 2.976-.576 1.28-.864 2.768-.864 4.464 0 1.728.288 3.232.864 4.512.608 1.28 1.424 2.272 2.448 2.976 1.056.672 2.24 1.008 3.552 1.008zM571.495 330v-10.656h.576a3.31 3.31 0 0 0 1.872-.576c.576-.384 1.088-1.04 1.536-1.968.448-.96.816-2.272 1.104-3.936.288-1.696.464-3.824.528-6.384l.288-7.584h17.904v20.448h3.456V330h-4.656v-6h-18v6h-4.608zm7.536-10.656h10.992v-15.888h-7.968l-.144 3.504c-.096 2.432-.272 4.48-.528 6.144-.224 1.664-.544 2.992-.96 3.984-.384.992-.848 1.744-1.392 2.256zm35.583 5.136c-1.952 0-3.728-.336-5.328-1.008a13.137 13.137 0 0 1-4.08-2.832 13.512 13.512 0 0 1-2.688-4.128 13.686 13.686 0 0 1-.912-4.992c0-2.368.544-4.528 1.632-6.48a12.502 12.502 0 0 1 4.56-4.752c1.952-1.216 4.24-1.824 6.864-1.824 2.624 0 4.88.608 6.768 1.824 1.92 1.184 3.408 2.752 4.464 4.704a13.013 13.013 0 0 1 1.584 6.288c0 .384-.016.752-.048 1.104-.032.32-.064.592-.096.816h-20.112c.096 1.472.496 2.768 1.2 3.888a8.291 8.291 0 0 0 2.784 2.592 7.43 7.43 0 0 0 3.6.912 7.983 7.983 0 0 0 3.984-1.056c1.28-.704 2.144-1.632 2.592-2.784l4.512 1.296c-.544 1.216-1.376 2.32-2.496 3.312-1.088.96-2.384 1.728-3.888 2.304-1.504.544-3.136.816-4.896.816zm-7.536-14.784h15.168c-.096-1.44-.512-2.704-1.248-3.792-.704-1.12-1.616-1.984-2.736-2.592-1.088-.64-2.304-.96-3.648-.96-1.312 0-2.528.32-3.648.96-1.088.608-1.984 1.472-2.688 2.592-.704 1.088-1.104 2.352-1.2 3.792zM631.785 324v-25.056h5.28v18l12.72-18.048h4.8V324h-5.28v-17.616L636.729 324h-4.944zm11.424-27.696c-2.368 0-4.208-.592-5.52-1.776-1.28-1.184-1.92-2.672-1.92-4.464h3.456c0 .928.304 1.696.912 2.304.64.608 1.664.912 3.072.912 1.376 0 2.352-.288 2.928-.864.608-.576.976-1.36 1.104-2.352h3.456c0 1.792-.656 3.28-1.968 4.464-1.28 1.184-3.12 1.776-5.52 1.776zM246.754 395v-25.104h13.44c1.6 0 2.912.304 3.936.912 1.056.576 1.84 1.328 2.352 2.256.512.896.768 1.888.768 2.976 0 1.376-.32 2.592-.96 3.648-.64 1.056-1.584 1.856-2.832 2.4 1.44.416 2.608 1.152 3.504 2.208.928 1.024 1.392 2.352 1.392 3.984 0 1.472-.352 2.72-1.056 3.744-.704.992-1.712 1.744-3.024 2.256-1.28.48-2.784.72-4.512.72h-13.008zm4.992-3.648h7.872c.672 0 1.28-.16 1.824-.48a3.86 3.86 0 0 0 1.344-1.344c.32-.576.48-1.184.48-1.824 0-.704-.16-1.328-.48-1.872a3.24 3.24 0 0 0-1.248-1.296c-.512-.32-1.12-.48-1.824-.48h-7.968v7.296zm0-10.704h7.104c.672 0 1.264-.16 1.776-.48a3.623 3.623 0 0 0 1.2-1.392 4.026 4.026 0 0 0 .432-1.824c0-.928-.304-1.728-.912-2.4-.608-.672-1.408-1.008-2.4-1.008h-7.2v7.104zm32.913 14.832c-1.984 0-3.76-.336-5.328-1.008a12.754 12.754 0 0 1-4.08-2.88 13.23 13.23 0 0 1-2.592-4.128 13.686 13.686 0 0 1-.912-4.992c0-1.76.304-3.424.912-4.992a12.536 12.536 0 0 1 2.592-4.128 12.147 12.147 0 0 1 4.08-2.832c1.6-.704 3.376-1.056 5.328-1.056 1.952 0 3.712.352 5.28 1.056 1.6.672 2.96 1.616 4.08 2.832a12.156 12.156 0 0 1 2.64 4.128c.608 1.568.912 3.232.912 4.992 0 1.76-.304 3.424-.912 4.992a12.808 12.808 0 0 1-2.64 4.128c-1.12 1.216-2.48 2.176-4.08 2.88-1.568.672-3.328 1.008-5.28 1.008zm-7.488-12.96c0 1.6.336 3.04 1.008 4.32.672 1.28 1.568 2.288 2.688 3.024 1.12.736 2.384 1.104 3.792 1.104 1.376 0 2.624-.368 3.744-1.104 1.152-.768 2.064-1.792 2.736-3.072.672-1.312 1.008-2.752 1.008-4.32 0-1.6-.336-3.04-1.008-4.32-.672-1.28-1.584-2.288-2.736-3.024a6.472 6.472 0 0 0-3.744-1.152c-1.408 0-2.672.384-3.792 1.152-1.12.768-2.016 1.792-2.688 3.072-.672 1.248-1.008 2.688-1.008 4.32zM302.254 395v-25.104h5.232v9.936h2.496l7.392-9.936h5.856l-9.168 12.144L324.286 395h-6.096l-8.256-10.416h-2.448V395h-5.232zm40.318.48c-2.016 0-3.792-.48-5.328-1.44a10.748 10.748 0 0 1-3.648-3.744v14.928h-5.28v-35.328h4.656v4.512a10.894 10.894 0 0 1 3.744-3.6c1.536-.896 3.248-1.344 5.136-1.344 1.728 0 3.312.352 4.752 1.056a11.163 11.163 0 0 1 3.744 2.832 13.301 13.301 0 0 1 2.448 4.176 13.18 13.18 0 0 1 .912 4.896c0 2.4-.48 4.592-1.44 6.576-.928 1.984-2.24 3.568-3.936 4.752-1.664 1.152-3.584 1.728-5.76 1.728zm-1.728-4.512c1.12 0 2.128-.24 3.024-.72a7.226 7.226 0 0 0 2.352-1.92 8.515 8.515 0 0 0 1.536-2.736 9.679 9.679 0 0 0 .528-3.168c0-1.152-.192-2.24-.576-3.264a7.795 7.795 0 0 0-1.68-2.688 7.858 7.858 0 0 0-2.496-1.824c-.928-.448-1.952-.672-3.072-.672-.672 0-1.376.128-2.112.384a8.387 8.387 0 0 0-2.064 1.056 7.9 7.9 0 0 0-1.68 1.584 5.554 5.554 0 0 0-1.008 1.92v6.576a10.569 10.569 0 0 0 1.776 2.784 9.52 9.52 0 0 0 2.544 1.968c.96.48 1.936.72 2.928.72zm20.177 14.688c-.576 0-1.184-.08-1.824-.24-.64-.16-1.312-.4-2.016-.72l1.344-3.936a6.03 6.03 0 0 0 1.104.432c.352.096.672.144.96.144.8 0 1.52-.336 2.16-1.008.672-.64 1.264-1.616 1.776-2.928l.96-2.592-10.608-24.912h5.52l7.68 19.728 6.816-19.728h5.088l-11.04 28.944c-.544 1.504-1.232 2.752-2.064 3.744-.8.992-1.696 1.744-2.688 2.256a6.49 6.49 0 0 1-3.168.816zM383.863 395v-25.104h16.032v4.656h-10.752V395h-5.28zm43.251.48c-1.952 0-3.728-.336-5.328-1.008a12.754 12.754 0 0 1-4.08-2.88 13.354 13.354 0 0 1-2.688-4.176 13.686 13.686 0 0 1-.912-4.992c0-2.368.528-4.528 1.584-6.48a12.722 12.722 0 0 1 4.512-4.704c1.952-1.184 4.256-1.776 6.912-1.776 2.56 0 4.784.576 6.672 1.728 1.92 1.12 3.328 2.624 4.224 4.512l-5.136 1.632a6.013 6.013 0 0 0-2.448-2.448c-1.024-.608-2.16-.912-3.408-.912-1.408 0-2.688.368-3.84 1.104-1.12.704-2.016 1.696-2.688 2.976-.64 1.248-.96 2.704-.96 4.368 0 1.6.336 3.056 1.008 4.368.672 1.28 1.568 2.304 2.688 3.072 1.152.736 2.432 1.104 3.84 1.104.864 0 1.696-.144 2.496-.432a7.5 7.5 0 0 0 2.16-1.248c.608-.544 1.04-1.136 1.296-1.776l5.184 1.536c-.544 1.248-1.36 2.352-2.448 3.312-1.056.96-2.32 1.728-3.792 2.304-1.44.544-3.056.816-4.848.816zm26.482 0c-1.984 0-3.76-.336-5.328-1.008a12.754 12.754 0 0 1-4.08-2.88 13.23 13.23 0 0 1-2.592-4.128 13.686 13.686 0 0 1-.912-4.992c0-1.76.304-3.424.912-4.992a12.536 12.536 0 0 1 2.592-4.128 12.147 12.147 0 0 1 4.08-2.832c1.6-.704 3.376-1.056 5.328-1.056 1.952 0 3.712.352 5.28 1.056 1.6.672 2.96 1.616 4.08 2.832a12.156 12.156 0 0 1 2.64 4.128c.608 1.568.912 3.232.912 4.992 0 1.76-.304 3.424-.912 4.992a12.808 12.808 0 0 1-2.64 4.128c-1.12 1.216-2.48 2.176-4.08 2.88-1.568.672-3.328 1.008-5.28 1.008zm-7.488-12.96c0 1.6.336 3.04 1.008 4.32.672 1.28 1.568 2.288 2.688 3.024 1.12.736 2.384 1.104 3.792 1.104 1.376 0 2.624-.368 3.744-1.104 1.152-.768 2.064-1.792 2.736-3.072.672-1.312 1.008-2.752 1.008-4.32 0-1.6-.336-3.04-1.008-4.32-.672-1.28-1.584-2.288-2.736-3.024a6.472 6.472 0 0 0-3.744-1.152c-1.408 0-2.672.384-3.792 1.152-1.12.768-2.016 1.792-2.688 3.072-.672 1.248-1.008 2.688-1.008 4.32zm37.227 12.96c-4.192 0-7.376-1.264-9.552-3.792-2.176-2.528-3.264-6.144-3.264-10.848 0-3.072.256-5.664.768-7.776.544-2.144 1.328-3.904 2.352-5.28a12.683 12.683 0 0 1 3.888-3.36c1.568-.896 3.376-1.616 5.424-2.16l10.704-2.976.192 4.416-10.512 2.976c-1.664.512-3.088 1.184-4.272 2.016-1.152.832-2.064 1.92-2.736 3.264-.672 1.312-1.12 2.976-1.344 4.992.896-1.632 2.176-2.912 3.84-3.84 1.664-.928 3.632-1.392 5.904-1.392 2.336 0 4.352.496 6.048 1.488a9.948 9.948 0 0 1 3.936 4.032c.928 1.728 1.392 3.712 1.392 5.952 0 2.432-.496 4.576-1.488 6.432-.96 1.824-2.4 3.264-4.32 4.32-1.888 1.024-4.208 1.536-6.96 1.536zm0-4.512c2.336 0 4.144-.688 5.424-2.064 1.312-1.376 1.968-3.2 1.968-5.472 0-2.176-.656-3.952-1.968-5.328-1.28-1.408-3.088-2.112-5.424-2.112-1.376 0-2.624.304-3.744.912-1.12.576-2 1.424-2.64 2.544-.64 1.088-.96 2.416-.96 3.984 0 1.472.288 2.784.864 3.936a6.4 6.4 0 0 0 2.496 2.64c1.088.64 2.416.96 3.984.96zM500.863 395v-25.104h5.28v8.256h4.752c2.976 0 5.248.752 6.816 2.256 1.568 1.504 2.352 3.488 2.352 5.952 0 1.664-.336 3.152-1.008 4.464-.672 1.312-1.664 2.336-2.976 3.072-1.28.736-2.88 1.104-4.8 1.104h-10.416zm5.28-4.08h4.32c1.056 0 1.904-.192 2.544-.576a3.615 3.615 0 0 0 1.392-1.632c.32-.704.48-1.456.48-2.256 0-.8-.144-1.52-.432-2.16-.288-.672-.768-1.2-1.44-1.584-.64-.416-1.504-.624-2.592-.624h-4.272v8.832zm18.048 4.08v-25.056h5.28V395h-5.28zm17.593 0v-20.448h-8.304v-4.656h21.936v4.656h-8.352V395h-5.28zm17.579 0v-25.056h5.28v18l12.72-18.048h4.8V395h-5.28v-17.616L564.307 395h-4.944zm29.11 0v-25.056h5.28v18l12.72-18.048h4.8V395h-5.28v-17.616L593.417 395h-4.944zm11.424-27.696c-2.368 0-4.208-.592-5.52-1.776-1.28-1.184-1.92-2.672-1.92-4.464h3.456c0 .928.304 1.696.912 2.304.64.608 1.664.912 3.072.912 1.376 0 2.352-.288 2.928-.864.608-.576.976-1.36 1.104-2.352h3.456c0 1.792-.656 3.28-1.968 4.464-1.28 1.184-3.12 1.776-5.52 1.776z" fill="#fff"/><path d="m798 322 6.449 31.551L836 360l-31.551 6.449L798 398l-6.449-31.551L760 360l31.551-6.449L798 322z" fill="#48C78E"/></g><defs><clipPath id="a"><path fill="#fff" d="M0 0h836v469.438H0z"/></clipPath></defs></svg>