<svg width="25" height="24" viewBox="0 0 25 24" fill="none" xmlns="http://www.w3.org/2000/svg">
<path d="M4.16675 10.5C4.16675 5.81 7.97675 2 12.6667 2C17.3567 2 21.1667 5.81 21.1667 10.5C21.1667 14.9112 18.1494 19.4762 13.4524 21.8588C13.321 21.9255 13.1667 21.8291 13.1667 21.6817V19.2C13.1667 19.0895 13.0772 19 12.9667 19H12.6667C7.97675 19 4.16675 15.19 4.16675 10.5Z" stroke="currentColor" stroke-width="1.5"/>
<path d="M7.61308 10.7329C7.61308 10.7329 12.0358 8.85129 13.5697 8.18874C14.1577 7.92374 16.1518 7.07566 16.1518 7.07566C16.1518 7.07566 17.0722 6.70466 16.9955 7.6057C16.9699 7.97674 16.7654 9.27529 16.5609 10.6799C16.2541 12.6675 15.9217 14.8406 15.9217 14.8406C15.9217 14.8406 15.8706 15.4502 15.436 15.5562C15.0014 15.6622 14.2855 15.1852 14.1577 15.0791C14.0555 14.9996 12.2404 13.8071 11.5757 13.224C11.3967 13.065 11.1922 12.747 11.6012 12.376C12.5216 11.5014 13.6209 10.4149 14.2855 9.72584C14.5923 9.40781 14.8991 8.66577 13.6209 9.56681C11.8058 10.8654 10.0162 12.0845 10.0162 12.0845C10.0162 12.0845 9.60715 12.3495 8.8402 12.1109C8.07323 11.8725 7.17845 11.5544 7.17845 11.5544C7.17845 11.5544 6.56492 11.1569 7.61308 10.7329Z" fill="currentColor"/>
</svg>
