<svg width="24" height="24" viewBox="0 0 24 24" fill="none" xmlns="http://www.w3.org/2000/svg">
<path d="M15.531 5.3999C16.6511 5.40126 17.7457 5.73456 18.6764 6.3577C19.6072 6.98084 20.3324 7.86586 20.7604 8.90095C21.1884 9.93605 21.3 11.0748 21.0812 12.1733C20.8623 13.2718 20.3228 14.2808 19.5308 15.0728C18.7387 15.8649 17.7297 16.4044 16.6312 16.6232C15.5327 16.8421 14.394 16.7304 13.3589 16.3024C12.3238 15.8744 11.4388 15.1492 10.8157 14.2185C10.1925 13.2877 9.85921 12.1931 9.85786 11.073C9.85786 9.56843 10.4556 8.12545 11.5195 7.06153C12.5834 5.99761 14.0264 5.3999 15.531 5.3999ZM5.40039 20.51H8.14767V5.3999H5.40039V20.51Z" fill="currentColor"/>
</svg>
