<svg width="140" height="14" viewBox="0 0 140 14" fill="none" xmlns="http://www.w3.org/2000/svg">
<path d="M7.97698 5.192C7.97698 5.75733 7.84364 6.29067 7.57698 6.792C7.31031 7.29333 6.88364 7.704 6.29698 8.024C5.71031 8.33333 4.95831 8.488 4.04098 8.488H2.02498V13H0.200977V1.88H4.04098C4.89431 1.88 5.61431 2.02933 6.20098 2.328C6.79831 2.616 7.24098 3.01067 7.52898 3.512C7.82764 4.01333 7.97698 4.57333 7.97698 5.192ZM4.04098 7C4.73431 7 5.25164 6.84533 5.59298 6.536C5.93431 6.216 6.10498 5.768 6.10498 5.192C6.10498 3.976 5.41698 3.368 4.04098 3.368H2.02498V7H4.04098ZM17.7486 8.376C17.7486 8.70667 17.7273 9.00533 17.6846 9.272H10.9486C11.0019 9.976 11.2633 10.5413 11.7326 10.968C12.2019 11.3947 12.7779 11.608 13.4606 11.608C14.4419 11.608 15.1353 11.1973 15.5406 10.376H17.5086C17.2419 11.1867 16.7566 11.8533 16.0526 12.376C15.3593 12.888 14.4953 13.144 13.4606 13.144C12.6179 13.144 11.8606 12.9573 11.1886 12.584C10.5273 12.2 10.0046 11.6667 9.6206 10.984C9.24727 10.2907 9.0606 9.49067 9.0606 8.584C9.0606 7.67733 9.24193 6.88267 9.6046 6.2C9.97793 5.50667 10.4953 4.97333 11.1566 4.6C11.8286 4.22667 12.5966 4.04 13.4606 4.04C14.2926 4.04 15.0339 4.22133 15.6846 4.584C16.3353 4.94667 16.8419 5.45867 17.2046 6.12C17.5673 6.77067 17.7486 7.52267 17.7486 8.376ZM15.8446 7.8C15.8339 7.128 15.5939 6.58933 15.1246 6.184C14.6553 5.77867 14.0739 5.576 13.3806 5.576C12.7513 5.576 12.2126 5.77867 11.7646 6.184C11.3166 6.57867 11.0499 7.11733 10.9646 7.8H15.8446ZM21.3196 5.464C21.5863 5.016 21.9383 4.66933 22.3756 4.424C22.8236 4.168 23.3516 4.04 23.9596 4.04V5.928H23.4956C22.7809 5.928 22.2369 6.10933 21.8636 6.472C21.5009 6.83467 21.3196 7.464 21.3196 8.36V13H19.4956V4.184H21.3196V5.464ZM33.6682 8.376C33.6682 8.70667 33.6469 9.00533 33.6042 9.272H26.8682C26.9216 9.976 27.1829 10.5413 27.6522 10.968C28.1216 11.3947 28.6976 11.608 29.3802 11.608C30.3616 11.608 31.0549 11.1973 31.4602 10.376H33.4282C33.1616 11.1867 32.6762 11.8533 31.9722 12.376C31.2789 12.888 30.4149 13.144 29.3802 13.144C28.5376 13.144 27.7802 12.9573 27.1082 12.584C26.4469 12.2 25.9242 11.6667 25.5402 10.984C25.1669 10.2907 24.9802 9.49067 24.9802 8.584C24.9802 7.67733 25.1616 6.88267 25.5242 6.2C25.8976 5.50667 26.4149 4.97333 27.0762 4.6C27.7482 4.22667 28.5162 4.04 29.3802 4.04C30.2122 4.04 30.9536 4.22133 31.6042 4.584C32.2549 4.94667 32.7616 5.45867 33.1242 6.12C33.4869 6.77067 33.6682 7.52267 33.6682 8.376ZM31.7642 7.8C31.7536 7.128 31.5136 6.58933 31.0442 6.184C30.5749 5.77867 29.9936 5.576 29.3002 5.576C28.6709 5.576 28.1322 5.77867 27.6842 6.184C27.2362 6.57867 26.9696 7.11733 26.8842 7.8H31.7642ZM34.8072 8.552C34.8072 7.66667 34.9886 6.88267 35.3512 6.2C35.7246 5.51733 36.2259 4.98933 36.8552 4.616C37.4952 4.232 38.2046 4.04 38.9832 4.04C39.5592 4.04 40.1246 4.168 40.6792 4.424C41.2446 4.66933 41.6926 5 42.0232 5.416V1.16H43.8632V13H42.0232V11.672C41.7246 12.0987 41.3086 12.4507 40.7752 12.728C40.2526 13.0053 39.6499 13.144 38.9672 13.144C38.1992 13.144 37.4952 12.952 36.8552 12.568C36.2259 12.1733 35.7246 11.6293 35.3512 10.936C34.9886 10.232 34.8072 9.43733 34.8072 8.552ZM42.0232 8.584C42.0232 7.976 41.8952 7.448 41.6392 7C41.3939 6.552 41.0686 6.21067 40.6632 5.976C40.2579 5.74133 39.8206 5.624 39.3512 5.624C38.8819 5.624 38.4446 5.74133 38.0392 5.976C37.6339 6.2 37.3032 6.536 37.0472 6.984C36.8019 7.42133 36.6792 7.944 36.6792 8.552C36.6792 9.16 36.8019 9.69333 37.0472 10.152C37.3032 10.6107 37.6339 10.9627 38.0392 11.208C38.4552 11.4427 38.8926 11.56 39.3512 11.56C39.8206 11.56 40.2579 11.4427 40.6632 11.208C41.0686 10.9733 41.3939 10.632 41.6392 10.184C41.8952 9.72533 42.0232 9.192 42.0232 8.584ZM54.291 8.376C54.291 8.70667 54.2696 9.00533 54.227 9.272H47.491C47.5443 9.976 47.8056 10.5413 48.275 10.968C48.7443 11.3947 49.3203 11.608 50.003 11.608C50.9843 11.608 51.6776 11.1973 52.083 10.376H54.051C53.7843 11.1867 53.299 11.8533 52.595 12.376C51.9016 12.888 51.0376 13.144 50.003 13.144C49.1603 13.144 48.403 12.9573 47.731 12.584C47.0696 12.2 46.547 11.6667 46.163 10.984C45.7896 10.2907 45.603 9.49067 45.603 8.584C45.603 7.67733 45.7843 6.88267 46.147 6.2C46.5203 5.50667 47.0376 4.97333 47.699 4.6C48.371 4.22667 49.139 4.04 50.003 4.04C50.835 4.04 51.5763 4.22133 52.227 4.584C52.8776 4.94667 53.3843 5.45867 53.747 6.12C54.1096 6.77067 54.291 7.52267 54.291 8.376ZM52.387 7.8C52.3763 7.128 52.1363 6.58933 51.667 6.184C51.1976 5.77867 50.6163 5.576 49.923 5.576C49.2936 5.576 48.755 5.77867 48.307 6.184C47.859 6.57867 47.5923 7.11733 47.507 7.8H52.387ZM57.862 1.16V13H56.038V1.16H57.862ZM59.6007 8.552C59.6007 7.66667 59.7821 6.88267 60.1447 6.2C60.5181 5.51733 61.0194 4.98933 61.6487 4.616C62.2887 4.232 62.9927 4.04 63.7607 4.04C64.4541 4.04 65.0567 4.17867 65.5687 4.456C66.0914 4.72267 66.5074 5.05867 66.8167 5.464V4.184H68.6567V13H66.8167V11.688C66.5074 12.104 66.0861 12.4507 65.5527 12.728C65.0194 13.0053 64.4114 13.144 63.7287 13.144C62.9714 13.144 62.2781 12.952 61.6487 12.568C61.0194 12.1733 60.5181 11.6293 60.1447 10.936C59.7821 10.232 59.6007 9.43733 59.6007 8.552ZM66.8167 8.584C66.8167 7.976 66.6887 7.448 66.4327 7C66.1874 6.552 65.8621 6.21067 65.4567 5.976C65.0514 5.74133 64.6141 5.624 64.1447 5.624C63.6754 5.624 63.2381 5.74133 62.8327 5.976C62.4274 6.2 62.0967 6.536 61.8407 6.984C61.5954 7.42133 61.4727 7.944 61.4727 8.552C61.4727 9.16 61.5954 9.69333 61.8407 10.152C62.0967 10.6107 62.4274 10.9627 62.8327 11.208C63.2487 11.4427 63.6861 11.56 64.1447 11.56C64.6141 11.56 65.0514 11.4427 65.4567 11.208C65.8621 10.9733 66.1874 10.632 66.4327 10.184C66.6887 9.72533 66.8167 9.192 66.8167 8.584ZM75.4525 4.04C76.1458 4.04 76.7645 4.184 77.3085 4.472C77.8631 4.76 78.2951 5.18667 78.6045 5.752C78.9138 6.31733 79.0685 7 79.0685 7.8V13H77.2605V8.072C77.2605 7.28267 77.0631 6.68 76.6685 6.264C76.2738 5.83733 75.7351 5.624 75.0525 5.624C74.3698 5.624 73.8258 5.83733 73.4205 6.264C73.0258 6.68 72.8285 7.28267 72.8285 8.072V13H71.0045V4.184H72.8285V5.192C73.1271 4.82933 73.5058 4.54667 73.9645 4.344C74.4338 4.14133 74.9298 4.04 75.4525 4.04ZM85.1711 13.144C84.3391 13.144 83.5871 12.9573 82.9151 12.584C82.2431 12.2 81.7151 11.6667 81.3311 10.984C80.9471 10.2907 80.7551 9.49067 80.7551 8.584C80.7551 7.688 80.9524 6.89333 81.3471 6.2C81.7418 5.50667 82.2804 4.97333 82.9631 4.6C83.6458 4.22667 84.4084 4.04 85.2511 4.04C86.0938 4.04 86.8564 4.22667 87.5391 4.6C88.2218 4.97333 88.7604 5.50667 89.1551 6.2C89.5498 6.89333 89.7471 7.688 89.7471 8.584C89.7471 9.48 89.5444 10.2747 89.1391 10.968C88.7338 11.6613 88.1791 12.2 87.4751 12.584C86.7818 12.9573 86.0138 13.144 85.1711 13.144ZM85.1711 11.56C85.6404 11.56 86.0778 11.448 86.4831 11.224C86.8991 11 87.2351 10.664 87.4911 10.216C87.7471 9.768 87.8751 9.224 87.8751 8.584C87.8751 7.944 87.7524 7.40533 87.5071 6.968C87.2618 6.52 86.9364 6.184 86.5311 5.96C86.1258 5.736 85.6884 5.624 85.2191 5.624C84.7498 5.624 84.3124 5.736 83.9071 5.96C83.5124 6.184 83.1978 6.52 82.9631 6.968C82.7284 7.40533 82.6111 7.944 82.6111 8.584C82.6111 9.53333 82.8511 10.2693 83.3311 10.792C83.8218 11.304 84.4351 11.56 85.1711 11.56Z" fill="#4E4E4E"/>
<path d="M98.2062 10.728H93.5502L92.7502 13H90.8462L94.8302 1.864H96.9422L100.926 13H99.0062L98.2062 10.728ZM97.6942 9.24L95.8862 4.072L94.0622 9.24H97.6942ZM106.306 5.672H104.674V13H102.834V5.672H101.794V4.184H102.834V3.56C102.834 2.54667 103.101 1.81067 103.634 1.352C104.178 0.882666 105.026 0.648 106.178 0.648V2.168C105.624 2.168 105.234 2.27467 105.01 2.488C104.786 2.69067 104.674 3.048 104.674 3.56V4.184H106.306V5.672ZM108.803 3.016C108.472 3.016 108.195 2.904 107.971 2.68C107.747 2.456 107.635 2.17867 107.635 1.848C107.635 1.51733 107.747 1.24 107.971 1.016C108.195 0.791999 108.472 0.679999 108.803 0.679999C109.123 0.679999 109.395 0.791999 109.619 1.016C109.843 1.24 109.955 1.51733 109.955 1.848C109.955 2.17867 109.843 2.456 109.619 2.68C109.395 2.904 109.123 3.016 108.803 3.016ZM109.699 4.184V13H107.875V4.184H109.699ZM115.246 13.144C114.552 13.144 113.928 13.0213 113.374 12.776C112.83 12.52 112.398 12.1787 112.078 11.752C111.758 11.3147 111.587 10.8293 111.566 10.296H113.454C113.486 10.6693 113.662 10.984 113.982 11.24C114.312 11.4853 114.723 11.608 115.214 11.608C115.726 11.608 116.12 11.512 116.398 11.32C116.686 11.1173 116.83 10.8613 116.83 10.552C116.83 10.2213 116.67 9.976 116.35 9.816C116.04 9.656 115.544 9.48 114.862 9.288C114.2 9.10667 113.662 8.93067 113.246 8.76C112.83 8.58933 112.467 8.328 112.158 7.976C111.859 7.624 111.71 7.16 111.71 6.584C111.71 6.11467 111.848 5.688 112.126 5.304C112.403 4.90933 112.798 4.6 113.31 4.376C113.832 4.152 114.43 4.04 115.102 4.04C116.104 4.04 116.91 4.296 117.518 4.808C118.136 5.30933 118.467 5.99733 118.51 6.872H116.686C116.654 6.47733 116.494 6.16267 116.206 5.928C115.918 5.69333 115.528 5.576 115.038 5.576C114.558 5.576 114.19 5.66667 113.934 5.848C113.678 6.02933 113.55 6.26933 113.55 6.568C113.55 6.80267 113.635 7 113.806 7.16C113.976 7.32 114.184 7.448 114.43 7.544C114.675 7.62933 115.038 7.74133 115.518 7.88C116.158 8.05067 116.68 8.22667 117.086 8.408C117.502 8.57867 117.859 8.83467 118.158 9.176C118.456 9.51733 118.611 9.97067 118.622 10.536C118.622 11.0373 118.483 11.4853 118.206 11.88C117.928 12.2747 117.534 12.584 117.022 12.808C116.52 13.032 115.928 13.144 115.246 13.144ZM125.105 4.04C125.777 4.04 126.374 4.184 126.897 4.472C127.43 4.76 127.846 5.18667 128.145 5.752C128.454 6.31733 128.609 7 128.609 7.8V13H126.801V8.072C126.801 7.28267 126.603 6.68 126.209 6.264C125.814 5.83733 125.275 5.624 124.593 5.624C123.91 5.624 123.366 5.83733 122.961 6.264C122.566 6.68 122.369 7.28267 122.369 8.072V13H120.545V1.16H122.369V5.208C122.678 4.83467 123.067 4.54667 123.537 4.344C124.017 4.14133 124.539 4.04 125.105 4.04ZM130.279 8.552C130.279 7.66667 130.461 6.88267 130.823 6.2C131.197 5.51733 131.698 4.98933 132.327 4.616C132.967 4.232 133.671 4.04 134.439 4.04C135.133 4.04 135.735 4.17867 136.247 4.456C136.77 4.72267 137.186 5.05867 137.495 5.464V4.184H139.335V13H137.495V11.688C137.186 12.104 136.765 12.4507 136.231 12.728C135.698 13.0053 135.09 13.144 134.407 13.144C133.65 13.144 132.957 12.952 132.327 12.568C131.698 12.1733 131.197 11.6293 130.823 10.936C130.461 10.232 130.279 9.43733 130.279 8.552ZM137.495 8.584C137.495 7.976 137.367 7.448 137.111 7C136.866 6.552 136.541 6.21067 136.135 5.976C135.73 5.74133 135.293 5.624 134.823 5.624C134.354 5.624 133.917 5.74133 133.511 5.976C133.106 6.2 132.775 6.536 132.519 6.984C132.274 7.42133 132.151 7.944 132.151 8.552C132.151 9.16 132.274 9.69333 132.519 10.152C132.775 10.6107 133.106 10.9627 133.511 11.208C133.927 11.4427 134.365 11.56 134.823 11.56C135.293 11.56 135.73 11.4427 136.135 11.208C136.541 10.9733 136.866 10.632 137.111 10.184C137.367 9.72533 137.495 9.192 137.495 8.584Z" fill="#48C78E"/>
</svg>
