<svg width="24" height="24" viewBox="0 0 24 24" fill="none" xmlns="http://www.w3.org/2000/svg">
<path d="M5.02998 11.2712C5.02998 11.2712 12.4602 8.11017 15.0371 6.99708C16.025 6.55188 19.375 5.12711 19.375 5.12711C19.375 5.12711 20.9212 4.50384 20.7924 6.01758C20.7494 6.64092 20.4058 8.82248 20.0622 11.1822C19.5468 14.5214 18.9885 18.1722 18.9885 18.1722C18.9885 18.1722 18.9026 19.1963 18.1725 19.3744C17.4423 19.5524 16.2397 18.7511 16.025 18.5729C15.8532 18.4394 12.8038 16.4359 11.6871 15.4564C11.3865 15.1892 11.0429 14.655 11.73 14.0317C13.2762 12.5624 15.123 10.737 16.2397 9.57942C16.7551 9.04512 17.2705 7.7985 15.123 9.31223C12.0737 11.4939 9.06722 13.5419 9.06722 13.5419C9.06722 13.5419 8.38001 13.9871 7.09154 13.5864C5.80302 13.1857 4.29979 12.6514 4.29979 12.6514C4.29979 12.6514 3.26907 11.9836 5.02998 11.2712Z" fill="white"/>
</svg>
