<svg width="24" height="24" viewBox="0 0 24 24" fill="none" xmlns="http://www.w3.org/2000/svg">
<path fill-rule="evenodd" clip-rule="evenodd" d="M19.3138 3.77977C19.081 3.77977 18.8577 3.87079 18.6931 4.03282L10.8897 11.713L10.4759 13.3421L12.1312 12.9348L19.9346 5.25468C20.0992 5.09266 20.1917 4.8729 20.1917 4.64375C20.1917 4.41461 20.0992 4.19485 19.9346 4.03282C19.7699 3.87079 19.5467 3.77977 19.3138 3.77977ZM17.4144 2.77434C17.9182 2.27854 18.6014 2 19.3138 2C20.0262 2 20.7095 2.27854 21.2132 2.77434C21.717 3.27014 22 3.94259 22 4.64375C22 5.34492 21.717 6.01737 21.2132 6.51317L13.2328 14.3676C13.1169 14.4816 12.9717 14.5626 12.8128 14.6017L9.45256 15.4285C9.14445 15.5043 8.81851 15.4154 8.59394 15.1944C8.36936 14.9734 8.27908 14.6526 8.35611 14.3493L9.19616 11.0422C9.2359 10.8857 9.31811 10.7428 9.43398 10.6288L17.4144 2.77434ZM2.79447 4.98427C3.30315 4.48361 3.99308 4.20235 4.71248 4.20235H11.0416C11.5409 4.20235 11.9458 4.60076 11.9458 5.09223C11.9458 5.5837 11.5409 5.98211 11.0416 5.98211H4.71248C4.47268 5.98211 4.2427 6.07587 4.07314 6.24275C3.90358 6.40964 3.80832 6.63598 3.80832 6.872V19.3304C3.80832 19.5664 3.90358 19.7927 4.07314 19.9596C4.2427 20.1265 4.47268 20.2202 4.71248 20.2202H17.3707C17.6105 20.2202 17.8405 20.1265 18.01 19.9596C18.1796 19.7927 18.2749 19.5664 18.2749 19.3304V13.1012C18.2749 12.6097 18.6797 12.2113 19.179 12.2113C19.6784 12.2113 20.0832 12.6097 20.0832 13.1012V19.3304C20.0832 20.0384 19.7974 20.7174 19.2887 21.2181C18.78 21.7187 18.0901 22 17.3707 22H4.71248C3.99309 22 3.30316 21.7187 2.79447 21.2181C2.28578 20.7174 2 20.0384 2 19.3304V6.872C2 6.16396 2.28578 5.48492 2.79447 4.98427Z" fill="currentColor"/>
</svg>
