<svg width="86" height="40" viewBox="0 0 86 40" fill="none" xmlns="http://www.w3.org/2000/svg">
<path d="M10.3248 4.34615L14.2185 21.6538H11.1286L10.3248 18.0192H3.79328L2.93917 21.6538H0L3.99425 4.34615H10.3248ZM9.79722 15.4231L7.93826 7.11538H6.28027L4.32083 15.4231H9.79722ZM27.152 4.34615V7.11538H18.8369V11.6154H26.9008V14.3352H18.8369V21.6538H15.8224V4.34615H27.152ZM33.0803 18.8846V7.11538H29.0107V4.34615H40.1645V7.11538H36.0949V18.8846H40.1645V21.6538H29.0107V18.8846H33.0803ZM41.6191 15.4725H44.5583V16.4615C44.5583 16.9808 44.6337 17.4258 44.8346 17.772C45.0356 18.1181 45.2868 18.4148 45.6385 18.6374C45.9902 18.8599 46.3922 19.033 46.8694 19.1319C47.3468 19.2308 47.8743 19.2802 48.4772 19.2802C49.7333 19.2802 50.6627 19.0824 51.2153 18.6868C51.768 18.2912 52.0695 17.6484 52.0695 16.7335C52.0695 16.0412 51.8685 15.522 51.5168 15.1264C51.1651 14.7308 50.5873 14.4588 49.7835 14.3104L45.9651 13.4945C44.5081 13.1978 43.453 12.6538 42.7998 11.8379C42.1467 11.022 41.8452 10.0577 41.8452 8.92033C41.8452 8.22802 41.9708 7.58516 42.2472 6.99176C42.4984 6.39835 42.9003 5.87912 43.4279 5.43407C43.9554 4.98901 44.6337 4.64286 45.4375 4.3956C46.2414 4.14835 47.1709 4 48.226 4C49.2811 4 50.2356 4.12363 51.0646 4.37088C51.8685 4.61813 52.5468 4.96429 53.0994 5.40934C53.627 5.8544 54.0289 6.3489 54.3052 6.94231C54.5816 7.53571 54.7323 8.15385 54.7323 8.82143V10.1813H51.7931V9.51374C51.7931 8.96978 51.6926 8.5 51.5168 8.12912C51.3158 7.75824 51.0646 7.46154 50.738 7.23901C50.4115 7.04121 50.0347 6.89286 49.5825 6.79396C49.1303 6.69506 48.6782 6.6456 48.1757 6.6456C47.7236 6.6456 47.2965 6.69505 46.8946 6.76923C46.4926 6.84341 46.1661 6.96703 45.8646 7.14011C45.5632 7.31319 45.3119 7.53571 45.1361 7.83242C44.9603 8.12912 44.8849 8.47527 44.8849 8.8956C44.8849 9.14286 44.91 9.39011 44.9602 9.61264C45.0105 9.85989 45.111 10.0577 45.2868 10.2308C45.4375 10.4286 45.6636 10.5769 45.9651 10.7253C46.2665 10.8736 46.6685 10.9973 47.1709 11.0962L50.7883 11.8132C52.1951 12.1099 53.2753 12.6291 54.0289 13.4203C54.7574 14.2115 55.1342 15.25 55.1342 16.5852C55.1342 17.4011 54.9835 18.1429 54.7072 18.8104C54.4057 19.478 53.9787 20.0467 53.426 20.5165C52.8482 20.9863 52.1448 21.3571 51.2907 21.6044C50.4366 21.8764 49.482 22 48.3767 22C47.0704 22 45.9902 21.8516 45.1361 21.5302C44.282 21.2335 43.5786 20.8379 43.0762 20.3434C42.5486 19.8489 42.1718 19.3049 41.9457 18.7115C41.7196 18.1181 41.6191 17.5494 41.6191 16.9808V15.4725ZM60.174 4.34615V11.467H67.1577V4.34615H70.1722V21.6538H67.1577V14.2363H60.174V21.6538H57.1595V4.34615H60.174ZM82.1062 4.34615L86 21.6538H82.9101L82.1062 18.0192H75.5747L74.7206 21.6538H71.7815L75.7757 4.34615H82.1062ZM81.5787 15.4231L79.7197 7.11538H78.0617L76.1023 15.4231H81.5787Z" fill="#48C78E"/>
<path d="M62.7285 34.3628H65.9513V33.1787H62.7285V34.3628Z" fill="white"/>
<path d="M67.9357 30.2536V35.9651H66.6964V30.4625L66.5189 30.2536H62.1622L61.9853 30.4625V35.9651H60.7812V30.2536H61.8083L61.9853 30.0098V29.0347H66.6964V30.0098L66.8733 30.2536H67.9357Z" fill="white"/>
<path d="M33.1896 35.9651V34.781H27.5578V33.0745H32.3041V31.8904H27.5578V30.2188H33.1896V29.0347H26.3535V30.2188V34.781V35.9651H27.5578H33.1896Z" fill="white"/>
<path d="M53.1298 34.9899V35.9651H59.116V34.781H53.3068L53.1651 34.572V29.0347H51.9258V34.781H52.9528L53.1298 34.9899Z" fill="white"/>
<path d="M43.5664 35.9651H44.8062H50.4379V34.781H44.8062V33.3183L44.9478 33.0745H49.5525V31.8904H44.9478L44.8062 31.6815V30.2188H50.4379V29.0347H43.5664V30.2188V31.8904H44.629L44.8062 32.1342V32.8656L44.629 33.1094H43.5664V34.781V35.9651Z" fill="white"/>
<path d="M10.1301 35.9651H16.1161V34.781H10.1301V33.3183L10.3072 33.0745H15.2306V31.8904H10.3072L10.1301 31.6815V30.2188H16.1161V29.0347H10.1301H9.28003H8.92584V31.8904H9.95302L10.1301 32.1342V32.8656L9.95302 33.0745H8.92584V35.9651H9.28003H10.1301Z" fill="white"/>
<path fill-rule="evenodd" clip-rule="evenodd" d="M84.9727 30.2188H85.9997V34.781H84.9727L84.7952 35.0248V35.9651H79.6596V35.0248L79.4826 34.781H78.4551V30.2188H79.4826L79.6596 29.975V29.0347H84.7952V29.975L84.9727 30.2188ZM79.6596 34.572L79.8366 34.8158H84.6183L84.7952 34.6069V30.4277L84.6183 30.2188H79.8366L79.6596 30.4277V34.572Z" fill="white"/>
<path fill-rule="evenodd" clip-rule="evenodd" d="M18.5949 35.9651H17.3906V30.2188H18.4178L18.5949 30.0098V29.0347H23.6954V30.0098L23.8725 30.2188H24.8997V32.4825H23.8725L23.6954 32.7262V33.6666H22.4203L24.1205 34.9899V35.9651H23.1641L21.4993 34.6765V33.6666H18.5949V35.9651ZM23.5537 32.5173L23.6954 32.3083V30.4625L23.5183 30.2188H18.772L18.5949 30.4625V32.5173H23.5537Z" fill="white"/>
<path fill-rule="evenodd" clip-rule="evenodd" d="M34.6758 35.9651V29.0347H35.88H40.6972V30.0098L40.8743 30.2188H41.9015V34.781H40.8743L40.6972 34.9899V35.9651H34.6758ZM35.88 34.781H40.5201L40.6972 34.572V30.4277L40.5201 30.2188H35.88V34.781Z" fill="white"/>
<path d="M75.799 34.781H74.7715L74.5945 34.5372V33.3531L72.611 30.2188H72.0796L71.9026 30.0098V29.0347H70.6981H69.4941V30.2188V35.9651H70.6981V30.2188H71.7257L71.9026 30.4277V31.577L73.9572 34.781H74.4175L74.5945 34.9899V35.9651H75.799H75.8343H77.003V29.0347H75.799V34.781Z" fill="white"/>
<path fill-rule="evenodd" clip-rule="evenodd" d="M7.5445 29V33.6319H1.2043V36H0V29H7.5445ZM6.3402 30.1841H1.2043V32.4478H6.3402V30.1841Z" fill="white"/>
</svg>
