<svg width="14" height="17" viewBox="0 0 14 17" fill="none" xmlns="http://www.w3.org/2000/svg">
<path d="M11.8778 6H10.5V3.75C10.5 2.75544 10.1049 1.80161 9.40165 1.09835C8.69839 0.395088 7.74456 0 6.75 0C5.75544 0 4.80161 0.395088 4.09835 1.09835C3.39509 1.80161 3 2.75544 3 3.75V6H1.62225C1.19219 6.0006 0.779905 6.1717 0.475803 6.4758C0.171702 6.77991 0.000595246 7.19219 0 7.62225V14.8778C0.000595246 15.3078 0.171702 15.7201 0.475803 16.0242C0.779905 16.3283 1.19219 16.4994 1.62225 16.5H11.8778C12.3078 16.4994 12.7201 16.3283 13.0242 16.0242C13.3283 15.7201 13.4994 15.3078 13.5 14.8778V7.62225C13.4994 7.19219 13.3283 6.77991 13.0242 6.4758C12.7201 6.1717 12.3078 6.0006 11.8778 6ZM4.5 3.75C4.5 3.15326 4.73705 2.58097 5.15901 2.15901C5.58097 1.73705 6.15326 1.5 6.75 1.5C7.34674 1.5 7.91903 1.73705 8.34099 2.15901C8.76295 2.58097 9 3.15326 9 3.75V6H4.5V3.75ZM12 14.8778C12 14.9102 11.9871 14.9413 11.9642 14.9642C11.9413 14.9871 11.9102 15 11.8778 15H1.62225C1.58983 15 1.55873 14.9871 1.53581 14.9642C1.51288 14.9413 1.5 14.9102 1.5 14.8778V7.62225C1.5 7.58983 1.51288 7.55873 1.53581 7.53581C1.55873 7.51288 1.58983 7.5 1.62225 7.5H11.8778C11.9102 7.5 11.9413 7.51288 11.9642 7.53581C11.9871 7.55873 12 7.58983 12 7.62225V14.8778Z" fill="currentColor"/>
</svg>
