<svg width="86" height="40" viewBox="0 0 86 40" fill="none" xmlns="http://www.w3.org/2000/svg">
<g clip-path="url(#clip0_1163_1119)">
<path d="M10.3248 4.34615L14.2185 21.6538H11.1286L10.3248 18.0192H3.79328L2.93917 21.6538H0L3.99425 4.34615H10.3248ZM9.79722 15.4231L7.93826 7.11538H6.28027L4.32083 15.4231H9.79722ZM27.152 4.34615V7.11538H18.8369V11.6154H26.9008V14.3352H18.8369V21.6538H15.8224V4.34615H27.152ZM33.0803 18.8846V7.11538H29.0107V4.34615H40.1645V7.11538H36.0949V18.8846H40.1645V21.6538H29.0107V18.8846H33.0803ZM41.6191 15.4725H44.5583V16.4615C44.5583 16.9808 44.6337 17.4258 44.8346 17.772C45.0356 18.1181 45.2868 18.4148 45.6385 18.6374C45.9902 18.8599 46.3922 19.033 46.8694 19.1319C47.3468 19.2308 47.8743 19.2802 48.4772 19.2802C49.7333 19.2802 50.6627 19.0824 51.2153 18.6868C51.768 18.2912 52.0695 17.6484 52.0695 16.7335C52.0695 16.0412 51.8685 15.522 51.5168 15.1264C51.1651 14.7308 50.5873 14.4588 49.7835 14.3104L45.9651 13.4945C44.5081 13.1978 43.453 12.6538 42.7998 11.8379C42.1467 11.022 41.8452 10.0577 41.8452 8.92033C41.8452 8.22802 41.9708 7.58516 42.2472 6.99176C42.4984 6.39835 42.9003 5.87912 43.4279 5.43407C43.9554 4.98901 44.6337 4.64286 45.4375 4.3956C46.2414 4.14835 47.1709 4 48.226 4C49.2811 4 50.2356 4.12363 51.0646 4.37088C51.8685 4.61813 52.5468 4.96429 53.0994 5.40934C53.627 5.8544 54.0289 6.3489 54.3052 6.94231C54.5816 7.53571 54.7323 8.15385 54.7323 8.82143V10.1813H51.7931V9.51374C51.7931 8.96978 51.6926 8.5 51.5168 8.12912C51.3158 7.75824 51.0646 7.46154 50.738 7.23901C50.4115 7.04121 50.0347 6.89286 49.5825 6.79396C49.1303 6.69506 48.6782 6.6456 48.1757 6.6456C47.7236 6.6456 47.2965 6.69505 46.8946 6.76923C46.4926 6.84341 46.1661 6.96703 45.8646 7.14011C45.5632 7.31319 45.3119 7.53571 45.1361 7.83242C44.9603 8.12912 44.8849 8.47527 44.8849 8.8956C44.8849 9.14286 44.91 9.39011 44.9602 9.61264C45.0105 9.85989 45.111 10.0577 45.2868 10.2308C45.4375 10.4286 45.6636 10.5769 45.9651 10.7253C46.2665 10.8736 46.6685 10.9973 47.1709 11.0962L50.7883 11.8132C52.1951 12.1099 53.2753 12.6291 54.0289 13.4203C54.7574 14.2115 55.1342 15.25 55.1342 16.5852C55.1342 17.4011 54.9835 18.1429 54.7072 18.8104C54.4057 19.478 53.9787 20.0467 53.426 20.5165C52.8482 20.9863 52.1448 21.3571 51.2907 21.6044C50.4366 21.8764 49.482 22 48.3767 22C47.0704 22 45.9902 21.8516 45.1361 21.5302C44.282 21.2335 43.5786 20.8379 43.0762 20.3434C42.5486 19.8489 42.1718 19.3049 41.9457 18.7115C41.7196 18.1181 41.6191 17.5494 41.6191 16.9808V15.4725ZM60.174 4.34615V11.467H67.1577V4.34615H70.1722V21.6538H67.1577V14.2363H60.174V21.6538H57.1595V4.34615H60.174ZM82.1062 4.34615L86 21.6538H82.9101L82.1062 18.0192H75.5747L74.7206 21.6538H71.7815L75.7757 4.34615H82.1062ZM81.5787 15.4231L79.7197 7.11538H78.0617L76.1023 15.4231H81.5787Z" fill="#48C78E"/>
<path d="M62.7292 34.3628H65.952V33.1787H62.7292V34.3628Z" fill="black"/>
<path d="M67.9359 30.2536V35.9651H66.6966V30.4625L66.5191 30.2536H62.1625L61.9855 30.4625V35.9651H60.7815V30.2536H61.8085L61.9855 30.0098V29.0347H66.6966V30.0098L66.8736 30.2536H67.9359Z" fill="black"/>
<path d="M33.1889 35.9651V34.781H27.5571V33.0745H32.3034V31.8904H27.5571V30.2188H33.1889V29.0347H26.3528V30.2188V34.781V35.9651H27.5571H33.1889Z" fill="black"/>
<path d="M53.13 34.9899V35.9651H59.1162V34.781H53.307L53.1653 34.572V29.0347H51.926V34.781H52.9531L53.13 34.9899Z" fill="black"/>
<path d="M43.5674 35.9651H44.8071H50.4389V34.781H44.8071V33.3183L44.9488 33.0745H49.5534V31.8904H44.9488L44.8071 31.6815V30.2188H50.4389V29.0347H43.5674V30.2188V31.8904H44.63L44.8071 32.1342V32.8656L44.63 33.1094H43.5674V34.781V35.9651Z" fill="black"/>
<path d="M10.13 35.9651H16.116V34.781H10.13V33.3183L10.3072 33.0745H15.2305V31.8904H10.3072L10.13 31.6815V30.2188H16.116V29.0347H10.13H9.27997H8.92578V31.8904H9.95296L10.13 32.1342V32.8656L9.95296 33.0745H8.92578V35.9651H9.27997H10.13Z" fill="black"/>
<path fill-rule="evenodd" clip-rule="evenodd" d="M84.9732 30.2188H86.0002V34.781H84.9732L84.7957 35.0248V35.9651H79.6601V35.0248L79.4831 34.781H78.4556V30.2188H79.4831L79.6601 29.975V29.0347H84.7957V29.975L84.9732 30.2188ZM79.6601 34.572L79.837 34.8158H84.6187L84.7957 34.6069V30.4277L84.6187 30.2188H79.837L79.6601 30.4277V34.572Z" fill="black"/>
<path fill-rule="evenodd" clip-rule="evenodd" d="M18.5954 35.9651H17.3911V30.2188H18.4183L18.5954 30.0098V29.0347H23.6959V30.0098L23.873 30.2188H24.9002V32.4825H23.873L23.6959 32.7262V33.6666H22.4208L24.1209 34.9899V35.9651H23.1646L21.4998 34.6765V33.6666H18.5954V35.9651ZM23.5542 32.5173L23.6959 32.3083V30.4625L23.5188 30.2188H18.7725L18.5954 30.4625V32.5173H23.5542Z" fill="black"/>
<path fill-rule="evenodd" clip-rule="evenodd" d="M34.676 35.9651V29.0347H35.8803H40.6974V30.0098L40.8745 30.2188H41.9017V34.781H40.8745L40.6974 34.9899V35.9651H34.676ZM35.8803 34.781H40.5204L40.6974 34.572V30.4277L40.5204 30.2188H35.8803V34.781Z" fill="black"/>
<path d="M75.7992 34.781H74.7717L74.5947 34.5372V33.3531L72.6113 30.2188H72.0799L71.9029 30.0098V29.0347H70.6984H69.4944V30.2188V35.9651H70.6984V30.2188H71.7259L71.9029 30.4277V31.577L73.9574 34.781H74.4178L74.5947 34.9899V35.9651H75.7992H75.8345H77.0032V29.0347H75.7992V34.781Z" fill="black"/>
<path fill-rule="evenodd" clip-rule="evenodd" d="M7.5445 29V33.6319H1.2043V36H0V29H7.5445ZM6.3402 30.1841H1.2043V32.4478H6.3402V30.1841Z" fill="black"/>
</g>
<defs>
<clipPath id="clip0_1163_1119">
<rect width="86" height="40" fill="white" transform="translate(0.000976562)"/>
</clipPath>
</defs>
</svg>
