<svg width="24" height="24" viewBox="0 0 24 24" fill="none" xmlns="http://www.w3.org/2000/svg">
<path d="M4.98093 11.097C4.98093 11.097 12.0574 8.02377 14.5116 6.9416C15.4524 6.50877 18.6429 5.12358 18.6429 5.12358C18.6429 5.12358 20.1155 4.51762 19.9927 5.98931C19.9518 6.59533 19.6246 8.7163 19.2974 11.0105C18.8065 14.2569 18.2747 17.8063 18.2747 17.8063C18.2747 17.8063 18.1929 18.8019 17.4976 18.9751C16.8022 19.1482 15.6569 18.3691 15.4524 18.1959C15.2887 18.0661 12.3846 16.1182 11.3211 15.1659C11.0347 14.9062 10.7075 14.3868 11.3619 13.7808C12.8345 12.3523 14.5934 10.5776 15.6569 9.45221C16.1477 8.93275 16.6386 7.72076 14.5934 9.19245C11.6892 11.3135 8.82592 13.3046 8.82592 13.3046C8.82592 13.3046 8.17144 13.7375 6.94433 13.3479C5.71716 12.9584 4.28552 12.4389 4.28552 12.4389C4.28552 12.4389 3.30388 11.7896 4.98093 11.097Z" fill="currentColor"/>
</svg>
