<svg width="24" height="24" viewBox="0 0 24 24" fill="none" xmlns="http://www.w3.org/2000/svg">
<path fill-rule="evenodd" clip-rule="evenodd" d="M9.96143 4C9.66419 4 9.39759 4.10723 9.21618 4.2705C9.03824 4.43064 8.96143 4.62386 8.96143 4.8V5.66876H14.9614V4.8C14.9614 4.62386 14.8846 4.43064 14.7067 4.2705C14.5253 4.10723 14.2587 4 13.9614 4H9.96143ZM16.9614 5.66876V4.8C16.9614 4.02136 16.6168 3.2989 16.0446 2.78391C15.4759 2.27205 14.7251 2 13.9614 2H9.96143C9.19779 2 8.44698 2.27205 7.87825 2.78391C7.30604 3.2989 6.96143 4.02136 6.96143 4.8V5.66876H5.32657C5.21346 5.62437 5.09029 5.6 4.96143 5.6C4.83256 5.6 4.7094 5.62437 4.59628 5.66876H3C2.44772 5.66876 2 6.11648 2 6.66876C2 7.22105 2.44772 7.66876 3 7.66876H3.96143V19.2C3.96143 19.9786 4.30604 20.7011 4.87825 21.2161C5.44698 21.7279 6.19779 22 6.96143 22H16.9614C17.7251 22 18.4759 21.7279 19.0446 21.2161C19.6168 20.7011 19.9614 19.9786 19.9614 19.2V7.66876H21C21.5523 7.66876 22 7.22105 22 6.66876C22 6.11648 21.5523 5.66876 21 5.66876H19.3266C19.2135 5.62437 19.0903 5.6 18.9614 5.6C18.8326 5.6 18.7094 5.62437 18.5963 5.66876H16.9614ZM17.9614 7.66876H5.96143V19.2C5.96143 19.3761 6.03824 19.5694 6.21618 19.7295C6.39759 19.8928 6.66419 20 6.96143 20H16.9614C17.2587 20 17.5253 19.8928 17.7067 19.7295C17.8846 19.5694 17.9614 19.3761 17.9614 19.2V7.66876ZM10 9.66876C10.5523 9.66876 11 10.1165 11 10.6688V16.6688C11 17.221 10.5523 17.6688 10 17.6688C9.44772 17.6688 9 17.221 9 16.6688V10.6688C9 10.1165 9.44772 9.66876 10 9.66876ZM14 9.66876C14.5523 9.66876 15 10.1165 15 10.6688V16.6688C15 17.221 14.5523 17.6688 14 17.6688C13.4477 17.6688 13 17.221 13 16.6688V10.6688C13 10.1165 13.4477 9.66876 14 9.66876Z" fill="currentColor"/>
</svg>
