<svg width="24" height="24" viewBox="0 0 24 24" fill="none" xmlns="http://www.w3.org/2000/svg">
<circle cx="12" cy="12" r="10" fill="#FF9500"/>
<path d="M14.61 11.5389C14.9473 11.2141 15.1843 10.7992 15.2926 10.3437C15.401 9.88809 15.3762 9.41099 15.2212 8.96909C15.0663 8.5272 14.7876 8.13911 14.4185 7.851C14.0493 7.56288 13.6052 7.38687 13.1389 7.34389V6.44444C13.1389 6.32657 13.0921 6.21352 13.0087 6.13017C12.9254 6.04683 12.8123 6 12.6944 6C12.5766 6 12.4635 6.04683 12.3802 6.13017C12.2968 6.21352 12.25 6.32657 12.25 6.44444V7.33333H11.3611V6.44444C11.3611 6.32657 11.3143 6.21352 11.2309 6.13017C11.1476 6.04683 11.0345 6 10.9167 6C10.7988 6 10.6857 6.04683 10.6024 6.13017C10.519 6.21352 10.4722 6.32657 10.4722 6.44444V7.33333H8.69444C8.57657 7.33333 8.46352 7.38016 8.38017 7.46351C8.29683 7.54686 8.25 7.6599 8.25 7.77778C8.25 7.89565 8.29683 8.0087 8.38017 8.09205C8.46352 8.1754 8.57657 8.22222 8.69444 8.22222H9.13889V15.7778H8.69444C8.57657 15.7778 8.46352 15.8246 8.38017 15.908C8.29683 15.9913 8.25 16.1043 8.25 16.2222C8.25 16.3401 8.29683 16.4531 8.38017 16.5365C8.46352 16.6198 8.57657 16.6667 8.69444 16.6667H10.4722V17.5556C10.4722 17.6734 10.519 17.7865 10.6024 17.8698C10.6857 17.9532 10.7988 18 10.9167 18C11.0345 18 11.1476 17.9532 11.2309 17.8698C11.3143 17.7865 11.3611 17.6734 11.3611 17.5556V16.6667H12.25V17.5556C12.25 17.6734 12.2968 17.7865 12.3802 17.8698C12.4635 17.9532 12.5766 18 12.6944 18C12.8123 18 12.9254 17.9532 13.0087 17.8698C13.0921 17.7865 13.1389 17.6734 13.1389 17.5556V16.6667H13.5833C14.1997 16.6667 14.797 16.4531 15.2738 16.0624C15.7505 15.6717 16.0771 15.1279 16.1981 14.5235C16.3191 13.9191 16.227 13.2915 15.9375 12.7474C15.648 12.2032 15.1789 11.7762 14.61 11.5389ZM14.4722 9.77778C14.4722 10.1903 14.3083 10.586 14.0166 10.8777C13.7249 11.1694 13.3292 11.3333 12.9167 11.3333H10.0278V8.22222H12.9167C13.3292 8.22222 13.7249 8.38611 14.0166 8.67783C14.3083 8.96956 14.4722 9.36522 14.4722 9.77778ZM13.5833 15.7778H10.0278V12.2222H13.5833C14.0548 12.2222 14.507 12.4095 14.8404 12.7429C15.1738 13.0763 15.3611 13.5285 15.3611 14C15.3611 14.4715 15.1738 14.9237 14.8404 15.2571C14.507 15.5905 14.0548 15.7778 13.5833 15.7778Z" fill="white"/>
</svg>
