<svg width="24" height="24" viewBox="0 0 24 24" fill="none" xmlns="http://www.w3.org/2000/svg">
<circle cx="12" cy="12" r="10" fill="#37D7AF"/>
<path d="M13.4047 9.99216V8.44357H17.0389V6H6.95091V8.44357H10.5953V9.99216C7.54214 10.1345 5.25 10.7287 5.25 11.4405C5.25 12.1523 7.53959 12.7427 10.5953 12.8888V18H13.4047V12.8888C16.4579 12.7477 18.75 12.1535 18.75 11.4405C18.75 10.7275 16.4604 10.1345 13.4047 9.99216ZM12 12.4258C8.69396 12.4258 6.01362 11.9307 6.01362 11.334C6.01362 10.8203 7.96609 10.3895 10.5928 10.2744V12.0235C11.0448 12.0433 11.5148 12.0545 11.9974 12.0545C12.4801 12.0545 12.9526 12.0433 13.4021 12.0235V10.2744C16.0288 10.3895 17.9813 10.8203 17.9813 11.334C17.9864 11.9369 15.306 12.4258 12 12.4258Z" fill="white"/>
</svg>
